<svg width="591" height="375" viewBox="0 0 591 375" fill="none" xmlns="http://www.w3.org/2000/svg">
<path d="M252.768 204.985L246.119 207.23L252.768 209.475V213.188L241.543 209.13V205.244L252.768 201.186V204.985Z" fill="#2E2E46"/>
<path d="M260.366 196.437H264.77L257.517 217.16H253.113L260.366 196.437Z" fill="#2E2E46"/>
<path d="M275.995 205.244V209.13L264.771 213.188V209.475L271.419 207.23L264.771 204.985V201.272L275.995 205.244Z" fill="#2E2E46"/>
<path d="M373.133 133.663C371.838 161.898 344.121 183.485 323.311 184.78C295.854 186.507 276.253 161.726 273.49 133.663C271.159 109.314 279.793 109.659 286.183 99.5568C293.954 87.2957 308.546 80.4743 323.225 80.4743C350.856 80.4743 374.86 95.7576 373.133 133.663Z" fill="#D43B5E"/>
<path d="M342.653 182.19H304.057V230.457H342.653V182.19Z" fill="#F2B5AA"/>
<path d="M366.744 154.041C373.651 143.593 382.372 143.161 385.999 155.509C389.625 167.856 377.623 178.045 367.78 174.246C357.936 170.447 366.744 154.041 366.744 154.041Z" fill="#F2B5AA"/>
<path d="M374.86 154.3C379.437 153.437 381.854 167.166 371.752 167.684L373.824 162.848L371.838 158.876L374.86 154.3Z" fill="#EC8F98"/>
<path d="M370.371 169.67L370.025 169.411C375.724 163.366 371.752 159.135 371.666 159.049L371.58 158.963L371.666 158.79C371.752 158.531 374.688 152.659 377.278 152.659C377.365 152.659 377.365 152.659 377.451 152.659C378.574 152.746 379.351 153.955 379.955 156.113L379.523 156.2C379.005 154.214 378.315 153.178 377.451 153.005C375.552 152.832 373.047 156.977 372.184 158.79C372.702 159.567 375.724 163.798 370.371 169.67Z" fill="#DE7F84"/>
<path d="M279.707 154.041C272.8 143.593 264.079 143.161 260.452 155.509C256.826 167.856 268.828 178.045 278.671 174.246C288.515 170.447 279.707 154.041 279.707 154.041Z" fill="#F2B5AA"/>
<path d="M271.591 154.3C267.015 153.437 264.597 167.166 274.7 167.684L272.627 162.848L274.613 158.876L271.591 154.3Z" fill="#EC8F98"/>
<path d="M276.081 169.67C270.641 163.884 273.75 159.653 274.354 158.876C273.491 157.063 270.987 152.918 269.087 153.091C268.224 153.178 267.446 154.214 267.015 156.286L266.583 156.2C267.101 154.041 267.965 152.832 269.087 152.746C271.677 152.487 274.7 158.617 274.872 158.876L274.959 159.049L274.872 159.135C274.7 159.308 270.9 163.366 276.513 169.497L276.081 169.67Z" fill="#DE7F84"/>
<path d="M342.653 183.226V201.186C328.752 220.009 304.057 213.879 304.057 213.879L304.488 183.226H342.653Z" fill="#DE7F84"/>
<path d="M323.398 203.863C300.344 203.863 281.693 185.212 281.693 162.158V131.677C281.693 116.135 294.3 103.529 309.842 103.529H336.955C352.497 103.529 365.103 116.135 365.103 131.677V162.158C365.103 185.125 346.453 203.863 323.398 203.863Z" fill="#F2B5AA"/>
<path d="M323.397 174.419C319.598 174.419 316.576 171.397 316.576 167.597H317.44C317.44 170.878 320.116 173.555 323.397 173.555C326.679 173.555 329.355 170.878 329.355 167.597H330.219C330.219 171.397 327.197 174.419 323.397 174.419Z" fill="#D43B5E"/>
<path d="M286.097 105.342C286.097 105.342 278.758 93.2535 287.91 82.5467C287.91 82.5467 294.472 94.7214 286.097 105.342Z" fill="#D43B5E"/>
<path d="M289.81 102.493C289.81 102.493 279.621 112.336 267.188 105.774C267.188 105.774 277.549 96.621 289.81 102.493Z" fill="#D43B5E"/>
<path d="M306.82 152.573C306.82 156.027 305.352 158.79 303.539 158.79C301.726 158.79 300.258 156.027 300.258 152.573C300.258 149.119 301.726 146.356 303.539 146.356C305.352 146.356 306.82 149.206 306.82 152.573Z" fill="#33334F"/>
<path d="M301.812 170.706C300.172 170.706 298.617 170.533 296.977 170.015C292.228 168.72 288.256 165.611 285.752 161.38C283.334 157.063 282.644 152.141 283.939 147.392C285.234 142.643 288.342 138.671 292.573 136.167C296.891 133.75 301.812 133.059 306.561 134.354C316.405 137.031 322.19 147.22 319.513 157.063C317.441 165.266 309.929 170.706 301.812 170.706ZM301.812 137.117C299.222 137.117 296.632 137.808 294.387 139.103C290.933 141.089 288.429 144.37 287.393 148.169C286.356 152.055 286.874 156.113 288.86 159.567C290.846 163.021 294.128 165.525 297.927 166.561C305.957 168.72 314.16 163.971 316.405 156.027C318.563 147.997 313.814 139.794 305.871 137.549C304.489 137.376 303.107 137.117 301.812 137.117Z" fill="white"/>
<path d="M346.54 152.573C346.54 156.027 345.072 158.79 343.259 158.79C341.445 158.79 339.978 156.027 339.978 152.573C339.978 149.119 341.445 146.356 343.259 146.356C345.072 146.356 346.54 149.206 346.54 152.573Z" fill="#33334F"/>
<path d="M344.898 170.619C343.258 170.619 341.617 170.36 339.977 169.929C335.228 168.633 331.256 165.525 328.838 161.208C326.42 156.89 325.816 151.969 327.111 147.133C329.788 137.29 340.063 131.505 349.82 134.268C359.663 136.945 365.449 147.22 362.686 156.977C361.39 161.726 358.282 165.698 353.965 168.115C351.202 169.842 348.093 170.619 344.898 170.619ZM344.898 137.117C338.336 137.117 332.292 141.521 330.392 148.169C328.147 156.113 332.896 164.489 340.84 166.648C344.726 167.684 348.784 167.252 352.238 165.266C355.692 163.28 358.282 160.085 359.318 156.2C361.563 148.256 356.814 139.88 348.87 137.722C347.575 137.29 346.194 137.117 344.898 137.117Z" fill="white"/>
<path d="M286.875 115.358C286.875 115.358 313.383 101.37 330.998 111.473C348.612 121.575 350.598 142.471 367.954 137.117C367.954 137.117 381.165 131.332 366.659 111.041C352.152 90.8359 342.223 86.8639 323.313 91.2676C304.317 95.6712 292.056 99.1251 286.875 115.358Z" fill="#D43B5E"/>
<path d="M285.838 115.185C285.838 115.185 294.559 103.615 306.82 100.507C319.081 97.3981 332.637 112.509 332.637 112.509C332.637 112.509 301.207 108.019 285.838 115.185Z" fill="#B22C4F"/>
<path d="M281.78 129.778C281.78 129.778 284.716 151.278 281.78 164.403C281.78 164.403 277.463 131.073 281.78 129.778Z" fill="#D43B5E"/>
<path d="M364.758 129.778C364.758 129.778 361.822 151.278 364.758 164.403C364.758 164.403 369.075 131.073 364.758 129.778Z" fill="#D43B5E"/>
<path d="M311.051 128.137C306.475 125.979 298.444 123.561 290.932 128.914C289.637 129.778 290.155 131.764 291.709 132.023C294.127 132.455 297.581 132.886 301.467 132.8C304.489 132.8 308.115 132.023 310.792 131.332C312.26 130.987 312.519 128.828 311.051 128.137Z" fill="#D43B5E"/>
<path d="M355.001 128.137C350.425 125.979 342.395 123.561 334.883 128.914C333.587 129.778 334.105 131.764 335.66 132.023C338.077 132.455 341.531 132.886 345.417 132.8C348.439 132.8 352.065 132.023 354.742 131.332C356.21 130.987 356.469 128.828 355.001 128.137Z" fill="#D43B5E"/>
<path d="M337.472 182.621C337.04 183.399 336.522 184.176 335.831 185.039C333.586 187.716 329.787 190.306 323.311 190.393H322.793C316.749 190.306 312.949 187.975 310.704 185.471C309.841 184.521 309.15 183.485 308.718 182.621C307.596 180.549 307.337 178.909 307.337 178.909L338.853 178.995C338.853 178.995 338.594 180.549 337.472 182.621Z" fill="#E13C5E"/>
<path d="M337.472 182.621C337.04 183.399 336.522 184.176 335.831 185.039C328.578 181.844 319.943 181.24 310.704 185.471C309.841 184.521 309.15 183.485 308.718 182.621C307.596 180.549 307.337 178.909 307.337 178.909L338.853 178.995C338.853 178.995 338.594 180.549 337.472 182.621Z" fill="#33334F"/>
<path d="M457.235 350.478L174.884 350.737C174.884 350.737 180.151 339.685 187.749 325.092C188.267 324.056 188.872 322.933 189.476 321.811C199.838 302.038 213.739 277.084 224.619 263.614C237.139 248.072 266.756 236.933 286.788 230.889C298.531 227.349 306.993 225.535 306.993 225.535H339.459C339.459 225.535 347.057 227.176 357.851 230.371C377.883 236.329 407.931 248.503 421.833 263.614C424.855 266.981 427.791 270.953 430.467 275.443C447.564 303.937 457.235 350.478 457.235 350.478Z" fill="#FFA14D"/>
<g opacity="0.5">
<path d="M457.235 350.478L174.884 350.737C174.884 350.737 180.151 339.685 187.749 325.092C328.666 366.538 402.837 298.67 419.847 280.279C422.61 277.343 426.409 275.53 430.381 275.443H430.467C447.564 303.937 457.235 350.478 457.235 350.478Z" fill="#F37608"/>
</g>
<path d="M327.802 153.264H318.995V156.718H327.802V153.264Z" fill="white"/>
<path d="M357.851 230.284C322.881 268.708 286.875 230.802 286.875 230.802C298.618 227.262 307.08 225.449 307.08 225.449H339.546C339.46 225.535 347.058 227.176 357.851 230.284Z" fill="#F2B5AA"/>
<path d="M247.502 306.96H244.911V350.823H247.502V306.96Z" fill="#F58300"/>
<path d="M235.5 319.163L233.459 320.759L245.21 335.794L247.251 334.199L235.5 319.163Z" fill="#F58300"/>
<path d="M401.023 306.96H398.433V350.823H401.023V306.96Z" fill="#F58300"/>
<path d="M409.14 320.699L398.676 334.11L400.718 335.704L411.183 322.293L409.14 320.699Z" fill="#F58300"/>
<path d="M324.781 261.542C320.118 261.542 315.196 260.937 310.188 259.728C295.596 256.188 284.889 248.935 284.457 248.59L285.925 246.431C286.011 246.517 296.804 253.77 310.879 257.224C329.616 261.714 345.072 257.656 356.901 245.222L358.801 247.035C349.648 256.62 338.078 261.542 324.781 261.542Z" fill="#F58300"/>
<path d="M368.558 287.791L372.098 293.317L375.724 287.791H382.459L375.379 297.893L382.718 308.427H375.897L371.839 302.729L367.953 308.427H361.305L368.471 297.893L361.65 287.791H368.558Z" fill="white"/>
<path d="M285.838 97.2254C295.595 56.2975 393.079 60.8738 374.86 140.485C369.421 164.316 329.701 86.2595 295.422 105.428C292.832 106.896 289.637 106.464 287.565 104.478C285.579 102.665 285.233 99.9022 285.838 97.2254Z" fill="#D43B5E"/>
<path d="M339.373 350.478H339.286C339.027 350.478 338.855 350.478 338.596 350.478H149.498C146.994 350.478 144.749 349.269 143.281 347.456C142.159 346.074 141.554 344.347 141.554 342.534V342.448L112.111 259.21C109.866 252.821 114.528 246.172 121.35 246.172H244.133C248.278 246.172 251.991 248.762 253.372 252.648L285.148 342.275C285.148 342.361 285.234 342.448 285.234 342.448H338.941C343.69 342.62 344.208 349.96 339.373 350.478Z" fill="#00D7D2"/>
<path d="M190.504 317.491C197.944 314.933 201.461 305.547 198.36 296.529C195.258 287.51 186.712 282.273 179.272 284.832C171.831 287.391 168.314 296.776 171.416 305.795C174.517 314.814 183.063 320.05 190.504 317.491Z" fill="white"/>
<path d="M338.768 342.62H285.061C285.061 342.62 285.061 342.534 284.975 342.448L253.286 252.821C251.904 248.935 248.192 246.345 244.047 246.345H239.902C239.902 246.345 249.055 246.949 251.386 255.152C253.718 263.355 285.061 350.391 285.061 350.391L287.393 350.564H338.596C338.855 350.564 339.114 350.564 339.286 350.564C344.208 350.046 343.69 342.62 338.768 342.62Z" fill="#2F7297"/>
<g opacity="0.4">
<path d="M339.373 350.478H339.286C339.027 350.478 338.855 350.478 338.596 350.478H149.498C146.994 350.478 144.749 349.269 143.281 347.456C255.013 357.04 244.047 246.172 244.047 246.172C248.191 246.172 251.904 248.762 253.286 252.648L285.061 342.275C285.061 342.361 285.147 342.448 285.147 342.448H337.991C338.509 345.211 338.941 347.801 339.373 350.478Z" fill="#2A93A1"/>
</g>
<path d="M114.53 295.648V298.411C109.522 299.016 108.227 303.247 108.227 308.427V310.154C108.227 315.335 109.435 319.566 114.53 320.17V322.933H18.3405C14.3686 322.933 11.1738 319.739 11.1738 315.767V302.815C11.1738 298.843 14.3686 295.648 18.3405 295.648H114.53Z" fill="#2F7297"/>
<path d="M113.061 317.321C113.665 318.702 112.543 320.17 111.075 320.17H19.2031V298.325L111.075 298.411C111.593 298.411 112.111 298.584 112.457 298.929C113.061 299.447 113.406 300.397 113.061 301.261C112.284 303.074 112.284 305.578 112.284 308.427V310.154C112.284 312.917 112.284 315.508 113.061 317.321Z" fill="white"/>
<g opacity="0.4">
<path d="M112.457 298.929C110.73 299.016 29.4787 303.247 23.8662 311.104C22.312 313.263 20.6714 314.472 19.1172 314.644V298.325L110.989 298.411C111.594 298.411 112.112 298.584 112.457 298.929Z" fill="#89D5E6"/>
</g>
<path d="M23.9526 322.933H15.8361C13.2457 322.933 11.2598 320.861 11.2598 318.357V300.311C11.2598 297.72 13.3321 295.734 15.8361 295.734H23.9526V322.933Z" fill="#2F7297"/>
<g opacity="0.4">
<path d="M113.062 317.321C113.667 318.702 112.544 320.17 111.076 320.17H92.6846C107.277 318.53 106.327 306.528 106.327 306.528C106.5 305.923 94.8432 298.929 95.0159 298.411H110.99C111.508 298.411 112.026 298.584 112.371 298.929C112.976 299.447 113.321 300.397 112.976 301.261C112.199 303.074 112.199 305.578 112.199 308.427V310.154C112.285 312.917 112.285 315.508 113.062 317.321Z" fill="#89D5E6"/>
</g>
<g opacity="0.4">
<path d="M112.285 307.65H24.0391V309.636H112.285V307.65Z" fill="#89D5E6"/>
</g>
<g opacity="0.4">
<path d="M112.285 303.247H24.0391V305.233H112.285V303.247Z" fill="#89D5E6"/>
</g>
<g opacity="0.4">
<path d="M112.285 313.349H24.0391V315.335H112.285V313.349Z" fill="#89D5E6"/>
</g>
<path d="M83.8756 316.112L79.2129 311.449L74.4639 316.112V303.247H83.8756V316.112Z" fill="#E13C5E"/>
<path d="M124.806 322.847V325.61C119.798 326.215 118.503 330.446 118.503 335.626V337.353C118.503 342.534 119.712 346.765 124.806 347.369V350.132H28.6169C24.645 350.132 21.4502 346.938 21.4502 342.966V330.014C21.4502 326.042 24.645 322.847 28.6169 322.847H124.806Z" fill="#E13C5E"/>
<path d="M123.337 344.434C123.942 345.815 122.819 347.283 121.351 347.283L29.4795 347.369V325.524L121.351 325.61C121.87 325.61 122.388 325.783 122.733 326.128C123.337 326.646 123.683 327.596 123.337 328.46C122.56 330.273 122.56 332.777 122.56 335.626V337.353C122.56 340.116 122.56 342.62 123.337 344.434Z" fill="white"/>
<g opacity="0.4">
<path d="M122.733 326.128C121.006 326.215 39.7551 330.446 34.1426 338.303C32.5884 340.462 30.9478 341.67 29.3936 341.843V325.524L121.266 325.61C121.87 325.61 122.388 325.783 122.733 326.128Z" fill="#89D5E6"/>
</g>
<path d="M34.228 350.132H26.1115C23.5211 350.132 21.5352 348.06 21.5352 345.556V327.51C21.5352 324.919 23.6075 322.933 26.1115 322.933H34.228V350.132Z" fill="#E13C5E"/>
<g opacity="0.4">
<path d="M123.338 344.434C123.942 345.815 122.82 347.283 121.352 347.283H102.96C117.552 345.642 116.603 333.64 116.603 333.64C116.775 333.036 105.119 326.042 105.291 325.524H121.265C121.783 325.524 122.301 325.697 122.647 326.042C123.251 326.56 123.597 327.51 123.251 328.373C122.474 330.186 122.474 332.691 122.474 335.54V337.267C122.56 340.116 122.56 342.62 123.338 344.434Z" fill="#89D5E6"/>
</g>
<g opacity="0.4">
<path d="M122.56 334.849H34.3145V336.835H122.56V334.849Z" fill="#89D5E6"/>
</g>
<g opacity="0.4">
<path d="M122.56 330.446H34.3145V332.431H122.56V330.446Z" fill="#89D5E6"/>
</g>
<g opacity="0.4">
<path d="M122.56 340.548H34.3145V342.534H122.56V340.548Z" fill="#89D5E6"/>
</g>
<path d="M112.975 345.038L107.967 340.116L103.045 345.038V331.395H112.975V345.038Z" fill="#E13C5E"/>
<path d="M590.553 361.962V363.948C590.553 370.078 585.632 375 579.501 375H14.7993C9.70493 375 5.38764 371.46 4.09245 366.797C3.83342 365.934 3.74707 364.984 3.74707 364.034V362.048C3.74707 355.918 8.66878 350.996 14.7993 350.996H579.501C585.632 350.91 590.553 355.831 590.553 361.962Z" fill="#3F537E"/>
<g opacity="0.5">
<path d="M590.553 361.962V363.948C590.553 370.078 585.632 375 579.501 375H14.7993C9.70493 375 5.38764 371.46 4.09245 366.797C3.83342 365.07 3.74707 364.034 3.74707 364.034C320.464 375.086 579.501 350.996 579.501 350.996C585.632 350.91 590.553 355.831 590.553 361.962Z" fill="#27273D"/>
</g>
<path d="M576.478 59.406C576.478 59.3196 576.478 59.2333 576.478 59.2333C576.478 59.1469 576.478 59.0606 576.478 59.0606C577.514 58.5425 578.55 58.0244 579.586 57.3337C580.709 56.5565 581.831 55.6931 582.867 54.7433L582.608 53.8798C582.436 52.8437 582.004 51.8939 581.659 50.9441C581.486 50.5123 581.227 49.9943 580.968 49.5625C580.795 49.0445 580.536 48.6127 580.191 48.181L579.759 47.4039C578.377 47.4039 576.909 47.5766 575.614 47.8356C574.405 48.0947 573.283 48.44 572.247 48.8718L571.988 48.6127C572.419 47.5766 572.765 46.4541 572.938 45.2452C573.197 43.9501 573.369 42.4822 573.369 41.1006L572.592 40.6689C572.16 40.4099 571.729 40.1508 571.211 39.8918C570.779 39.6328 570.261 39.4601 569.829 39.201C568.879 38.8556 567.929 38.4239 566.893 38.2512L566.03 37.9922C564.994 39.0283 564.13 40.1508 563.44 41.2733C562.749 42.3095 562.231 43.3456 561.713 44.3818C561.626 44.3818 561.54 44.3818 561.54 44.3818C561.454 44.3818 561.367 44.3818 561.367 44.3818C560.936 43.3456 560.331 42.3095 559.64 41.2733C558.863 40.1508 558 39.0283 557.05 37.9922L556.186 38.2512C555.15 38.4239 554.201 38.8556 553.251 39.201C552.819 39.3737 552.301 39.6328 551.869 39.8918C551.437 40.0645 550.919 40.3235 550.488 40.6689L549.711 41.1006C549.711 42.4822 549.883 43.9501 550.142 45.2452C550.401 46.4541 550.747 47.5766 551.178 48.6127C551.092 48.6991 551.006 48.7854 550.919 48.8718C549.883 48.44 548.674 48.0947 547.552 47.8356C546.257 47.5766 544.789 47.4039 543.407 47.4039L542.889 48.181C542.63 48.6127 542.371 49.0445 542.112 49.5625C541.939 49.9943 541.68 50.5123 541.508 50.9441C541.162 51.8939 540.731 52.8437 540.558 53.8798L540.299 54.7433C541.335 55.7794 542.457 56.6429 543.58 57.3337C544.616 58.0244 545.652 58.5425 546.688 59.0606C546.688 59.1469 546.688 59.1469 546.688 59.2333C546.688 59.3196 546.688 59.406 546.688 59.406C545.652 59.8377 544.616 60.4421 543.58 61.1329C542.457 61.91 541.335 62.7734 540.299 63.7232L540.558 64.5867C540.731 65.6229 541.162 66.5727 541.508 67.5225C541.68 67.9542 541.939 68.4723 542.112 68.904C542.285 69.3357 542.544 69.8538 542.889 70.2855L543.407 71.0626C544.789 71.0626 546.257 70.89 547.552 70.6309C548.761 70.3719 549.883 70.0265 550.919 69.5948C551.006 69.6811 551.092 69.7675 551.178 69.8538C550.747 70.89 550.401 72.0124 550.142 73.2213C549.883 74.5165 549.711 75.9844 549.711 77.3659L550.488 77.884C550.919 78.143 551.351 78.402 551.869 78.5747C552.301 78.8338 552.819 79.0065 553.251 79.2655C554.201 79.6109 555.15 80.0426 556.186 80.2153L557.05 80.4743C558 79.4382 558.95 78.3157 559.64 77.1932C560.331 76.1571 560.849 75.1209 561.367 74.0847C561.454 74.0847 561.54 74.0847 561.54 74.0847C561.626 74.0847 561.713 74.0847 561.713 74.0847C562.231 75.1209 562.749 76.1571 563.44 77.1932C564.217 78.3157 565.08 79.4382 566.03 80.4743L566.893 80.2153C567.929 80.0426 568.879 79.6109 569.829 79.2655C570.347 79.0928 570.779 78.8338 571.211 78.5747C571.642 78.402 572.16 78.143 572.592 77.884L573.369 77.3659C573.369 75.9844 573.197 74.5165 572.938 73.2213C572.679 72.0124 572.333 70.89 571.988 69.8538C572.074 69.7675 572.16 69.6811 572.247 69.5948C573.283 70.0265 574.405 70.3719 575.614 70.6309C576.909 70.89 578.377 71.0626 579.759 71.0626L580.191 70.2855C580.45 69.8538 580.709 69.4221 580.968 68.904C581.227 68.4723 581.399 67.9542 581.659 67.5225C582.004 66.5727 582.436 65.6229 582.608 64.5867L582.867 63.7232C581.831 62.7734 580.709 61.8236 579.586 61.1329C578.55 60.4421 577.514 59.8377 576.478 59.406ZM561.626 66.3136C557.654 66.3136 554.46 63.1188 554.46 59.1469C554.46 55.175 557.654 51.9802 561.626 51.9802C565.598 51.9802 568.793 55.175 568.793 59.1469C568.707 63.1188 565.512 66.3136 561.626 66.3136Z" fill="#FFA14D"/>
<path d="M504.724 117.948H501.27V117.085H504.724V117.948ZM497.816 117.948H494.363V117.085H497.816V117.948ZM493.499 115.358H492.636V111.904H493.499V115.358ZM493.499 108.45H492.636V104.997H493.499V108.45ZM493.499 101.543H492.636V98.0889H493.499V101.543ZM493.499 94.635H492.636V91.1812H493.499V94.635ZM493.499 87.7274H492.636V84.2735H493.499V87.7274ZM493.499 80.8197H492.636V77.3659H493.499V80.8197ZM493.499 73.912H492.636V70.4582H493.499V73.912ZM541.162 70.6309H537.708V69.7674H541.162V70.6309ZM534.254 70.6309H530.801V69.7674H534.254V70.6309ZM527.347 70.6309H523.893V69.7674H527.347V70.6309ZM520.439 70.6309H516.985V69.7674H520.439V70.6309ZM513.531 70.6309H510.078V69.7674H513.531V70.6309ZM506.624 70.6309H503.17V69.7674H506.624V70.6309ZM499.716 70.6309H496.262V69.7674H499.716V70.6309Z" fill="#FF7936"/>
<path d="M533.995 142.902H507.573V147.651H533.995V142.902Z" fill="white"/>
<path d="M548.242 151.623H507.573V156.372H548.242V151.623Z" fill="white"/>
<path d="M521.389 160.344H507.573V165.093H521.389V160.344Z" fill="white"/>
<path d="M540.902 160.344H527.087V165.093H540.902V160.344Z" fill="#FFA14D"/>
<path d="M565.771 160.344H545.911V165.093H565.771V160.344Z" fill="#FFA14D"/>
<path d="M565.771 151.623H553.683V156.372H565.771V151.623Z" fill="#FFA14D"/>
<path d="M565.77 142.902H539.349V147.651H565.77V142.902Z" fill="#FFA14D"/>
<path d="M575.442 112.25H574.578V164.921H575.442V112.25Z" fill="white"/>
<path d="M535.205 114.236H508.006V119.071H535.205V114.236Z" fill="white"/>
<path d="M549.797 123.216H508.006V128.051H549.797V123.216Z" fill="white"/>
<path d="M522.253 132.195H508.006V137.031H522.253V132.195Z" fill="white"/>
<path d="M542.286 132.195H528.039V137.031H542.286V132.195Z" fill="#FFA14D"/>
<path d="M567.844 132.195H547.38V137.031H567.844V132.195Z" fill="#FFA14D"/>
<path d="M567.844 123.216H555.41V128.051H567.844V123.216Z" fill="#FFA14D"/>
<path d="M567.843 114.236H540.645V119.071H567.843V114.236Z" fill="#FFA14D"/>
<path d="M473.899 23.6588H395.67V177.354H473.899V23.6588Z" fill="#13387E"/>
<path d="M463.279 56.3839H404.563V62.6007H463.279V56.3839Z" fill="white"/>
<path d="M443.419 70.1992H404.563V76.4161H443.419V70.1992Z" fill="white"/>
<path d="M463.279 70.1992H449.205V76.4161H463.279V70.1992Z" fill="#FFA14D"/>
<path d="M463.278 84.0145H426.927V90.2314H463.278V84.0145Z" fill="#FFA14D"/>
<path d="M421.574 84.0145H404.563V90.2314H421.574V84.0145Z" fill="white"/>
<path d="M435.648 97.8298H404.563V104.047H435.648V97.8298Z" fill="white"/>
<path d="M463.278 97.8299H440.396V104.047H463.278V97.8299Z" fill="#FFA14D"/>
<path d="M463.364 111.645H421.659V117.862H463.364V111.645Z" fill="#FFA14D"/>
<path d="M417.17 111.645H404.563V117.862H417.17V111.645Z" fill="white"/>
<path d="M429.776 125.461H404.563V131.677H429.776V125.461Z" fill="white"/>
<path d="M463.278 125.461H433.921V131.677H463.278V125.461Z" fill="#FFA14D"/>
<path d="M461.551 162.244V163.971L455.161 166.388V164.662L459.651 163.021L455.161 161.38V159.74L461.551 162.244Z" fill="#FFA14D"/>
<path d="M443.333 159.826V161.467L438.843 163.107L443.333 164.748V166.475L436.943 164.057V162.33L443.333 159.826Z" fill="#FFA14D"/>
<path d="M450.932 155.077H452.918L448.169 168.72H446.183L450.932 155.077Z" fill="#FFA14D"/>
<path d="M432.022 42.3095V44.6408L423.561 47.8356V45.5906L429.432 43.432L423.561 41.2733V39.1147L432.022 42.3095Z" fill="#FFA14D"/>
<path d="M416.565 39.0284V41.187L410.694 43.3456L416.565 45.5043V47.7493L408.104 44.5545V42.2231L416.565 39.0284Z" fill="#FFA14D"/>
<path d="M408.018 0V11.1386H404.305V6.99402H400.852V11.1386H397.139V0H400.852V3.97191H404.305V0H408.018Z" fill="#13387E"/>
<path d="M412.249 2.93576H408.968V0H419.243V2.93576H415.962V11.1386H412.249V2.93576V2.93576Z" fill="#13387E"/>
<path d="M430.209 11.1386V6.04421L427.791 10.1025H426.151L423.733 6.2169V11.1386H420.279V0H423.388L427.014 5.95786L430.554 0H433.663V11.1386H430.209V11.1386Z" fill="#13387E"/>
<path d="M435.476 0H439.189V8.20285H444.197V11.1386H435.39V0H435.476Z" fill="#13387E"/>
<path d="M33.7089 181.154C32.0683 179.599 30.1687 178.304 28.1827 177.354C28.1827 177.354 28.0964 177.354 28.0964 177.268C25.247 175.973 22.0522 175.368 18.8574 175.541C16.6987 175.627 14.4538 176.146 12.3815 177.009C12.2088 177.095 12.1224 177.095 11.9497 177.182C8.1505 178.909 5.1284 181.672 3.14244 184.953C-0.0523543 190.306 -0.656771 197.041 2.01995 203.085C6.42359 213.015 18.0803 217.419 27.9237 213.015C36.99 208.957 41.48 198.855 38.8033 189.615C38.5442 188.752 38.2852 187.975 37.8535 187.111C36.8173 184.866 35.4358 182.794 33.7089 181.154ZM25.506 207.575C18.6847 210.598 10.5682 207.575 7.54608 200.668C5.73282 196.61 6.0782 192.12 8.1505 188.493C8.1505 188.493 8.1505 188.407 8.23685 188.407C9.61838 185.989 11.777 183.917 14.5401 182.708C15.0582 182.449 15.5762 182.276 16.0943 182.103C16.1807 182.103 16.1807 182.103 16.267 182.017C19.0301 181.24 21.7931 181.326 24.3835 182.19C26.6285 182.967 28.6145 184.262 30.1687 185.989C31.1185 187.025 31.8956 188.234 32.5 189.529C32.8454 190.393 33.1044 191.17 33.3635 192.033C34.6587 198.336 31.5502 204.899 25.506 207.575Z" fill="#4C4DA0"/>
<path d="M28.1828 177.354C30.2551 178.304 32.0684 179.599 33.709 181.154C35.4359 182.794 36.8174 184.867 37.8536 187.198C38.199 188.061 38.5443 188.838 38.8034 189.702L33.1909 192.206C33.0182 191.342 32.7592 190.479 32.3274 189.702C31.723 188.407 30.9459 187.198 29.9961 186.162C28.4419 184.435 26.3696 183.053 24.2109 182.362L28.0102 177.441" fill="#FFA14D"/>
<path d="M24.2966 182.276C21.7062 181.413 18.8568 181.326 16.1801 182.103C16.0937 182.103 16.0937 182.103 16.0074 182.19L12.3809 177.095C14.5395 176.232 16.6982 175.714 18.8568 175.627C22.0516 175.455 25.2464 176.059 28.0958 177.354" fill="#D43B5E"/>
<path d="M21.967 214.829H21.1035V216.555H21.967V214.829Z" fill="#FF7936"/>
<path d="M21.967 242.977H21.1035V239.696H21.967V242.977ZM21.967 236.329H21.1035V233.048H21.967V236.329ZM21.967 229.766H21.1035V226.485H21.967V229.766ZM21.967 223.118H21.1035V219.837H21.967V223.118Z" fill="#FF7936"/>
<path d="M23.2622 248.417H21.1035V246.258H21.967V247.554H23.2622V248.417Z" fill="#FF7936"/>
<path d="M72.9968 248.417H69.4566V247.554H72.9968V248.417ZM65.9164 248.417H62.3762V247.554H65.9164V248.417ZM58.7497 248.417H55.2095V247.554H58.7497V248.417ZM51.6694 248.417H48.1292V247.554H51.6694V248.417ZM44.589 248.417H41.0488V247.554H44.589V248.417ZM37.4223 248.417H33.8821V247.554H37.4223V248.417ZM30.3419 248.417H26.8018V247.554H30.3419V248.417Z" fill="#FF7936"/>
<path d="M78.6958 248.417H76.5371V247.554H77.8323V246.258H78.6958V248.417Z" fill="#FF7936"/>
<path d="M78.6965 242.891H77.833V239.523H78.6965V242.891ZM78.6965 236.156H77.833V232.788H78.6965V236.156ZM78.6965 229.421H77.833V226.053H78.6965V229.421ZM78.6965 222.686H77.833V219.319H78.6965V222.686Z" fill="#FF7936"/>
<path d="M78.6965 214.31H77.833V216.037H78.6965V214.31Z" fill="#FF7936"/>
<path d="M224.015 14.0745H57.54V212.584H224.015V14.0745Z" fill="#13387E"/>
<path d="M224.015 4.40375H57.54V29.6167H224.015V4.40375Z" fill="#4C4DA0"/>
<path d="M204.76 198.941V200.581L198.802 202.826V201.272L203.033 199.718L198.802 198.164V196.696L204.76 198.941Z" fill="#FFA14D"/>
<path d="M187.75 196.696V198.25L183.519 199.804L187.75 201.359V202.913L181.792 200.668V199.027L187.75 196.696Z" fill="#FFA14D"/>
<path d="M196.816 192.81H198.716L193.017 205.158H191.117L196.816 192.81Z" fill="#FFA14D"/>
<path d="M97 45.677V47.7493L89.5742 50.5988V48.6128L94.8413 46.7132L89.5742 44.8136V42.8276L97 45.677Z" fill="#FFA14D"/>
<path d="M83.2715 42.8276V44.8136L78.0043 46.7132L83.2715 48.6128V50.5987L75.8457 47.7493V45.677L83.2715 42.8276Z" fill="#FFA14D"/>
<path d="M71.2685 18.8235L72.7364 13.9882H74.7224L76.1902 18.8235L77.8308 13.9882H79.8168L76.881 22.3637H75.4995L73.6862 16.5785L71.873 22.3637H70.4914L67.5557 13.9882H69.5416L71.2685 18.8235Z" fill="white"/>
<path d="M86.8973 13.9881V15.6287H82.7527V17.3556H86.4656V18.9098H82.7527V20.6367H87.07V22.2773H80.9395V13.9017H86.8973V13.9881Z" fill="white"/>
<path d="M92.3375 22.3637H88.7109V13.9882H91.9921C92.5965 13.9882 93.0282 14.0745 93.46 14.1608C93.8917 14.3335 94.1507 14.5062 94.4098 14.6789C94.7551 15.1107 95.0142 15.6287 95.0142 16.1468C95.0142 16.8376 94.8415 17.2693 94.4098 17.6147C94.2371 17.701 94.1507 17.7874 94.1507 17.7874C94.0644 17.7874 93.978 17.8737 93.8917 17.9601C94.4098 18.0464 94.8415 18.3055 95.1005 18.6508C95.4459 18.9962 95.5323 19.4279 95.5323 19.946C95.5323 20.5504 95.3596 21.0685 94.9278 21.5002C94.3234 22.1047 93.46 22.3637 92.3375 22.3637ZM90.5242 17.442H91.3877C91.9057 17.442 92.2511 17.3556 92.5101 17.2693C92.7692 17.183 92.8555 16.9239 92.8555 16.5785C92.8555 16.2332 92.7692 15.9741 92.5101 15.8014C92.2511 15.6287 91.9057 15.6287 91.3013 15.6287H90.4379V17.442H90.5242ZM90.5242 20.8095H91.8194C92.3375 20.8095 92.7692 20.7231 93.0282 20.6368C93.2873 20.5504 93.46 20.2051 93.46 19.8597C93.46 19.5143 93.2873 19.2553 93.0282 19.0826C92.7692 18.9962 92.2511 18.9099 91.6467 18.9099H90.5242V20.8095Z" fill="white"/>
<path d="M106.412 15.1107C107.189 15.8014 107.62 16.8376 107.62 18.1328C107.62 19.4279 107.189 20.4641 106.412 21.2412C105.635 22.0183 104.426 22.3637 102.871 22.3637H100.108V13.9882H103.044C104.512 13.9882 105.635 14.4199 106.412 15.1107ZM105.116 20.1187C105.548 19.687 105.807 19.0826 105.807 18.2191C105.807 17.3556 105.548 16.7512 105.116 16.3195C104.685 15.8878 103.994 15.6287 103.044 15.6287H102.008V20.7231H103.217C103.994 20.7231 104.598 20.5504 105.116 20.1187Z" fill="white"/>
<path d="M115.306 13.9881V15.6287H111.161V17.3556H114.874V18.9098H111.161V20.6367H115.478V22.2773H109.348V13.9017H115.306V13.9881Z" fill="white"/>
<path d="M120.14 19.3416L122.298 13.9882H124.284L120.917 22.3637H119.363L115.995 13.9882H117.981L120.14 19.3416Z" fill="white"/>
<path d="M131.365 13.9881V15.6287H127.22V17.3556H130.933V18.9098H127.22V20.6367H131.538V22.2773H125.407V13.9017H131.365V13.9881Z" fill="white"/>
<path d="M133.093 22.3637V13.9882H134.992V20.7231H138.533V22.3637H133.093Z" fill="white"/>
<path d="M146.735 21.2412C145.871 22.1046 144.835 22.45 143.626 22.45C142.417 22.45 141.381 22.0183 140.518 21.2412C139.654 20.3777 139.223 19.4279 139.223 18.1327C139.223 16.9239 139.654 15.8877 140.518 15.0243C141.381 14.1608 142.417 13.8154 143.626 13.8154C144.835 13.8154 145.871 14.2472 146.735 15.0243C147.598 15.8877 148.03 16.8375 148.03 18.1327C147.944 19.3416 147.512 20.3777 146.735 21.2412ZM146.044 18.1327C146.044 17.3556 145.785 16.7512 145.353 16.2331C144.835 15.715 144.317 15.456 143.626 15.456C142.936 15.456 142.331 15.715 141.899 16.2331C141.381 16.7512 141.209 17.3556 141.209 18.1327C141.209 18.9098 141.468 19.5143 141.899 20.0323C142.331 20.5504 142.936 20.8094 143.626 20.8094C144.317 20.8094 144.921 20.5504 145.353 20.0323C145.871 19.5143 146.044 18.9098 146.044 18.1327Z" fill="white"/>
<path d="M155.283 14.7653C155.888 15.2833 156.147 16.0605 156.147 17.0966C156.147 18.1328 155.888 18.9099 155.283 19.3416C154.679 19.7733 153.729 20.0324 152.52 20.0324H151.398V22.3637H149.498V13.9882H152.434C153.815 13.9882 154.765 14.2472 155.283 14.7653ZM153.902 18.0464C154.161 17.7874 154.247 17.442 154.247 16.9239C154.247 16.4058 154.074 16.0605 153.815 15.8878C153.556 15.7151 153.038 15.5424 152.434 15.5424H151.398V18.3918H152.693C153.297 18.3918 153.729 18.3054 153.902 18.0464Z" fill="white"/>
<path d="M157.614 13.9882H159.514V22.3637H157.614V13.9882Z" fill="white"/>
<path d="M167.372 13.9882H169.271V22.3637H167.372L163.4 17.0966V22.3637H161.5V13.9882H163.227L167.285 19.3416V13.9882H167.372Z" fill="white"/>
<path d="M176.784 18.1327H178.683V21.0685C177.82 22.0183 176.697 22.45 175.229 22.45C174.021 22.45 172.984 22.0183 172.121 21.2412C171.257 20.4641 170.912 19.4279 170.912 18.1327C170.912 16.9239 171.344 15.8877 172.207 15.0243C173.071 14.1608 174.107 13.8154 175.316 13.8154C176.525 13.8154 177.561 14.2472 178.424 15.0243L177.474 16.4058C177.129 16.0604 176.784 15.8877 176.438 15.715C176.093 15.6287 175.747 15.5423 175.402 15.5423C174.711 15.5423 174.107 15.8014 173.589 16.2331C173.071 16.6648 172.898 17.3556 172.898 18.1327C172.898 18.9098 173.157 19.5143 173.589 20.0323C174.021 20.4641 174.625 20.7231 175.229 20.7231C175.834 20.7231 176.438 20.6368 176.87 20.3777V18.1327H176.784Z" fill="white"/>
<path d="M135.251 62.6872H86.293V71.6671H135.251V62.6872Z" fill="#00B3CE"/>
<path d="M166.595 62.6872H142.159V71.6671H166.595V62.6872Z" fill="#FFA14D"/>
<path d="M205.969 62.6872H172.294V71.6671H205.969V62.6872Z" fill="white"/>
<path d="M109.175 78.6611H86.293V87.6411H109.175V78.6611Z" fill="#00B3CE"/>
<path d="M154.42 78.6611H115.392V87.6411H154.42V78.6611Z" fill="#FFA14D"/>
<path d="M206.055 78.6611H160.81V87.6411H206.055V78.6611Z" fill="white"/>
<path d="M116.341 94.7214H86.293V103.701H116.341V94.7214Z" fill="#00B3CE"/>
<path d="M177.82 94.7214H121.264V103.701H177.82V94.7214Z" fill="#FFA14D"/>
<path d="M206.054 94.7214H183.949V103.701H206.054V94.7214Z" fill="white"/>
<path d="M124.199 110.695H86.293V119.675H124.199V110.695Z" fill="#00B3CE"/>
<path d="M166.595 110.695H129.812V119.675H166.595V110.695Z" fill="#FFA14D"/>
<path d="M205.969 110.695H172.294V119.675H205.969V110.695Z" fill="white"/>
<path d="M102.958 126.669H86.293V135.649H102.958V126.669Z" fill="#00B3CE"/>
<path d="M141.554 126.669H108.57V135.649H141.554V126.669Z" fill="#FFA14D"/>
<path d="M206.055 126.669H146.649V135.649H206.055V126.669Z" fill="white"/>
<path d="M133.87 142.73H86.293V151.71H133.87V142.73Z" fill="#00B3CE"/>
<path d="M154.421 142.73H139.828V151.71H154.421V142.73Z" fill="#FFA14D"/>
<path d="M206.055 142.73H160.81V151.71H206.055V142.73Z" fill="white"/>
<path d="M148.203 158.704H86.293V167.684H148.203V158.704Z" fill="#00B3CE"/>
<path d="M178.77 158.704H153.471V167.684H178.77V158.704Z" fill="#FFA14D"/>
<path d="M206.054 158.704H183.949V167.684H206.054V158.704Z" fill="white"/>
<path d="M105.289 174.678H86.293V183.658H105.289V174.678Z" fill="#00B3CE"/>
<path d="M133.87 174.678H110.815V183.658H133.87V174.678Z" fill="#FFA14D"/>
<path d="M206.055 174.678H139.828V183.658H206.055V174.678Z" fill="white"/>
<path d="M214.344 62.6872H212.53V183.658H214.344V62.6872Z" fill="white"/>
<path d="M70.9236 71.6671C73.4033 71.6671 75.4136 69.6569 75.4136 67.1771C75.4136 64.6974 73.4033 62.6872 70.9236 62.6872C68.4438 62.6872 66.4336 64.6974 66.4336 67.1771C66.4336 69.6569 68.4438 71.6671 70.9236 71.6671Z" fill="white"/>
<path d="M70.9236 87.6411C73.4033 87.6411 75.4136 85.6309 75.4136 83.1511C75.4136 80.6714 73.4033 78.6611 70.9236 78.6611C68.4438 78.6611 66.4336 80.6714 66.4336 83.1511C66.4336 85.6309 68.4438 87.6411 70.9236 87.6411Z" fill="white"/>
<path d="M70.9236 103.701C73.4033 103.701 75.4136 101.691 75.4136 99.2114C75.4136 96.7317 73.4033 94.7214 70.9236 94.7214C68.4438 94.7214 66.4336 96.7317 66.4336 99.2114C66.4336 101.691 68.4438 103.701 70.9236 103.701Z" fill="white"/>
<path d="M70.9236 119.675C73.4033 119.675 75.4136 117.665 75.4136 115.185C75.4136 112.706 73.4033 110.695 70.9236 110.695C68.4438 110.695 66.4336 112.706 66.4336 115.185C66.4336 117.665 68.4438 119.675 70.9236 119.675Z" fill="white"/>
<path d="M70.9236 135.649C73.4033 135.649 75.4136 133.639 75.4136 131.159C75.4136 128.68 73.4033 126.669 70.9236 126.669C68.4438 126.669 66.4336 128.68 66.4336 131.159C66.4336 133.639 68.4438 135.649 70.9236 135.649Z" fill="white"/>
<path d="M70.9236 151.71C73.4033 151.71 75.4136 149.699 75.4136 147.22C75.4136 144.74 73.4033 142.73 70.9236 142.73C68.4438 142.73 66.4336 144.74 66.4336 147.22C66.4336 149.699 68.4438 151.71 70.9236 151.71Z" fill="white"/>
<path d="M70.9236 167.684C73.4033 167.684 75.4136 165.673 75.4136 163.194C75.4136 160.714 73.4033 158.704 70.9236 158.704C68.4438 158.704 66.4336 160.714 66.4336 163.194C66.4336 165.673 68.4438 167.684 70.9236 167.684Z" fill="white"/>
<path d="M70.9236 183.658C73.4033 183.658 75.4136 181.647 75.4136 179.168C75.4136 176.688 73.4033 174.678 70.9236 174.678C68.4438 174.678 66.4336 176.688 66.4336 179.168C66.4336 181.647 68.4438 183.658 70.9236 183.658Z" fill="white"/>
<path d="M216.675 18.3918C216.675 20.8958 214.603 22.9681 212.099 22.9681C209.595 22.9681 207.522 20.8958 207.522 18.3918C207.522 15.8877 209.595 13.8154 212.099 13.8154C214.603 13.8154 216.675 15.8877 216.675 18.3918Z" fill="#D43B5E"/>
<path d="M205.365 18.3054C205.365 20.8094 203.292 22.8817 200.788 22.8817C198.284 22.8817 196.212 20.8094 196.212 18.3054C196.212 15.8014 198.284 13.7291 200.788 13.7291C203.292 13.7291 205.365 15.8014 205.365 18.3054Z" fill="white"/>
<path d="M262.352 37.4741H246.205V41.9641H262.352V37.4741Z" fill="#3F537E"/>
<path d="M295.595 29.444H246.205V33.934H295.595V29.444Z" fill="#4C4DA0"/>
<path d="M275.13 42.8276H274.267V44.5545H275.13V42.8276Z" fill="#FF7936"/>
<path d="M275.13 56.2112H274.267V53.3618H275.13V56.2112ZM275.13 50.426H274.267V47.4903H275.13V50.426Z" fill="#FF7936"/>
<path d="M276.425 61.3056H274.267V59.1469H275.13V60.4421H276.425V61.3056Z" fill="#FF7936"/>
<path d="M329.011 61.3056H325.729V60.4421H329.011V61.3056ZM322.448 61.3056H319.167V60.4421H322.448V61.3056ZM315.886 61.3056H312.605V60.4421H315.886V61.3056ZM309.324 61.3056H306.043V60.4421H309.324V61.3056ZM302.761 61.3056H299.48V60.4421H302.761V61.3056ZM296.113 61.3056H292.832V60.4421H296.113V61.3056ZM289.55 61.3056H286.269V60.4421H289.55V61.3056ZM282.988 61.3056H279.707V60.4421H282.988V61.3056Z" fill="#FF7936"/>
<path d="M334.537 61.3056H332.378V60.4421H333.673V59.1469H334.537V61.3056Z" fill="#FF7936"/>
<path d="M334.536 52.0666H333.673V55.6067H334.536V52.0666Z" fill="#FF7936"/>
<path d="M334.536 46.8858H333.673V48.6128H334.536V46.8858Z" fill="#FF7936"/>
<path d="M249.745 17.0102C248.795 16.4921 248.018 15.8013 247.5 14.9379C246.982 14.0744 246.723 13.0383 246.723 11.9158C246.723 10.7933 246.982 9.75712 247.5 8.89367C248.018 8.03021 248.795 7.33944 249.745 6.82136C250.695 6.30329 251.731 6.04425 252.94 6.04425C254.062 6.04425 255.012 6.21695 255.875 6.64868C256.739 7.0804 257.43 7.59848 257.948 8.28925L255.616 10.4479C254.926 9.58444 254.148 9.15271 253.199 9.15271C252.421 9.15271 251.817 9.41174 251.299 9.92981C250.781 10.4479 250.608 11.1387 250.608 11.9158C250.608 12.6929 250.867 13.47 251.299 13.9017C251.817 14.4198 252.421 14.6788 253.199 14.6788C254.148 14.6788 254.926 14.2471 255.616 13.3836L257.948 15.5423C257.43 16.2331 256.739 16.8375 255.875 17.1829C255.012 17.5282 254.062 17.7873 252.94 17.7873C251.731 17.7009 250.608 17.4419 249.745 17.0102Z" fill="#13387E"/>
<path d="M260.279 17.4419C259.415 17.2692 258.725 16.9238 258.12 16.5784L259.329 13.8154C259.847 14.1608 260.451 14.3335 261.142 14.5925C261.833 14.7652 262.437 14.8515 263.042 14.8515C263.56 14.8515 263.905 14.7652 264.164 14.6788C264.423 14.5925 264.51 14.4198 264.51 14.2471C264.51 13.9881 264.337 13.8154 264.078 13.729C263.819 13.6427 263.301 13.47 262.61 13.3836C261.747 13.211 261.056 13.0383 260.451 12.7792C259.847 12.6065 259.415 12.2612 258.984 11.7431C258.552 11.3114 258.379 10.6206 258.379 9.84347C258.379 9.1527 258.552 8.54828 258.984 7.94386C259.415 7.33944 259.933 6.90771 260.71 6.56233C261.488 6.21695 262.437 6.04425 263.56 6.04425C264.337 6.04425 265.114 6.1306 265.805 6.30329C266.582 6.47598 267.186 6.73502 267.791 6.99406L266.668 9.75712C265.546 9.23905 264.51 8.89367 263.56 8.89367C262.61 8.89367 262.092 9.15271 262.092 9.58443C262.092 9.84347 262.265 10.0162 262.524 10.1025C262.783 10.1889 263.301 10.3615 263.905 10.4479C264.769 10.6206 265.46 10.7933 266.064 10.966C266.668 11.1387 267.186 11.484 267.618 12.0021C268.05 12.4338 268.223 13.1246 268.223 13.9017C268.223 14.5925 268.05 15.1969 267.618 15.8013C267.186 16.4058 266.668 16.8375 265.891 17.1829C265.114 17.5282 264.164 17.7009 263.042 17.7009C262.006 17.7009 261.142 17.6146 260.279 17.4419Z" fill="#13387E"/>
<path d="M270.726 17.4419C269.863 17.2692 269.172 16.9238 268.567 16.5784L269.776 13.8154C270.294 14.1608 270.899 14.3335 271.589 14.5925C272.28 14.7652 272.885 14.8515 273.489 14.8515C274.007 14.8515 274.353 14.7652 274.612 14.6788C274.871 14.5925 274.957 14.4198 274.957 14.2471C274.957 13.9881 274.784 13.8154 274.525 13.729C274.266 13.6427 273.748 13.47 273.057 13.3836C272.194 13.211 271.503 13.0383 270.899 12.7792C270.294 12.6065 269.863 12.2612 269.431 11.7431C268.999 11.3114 268.826 10.6206 268.826 9.84347C268.826 9.1527 268.999 8.54828 269.431 7.94386C269.863 7.33944 270.381 6.90771 271.158 6.56233C271.935 6.21695 272.885 6.04425 274.007 6.04425C274.784 6.04425 275.561 6.1306 276.252 6.30329C277.029 6.47598 277.634 6.73502 278.238 6.99406L277.116 9.75712C275.993 9.23905 274.957 8.89367 274.007 8.89367C273.057 8.89367 272.539 9.15271 272.539 9.58443C272.539 9.84347 272.712 10.0162 272.971 10.1025C273.23 10.1889 273.748 10.3615 274.353 10.4479C275.216 10.6206 275.907 10.7933 276.511 10.966C277.116 11.1387 277.634 11.484 278.065 12.0021C278.497 12.4338 278.67 13.1246 278.67 13.9017C278.67 14.5925 278.497 15.1969 278.065 15.8013C277.634 16.4058 277.116 16.8375 276.339 17.1829C275.561 17.5282 274.612 17.7009 273.489 17.7009C272.453 17.7009 271.589 17.6146 270.726 17.4419Z" fill="#13387E"/>
<path d="M347.144 28.4942C346.971 27.8898 346.798 27.2853 346.539 26.7673C345.848 25.1267 344.812 23.7452 343.603 22.6227C342.481 21.5002 341.186 20.6367 339.804 19.9459H339.718C337.732 19.0825 335.573 18.6508 333.328 18.7371C331.774 18.8234 330.306 19.1688 328.838 19.7732C328.752 19.7732 328.666 19.8596 328.579 19.8596C325.902 21.0684 323.83 22.968 322.449 25.2994C320.722 28.1488 320.031 31.6026 320.722 34.9701C320.894 35.9199 321.24 36.8697 321.672 37.8195C324.694 44.6408 332.81 47.7493 339.631 44.7272C343.776 42.8276 346.625 39.1147 347.403 34.9701C347.921 32.8978 347.834 30.6528 347.144 28.4942ZM337.991 40.928C333.242 43.0866 327.629 40.928 325.471 36.179C325.298 35.7472 325.125 35.4018 325.039 34.9701C324.262 32.4661 324.694 29.8757 325.902 27.7171C325.902 27.7171 325.902 27.7171 325.902 27.6307C326.852 25.9038 328.32 24.5223 330.22 23.6588C330.565 23.4861 330.911 23.3998 331.342 23.2271H331.429C333.328 22.709 335.314 22.709 337.041 23.3134C338.595 23.8315 339.977 24.695 341.099 25.9902C341.704 26.6809 342.308 27.5444 342.74 28.4942C342.999 29.0986 343.172 29.6167 343.344 30.2211C343.69 31.8617 343.603 33.5022 343.172 34.9701C342.395 37.5605 340.581 39.8055 337.991 40.928Z" fill="#4C4DA0"/>
<path d="M347.489 34.9701H343.172C343.603 33.4159 343.69 31.7753 343.344 30.2211C343.172 29.6167 342.999 29.0123 342.74 28.4942C342.308 27.5444 341.79 26.7673 341.099 25.9902C339.977 24.7813 338.595 23.8315 337.041 23.3134C335.228 22.709 333.328 22.6227 331.429 23.2271H331.342C330.997 23.3134 330.652 23.4861 330.22 23.6588C328.32 24.5223 326.852 25.9038 325.902 27.6307C325.902 27.6307 325.902 27.6307 325.902 27.7171C324.694 29.8757 324.348 32.4661 325.039 34.9701H320.722C320.031 31.6026 320.722 28.1488 322.449 25.2994C323.83 22.968 325.902 21.0684 328.579 19.8596C328.666 19.8596 328.752 19.7732 328.838 19.7732C330.306 19.1688 331.86 18.8234 333.328 18.7371C335.573 18.6508 337.732 19.0825 339.718 19.9459H339.804C341.186 20.5504 342.481 21.5002 343.603 22.6227C344.812 23.7452 345.762 25.213 346.539 26.7673C346.798 27.3717 346.971 27.8898 347.144 28.4942C347.834 30.6528 347.921 32.8978 347.489 34.9701Z" fill="#D43B5E"/>
<path d="M295.509 37.4741H265.547V41.9641H295.509V37.4741Z" fill="#4C4DA0"/>
<path d="M20.2386 16.4057C19.9796 16.8374 19.4615 17.1828 18.8571 17.4418C19.5479 17.6145 19.9796 17.9599 20.2386 18.478C20.4977 18.9961 20.6704 19.6005 20.6704 20.5503V22.7089C20.6704 23.227 20.8431 23.5724 21.1021 23.8314C21.3611 24.0905 21.7929 24.2632 22.3109 24.2632H22.57V28.1487H20.8431C19.1161 28.1487 17.7346 27.717 16.8711 26.8535C16.0077 25.9901 15.4896 24.7812 15.4896 23.227V20.3776C15.4896 20.0322 15.4033 19.7732 15.2306 19.6005C15.0579 19.4278 14.7988 19.3415 14.5398 19.3415H13.7627V15.4559H14.5398C14.8852 15.4559 15.0579 15.3696 15.2306 15.1969C15.4033 15.0242 15.4896 14.7651 15.4896 14.4197V11.5703C15.4896 10.0161 15.9213 8.80727 16.8711 7.94381C17.7346 7.08035 19.1161 6.64862 20.8431 6.64862H22.57V10.5342H22.3109C21.7929 10.5342 21.3611 10.7069 21.1021 10.9659C20.8431 11.2249 20.6704 11.6567 20.6704 12.0884V14.2471C20.6704 15.2832 20.4977 15.974 20.2386 16.4057Z" fill="#2E2E46"/>
<path d="M38.5436 15.4559V19.3415H37.7665C37.4211 19.3415 37.2484 19.4278 37.0757 19.6005C36.903 19.7732 36.8167 20.0322 36.8167 20.3776V23.227C36.8167 24.7813 36.385 25.9901 35.4352 26.8536C34.5717 27.717 33.1902 28.1488 31.4632 28.1488H29.7363V24.2632H29.9954C30.5134 24.2632 30.9452 24.0905 31.2042 23.8315C31.4632 23.5724 31.6359 23.1407 31.6359 22.709V20.5503C31.6359 19.6869 31.8086 18.9961 32.0677 18.478C32.3267 18.0463 32.8448 17.7009 33.4492 17.4419C32.7584 17.2692 32.3267 16.9238 32.0677 16.4057C31.8086 15.974 31.6359 15.2832 31.6359 14.3334V12.1748C31.6359 11.6567 31.4632 11.3113 31.2042 11.0523C30.9452 10.7932 30.5134 10.6205 29.9954 10.6205H29.7363V6.73499H31.4632C33.1902 6.73499 34.5717 7.16671 35.4352 8.03017C36.2986 8.89363 36.8167 10.1025 36.8167 11.6567V14.5061C36.8167 14.8515 36.903 15.1105 37.0757 15.2832C37.2484 15.4559 37.5075 15.5423 37.7665 15.5423H38.5436V15.4559Z" fill="#2E2E46"/>
<path d="M30.3405 49.2171H12.6396V57.679H30.3405V49.2171Z" fill="white"/>
<path d="M30.3405 63.9822H12.6396V72.4441H30.3405V63.9822Z" fill="white"/>
<path d="M30.3405 78.7474H12.6396V87.2093H30.3405V78.7474Z" fill="#FFA14D"/>
<path d="M30.3405 93.5989H12.6396V102.061H30.3405V93.5989Z" fill="#FFA14D"/>
<path d="M30.3405 108.364H12.6396V116.826H30.3405V108.364Z" fill="#FFA14D"/>
<path d="M30.3405 123.129H12.6396V131.591H30.3405V123.129Z" fill="#FFA14D"/>
<path d="M30.3405 137.894H12.6396V146.356H30.3405V137.894Z" fill="#FFA14D"/>
<path d="M531.579 215.606C531.579 215.519 531.579 215.519 531.579 215.433C531.579 215.347 531.579 215.347 531.579 215.26C532.443 214.828 533.393 214.397 534.256 213.792C535.206 213.188 536.156 212.411 537.019 211.547L536.846 210.77C536.674 209.907 536.328 209.13 536.069 208.266C535.897 207.834 535.724 207.489 535.551 207.057C535.379 206.626 535.12 206.28 534.947 205.935L534.515 205.244C533.306 205.244 532.097 205.417 530.975 205.589C529.939 205.762 528.989 206.107 528.126 206.453L527.867 206.194C528.212 205.244 528.471 204.294 528.73 203.344C528.903 202.222 529.075 201.013 529.075 199.804L528.385 199.373C528.039 199.113 527.607 198.941 527.262 198.768C526.83 198.595 526.485 198.336 526.053 198.25C525.19 197.991 524.413 197.646 523.549 197.473L522.772 197.3C521.909 198.164 521.132 199.113 520.527 200.063C519.923 200.927 519.491 201.79 519.059 202.74C518.973 202.74 518.973 202.74 518.887 202.74C518.8 202.74 518.8 202.74 518.714 202.74C518.282 201.877 517.85 200.927 517.246 200.063C516.642 199.113 515.864 198.164 515.001 197.3L514.224 197.473C513.36 197.646 512.583 197.991 511.72 198.25C511.288 198.423 510.943 198.595 510.511 198.768C510.079 198.941 509.734 199.2 509.388 199.373L508.698 199.804C508.698 201.013 508.87 202.222 509.043 203.344C509.216 204.381 509.561 205.33 509.907 206.194C509.82 206.28 509.734 206.367 509.648 206.453C508.698 206.107 507.748 205.848 506.798 205.589C505.676 205.417 504.467 205.244 503.258 205.244L502.826 205.935C502.567 206.28 502.394 206.712 502.222 207.057C502.049 207.489 501.876 207.834 501.704 208.266C501.358 209.13 501.099 209.907 500.927 210.77L500.754 211.547C501.617 212.411 502.567 213.188 503.517 213.792C504.38 214.397 505.244 214.828 506.194 215.26C506.194 215.347 506.194 215.347 506.194 215.433C506.194 215.519 506.194 215.519 506.194 215.606C505.33 216.037 504.38 216.469 503.517 217.073C502.567 217.678 501.617 218.455 500.754 219.318L500.927 220.096C501.099 220.959 501.445 221.736 501.704 222.6C501.876 223.031 502.049 223.377 502.222 223.808C502.394 224.24 502.654 224.586 502.826 224.931L503.258 225.622C504.467 225.622 505.676 225.449 506.798 225.276C507.834 225.104 508.784 224.758 509.648 224.413C509.734 224.499 509.82 224.585 509.907 224.672C509.561 225.622 509.302 226.571 509.043 227.521C508.87 228.644 508.698 229.853 508.698 231.061L509.388 231.493C509.734 231.752 510.166 231.925 510.511 232.098C510.943 232.27 511.288 232.529 511.72 232.616C512.583 232.961 513.36 233.22 514.224 233.393L515.001 233.565C515.864 232.702 516.642 231.752 517.246 230.802C517.85 229.939 518.282 229.075 518.714 228.126C518.8 228.126 518.8 228.126 518.887 228.126C518.973 228.126 518.973 228.126 519.059 228.126C519.491 228.989 519.923 229.939 520.527 230.802C521.132 231.752 521.909 232.702 522.772 233.565L523.549 233.393C524.413 233.22 525.19 232.875 526.053 232.616C526.485 232.443 526.83 232.27 527.262 232.098C527.694 231.925 528.039 231.666 528.385 231.493L529.075 231.061C529.075 229.853 528.903 228.644 528.73 227.521C528.557 226.485 528.212 225.535 527.867 224.672C527.953 224.585 528.039 224.499 528.126 224.413C529.075 224.758 530.025 225.017 530.975 225.276C532.097 225.449 533.306 225.622 534.515 225.622L534.947 224.931C535.206 224.586 535.379 224.154 535.551 223.808C535.724 223.377 535.983 223.031 536.069 222.6C536.328 221.736 536.674 220.959 536.846 220.096L537.019 219.318C536.156 218.455 535.206 217.678 534.256 217.073C533.306 216.469 532.443 216.037 531.579 215.606ZM518.8 221.563C515.433 221.563 512.67 218.8 512.67 215.433C512.67 212.065 515.433 209.302 518.8 209.302C522.168 209.302 524.931 212.065 524.931 215.433C524.931 218.8 522.168 221.563 518.8 221.563Z" fill="#2E2E46"/>
<path d="M475.541 192.983H467.511V229.248H475.541V192.983Z" fill="#D43B5E"/>
<path d="M464.316 208.957H455.682V229.248H464.316V208.957Z" fill="#4C4DA0"/>
<path d="M452.314 215.433H443.68V229.248H452.314V215.433Z" fill="#FF7936"/>
<path d="M442.212 223.031H440.485V223.895H442.212V223.031Z" fill="#FF7936"/>
<path d="M436.081 223.031H431.678V223.895H436.081V223.031Z" fill="#FF7936"/>
<path d="M425.98 225.19H425.116V223.031H427.275V223.895H425.98V225.19Z" fill="#FF7936"/>
<path d="M425.98 251.007H425.116V247.813H425.98V251.007ZM425.98 244.531H425.116V241.337H425.98V244.531ZM425.98 238.055H425.116V234.861H425.98V238.055ZM425.98 231.58H425.116V228.385H425.98V231.58Z" fill="#FF7936"/>
<path d="M427.275 256.447H425.116V254.288H425.98V255.584H427.275V256.447Z" fill="#FF7936"/>
<path d="M439.018 256.447H436.082V255.584H439.018V256.447ZM433.147 256.447H430.211V255.584H433.147V256.447Z" fill="#FF7936"/>
<path d="M443.68 255.584H441.953V256.447H443.68V255.584Z" fill="#FF7936"/>
<path d="M469.238 254.375H446.442V258.433H469.238V254.375Z" fill="white"/>
<path d="M462.244 261.887H446.442V265.945H462.244V261.887Z" fill="white"/>
<path d="M466.388 269.485H446.442V273.544H466.388V269.485Z" fill="white"/>
<path d="M475.196 269.485H470.533V273.544H475.196V269.485Z" fill="#FFA14D"/>
<path d="M496.695 269.485H479.513V273.544H496.695V269.485Z" fill="#FFA14D"/>
<path d="M496.61 261.887H467.252V265.945H496.61V261.887Z" fill="#FFA14D"/>
<path d="M496.61 254.375H473.814V258.433H496.61V254.375Z" fill="#FFA14D"/>
<path d="M574.925 213.274H559.9V220.441H574.925V213.274Z" fill="#D43B5E"/>
<path d="M574.925 225.794H559.9V232.961H574.925V225.794Z" fill="#D43B5E"/>
<path d="M574.925 238.315H559.9V245.481H574.925V238.315Z" fill="#D43B5E"/>
<path d="M574.925 250.835H559.9V258.001H574.925V250.835Z" fill="#D43B5E"/>
<path d="M574.925 263.355H559.9V270.521H574.925V263.355Z" fill="white"/>
<path d="M574.925 275.961H559.9V283.128H574.925V275.961Z" fill="white"/>
<path d="M574.925 288.481H559.9V295.648H574.925V288.481Z" fill="white"/>
<path d="M509.301 316.198C503.688 316.63 498.939 315.249 495.054 312.831C479.166 302.988 475.885 275.357 475.626 273.285C475.799 273.889 477.353 277.343 493.845 288.395C495.226 289.345 496.435 290.295 497.644 291.244C497.644 291.244 497.644 291.245 497.73 291.331C512.064 303.16 509.301 316.198 509.301 316.198Z" fill="#008067"/>
<path d="M506.883 313.694C490.478 309.895 475.972 274.752 475.367 273.285L476.144 272.939C476.317 273.285 491.082 309.118 507.142 312.831L506.883 313.694Z" fill="#006D51"/>
<g opacity="0.5">
<path d="M509.301 316.198C503.688 316.63 498.939 315.249 495.054 312.831C498.249 305.319 497.644 291.158 497.644 291.158C497.644 291.158 497.644 291.158 497.73 291.244C512.064 303.16 509.301 316.198 509.301 316.198Z" fill="#006D51"/>
</g>
<path d="M551.438 275.271C551.351 275.616 551.178 276.997 550.747 278.983C548.415 289.431 539.953 317.666 517.245 314.817C517.245 314.817 516.899 312.399 517.59 308.773C518.712 303.419 522.339 295.562 533.305 288.913C549.624 279.07 551.265 275.875 551.438 275.271Z" fill="#008067"/>
<path d="M518.972 314.299L518.713 313.435C538.486 307.478 550.143 277.602 550.315 277.343L551.093 277.688C551.006 277.947 539.177 308.168 518.972 314.299Z" fill="#006D51"/>
<g opacity="0.5">
<path d="M550.747 278.983C548.415 289.431 539.953 317.666 517.245 314.817C517.245 314.817 516.899 312.399 517.59 308.773C536.5 309.809 550.747 278.983 550.747 278.983Z" fill="#006D51"/>
</g>
<path d="M515.95 315.853C515.346 316.803 507.056 313.349 503.344 303.419C501.099 297.461 500.494 289.086 504.207 277.947C513.964 248.676 509.906 243.15 509.82 242.977C509.992 243.064 518.454 247.294 523.98 257.483C530.024 268.795 532.356 287.359 515.95 315.853Z" fill="#009A79"/>
<path d="M515.604 316.457C515.518 316.457 515.432 316.457 515.345 316.371C514.741 316.112 513.1 315.421 517.245 289.345C521.994 259.469 509.56 243.323 509.474 243.15L510.164 242.632C510.251 242.804 522.944 259.21 518.108 289.518C514.395 313.004 515.518 315.421 515.777 315.68C515.777 315.68 515.691 315.594 515.604 315.68L516.295 316.198C516.122 316.285 515.863 316.457 515.604 316.457Z" fill="#008067"/>
<g opacity="0.5">
<path d="M515.949 315.853C515.345 316.803 507.056 313.349 503.343 303.419C524.238 309.377 523.979 257.483 523.979 257.483C530.024 268.795 532.355 287.359 515.949 315.853Z" fill="#008067"/>
</g>
<path d="M475.713 273.112C475.713 273.112 475.713 273.112 475.713 273.199C475.625 273.199 475.713 273.112 475.713 273.112Z" fill="#008067"/>
<path d="M532.097 315.421V338.821C532.097 345.642 526.571 351.255 519.663 351.255H508.611C504.121 351.255 500.235 348.837 497.99 345.297C496.868 343.397 496.177 341.239 496.177 338.821V315.421H532.097Z" fill="#FFA14D"/>
<path d="M533.391 312.399H494.967C494.449 312.399 494.018 312.831 494.018 313.349V314.558C494.018 315.076 494.449 315.508 494.967 315.508H533.391C533.909 315.508 534.341 315.076 534.341 314.558V313.349C534.255 312.831 533.909 312.399 533.391 312.399Z" fill="#FFA14D"/>
<path d="M532.096 315.421V338.821C532.096 345.642 526.57 351.255 519.662 351.255H508.61C504.12 351.255 500.234 348.837 497.989 345.297C524.238 353.5 529.937 334.245 528.901 326.56C527.865 318.875 518.453 315.421 518.453 315.421H532.096V315.421Z" fill="#F58300"/>
</svg>
