<?xml version="1.0" encoding="utf-8"?>
<!-- Generator: Adobe Illustrator 25.2.0, SVG Export Plug-In . SVG Version: 6.00 Build 0)  -->
<svg version="1.1" id="Layer_1" xmlns="http://www.w3.org/2000/svg" xmlns:xlink="http://www.w3.org/1999/xlink" x="0px" y="0px"
	 viewBox="0 0 364 304" style="enable-background:new 0 0 364 304;" xml:space="preserve">
<style type="text/css">
	.st0{fill:#2E333A;}
	.st1{fill:#E96300;}
	.st2{fill:#F9751C;}
	.st3{fill:#F49C00;}
	.st4{fill:#FFA624;}
	.st5{fill:#FFE000;}
</style>
<rect x="84.4" y="9.8" class="st0" width="273.6" height="283.9"/>
<rect x="84.4" y="170.5" class="st1" width="66.4" height="48.6"/>
<rect x="84.4" y="117" class="st1" width="134.3" height="48.6"/>
<rect x="155.8" y="170.5" class="st1" width="130.8" height="48.6"/>
<rect x="223.7" y="9.8" class="st1" width="134.3" height="48.6"/>
<rect x="155" y="63.4" class="st1" width="130.8" height="48.6"/>
<rect x="84.4" y="9.8" class="st1" width="134.3" height="48.6"/>
<rect x="84.4" y="63.4" class="st1" width="65.6" height="48.6"/>
<rect x="223.7" y="117" class="st1" width="134.3" height="48.6"/>
<rect x="290.8" y="63.4" class="st1" width="67.2" height="48.6"/>
<rect x="291.6" y="170.5" class="st1" width="66.4" height="48.6"/>
<rect x="84.4" y="224.1" class="st1" width="134.3" height="48.6"/>
<rect x="223.7" y="224.1" class="st1" width="134.3" height="48.6"/>
<polygon class="st2" points="223.7,9.8 346.9,20.7 358,58.4 358,9.8 "/>
<polygon class="st2" points="84.2,9.8 207.5,20.7 218.5,58.4 218.5,9.8 "/>
<polygon class="st2" points="151.4,63.4 274.6,74.3 285.7,112 285.7,63.4 "/>
<polygon class="st2" points="223.6,117 346.9,127.8 357.9,165.6 357.9,117 "/>
<polygon class="st2" points="151.5,170.5 274.8,181.4 285.9,219.1 285.9,170.5 "/>
<polygon class="st2" points="84.4,117 207.6,127.8 218.7,165.6 218.7,117 "/>
<polygon class="st2" points="223.6,224.1 346.9,234.9 357.9,272.7 357.9,224.1 "/>
<polygon class="st2" points="291.6,170.5 346.9,181.4 357.9,219.1 357.9,170.5 "/>
<polygon class="st2" points="291.6,63.4 346.9,74.3 357.9,112 357.9,63.4 "/>
<polygon class="st2" points="151.7,224.1 207,234.9 218.1,272.7 218.1,224.1 "/>
<polygon class="st2" points="84,63.4 139.3,74.3 150.4,112 150.4,63.4 "/>
<g>
	<path class="st3" d="M112.4,297.1c-28.3,0-71.2-9.1-92.4-50.3c-21.1-41.3-3-71.9-3-89.1S8,126,8,126s15.6-5,27.7,7
		c11.8,11.8,18.6,33.2,18.6,33.2s-0.4-40.2,18.6-59.4c19.1-19.1,23.6-23.1,30.7-39.7c2.4-5.7-5-18.6-5-18.6s21.9,3.2,31.2,17.6
		c14.6,22.6-3.5,35.8-1,60.9c2,20.1,14.6,34.2,14.6,34.2s-0.4-22,11.1-36.7c14.1-18.1,41.1-18.1,41.1-18.1s-9.5,20.1-5.4,43.3
		c4,23.1,23.4,52.9,11.3,91C186.4,288,136.5,297.1,112.4,297.1z"/>
	<path class="st3" d="M151,72.6c-3.2,6.2,2.4,27.8,2.4,27.8s5.4-7.8,21.7-13.9c6.1-2.3,6.5-12.6,2-24.1c-2.5-6.4-8.5-16.3-8.5-16.3
		s1,10.5-6.5,18.3C158.9,67.9,152.5,69.5,151,72.6z"/>
	<path class="st3" d="M54.3,96.4c0.8,5.4-8.7,20-8.7,20s-2.1-7.1-12.6-15.7c-3.9-3.2-1.6-10.9,4.5-18.3c3.4-4.1,10.4-9.9,10.4-9.9
		s-3.4,7.5,0.2,15.2C49.6,90.9,53.9,93.7,54.3,96.4z"/>
	<path class="st3" d="M88.3,47.4c0.5,3.5-5.7,12.9-5.7,12.9s-1.3-4.6-8.1-10.2c-2.6-2.1-1-7.1,2.9-11.9c2.2-2.7,6.7-6.4,6.7-6.4
		s-2.2,4.9,0.1,9.8C85.3,43.9,88,45.7,88.3,47.4z"/>
	<path class="st4" d="M111.9,297.1c-19.8,0-54.4-7.9-69.2-34.6c-14.8-26.8-14.1-38.7-14.1-49.8s6.4-35.5,6.4-35.5
		s13.7,16.7,19.3,20.6c7.5,5.2,13.9,5.4,13.9,5.4s-1.1-19.5,2.7-33.6c3.2-11.9,12.7-22.1,17.5-26.8c12.7-12.5,12.3-23.4,12.3-23.4
		s14.6,20.9,16.2,32.5c1.8,13,0.2,23.6,6.5,34.9c9.7,17.5,21.4,19.4,21.4,19.4s0.5-7.7,5.2-19.2c5.8-14.2,21.2-19.6,21.2-19.6
		s1.1,23,7.3,37.8c5.9,14.1,10,28.5,1.5,53.2C169.5,289,128.8,297.1,111.9,297.1z"/>
	<path class="st5" d="M109.7,297.1c-11.3,0-31.1-4.5-39.5-19.8s-8-22.1-8-28.4c0-6.3,3.7-20.3,3.7-20.3s7.8,9.5,11,11.8
		c4.3,3,7.9,3.1,7.9,3.1s-0.6-11.1,1.5-19.2c1.8-6.8,7.3-12.6,10-15.3c7.3-7.1,7-13.4,7-13.4s8.3,11.9,9.3,18.5
		c1,7.4,0.1,13.5,3.7,19.9c5.6,10,12.2,11.1,12.2,11.1s0.3-4.4,3-11c3.3-8.1,12.1-11.2,12.1-11.2s0.6,13.1,4.2,21.6
		c3.4,8,5.7,16.3,0.9,30.4C142.6,292.5,119.3,297.1,109.7,297.1z"/>
</g>
</svg>
