<svg width="54" height="54" viewBox="0 0 54 54" fill="none" xmlns="http://www.w3.org/2000/svg">
<path d="M27 0C12.0843 0 0 12.088 0 27.0084C0 27.2107 0.0337079 27.4299 0.0337079 27.6322C3.57303 21.9001 9.28652 18.444 15.691 18.5114C23.4101 18.5451 27.7247 24.0918 29.7809 27.059C31.9719 25.6597 36.2865 23.5186 40.7697 24.665C44.4101 25.5923 47.2921 28.4246 49.382 33.0946H53.2921C53.7472 31.1389 54 29.1158 54 27.0084C53.9831 12.088 41.8989 0 27 0Z" fill="#2F80ED"/>
<path d="M46.6691 35.3874C44.9837 31.1389 42.7084 28.6269 39.9107 27.9188C35.2758 26.7386 30.4725 30.6668 30.4219 30.7005L29.0567 31.8301L27.9949 30.3971C27.8264 30.1779 27.6242 29.8913 27.4051 29.5541C25.7028 27.059 22.1803 21.8832 15.6579 21.8663C15.641 21.8663 15.6073 21.8663 15.5904 21.8663C8.9837 21.8663 3.28707 26.5026 0.876953 33.7352C3.87695 45.3849 14.4107 54 26.9837 54C38.5624 54 48.4051 46.6999 52.2477 36.4495H47.0904L46.6691 35.3874Z" fill="#3D429B"/>
</svg>
