<svg width="168" height="25" viewBox="0 0 168 25" fill="none" xmlns="http://www.w3.org/2000/svg">
<path d="M22.011 14.685C22.011 13.915 21.912 13.321 21.714 12.903C21.538 12.463 21.219 12.122 20.757 11.88C20.317 11.638 19.866 11.517 19.404 11.517C18.678 11.517 17.897 11.847 17.061 12.507L15.84 13.563V18.051C15.84 18.535 15.84 18.986 15.84 19.404C15.84 19.822 15.862 20.251 15.906 20.691C15.972 21.131 16.28 21.351 16.83 21.351C17.314 21.351 17.622 21.461 17.754 21.681C17.886 21.901 17.952 22.253 17.952 22.737C17.952 23.353 17.875 23.76 17.721 23.958C17.589 24.134 17.215 24.222 16.599 24.222H11.319C10.703 24.222 10.318 24.134 10.164 23.958C10.032 23.76 9.966 23.353 9.966 22.737C9.966 22.231 10.021 21.879 10.131 21.681C10.241 21.461 10.56 21.351 11.088 21.351C11.726 21.351 12.045 20.251 12.045 18.051V14.685C12.045 13.937 11.946 13.343 11.748 12.903C11.572 12.463 11.253 12.122 10.791 11.88C10.351 11.638 9.911 11.517 9.471 11.517C8.745 11.517 7.953 11.847 7.095 12.507L5.874 13.563V18.051C5.874 18.535 5.874 18.986 5.874 19.404C5.874 19.822 5.896 20.251 5.94 20.691C6.006 21.131 6.314 21.351 6.864 21.351C7.37 21.351 7.689 21.461 7.821 21.681C7.953 21.879 8.019 22.231 8.019 22.737C8.019 23.353 7.942 23.76 7.788 23.958C7.656 24.134 7.271 24.222 6.633 24.222H1.353C0.737 24.222 0.352 24.134 0.198 23.958C0.066 23.76 0 23.353 0 22.737C0 22.253 0.055 21.901 0.165 21.681C0.297 21.461 0.627 21.351 1.155 21.351C1.573 21.351 1.837 21.109 1.947 20.625C2.079 20.119 2.145 19.261 2.145 18.051V15.774V14.652V14.058C2.145 13.838 2.123 13.64 2.079 13.464C2.079 13.288 1.991 13.156 1.815 13.068L1.452 12.903L0.759 13.002C0.627 13.002 0.484 12.958 0.33 12.87L0.066 12.474L0 11.715C0 11.275 0.066 10.945 0.198 10.725C0.352 10.483 0.693 10.142 1.221 9.702L3.399 8.052C3.927 7.7 4.367 7.524 4.719 7.524C4.917 7.524 5.148 7.568 5.412 7.656C5.72 7.722 5.874 8.096 5.874 8.778V9.966C6.776 9.372 7.711 8.866 8.679 8.448C9.647 8.03 10.538 7.821 11.352 7.821C11.528 7.821 11.671 7.821 11.781 7.821C11.913 7.821 12.155 7.865 12.507 7.953C12.947 8.019 13.343 8.173 13.695 8.415C14.069 8.613 14.41 8.877 14.718 9.207L15.411 9.999C16.401 9.339 17.347 8.811 18.249 8.415C19.173 7.997 20.075 7.788 20.955 7.788C21.791 7.788 22.66 8.019 23.562 8.481C24.464 8.943 25.058 9.658 25.344 10.626C25.652 11.572 25.806 12.562 25.806 13.596V14.19V18.051C25.806 18.535 25.806 18.986 25.806 19.404C25.806 19.822 25.828 20.251 25.872 20.691C25.938 21.131 26.235 21.351 26.763 21.351C27.247 21.351 27.555 21.461 27.687 21.681C27.819 21.901 27.885 22.253 27.885 22.737C27.885 23.353 27.808 23.76 27.654 23.958C27.522 24.134 27.148 24.222 26.532 24.222H21.252C20.636 24.222 20.251 24.134 20.097 23.958C19.965 23.76 19.899 23.353 19.899 22.737C19.899 22.231 19.954 21.879 20.064 21.681C20.174 21.461 20.493 21.351 21.021 21.351C21.439 21.351 21.703 21.109 21.813 20.625C21.945 20.119 22.011 19.261 22.011 18.051V14.685ZM42.7765 21.219C42.8425 21.285 43.0185 21.318 43.3045 21.318H43.8655C44.0635 21.34 44.2065 21.461 44.2945 21.681L44.5585 22.308C44.6245 22.506 44.6355 22.693 44.5915 22.869C44.5695 23.023 44.4375 23.188 44.1955 23.364C43.9755 23.54 43.6125 23.727 43.1065 23.925L41.8855 24.288L40.9615 24.42C40.4775 24.42 40.1145 24.332 39.8725 24.156L39.2785 23.529L38.8165 22.803C37.9365 23.309 37.0785 23.705 36.2425 23.991C35.4065 24.277 34.5925 24.42 33.8005 24.42C33.0965 24.42 32.2055 24.222 31.1275 23.826C30.0715 23.43 29.2795 22.495 28.7515 21.021C28.5975 20.559 28.5205 20.086 28.5205 19.602C28.5205 19.162 28.5865 18.689 28.7185 18.183C28.8725 17.677 29.2245 17.006 29.7745 16.17C30.3465 15.312 31.3915 14.597 32.9095 14.025C34.4275 13.431 36.0555 13.134 37.7935 13.134H38.6185C38.6185 12.496 38.5415 12.023 38.3875 11.715C38.2555 11.385 37.9915 11.11 37.5955 10.89C37.1995 10.648 36.7375 10.527 36.2095 10.527C35.7475 10.527 35.3735 10.604 35.0875 10.758C34.8015 10.89 34.3725 11.242 33.8005 11.814C33.2285 12.386 32.7445 12.672 32.3485 12.672H31.6225L30.5665 12.639C30.3685 12.595 30.1705 12.452 29.9725 12.21C29.8845 12.078 29.8185 11.902 29.7745 11.682C29.7305 11.462 29.7085 11.154 29.7085 10.758C29.7085 10.428 29.7305 10.208 29.7745 10.098L29.9065 9.504C29.9725 9.24 30.1595 9.02 30.4675 8.844C30.7755 8.646 31.2155 8.459 31.7875 8.283L33.5695 7.92L35.8795 7.788C36.9355 7.788 37.8925 7.887 38.7505 8.085C39.6305 8.283 40.3235 8.58 40.8295 8.976C41.3355 9.372 41.7205 9.911 41.9845 10.593C42.2485 11.187 42.3805 12.078 42.3805 13.266V14.058V19.833C42.3805 20.625 42.5125 21.087 42.7765 21.219ZM33.7675 16.995C33.4375 17.281 33.1845 17.589 33.0085 17.919C32.8545 18.227 32.7555 18.579 32.7115 18.975L32.8105 19.932C32.8765 20.372 33.2065 20.724 33.8005 20.988C34.3945 21.23 34.8675 21.351 35.2195 21.351C36.0775 21.351 36.9355 21.054 37.7935 20.46L38.6185 19.767V15.642C37.6065 15.642 36.6715 15.763 35.8135 16.005C34.9775 16.225 34.2955 16.555 33.7675 16.995ZM51.4055 7.92C51.8015 7.854 52.3625 7.821 53.0885 7.821C53.9025 7.821 54.4635 7.843 54.7715 7.887C55.0795 7.909 55.5635 7.986 56.2235 8.118C56.9055 8.25 57.4005 8.492 57.7085 8.844C58.0385 9.174 58.2365 9.614 58.3025 10.164L58.4015 11.187L58.3685 11.748C58.3465 11.968 58.2695 12.155 58.1375 12.309C58.0935 12.375 57.9505 12.463 57.7085 12.573L57.2465 12.672L56.7185 12.705C56.3005 12.705 55.9925 12.683 55.7945 12.639L55.2335 12.408L54.8045 12.078L54.1775 11.451C53.9795 11.209 53.7155 10.989 53.3855 10.791C53.0555 10.593 52.5605 10.494 51.9005 10.494C51.1965 10.494 50.6905 10.692 50.3825 11.088C50.1845 11.418 50.0635 11.737 50.0195 12.045L50.2175 12.738C50.3495 13.068 50.6905 13.376 51.2405 13.662C51.3945 13.728 51.7025 13.849 52.1645 14.025C52.6265 14.179 53.0445 14.311 53.4185 14.421L54.3755 14.685C55.7835 15.037 56.8395 15.455 57.5435 15.939C58.3135 16.401 58.7755 16.995 58.9295 17.721C58.9515 17.831 58.9955 18.095 59.0615 18.513C59.1495 18.931 59.1935 19.195 59.1935 19.305C59.1935 19.877 59.0725 20.46 58.8305 21.054C58.5885 21.626 58.1595 22.187 57.5435 22.737C56.9495 23.265 56.1135 23.683 55.0355 23.991C53.9575 24.277 52.9235 24.42 51.9335 24.42L50.1845 24.321C49.9865 24.299 49.7225 24.255 49.3925 24.189C49.0845 24.123 48.7655 24.046 48.4355 23.958C47.7975 23.76 47.1925 23.529 46.6205 23.265C46.1365 23.001 45.8615 22.693 45.7955 22.341L45.7295 21.516V21.054C45.7295 20.46 45.7405 20.086 45.7625 19.932C45.8065 19.756 45.9165 19.591 46.0925 19.437C46.2905 19.261 46.6645 19.173 47.2145 19.173L47.6435 19.206L48.3695 19.305C48.7215 19.349 49.0185 19.47 49.2605 19.668L50.4155 20.823C50.8115 21.175 51.3395 21.461 51.9995 21.681L52.7915 21.747C53.2535 21.747 53.6385 21.703 53.9465 21.615C54.2545 21.505 54.5295 21.307 54.7715 21.021C55.0135 20.713 55.1345 20.372 55.1345 19.998C55.1345 19.866 55.0795 19.624 54.9695 19.272C54.8595 18.92 54.5845 18.645 54.1445 18.447L51.8345 17.688L50.9435 17.457C49.5795 17.083 48.5015 16.665 47.7095 16.203C46.9395 15.741 46.4775 15.191 46.3235 14.553L46.0595 13.365L46.0265 12.738C46.0265 12.21 46.1145 11.682 46.2905 11.154C46.4885 10.604 46.8625 10.098 47.4125 9.636C47.8745 9.174 48.4685 8.789 49.1945 8.481C49.5025 8.371 49.8215 8.272 50.1515 8.184C50.5035 8.096 50.9215 8.008 51.4055 7.92ZM66.2666 8.58L67.7186 7.92L68.1476 7.821C68.3236 7.821 68.4556 7.799 68.5436 7.755C68.7856 7.755 68.9396 7.788 69.0056 7.854C69.0936 7.92 69.1926 8.063 69.3026 8.283C69.3246 8.327 69.3466 8.426 69.3686 8.58C69.4126 8.712 69.4346 8.921 69.4346 9.207V9.801C69.4346 10.131 69.3576 10.384 69.2036 10.56L68.2466 11.22L66.2666 12.375V17.292L66.2996 19.47C66.2996 20.24 66.4536 20.702 66.7616 20.856L67.4216 21.153L67.8506 21.186C68.0926 21.186 68.2796 21.164 68.4116 21.12L68.9726 20.955C69.1706 20.889 69.3356 20.889 69.4676 20.955C69.9296 21.197 70.1606 21.648 70.1606 22.308C70.1606 22.814 69.8636 23.21 69.2696 23.496C68.6976 23.782 68.0926 24.013 67.4546 24.189C67.1246 24.255 66.8166 24.31 66.5306 24.354C66.2666 24.398 66.0026 24.42 65.7386 24.42C64.9906 24.42 64.3526 24.255 63.8246 23.925C63.3186 23.573 62.9666 23.067 62.7686 22.407C62.7026 22.055 62.6476 21.692 62.6036 21.318C62.5596 20.944 62.5376 20.526 62.5376 20.064V19.272V13.398L61.8116 13.695L61.1516 13.827C60.9316 13.827 60.7446 13.761 60.5906 13.629C60.4586 13.497 60.3926 13.057 60.3926 12.309V11.946C60.3926 11.374 60.4586 11.011 60.5906 10.857C60.7226 10.703 61.1406 10.439 61.8446 10.065L62.5376 9.735V6.237C62.5376 5.555 62.5486 5.137 62.5706 4.983C62.6146 4.829 62.9446 4.587 63.5606 4.257C64.1986 3.905 64.6496 3.685 64.9136 3.597C65.1776 3.509 65.3866 3.465 65.5406 3.465C65.6726 3.465 65.7716 3.476 65.8376 3.498C65.9916 3.63 66.1016 3.817 66.1676 4.059C66.2336 4.301 66.2666 4.653 66.2666 5.115V8.58ZM72.1354 12.738C72.6634 11.396 73.4334 10.329 74.4454 9.537C75.4794 8.723 76.4034 8.239 77.2174 8.085L78.7354 7.821L79.5604 7.788C80.6384 7.788 81.6504 7.942 82.5964 8.25C83.5644 8.536 84.4224 9.064 85.1704 9.834C85.9404 10.582 86.3254 11.396 86.3254 12.276C86.3254 12.518 86.2814 12.782 86.1934 13.068C86.1274 13.398 85.7754 13.783 85.1374 14.223C84.6314 14.575 83.8064 15.048 82.6624 15.642L76.2604 18.975C76.5904 19.525 77.0744 20.031 77.7124 20.493C78.3724 20.955 79.1864 21.186 80.1544 21.186C80.5064 21.186 80.8364 21.164 81.1444 21.12C81.4524 21.076 81.8154 20.988 82.2334 20.856C82.9374 20.658 83.5644 20.394 84.1144 20.064C84.6864 19.734 85.1044 19.569 85.3684 19.569C85.5664 19.569 85.8084 19.679 86.0944 19.899C86.4024 20.097 86.5564 20.515 86.5564 21.153C86.5564 21.461 86.3474 21.813 85.9294 22.209C85.8634 22.275 85.7094 22.396 85.4674 22.572C85.2254 22.726 84.9174 22.891 84.5434 23.067C83.7294 23.463 82.8384 23.804 81.8704 24.09C81.4524 24.2 81.0124 24.288 80.5504 24.354C80.1104 24.42 79.6484 24.453 79.1644 24.453C78.4384 24.453 77.7674 24.376 77.1514 24.222C76.5574 24.09 75.7874 23.76 74.8414 23.232C73.8954 22.682 73.1144 21.714 72.4984 20.328C71.9044 18.92 71.6074 17.567 71.6074 16.269C71.6074 14.883 71.7834 13.706 72.1354 12.738ZM78.5374 14.19C79.2854 13.882 79.7694 13.673 79.9894 13.563C80.2314 13.431 80.4844 13.288 80.7484 13.134C81.2984 12.826 81.5734 12.474 81.5734 12.078C81.5734 11.572 81.3644 11.209 80.9464 10.989C80.5284 10.747 80.0664 10.626 79.5604 10.626L78.4384 10.725C78.1744 10.791 77.7344 10.989 77.1184 11.319C76.5244 11.649 76.0624 12.221 75.7324 13.035C75.4464 13.827 75.3034 14.718 75.3034 15.708L78.5374 14.19ZM93.5947 10.197L95.0137 9.009C95.3877 8.723 95.7617 8.503 96.1357 8.349C96.5097 8.173 96.9607 8.03 97.4887 7.92L98.7427 7.821C98.9627 7.821 99.1387 7.843 99.271 7.887C99.425 7.887 99.568 8.041 99.7 8.349C99.766 8.525 99.81 8.668 99.832 8.778C99.854 8.888 99.865 9.086 99.865 9.372V10.956V11.616C99.865 12.012 99.843 12.298 99.799 12.474C99.777 12.65 99.689 12.793 99.535 12.903L98.8747 13.068L98.3467 13.101H97.6207L97.0597 13.002L96.3337 12.573C96.0477 12.375 95.7727 12.254 95.5087 12.21C95.2447 12.21 94.9587 12.32 94.6507 12.54L93.5947 13.365V18.051C93.5947 19.305 93.6607 20.174 93.7927 20.658C93.9247 21.12 94.3317 21.351 95.0137 21.351C95.4977 21.351 95.8057 21.461 95.9377 21.681C96.0697 21.901 96.1357 22.253 96.1357 22.737C96.1357 23.353 96.0587 23.76 95.9047 23.958C95.7727 24.134 95.3987 24.222 94.7827 24.222H89.0737C88.4577 24.222 88.0727 24.134 87.9187 23.958C87.7867 23.76 87.7207 23.353 87.7207 22.737C87.7207 22.253 87.7757 21.901 87.8857 21.681C88.0177 21.461 88.3477 21.351 88.8757 21.351C89.2937 21.351 89.5577 21.109 89.6677 20.625C89.7997 20.119 89.8657 19.261 89.8657 18.051V15.774V14.652V14.058C89.8657 13.838 89.8437 13.64 89.7997 13.464C89.7997 13.288 89.7117 13.156 89.5357 13.068L89.1727 12.903L88.4797 13.002C88.3477 13.002 88.2047 12.958 88.0507 12.87L87.7867 12.474L87.7207 11.715C87.7207 11.275 87.7867 10.945 87.9187 10.725C88.0727 10.483 88.4137 10.142 88.9417 9.702L91.1197 8.052C91.6477 7.7 92.0877 7.524 92.4397 7.524C92.6377 7.524 92.8687 7.568 93.1327 7.656C93.4407 7.722 93.5947 8.096 93.5947 8.778V10.197ZM107.96 13.332V17.655V18.81C107.96 19.052 107.96 19.283 107.96 19.503C107.96 19.701 107.982 19.932 108.025 20.196C108.092 20.438 108.268 20.636 108.554 20.79C108.862 20.922 109.192 20.988 109.544 20.988C110.028 20.988 110.336 21.109 110.468 21.351C110.6 21.593 110.666 21.934 110.666 22.374V22.803C110.666 23.287 110.589 23.65 110.435 23.892C110.303 24.112 109.94 24.222 109.346 24.222H102.416C101.844 24.222 101.459 24.112 101.261 23.892C101.129 23.65 101.063 23.287 101.063 22.803V22.374C101.063 21.89 101.118 21.538 101.228 21.318C101.338 21.098 101.668 20.988 102.218 20.988C102.526 20.988 102.823 20.922 103.109 20.79C103.395 20.658 103.582 20.416 103.669 20.064C103.78 19.69 103.835 19.184 103.835 18.546V17.655V6.567V5.478C103.835 4.95 103.802 4.521 103.736 4.191C103.692 3.861 103.527 3.641 103.241 3.531C102.955 3.399 102.614 3.311 102.218 3.267C101.69 3.267 101.371 3.168 101.261 2.97C101.173 2.772 101.118 2.618 101.096 2.508C101.074 2.398 101.063 2.189 101.063 1.881V1.452C101.063 0.968001 101.129 0.605001 101.261 0.363001C101.393 0.121 101.778 0 102.416 0H109.346C109.94 0 110.303 0.121 110.435 0.363001C110.589 0.605001 110.666 0.968001 110.666 1.452V1.881C110.666 2.365 110.611 2.717 110.501 2.937C110.391 3.157 110.072 3.267 109.544 3.267C109.236 3.267 108.95 3.322 108.686 3.432C108.422 3.542 108.224 3.806 108.092 4.224L107.96 5.775V6.567V9.867H118.124V6.567V5.709C118.124 5.005 118.069 4.499 117.958 4.191C117.893 3.861 117.717 3.63 117.431 3.498C117.145 3.344 116.826 3.267 116.474 3.267C115.99 3.267 115.671 3.146 115.517 2.904C115.451 2.75 115.407 2.618 115.385 2.508C115.363 2.398 115.352 2.189 115.352 1.881V1.452C115.352 0.968001 115.418 0.605001 115.55 0.363001C115.682 0.121 116.056 0 116.672 0H123.569C124.163 0 124.537 0.121 124.691 0.363001C124.845 0.605001 124.922 0.968001 124.922 1.452V1.881C124.922 2.365 124.867 2.717 124.757 2.937C124.647 3.157 124.328 3.267 123.8 3.267C123.492 3.267 123.206 3.322 122.942 3.432C122.678 3.542 122.48 3.806 122.348 4.224L122.216 5.775V6.567V17.655V18.81C122.216 19.052 122.216 19.283 122.216 19.503C122.216 19.701 122.238 19.932 122.282 20.196C122.348 20.438 122.524 20.636 122.81 20.79C123.118 20.922 123.448 20.988 123.8 20.988C124.284 20.988 124.592 21.109 124.724 21.351C124.856 21.593 124.922 21.934 124.922 22.374V22.803C124.922 23.375 124.812 23.76 124.592 23.958C124.394 24.134 124.053 24.222 123.569 24.222H116.672C116.078 24.222 115.704 24.112 115.55 23.892C115.418 23.65 115.352 23.287 115.352 22.803V22.374C115.352 21.89 115.407 21.538 115.517 21.318C115.627 21.098 115.946 20.988 116.474 20.988C116.782 20.988 117.068 20.933 117.332 20.823C117.618 20.691 117.816 20.449 117.926 20.097C118.058 19.723 118.124 19.206 118.124 18.546V17.655V13.332H107.96ZM132.645 7.92L133.932 7.821C134.988 7.821 136.033 8.03 137.067 8.448C138.101 8.844 138.981 9.46 139.707 10.296C140.455 11.132 141.016 12.078 141.39 13.134C141.764 14.19 141.951 15.213 141.951 16.203C141.951 16.907 141.918 17.435 141.852 17.787C141.786 18.117 141.72 18.392 141.654 18.612C141.61 18.81 141.511 19.129 141.357 19.569C141.159 20.339 140.653 21.153 139.839 22.011C139.047 22.847 138.057 23.463 136.869 23.859C135.703 24.233 134.658 24.42 133.734 24.42C132.788 24.42 131.919 24.299 131.127 24.057C130.687 23.903 130.269 23.727 129.873 23.529C129.499 23.309 129.059 23.001 128.553 22.605C127.651 21.879 126.958 20.944 126.474 19.8C126.254 19.25 126.078 18.667 125.946 18.051C125.814 17.413 125.748 16.764 125.748 16.104L125.847 14.355C125.913 13.629 126.276 12.705 126.936 11.583C127.596 10.439 128.542 9.548 129.774 8.91C131.006 8.25 131.963 7.92 132.645 7.92ZM131.391 11.286C130.665 11.814 130.203 12.43 130.005 13.134C129.829 13.816 129.741 14.663 129.741 15.675C129.741 16.577 129.972 17.578 130.434 18.678C130.918 19.778 131.534 20.559 132.282 21.021C133.052 21.483 133.723 21.714 134.295 21.714L134.988 21.681L135.945 21.285C136.407 21.043 136.803 20.636 137.133 20.064C137.463 19.47 137.683 18.887 137.793 18.315L137.892 17.193C137.892 16.181 137.716 15.147 137.364 14.091C137.034 13.035 136.583 12.287 136.011 11.847C135.527 11.429 135.054 11.11 134.592 10.89C134.394 10.802 134.196 10.736 133.998 10.692C133.822 10.648 133.613 10.626 133.371 10.626C133.085 10.626 132.799 10.67 132.513 10.758L131.886 10.956C131.732 11 131.567 11.11 131.391 11.286ZM148.665 7.92C149.061 7.854 149.622 7.821 150.348 7.821C151.162 7.821 151.723 7.843 152.031 7.887C152.339 7.909 152.823 7.986 153.483 8.118C154.165 8.25 154.66 8.492 154.968 8.844C155.298 9.174 155.496 9.614 155.562 10.164L155.661 11.187L155.628 11.748C155.606 11.968 155.529 12.155 155.397 12.309C155.353 12.375 155.21 12.463 154.968 12.573L154.506 12.672L153.978 12.705C153.56 12.705 153.252 12.683 153.054 12.639L152.493 12.408L152.064 12.078L151.437 11.451C151.239 11.209 150.975 10.989 150.645 10.791C150.315 10.593 149.82 10.494 149.16 10.494C148.456 10.494 147.95 10.692 147.642 11.088C147.444 11.418 147.323 11.737 147.279 12.045L147.477 12.738C147.609 13.068 147.95 13.376 148.5 13.662C148.654 13.728 148.962 13.849 149.424 14.025C149.886 14.179 150.304 14.311 150.678 14.421L151.635 14.685C153.043 15.037 154.099 15.455 154.803 15.939C155.573 16.401 156.035 16.995 156.189 17.721C156.211 17.831 156.255 18.095 156.321 18.513C156.409 18.931 156.453 19.195 156.453 19.305C156.453 19.877 156.332 20.46 156.09 21.054C155.848 21.626 155.419 22.187 154.803 22.737C154.209 23.265 153.373 23.683 152.295 23.991C151.217 24.277 150.183 24.42 149.193 24.42L147.444 24.321C147.246 24.299 146.982 24.255 146.652 24.189C146.344 24.123 146.025 24.046 145.695 23.958C145.057 23.76 144.452 23.529 143.88 23.265C143.396 23.001 143.121 22.693 143.055 22.341L142.989 21.516V21.054C142.989 20.46 143 20.086 143.022 19.932C143.066 19.756 143.176 19.591 143.352 19.437C143.55 19.261 143.924 19.173 144.474 19.173L144.903 19.206L145.629 19.305C145.981 19.349 146.278 19.47 146.52 19.668L147.675 20.823C148.071 21.175 148.599 21.461 149.259 21.681L150.051 21.747C150.513 21.747 150.898 21.703 151.206 21.615C151.514 21.505 151.789 21.307 152.031 21.021C152.273 20.713 152.394 20.372 152.394 19.998C152.394 19.866 152.339 19.624 152.229 19.272C152.119 18.92 151.844 18.645 151.404 18.447L149.094 17.688L148.203 17.457C146.839 17.083 145.761 16.665 144.969 16.203C144.199 15.741 143.737 15.191 143.583 14.553L143.319 13.365L143.286 12.738C143.286 12.21 143.374 11.682 143.55 11.154C143.748 10.604 144.122 10.098 144.672 9.636C145.134 9.174 145.728 8.789 146.454 8.481C146.762 8.371 147.081 8.272 147.411 8.184C147.763 8.096 148.181 8.008 148.665 7.92ZM163.526 8.58L164.978 7.92L165.407 7.821C165.583 7.821 165.715 7.799 165.803 7.755C166.045 7.755 166.199 7.788 166.265 7.854C166.353 7.92 166.452 8.063 166.562 8.283C166.584 8.327 166.606 8.426 166.628 8.58C166.672 8.712 166.694 8.921 166.694 9.207V9.801C166.694 10.131 166.617 10.384 166.463 10.56L165.506 11.22L163.526 12.375V17.292L163.559 19.47C163.559 20.24 163.713 20.702 164.021 20.856L164.681 21.153L165.11 21.186C165.352 21.186 165.539 21.164 165.671 21.12L166.232 20.955C166.43 20.889 166.595 20.889 166.727 20.955C167.189 21.197 167.42 21.648 167.42 22.308C167.42 22.814 167.123 23.21 166.529 23.496C165.957 23.782 165.352 24.013 164.714 24.189C164.384 24.255 164.076 24.31 163.79 24.354C163.526 24.398 163.262 24.42 162.998 24.42C162.25 24.42 161.612 24.255 161.084 23.925C160.578 23.573 160.226 23.067 160.028 22.407C159.962 22.055 159.907 21.692 159.863 21.318C159.819 20.944 159.797 20.526 159.797 20.064V19.272V13.398L159.071 13.695L158.411 13.827C158.191 13.827 158.004 13.761 157.85 13.629C157.718 13.497 157.652 13.057 157.652 12.309V11.946C157.652 11.374 157.718 11.011 157.85 10.857C157.982 10.703 158.4 10.439 159.104 10.065L159.797 9.735V6.237C159.797 5.555 159.808 5.137 159.83 4.983C159.874 4.829 160.204 4.587 160.82 4.257C161.458 3.905 161.909 3.685 162.173 3.597C162.437 3.509 162.646 3.465 162.8 3.465C162.932 3.465 163.031 3.476 163.097 3.498C163.251 3.63 163.361 3.817 163.427 4.059C163.493 4.301 163.526 4.653 163.526 5.115V8.58Z" fill="#3D429B"/>
</svg>
