<svg width="411" height="315" viewBox="0 0 411 315" fill="none" xmlns="http://www.w3.org/2000/svg">
<path d="M19.1936 234.81L34.4967 219.806C36.1397 218.196 38.7769 218.222 40.3879 219.864L33.4433 212.78C31.8321 211.138 29.1953 211.112 27.5521 212.722L12.2486 227.726C10.6067 229.338 10.5808 231.974 12.1906 233.618L19.1374 240.704C17.5269 239.061 17.5527 236.423 19.1949 234.812" fill="#E0E0E0"/>
<path d="M25.0307 240.761L40.332 225.757C41.9742 224.146 42 221.509 40.3896 219.866L47.336 226.949C48.9461 228.592 48.9203 231.229 47.2784 232.84L31.9766 247.845C30.3335 249.455 27.6967 249.43 26.0854 247.788L19.1377 240.704C20.7488 242.346 23.386 242.372 25.0289 240.761" fill="#E5E5E5"/>
<path d="M47.3364 226.949L40.3901 219.865C42.0004 221.508 41.9744 224.145 40.332 225.756L39.9072 226.172L43.9381 230.281C45.5479 231.924 45.5219 234.561 43.8801 236.172L47.2775 232.842C48.9198 231.231 48.9458 228.593 47.3355 226.95" fill="#383838"/>
<path d="M30.0425 216.114L34.0733 220.223L34.4981 219.806C36.1411 218.196 38.7781 218.222 40.3893 219.864L33.443 212.78C31.8317 211.138 29.1949 211.112 27.5517 212.722L27.127 213.139L30.0425 216.114L30.0425 216.114Z" fill="#707070"/>
<path d="M117.759 232.849L117.65 232.677C117.63 232.655 117.612 232.63 117.598 232.604L109.996 221.037L100.175 228.331L107.391 239.408L107.48 239.549L107.521 239.606C109.34 242.474 113.139 243.324 116.006 241.505C118.873 239.686 119.723 235.887 117.905 233.02C117.865 232.957 117.823 232.895 117.781 232.833" fill="#E0E0E0"/>
<path d="M88.2961 236.069C88.2961 232.673 85.5435 229.921 82.148 229.921C78.7526 229.921 76 232.673 76 236.069C76 239.464 78.7526 242.217 82.148 242.217C85.5435 242.217 88.2961 239.464 88.2961 236.069Z" fill="#E0E0E0"/>
<path d="M110.945 224.257C110.956 220.859 108.209 218.095 104.811 218.085C101.412 218.075 98.6492 220.822 98.639 224.22C98.6353 225.433 98.9906 226.621 99.6601 227.633L94.971 221.037C93.1979 218.148 89.4186 217.243 86.5295 219.016C85.7064 219.522 85.0141 220.214 84.5089 221.037L77.0792 232.625C78.9772 229.813 82.7954 229.072 85.6073 230.97C86.3479 231.47 86.9706 232.125 87.4318 232.89L92.2825 239.71C94.282 242.444 98.1189 243.039 100.853 241.04C101.361 240.668 101.81 240.219 102.182 239.71L102.234 239.632C102.361 239.455 102.478 239.271 102.583 239.08L109.877 227.706C110.562 226.687 110.925 225.485 110.919 224.257M100.582 228.727L100.687 228.826L100.582 228.727ZM101.103 229.186L101.223 229.274L101.14 229.186M102.484 229.952L102.646 230.009L102.484 229.952ZM103.151 230.176L103.37 230.228L103.151 230.176ZM103.865 230.327L104.084 230.358L103.865 230.327ZM108.851 228.884L109.012 228.733L108.851 228.884ZM105.522 230.363L105.74 230.327L105.522 230.363ZM106.22 230.238L106.454 230.176L106.22 230.238ZM106.918 230.025C106.985 230.004 107.051 229.98 107.116 229.952C107.051 229.98 106.985 230.004 106.918 230.025ZM108.304 229.3L108.434 229.191L108.283 229.306M109.325 228.383L109.455 228.243L109.325 228.383ZM76.9281 232.869C76.9749 232.791 77.0166 232.718 77.0687 232.645L76.9229 232.869H76.9281Z" fill="#E5E5E5"/>
<path d="M104.748 218.105C101.356 218.11 98.6109 220.862 98.6152 224.253C98.6196 227.645 101.372 230.39 104.763 230.386C108.154 230.382 110.9 227.629 110.896 224.238C110.891 220.853 108.148 218.11 104.763 218.105" fill="#707070"/>
<path d="M104.785 230.405C102.714 230.407 100.783 229.365 99.6475 227.633L94.9583 221.037C93.1884 218.15 89.4128 217.244 86.5252 219.013C85.7004 219.519 85.0069 220.212 84.5014 221.037L77.0508 232.625C78.9489 229.813 82.767 229.072 85.579 230.97C86.3196 231.47 86.9423 232.125 87.4035 232.89L92.2802 239.711C94.2797 242.444 98.1166 243.039 100.85 241.04C101.359 240.668 101.807 240.219 102.18 239.711L102.227 239.632L102.581 239.111L109.875 227.732C108.726 229.412 106.82 230.413 104.785 230.405M76.8945 232.87L77.03 232.646L76.8945 232.87Z" fill="#E5E5E5"/>
<path d="M171.323 232.444C170.84 232.587 170.454 232.636 169.95 232.636C165.815 232.636 159.741 218.185 159.741 213.375C159.741 211.603 160.162 211.013 160.753 210.507C155.691 211.097 149.616 212.954 147.675 215.316C147.253 215.907 147 216.835 147 218.016C147 225.526 155.015 242.568 160.669 242.568C163.284 242.568 167.695 238.265 171.323 232.444" fill="#E5E5E5"/>
<path d="M168.683 210C173.914 210 179.146 210.844 179.146 213.797C179.146 219.788 175.349 227.044 173.409 227.044C169.95 227.044 165.646 217.426 165.646 212.616C165.646 210.422 166.49 210 168.683 210" fill="#E5E5E5"/>
<path d="M249.862 224.135C249.846 222.333 246.513 221.515 237.883 221.515C217.634 221.515 212.497 220.651 207 214.872C209.313 218.342 210.578 224.85 231.98 224.526C254.31 224.183 240.687 230.278 236.724 237.165C243.872 230.791 249.841 226.591 249.862 224.161V224.135V224.135Z" fill="#E5E5E5"/>
<path d="M221.41 242.642C221.409 244.317 220.029 245.695 218.352 245.696C216.658 245.696 215.288 244.327 215.288 242.642V242.639C215.288 240.961 216.67 239.581 218.35 239.581H218.352C220.04 239.581 221.41 240.949 221.41 242.642Z" fill="#E5E5E5"/>
<path d="M235.353 242.642C235.352 244.317 233.973 245.695 232.296 245.696C230.603 245.696 229.232 244.327 229.232 242.642V242.639C229.232 240.961 230.614 239.581 232.294 239.581H232.296C233.984 239.581 235.353 240.949 235.353 242.642Z" fill="#E5E5E5"/>
<path d="M288.88 236.483L286.346 228.574C286.095 229.267 285.901 229.929 285.689 230.584C285.478 231.236 285.267 231.888 285.056 232.54C284.844 233.2 284.632 233.859 284.419 234.518C284.208 235.17 283.996 235.821 283.78 236.483H281.643L278 225.127C278.2 225.077 279.465 225.061 280.156 225.098L282.689 233.419L282.738 233.421L285.422 225.101H287.24L289.923 233.417C290.264 232.51 290.532 231.588 290.819 230.673C291.111 229.743 291.384 228.807 291.669 227.874C291.952 226.951 292.238 226.028 292.525 225.099H294.663C294.435 225.877 294.176 226.627 293.938 227.383C293.699 228.144 293.456 228.903 293.213 229.663C292.972 230.414 292.729 231.166 292.487 231.917C292.243 232.676 291.998 233.436 291.754 234.195C291.51 234.954 291.266 235.714 291.019 236.483H288.88L288.88 236.483Z" fill="#E5E5E5"/>
<path d="M305.638 225.1H307.912L311.194 229.844L314.478 225.1H316.773V236.461C316.61 236.502 315.1 236.513 314.733 236.473V228.124L314.694 228.106L311.195 233.115L307.687 228.094V236.481H305.638V225.1V225.1Z" fill="#E5E5E5"/>
<path d="M297.538 225.1V229.785C297.718 229.839 302.048 229.853 302.369 229.804V225.128C302.568 225.078 303.862 225.062 304.399 225.1C304.443 225.28 304.462 235.957 304.418 236.482H302.379V231.767H297.546C297.535 232.154 297.542 232.543 297.541 232.931C297.54 233.33 297.541 233.729 297.541 234.128V236.481H295.494V225.1H297.538Z" fill="#E5E5E5"/>
<path d="M322.987 227.875C321.832 228.155 321.1 228.876 320.79 230.018C320.403 231.445 321.239 233.14 322.92 233.538C324.139 233.826 325.158 233.43 325.97 232.447H328.391L329.266 233.298L328.686 234.304L327.211 233.887L326.821 234.384L327.207 235.743C326.897 235.985 326.557 236.168 326.187 236.336L325.137 235.259L324.567 235.418L324.191 236.897C323.807 236.937 323.422 236.923 323.03 236.905L322.652 235.422L322.085 235.257L321.014 236.352L320.007 235.769L320.422 234.297L319.982 233.896L318.572 234.295C318.315 233.991 318.145 233.642 317.965 233.286L319.046 232.234L318.894 231.664L317.437 231.298V230.117L318.889 229.752L319.049 229.187L317.963 228.125C318.052 227.955 318.136 227.782 318.232 227.616C318.33 227.448 318.441 227.288 318.551 227.115L319.998 227.521L320.404 227.086C320.313 226.648 320.14 226.172 320.017 225.668C320.317 225.428 320.665 225.257 321.026 225.071L322.08 226.151L322.646 226.007L323.022 224.535H324.195L324.413 225.348C324.468 225.495 324.397 225.543 324.263 225.539C324.205 225.537 324.151 225.516 324.096 225.501C323.747 225.407 323.565 225.523 323.494 225.877C323.471 225.991 323.533 226.062 323.602 226.133C323.711 226.244 323.847 226.323 323.95 226.439C324.187 226.703 324.091 227.05 323.754 227.143C323.597 227.186 323.439 227.229 323.28 227.261C323.115 227.295 323.049 227.386 323.055 227.553C323.058 227.662 323.085 227.783 322.987 227.875V227.875Z" fill="#E0E0E0"/>
<path d="M330.483 225.6C330.909 225.368 331.351 225.171 331.83 225.083C332.148 225.025 332.47 224.975 332.792 224.96C333.222 224.941 333.654 224.937 334.081 225.008C334.552 225.088 335.014 225.202 335.456 225.384C335.715 225.49 335.971 225.607 336.223 225.718V227.725C336.018 227.613 335.823 227.5 335.621 227.398C334.824 226.993 333.976 226.817 333.086 226.871C332.633 226.898 332.185 226.975 331.78 227.204C331.534 227.343 331.322 227.525 331.223 227.794C331.048 228.27 331.15 228.712 331.591 229.013C331.95 229.258 332.359 229.384 332.77 229.505C333.426 229.7 334.092 229.864 334.724 230.135C335.243 230.357 335.72 230.641 336.108 231.059C336.534 231.517 336.772 232.064 336.876 232.676C336.935 233.023 336.947 233.37 336.927 233.72C336.898 234.236 336.721 234.697 336.418 235.111C335.87 235.86 335.104 236.272 334.223 236.489C333.572 236.65 332.912 236.66 332.243 236.6C331.314 236.516 330.431 236.296 329.604 235.863C329.49 235.803 329.377 235.741 329.258 235.677V233.584C329.33 233.63 329.396 233.669 329.459 233.713C330.143 234.183 330.893 234.482 331.718 234.595C332.447 234.696 333.17 234.691 333.884 234.489C334.007 234.455 334.125 234.4 334.241 234.346C335.063 233.967 335 232.978 334.588 232.512C334.299 232.186 333.929 231.99 333.528 231.852C332.972 231.662 332.41 231.49 331.85 231.31C331.365 231.154 330.888 230.98 330.448 230.717C330.038 230.472 329.691 230.16 329.441 229.748C329.44 229.671 329.499 229.683 329.543 229.684C329.642 229.687 329.733 229.723 329.826 229.752C330.227 229.881 330.293 229.85 330.464 229.478C330.519 229.357 330.506 229.265 330.416 229.169C330.297 229.045 330.156 228.948 330.031 228.832C329.897 228.708 329.862 228.567 329.914 228.392C329.962 228.229 330.07 228.154 330.226 228.124C330.386 228.094 330.541 228.044 330.701 228.014C330.907 227.974 330.95 227.834 330.946 227.654C330.942 227.476 330.928 227.309 330.709 227.257C330.535 227.217 330.36 227.178 330.19 227.124C329.882 227.028 329.801 226.715 330.017 226.473C330.178 226.293 330.378 226.148 330.488 225.976C330.532 225.821 330.358 225.719 330.483 225.6V225.6Z" fill="#E5E5E5"/>
<path d="M324.413 225.515C324.172 225.451 323.952 225.394 323.729 225.335C323.583 225.545 323.45 225.743 323.369 225.974L324.045 226.648C324.015 226.773 323.982 226.902 323.952 227.026C323.623 227.111 323.314 227.19 322.987 227.274V227.875C322.991 227.965 323.024 228.018 323.127 228.04C323.405 228.1 323.68 228.175 323.97 228.246C323.991 228.386 324.01 228.518 324.035 228.681C323.812 228.885 323.591 229.088 323.378 229.283C323.45 229.521 323.617 229.804 323.756 229.935C324.061 229.849 324.365 229.763 324.627 229.69C324.758 229.808 324.854 229.895 324.942 229.975C324.855 230.291 324.74 230.587 324.697 230.916C324.911 231.035 325.112 231.147 325.325 231.265C325.554 231.031 325.777 230.805 326.01 230.568C326.138 230.599 326.267 230.629 326.375 230.654C326.459 230.99 326.536 231.296 326.611 231.597H327.364C327.474 231.275 327.468 230.929 327.634 230.644C327.771 230.617 327.887 230.594 328.001 230.571L327.963 230.634C328.205 230.826 328.448 231.018 328.726 231.238C328.874 231.15 329.091 231.021 329.3 230.896C329.207 230.558 329.12 230.245 329.05 229.99C329.155 229.862 329.226 229.775 329.3 229.685C329.355 229.71 329.398 229.729 329.441 229.748C329.46 229.741 329.481 229.724 329.497 229.728C329.745 229.796 329.993 229.867 330.256 229.942C330.381 229.731 330.502 229.524 330.631 229.306C330.39 229.068 330.16 228.841 329.926 228.609C329.957 228.488 329.988 228.372 330.022 228.245C330.333 228.166 330.645 228.088 330.958 228.009C331.032 227.756 331.019 227.511 330.963 227.263C330.65 227.182 330.346 227.105 330.029 227.024C329.994 226.897 329.959 226.776 329.928 226.667C330.165 226.421 330.39 226.188 330.613 225.957C330.586 225.83 330.454 225.744 330.483 225.6C330.405 225.522 330.327 225.444 330.224 225.34C329.942 225.417 329.638 225.499 329.321 225.585C329.24 225.501 329.15 225.408 329.04 225.294C329.123 225.013 329.21 224.718 329.303 224.401C329.12 224.229 328.897 224.114 328.63 224.004C328.41 224.244 328.19 224.483 327.987 224.704C327.835 224.664 327.721 224.633 327.601 224.6C327.517 224.28 327.434 223.961 327.35 223.644H326.624C326.546 223.95 326.468 224.256 326.383 224.591C326.265 224.629 326.132 224.672 325.992 224.717C325.77 224.481 325.555 224.252 325.344 224.027C325.058 224.121 324.856 224.243 324.693 224.425C324.775 224.718 324.86 225.021 324.94 225.307C324.843 225.409 324.76 225.497 324.67 225.591L324.49 225.527L324.414 225.515L324.413 225.515ZM328.227 226.209C328.459 226.404 328.626 226.65 328.743 226.927C328.789 227.036 328.819 227.152 328.851 227.266C328.853 227.275 328.818 227.294 328.8 227.309C328.754 227.247 328.709 227.184 328.66 227.118C328.171 227.255 327.687 227.39 327.22 227.521C327.066 227.365 326.936 227.234 326.796 227.092C326.925 226.663 327.056 226.227 327.187 225.791C327.598 225.77 327.926 225.957 328.227 226.209V226.209Z" fill="#969696"/>
<path d="M328.834 228.063C328.648 228.793 328.187 229.276 327.451 229.47C327.074 229.569 326.701 229.546 326.332 229.412C326.241 229.379 326.184 229.328 326.137 229.247C325.91 228.854 325.608 228.531 325.217 228.275C324.995 227.687 325.07 227.125 325.416 226.601C325.796 226.025 326.347 225.751 327.032 225.742C327.084 225.741 327.135 225.774 327.186 225.791C327.055 226.227 326.925 226.663 326.796 227.092C326.936 227.234 327.066 227.365 327.22 227.521C327.687 227.39 328.17 227.255 328.659 227.118C328.708 227.184 328.754 227.247 328.799 227.309C328.959 227.553 328.896 227.82 328.834 228.063V228.063Z" fill="#E0E0E0"/>
<path d="M382.458 211.531L365 217.757L367.663 240.841L382.458 249.036L397.254 240.841L399.917 217.757L382.458 211.531Z" fill="#828282"/>
<path d="M382.459 211.531V215.694V215.676V234.672V249.036L397.255 240.841L399.917 217.757L382.459 211.531Z" fill="#E5E5E5"/>
<path d="M382.458 215.676L371.544 240.147H375.613L377.807 234.672H387.071L389.265 240.147H393.334L382.458 215.676ZM385.646 231.296H379.27L382.458 223.627L385.646 231.296Z" fill="white"/>
<path d="M252.963 310.457C251.333 309.234 248.917 308.303 246.384 307.313C243.356 306.148 239.891 304.809 237.329 302.742C234.418 300.413 232.991 297.472 232.991 293.775C232.933 290.543 234.418 287.486 236.98 285.535C239.92 283.235 244.346 282.012 249.819 282.012C251.246 282.012 252.701 282.1 254.099 282.274C254.244 282.304 254.39 282.187 254.39 282.042C254.39 281.954 254.361 281.867 254.303 281.809C246.587 274.879 234.738 275.52 227.809 283.206C220.879 290.892 221.52 302.771 229.206 309.7C232.642 312.786 237.125 314.504 241.754 314.504C245.772 314.533 249.703 313.223 252.934 310.836C252.993 310.777 253.051 310.719 253.051 310.632C253.08 310.603 253.022 310.515 252.963 310.457V310.457Z" fill="#E5E5E5"/>
<path d="M260.504 294.066C260.504 294.008 260.475 293.92 260.417 293.891C256.486 290.63 253.342 289.32 249.47 289.32C247.432 289.32 245.83 289.728 244.782 290.543C243.88 291.213 243.385 292.261 243.385 293.367C243.385 296.599 247.315 298.055 251.886 299.772C254.244 300.646 256.661 301.548 258.903 302.8C258.932 302.829 258.99 302.829 259.019 302.829C259.048 302.829 259.077 302.829 259.106 302.8C259.194 302.771 259.252 302.713 259.281 302.655C260.155 300.471 260.591 298.142 260.591 295.784C260.562 295.231 260.562 294.648 260.504 294.066H260.504Z" fill="#E5E5E5"/>
<path d="M153.333 299.867C154.383 304.752 155.257 309.404 158.317 312.752H152.48C151.116 312.752 150.008 311.65 150 310.286V282.476C150.002 281.108 151.112 280 152.48 280H156.697C155.67 280.937 154.768 282.003 154.013 283.171C150.676 288.285 152.048 293.861 153.333 299.867V299.867ZM185.022 280H178.405C179.971 281.567 181.292 283.595 182.29 286.118L172.23 288.241C171.128 286.128 169.452 284.37 166.173 285.061C164.365 285.444 163.166 286.458 162.635 287.569C161.981 288.938 161.66 290.473 163.223 297.769C164.785 305.065 165.705 306.338 166.86 307.325C167.799 308.123 169.313 308.566 171.121 308.184C174.402 307.493 175.21 305.21 175.353 302.835L185.413 300.71C185.65 305.914 184.039 309.95 181.196 312.741H185.022C186.387 312.743 187.496 311.641 187.505 310.276V282.476C187.502 281.107 186.391 279.999 185.022 280V280Z" fill="#E5E5E5"/>
<path d="M13.665 22.7517C13.665 29.1192 17.3655 34.622 22.7315 37.2297L15.0578 16.2048C14.1652 18.2055 13.665 20.4195 13.665 22.7517Z" fill="#E5E5E5"/>
<path d="M40.6123 21.94C40.6123 19.9519 39.8982 18.575 39.2857 17.5033C38.4702 16.1782 37.7059 15.0561 37.7059 13.731C37.7059 12.2522 38.8274 10.8756 40.4072 10.8756C40.4785 10.8756 40.5462 10.8845 40.6157 10.8885C37.7536 8.26644 33.9405 6.66553 29.7524 6.66553C24.1324 6.66553 19.188 9.549 16.3115 13.9165C16.6889 13.9278 17.0446 13.9357 17.3468 13.9357C19.0294 13.9357 21.634 13.7316 21.634 13.7316C22.5012 13.6804 22.6034 14.9541 21.7372 15.0567C21.7372 15.0567 20.8657 15.1592 19.896 15.21L25.7541 32.6349L29.2746 22.0765L26.7683 15.2094C25.902 15.1586 25.0813 15.0561 25.0813 15.0561C24.2145 15.0053 24.3161 13.6798 25.183 13.731C25.183 13.731 27.8396 13.9351 29.4203 13.9351C31.1027 13.9351 33.7076 13.731 33.7076 13.731C34.5754 13.6798 34.6773 14.9535 33.8107 15.0561C33.8107 15.0561 32.9374 15.1586 31.9695 15.2094L37.783 32.5023L39.3876 27.1403C40.0831 24.9153 40.6123 23.3171 40.6123 21.94L40.6123 21.94Z" fill="#E5E5E5"/>
<path d="M30.0336 24.1589L25.207 38.1842C26.6482 38.6079 28.1722 38.8396 29.7514 38.8396C31.6248 38.8396 33.4213 38.5157 35.0935 37.9277C35.0503 37.8588 35.0112 37.7856 34.979 37.7061L30.0336 24.1589V24.1589Z" fill="#E5E5E5"/>
<path d="M43.8675 15.0337C43.9367 15.5461 43.9759 16.0962 43.9759 16.6879C43.9759 18.3203 43.671 20.1554 42.7527 22.4499L37.8389 36.657C42.6214 33.8681 45.8382 28.6867 45.8382 22.752C45.8385 19.9552 45.1241 17.3252 43.8675 15.0337V15.0337Z" fill="#E5E5E5"/>
<path d="M29.7524 4C19.4126 4 11 12.412 11 22.7518C11 33.0928 19.4126 41.5045 29.7524 41.5045C40.0922 41.5045 48.5057 33.0928 48.5057 22.7518C48.5054 12.412 40.0919 4 29.7524 4ZM29.7524 40.6449C19.8867 40.6449 11.8598 32.618 11.8598 22.7518C11.8598 12.8861 19.8864 4.85983 29.7524 4.85983C39.6177 4.85983 47.644 12.8861 47.644 22.7518C47.644 32.618 39.6177 40.6449 29.7524 40.6449Z" fill="#E5E5E5"/>
<path fill-rule="evenodd" clip-rule="evenodd" d="M109.411 12.4845C109.424 12.5345 109.431 12.586 109.432 12.6378V20.6881C109.432 20.8984 109.319 21.0926 109.137 21.1972L102.38 25.0874V32.7979C102.38 33.0077 102.268 33.2014 102.086 33.3071L87.9823 41.4263C87.95 41.4446 87.9148 41.4563 87.8796 41.4688C87.8664 41.4732 87.8539 41.4813 87.84 41.4849C87.7414 41.5109 87.6377 41.5109 87.5391 41.4849C87.523 41.4805 87.5083 41.4717 87.4929 41.4659C87.4606 41.4541 87.4269 41.4439 87.3961 41.4262L73.295 33.3071C73.1126 33.2023 73.0002 33.0081 73 32.7979V8.6472C73 8.59437 73.0073 8.54301 73.0205 8.49312C73.0249 8.47625 73.0352 8.46084 73.0411 8.44396C73.0521 8.41314 73.0624 8.3816 73.0785 8.35299C73.0895 8.33391 73.1056 8.3185 73.1189 8.3009C73.1357 8.27742 73.1511 8.2532 73.1709 8.23266C73.1878 8.21578 73.2098 8.20331 73.2289 8.18864C73.2502 8.17104 73.2693 8.15195 73.2935 8.13801H73.2942L80.3452 4.07841C80.5269 3.97386 80.7504 3.97386 80.9321 4.07841L87.9831 8.13801H87.9845C88.008 8.15268 88.0278 8.17103 88.0491 8.1879C88.0682 8.20257 88.0894 8.21578 88.1063 8.23192C88.1269 8.2532 88.1415 8.27741 88.1591 8.30089C88.1716 8.31849 88.1885 8.3339 88.1988 8.35297C88.2156 8.38232 88.2252 8.41314 88.2369 8.44395C88.2428 8.46083 88.2531 8.47624 88.2575 8.49384C88.271 8.54384 88.2779 8.59539 88.278 8.64719V23.7315L94.1535 20.3483V12.6371C94.1535 12.5857 94.1609 12.5336 94.1741 12.4845C94.1792 12.4669 94.1887 12.4515 94.1946 12.4346C94.2064 12.4038 94.2166 12.3722 94.2328 12.3436C94.2438 12.3245 94.2599 12.3091 94.2724 12.2915C94.29 12.2681 94.3047 12.2438 94.3252 12.2233C94.3421 12.2064 94.3634 12.1939 94.3825 12.1793C94.4045 12.1617 94.4235 12.1426 94.447 12.1286H94.4477L101.499 8.06905C101.681 7.96434 101.905 7.96434 102.086 8.06905L109.137 12.1286C109.162 12.1433 109.181 12.1617 109.203 12.1785C109.222 12.1932 109.243 12.2064 109.26 12.2226C109.28 12.2438 109.295 12.268 109.313 12.2915C109.326 12.3091 109.342 12.3245 109.352 12.3436C109.369 12.3722 109.379 12.4038 109.39 12.4346C109.397 12.4515 109.407 12.4669 109.411 12.4845V12.4845ZM108.256 20.3484V13.654L105.789 15.0745L102.38 17.0371V23.7315L108.257 20.3484H108.256ZM101.205 32.4582V25.7595L97.8521 27.6744L88.2773 33.1391V39.9009L101.205 32.4582V32.4582ZM74.1754 9.66339V32.4582L87.1019 39.9002V33.1398L80.3488 29.3179L80.3466 29.3164L80.3437 29.315C80.321 29.3018 80.3019 29.2827 80.2806 29.2666C80.2623 29.2519 80.241 29.2401 80.2248 29.224L80.2234 29.2218C80.2043 29.2035 80.1911 29.1807 80.1749 29.1602C80.1603 29.1404 80.1427 29.1235 80.1309 29.1029L80.1302 29.1007C80.117 29.0787 80.1089 29.0523 80.0994 29.0274C80.0898 29.0054 80.0774 28.9848 80.0715 28.9613V28.9606C80.0642 28.9327 80.0627 28.9034 80.0598 28.8748C80.0568 28.8528 80.0509 28.8308 80.0509 28.8087V13.0465L76.6429 11.0831L74.1754 9.66412V9.66339H74.1754ZM80.6394 5.26554L74.7646 8.6472L80.6379 12.0289L86.512 8.64647L80.6379 5.26555H80.6394V5.26554ZM83.6945 26.3699L87.1026 24.4079V9.66339L84.6352 11.0838L81.2264 13.0465V27.7911L83.6946 26.3699L83.6945 26.3699ZM101.793 9.25616L95.9188 12.6378L101.793 16.0195L107.666 12.6371L101.793 9.25618V9.25616ZM101.205 17.0371L97.7964 15.0745L95.3289 13.654V20.3483L98.737 22.3103L101.205 23.7315V17.0371H101.205ZM87.6888 32.1229L96.3048 27.2041L100.612 24.7462L94.742 21.3667L87.9838 25.2576L81.8243 28.8036L87.6888 32.1229L87.6888 32.1229Z" fill="#E5E5E5"/>
<path d="M144.047 37.5019C141.798 36.5299 139.694 34.0594 139.689 31.5316C139.683 28.7756 141.43 26.4357 143.602 24.898C143.341 25.8847 143.198 26.7872 143.845 27.6697C144.447 28.4902 145.5 28.8889 146.495 28.6725C148.819 28.1637 148.926 25.6088 147.548 24.1202C146.185 22.6461 144.868 20.981 145.386 18.8433C145.646 17.7717 146.304 16.7679 147.137 16.0504C146.496 17.7342 148.317 19.3947 149.517 20.2218C151.598 21.6568 153.881 22.7413 155.794 24.4234C157.807 26.1914 159.293 28.5818 158.993 31.3543C158.668 34.3593 156.28 36.4493 153.601 37.5045C159.261 36.2552 165.109 31.8624 165.229 25.5854C165.328 20.4212 161.786 16.4469 157.397 14.1716L157.168 14.0465C157.289 14.3387 157.328 14.5873 157.324 14.8098C157.363 14.6457 157.389 14.4771 157.397 14.3031C157.396 14.5098 157.369 14.7155 157.317 14.9155L157.324 14.8098C157.258 15.084 157.149 15.3456 156.999 15.5842L157.063 15.5149C156.188 16.967 153.817 17.2824 152.647 15.7787C150.764 13.3601 152.686 10.7523 152.955 8.19103C153.291 4.98105 151.278 1.86481 148.782 0C150.157 2.22379 148.346 5.16588 146.897 6.81068C145.492 8.40507 143.783 9.73627 142.232 11.1849C140.566 12.7409 138.964 14.3798 137.595 16.206C134.856 19.8612 133.179 24.4583 134.411 29.0183C135.643 33.5752 139.59 36.476 144.047 37.5018L144.047 37.5019L144.047 37.5019Z" fill="#E5E5E5"/>
<path d="M240.141 15.0631C239.289 14.9019 238.438 15.3854 237.655 16.5595C237.01 17.4804 236.596 18.4243 236.389 19.4142C236.274 19.9667 236.228 20.5652 236.228 21.1638C236.228 21.8545 236.389 22.6142 236.665 23.3509C237.01 24.2948 237.494 24.8013 238.069 24.9164C238.668 25.0544 239.312 24.7782 240.003 24.1566C240.878 23.3739 241.476 22.1998 241.822 20.6113C241.937 20.0588 241.983 19.4602 241.983 18.8156C241.983 18.125 241.822 17.3652 241.546 16.6286C241.2 15.6846 240.717 15.1782 240.141 15.0631L240.141 15.0631Z" fill="#E5E5E5"/>
<path d="M243.456 5.20972H195.479C192.44 5.20972 189.977 7.69606 190 10.7119V29.0141C190 32.053 192.463 34.5163 195.502 34.5163H218.225L228.607 40.2947L226.236 34.5163H243.433C246.472 34.5163 248.936 32.053 248.936 29.0141V10.7119C248.936 7.67302 246.472 5.20972 243.456 5.20972V5.20972ZM214.426 29.2444C214.472 29.8429 214.38 30.3724 214.15 30.8328C213.874 31.3623 213.436 31.6386 212.884 31.6846C212.262 31.7306 211.618 31.4544 210.996 30.7868C208.763 28.5076 206.99 25.1005 205.701 20.5882C204.135 23.6501 202.984 25.9522 202.248 27.4947C200.843 30.2112 199.646 31.5925 198.633 31.6616C197.989 31.7077 197.436 31.1551 196.953 30.004C195.733 26.8731 194.42 20.7954 192.993 11.8169C192.878 11.1953 193.016 10.6429 193.361 10.2284C193.707 9.76801 194.19 9.5378 194.881 9.49177C196.101 9.39965 196.792 9.97519 196.976 11.2184C197.712 16.2371 198.541 20.4731 199.393 23.9494L204.642 13.9579C205.125 13.0371 205.724 12.5766 206.438 12.5306C207.497 12.4615 208.141 13.1292 208.394 14.5335C208.97 17.6874 209.753 20.404 210.651 22.7062C211.272 16.6285 212.331 12.2313 213.805 9.5378C214.173 8.87019 214.702 8.52487 215.393 8.47879C215.946 8.43275 216.452 8.59389 216.912 8.96226C217.373 9.33063 217.603 9.76801 217.649 10.3205C217.672 10.758 217.603 11.1033 217.419 11.4716C216.475 13.1982 215.715 16.099 215.094 20.1278C214.495 24.0414 214.288 27.0803 214.426 29.2444ZM229.137 25.4688C227.687 27.8631 225.822 29.0602 223.497 29.0602C223.105 29.0602 222.668 29.0141 222.207 28.922C220.527 28.5537 219.238 27.6558 218.386 26.1364C217.626 24.8242 217.235 23.2357 217.235 21.3939C217.235 18.9306 217.856 16.6745 219.1 14.6486C220.573 12.2544 222.438 11.0573 224.74 11.0573C225.131 11.0573 225.569 11.1033 226.029 11.1953C227.687 11.5637 228.999 12.4615 229.851 13.981C230.61 15.2702 231.002 16.8356 231.002 18.6774C231.002 21.1637 230.38 23.4199 229.137 25.4688V25.4688ZM244.124 25.4688C242.674 27.8631 240.809 29.0602 238.484 29.0602C238.092 29.0602 237.655 29.0141 237.195 28.922C235.514 28.5537 234.225 27.6558 233.373 26.1364C232.613 24.8242 232.222 23.2357 232.222 21.3939C232.222 18.9306 232.843 16.6745 234.087 14.6486C235.56 12.2544 237.425 11.0573 239.727 11.0573C240.118 11.0573 240.556 11.1033 241.016 11.1953C242.697 11.5637 243.986 12.4615 244.838 13.981C245.597 15.2702 246.012 16.8356 245.989 18.6774C245.989 21.1637 245.367 23.4199 244.124 25.4688V25.4688Z" fill="#E5E5E5"/>
<path d="M226.536 16.6286C226.19 15.6847 225.707 15.1782 225.131 15.0631C224.28 14.9019 223.428 15.3854 222.645 16.5595C222.001 17.4804 221.586 18.4243 221.379 19.4142C221.264 19.9667 221.218 20.5652 221.218 21.1638C221.218 21.8545 221.379 22.6142 221.655 23.3509C222.001 24.2948 222.484 24.8013 223.06 24.9164C223.658 25.0544 224.303 24.7782 224.993 24.1566C225.868 23.3739 226.467 22.1998 226.812 20.6113C226.927 20.0588 226.996 19.4602 226.973 18.8156C226.973 18.125 226.812 17.3652 226.536 16.6286L226.536 16.6286Z" fill="#E5E5E5"/>
<path d="M303.13 40.7995C302.936 40.7995 302.742 40.7486 302.572 40.6501L300.795 39.5987C300.53 39.4502 300.659 39.3976 300.747 39.3671C301.101 39.2443 301.172 39.216 301.55 39.0016C301.59 38.9795 301.642 38.9879 301.682 39.0118L303.048 39.8223C303.097 39.8497 303.167 39.8497 303.212 39.8223L308.535 36.7503C308.584 36.722 308.616 36.6651 308.616 36.6063V30.4641C308.616 30.404 308.584 30.3478 308.533 30.3173L303.213 27.248C303.164 27.2193 303.099 27.2193 303.049 27.248L297.73 30.3183C297.679 30.3479 297.646 30.4057 297.646 30.4641V36.6063C297.646 36.6651 297.679 36.7207 297.73 36.7486L299.188 37.5909C299.979 37.9865 300.463 37.5207 300.463 37.0526V30.9882C300.463 30.9025 300.532 30.8349 300.618 30.8349H301.293C301.377 30.8349 301.447 30.9025 301.447 30.9882V37.0526C301.447 38.1084 300.872 38.7139 299.871 38.7139C299.564 38.7139 299.321 38.7139 298.645 38.3807L297.25 37.5772C296.905 37.3779 296.691 37.0053 296.691 36.6063V30.4641C296.691 30.065 296.905 29.6924 297.25 29.494L302.572 26.4185C302.909 26.228 303.356 26.228 303.691 26.4185L309.012 29.494C309.357 29.6933 309.572 30.065 309.572 30.4641V36.6063C309.572 37.0053 309.357 37.3766 309.012 37.5772L303.691 40.6501C303.52 40.7486 303.327 40.7995 303.13 40.7995V40.7995Z" fill="#E0E0E0"/>
<path d="M304.774 36.5676C302.445 36.5676 301.957 35.4986 301.957 34.6019C301.957 34.5166 302.026 34.4485 302.111 34.4485H302.799C302.876 34.4485 302.94 34.5038 302.952 34.5789C303.056 35.2793 303.366 35.6329 304.774 35.6329C305.895 35.6329 306.373 35.3793 306.373 34.7844C306.373 34.4414 306.237 34.1869 304.495 34.0163C303.039 33.8722 302.138 33.5504 302.138 32.3855C302.138 31.3116 303.043 30.6711 304.561 30.6711C306.266 30.6711 307.109 31.2629 307.216 32.5326C307.22 32.5764 307.205 32.6184 307.176 32.6511C307.146 32.6816 307.106 32.7001 307.063 32.7001H306.372C306.301 32.7001 306.237 32.6493 306.223 32.5799C306.057 31.8428 305.654 31.6072 304.561 31.6072C303.336 31.6072 303.194 32.0337 303.194 32.3532C303.194 32.7404 303.362 32.853 305.015 33.0718C306.651 33.288 307.427 33.5942 307.427 34.7437C307.427 35.9034 306.461 36.5676 304.774 36.5676V36.5676Z" fill="#E0E0E0"/>
<path d="M312.449 30.1261C312.449 30.6905 311.988 31.1519 311.423 31.1519C310.864 31.1519 310.397 30.696 310.397 30.1261C310.397 29.5454 310.875 29.1001 311.423 29.1001C311.977 29.1001 312.449 29.5454 312.449 30.1261ZM310.563 30.1232C310.563 30.601 310.949 30.9864 311.421 30.9864C311.898 30.9864 312.284 30.5928 312.284 30.1232C312.284 29.6457 311.893 29.2658 311.421 29.2658C310.954 29.2658 310.563 29.6402 310.563 30.1232V30.1232ZM311.038 29.5507H311.434C311.57 29.5507 311.836 29.5507 311.836 29.8547C311.836 30.0664 311.7 30.1098 311.619 30.1369C311.776 30.1478 311.787 30.251 311.809 30.3974C311.82 30.4896 311.836 30.6472 311.868 30.7013H311.624C311.619 30.6472 311.581 30.3539 311.581 30.3378C311.565 30.2726 311.543 30.2401 311.461 30.2401H311.261V30.7013H311.038V29.5507V29.5507ZM311.255 30.0554H311.434C311.581 30.0554 311.608 29.9524 311.608 29.8927C311.608 29.7352 311.499 29.7352 311.44 29.7352H311.255V30.0554L311.255 30.0554Z" fill="#E0E0E0"/>
<path fill-rule="evenodd" clip-rule="evenodd" d="M286.648 16.7685C286.648 16.5232 286.519 16.2978 286.307 16.1763L280.665 12.9289C280.569 12.8727 280.462 12.8435 280.354 12.8391H280.296C280.188 12.8435 280.081 12.8727 279.984 12.9289L274.341 16.1763C274.131 16.2978 274 16.5232 274 16.7685L274.012 25.5129C274.012 25.6344 274.076 25.7475 274.183 25.8072C274.287 25.87 274.417 25.87 274.521 25.8072L277.875 23.8869C278.087 23.761 278.216 23.5387 278.216 23.2956V19.2103C278.216 18.9668 278.345 18.7413 278.556 18.6203L279.984 17.7978C280.09 17.7364 280.207 17.7063 280.326 17.7063C280.442 17.7063 280.561 17.7363 280.665 17.7978L282.092 18.6203C282.303 18.7413 282.433 18.9668 282.433 19.2103V23.2956C282.433 23.5387 282.564 23.7623 282.774 23.8869L286.127 25.8072C286.232 25.87 286.363 25.87 286.468 25.8072C286.572 25.7476 286.637 25.6344 286.637 25.5129L286.648 16.7685V16.7685Z" fill="#E5E5E5"/>
<path fill-rule="evenodd" clip-rule="evenodd" d="M313.8 4.74795C313.694 4.6892 313.565 4.69052 313.461 4.75171C313.357 4.81294 313.293 4.92476 313.293 5.04559V13.7054C313.293 13.7904 313.247 13.8693 313.174 13.912C313.1 13.9546 313.009 13.9546 312.935 13.912L311.522 13.0977C311.311 12.9762 311.051 12.9764 310.84 13.0979L305.195 16.3557C304.984 16.4775 304.854 16.7025 304.854 16.9459V23.4629C304.854 23.7064 304.984 23.9314 305.195 24.0533L310.84 27.3136C311.051 27.4354 311.311 27.4354 311.522 27.3136L317.168 24.0533C317.378 23.9314 317.508 23.7064 317.508 23.4629V7.21781C317.508 6.97076 317.375 6.7429 317.159 6.62248L313.8 4.74795V4.74795ZM313.276 21.3217C313.276 21.3824 313.243 21.4388 313.19 21.4691L311.252 22.5863C311.2 22.6166 311.135 22.6166 311.082 22.5863L309.144 21.4691C309.091 21.4388 309.059 21.3824 309.059 21.3217V19.0837C309.059 19.0229 309.091 18.9665 309.144 18.936L311.082 17.8166C311.135 17.7861 311.2 17.7861 311.253 17.8166L313.191 18.936C313.243 18.9665 313.276 19.0229 313.276 19.0837V21.3217V21.3217Z" fill="#E5E5E5"/>
<path fill-rule="evenodd" clip-rule="evenodd" d="M332.596 19.0251C332.806 18.9031 332.935 18.6786 332.935 18.4357V16.8564C332.935 16.6136 332.806 16.3888 332.596 16.2669L326.987 13.0104C326.776 12.8878 326.516 12.8875 326.304 13.0095L320.661 16.2673C320.45 16.3891 320.32 16.614 320.32 16.8575V23.3727C320.32 23.6178 320.452 23.8438 320.665 23.9649L326.272 27.1604C326.479 27.2784 326.733 27.2798 326.941 27.1642L330.333 25.2788C330.44 25.219 330.507 25.106 330.508 24.9832C330.509 24.8603 330.444 24.7465 330.337 24.6853L324.658 21.426C324.552 21.3652 324.487 21.2523 324.487 21.1303V19.0885C324.487 18.9668 324.552 18.8541 324.658 18.7933L326.425 17.7744C326.53 17.7136 326.66 17.7136 326.765 17.7744L328.534 18.7933C328.639 18.8541 328.704 18.9668 328.704 19.0885V20.695C328.704 20.817 328.769 20.9297 328.875 20.9904C328.981 21.0514 329.111 21.051 329.216 20.9898L332.596 19.0251L332.596 19.0251Z" fill="#E5E5E5"/>
<path fill-rule="evenodd" clip-rule="evenodd" d="M326.562 18.72C326.602 18.6965 326.652 18.6965 326.693 18.72L327.776 19.3449C327.816 19.3683 327.841 19.4114 327.841 19.4582V20.7089C327.841 20.7558 327.816 20.7989 327.776 20.8223L326.693 21.4472C326.652 21.4706 326.602 21.4706 326.562 21.4472L325.479 20.8223C325.439 20.7989 325.414 20.7558 325.414 20.7089V19.4582C325.414 19.4114 325.439 19.3683 325.479 19.3449L326.562 18.72Z" fill="#9A9A9A"/>
<path fill-rule="evenodd" clip-rule="evenodd" d="M295.227 11.8528L295.149 11.8969H295.252L295.227 11.8528Z" fill="#E0E0E0"/>
<path fill-rule="evenodd" clip-rule="evenodd" d="M302.204 23.773L302.05 23.5094C302.063 23.4589 302.071 23.4068 302.071 23.3536V16.8698C302.071 16.8155 302.061 16.7628 302.047 16.7113C302.043 16.6955 302.037 16.6806 302.032 16.6652C302.019 16.6288 302.003 16.594 301.984 16.5603C301.976 16.5457 301.969 16.5311 301.96 16.5171C301.932 16.4749 301.901 16.4348 301.865 16.399L301.863 16.3974C301.819 16.3534 301.769 16.3143 301.714 16.2828L298.031 14.1632L296.091 13.0435C296.027 13.0062 295.957 12.9844 295.886 12.9701L295.879 12.9675C295.874 12.9664 295.868 12.968 295.863 12.9671C295.804 12.9573 295.745 12.9555 295.686 12.9613C295.671 12.9626 295.656 12.96 295.641 12.9622C295.629 12.9639 295.619 12.9693 295.607 12.9717C295.563 12.9814 295.521 12.9978 295.479 13.0164C295.454 13.0271 295.426 13.0296 295.402 13.0435L289.777 16.2828C289.567 16.4039 289.414 16.6276 289.414 16.87V23.3536C289.414 23.4269 289.432 23.4971 289.458 23.5647C289.464 23.5826 289.473 23.5987 289.482 23.616C289.506 23.6671 289.536 23.7144 289.572 23.7588C289.579 23.7669 289.582 23.7772 289.589 23.785L289.605 23.7981C289.656 23.853 289.713 23.9031 289.778 23.9408L294.63 26.7306L295.413 27.1828C295.476 27.219 295.544 27.2408 295.612 27.2553C295.626 27.2583 295.64 27.2597 295.654 27.2618C295.669 27.264 295.683 27.2651 295.697 27.2664C295.735 27.2695 295.773 27.2693 295.811 27.266C295.824 27.2649 295.837 27.2688 295.851 27.267L295.963 27.4709L302.204 23.8581L302.241 23.8366L302.204 23.773V23.773Z" fill="#E0E0E0"/>
<path fill-rule="evenodd" clip-rule="evenodd" d="M358 26.5051C358 30.6456 368.756 34.0063 382.025 34.0063V41.5045C368.756 41.5045 358 38.1468 358 34.0063V26.5051V26.5051ZM406.058 26.5051V34.0048C406.058 35.7725 404.092 37.3944 400.82 38.6773L382.024 34.0048V26.5051L400.82 31.1761C404.092 29.8947 406.059 28.2729 406.058 26.5051V26.5051ZM382.025 4C395.296 4 406.058 7.36376 406.058 11.5012V19.0069C406.058 20.7686 404.092 22.3965 400.821 23.6733L382.025 19.0069V26.5051C368.756 26.5051 358 23.1459 358 19.0069V11.5012C358 7.36376 368.756 4 382.025 4Z" fill="#E5E5E5"/>
<path d="M29.5127 79.3372C23.4039 79.3372 18.2261 83.4786 16.6214 89.0897C15.2267 86.1135 12.2043 84.0284 8.72304 84.0284C3.9355 84.0284 0 87.9638 0 92.7514C0 97.5389 3.9355 101.476 8.72304 101.476C12.2043 101.476 15.2267 99.3898 16.6214 96.4131C18.2261 102.025 23.4039 106.167 29.5127 106.167C35.5764 106.167 40.7278 102.087 42.3736 96.5388C43.794 99.448 46.779 101.476 50.2108 101.476C54.9983 101.476 58.9356 97.5389 58.9356 92.7514C58.9356 87.9639 54.9983 84.0284 50.2108 84.0284C46.779 84.0284 43.794 86.0553 42.3736 88.9639C40.7278 83.4161 35.5764 79.3372 29.5127 79.3372V79.3372ZM29.5127 84.4578C34.1242 84.4578 37.8081 88.1399 37.8081 92.7514C37.8081 97.3629 34.1242 101.047 29.5127 101.047C24.9012 101.047 21.2191 97.3629 21.2191 92.7514C21.2191 88.1399 24.9012 84.4578 29.5127 84.4578V84.4578ZM8.72304 89.149C10.7434 89.149 12.3272 90.731 12.3272 92.7514C12.3272 94.7718 10.7434 96.3556 8.72304 96.3556C6.70265 96.3556 5.12061 94.7718 5.12061 92.7514C5.12061 90.731 6.70265 89.149 8.72304 89.149ZM50.2108 89.149C52.2312 89.149 53.815 90.731 53.815 92.7514C53.815 94.7718 52.2312 96.3556 50.2108 96.3556C48.1904 96.3556 46.6084 94.7718 46.6084 92.7514C46.6084 90.731 48.1904 89.149 50.2108 89.149Z" fill="#E5E5E5"/>
<path d="M110.256 74L94 83.3833V102.125L98.6404 104.808L98.6077 86.0619L110.223 79.3572L121.839 86.0619V104.8L126.479 102.125V83.3669L110.256 74Z" fill="#E5E5E5"/>
<path d="M112.557 104.804L110.239 106.151L107.909 104.816V86.0618L103.272 88.7404L103.281 107.486L110.235 111.504L117.198 107.486V88.7404L112.557 86.0618V104.804Z" fill="#E5E5E5"/>
<path d="M181.256 77.9874C178.617 75.3499 176.099 72.8356 175.35 70C174.601 72.8356 172.083 75.3499 169.444 77.9874C165.487 81.9423 161 86.4247 161 93.1474C160.996 101.073 167.418 107.501 175.344 107.504C183.269 107.508 189.697 101.086 189.701 93.1606C189.701 93.1562 189.701 93.1518 189.701 93.1474C189.701 86.4251 185.214 81.9423 181.256 77.9874M167.099 96.4913C166.219 96.4615 162.972 90.8641 168.997 84.9044L172.983 89.2591C173.117 89.3913 173.118 89.6071 172.986 89.741C172.977 89.7504 172.967 89.7593 172.957 89.7676C172.005 90.7433 167.951 94.8093 167.447 96.2152C167.343 96.5054 167.191 96.4945 167.099 96.4913M175.35 103.868C172.625 103.868 170.415 101.659 170.415 98.933V98.933C170.433 97.7362 170.868 96.5834 171.645 95.6729C172.535 94.5847 175.35 91.524 175.35 91.524C175.35 91.524 178.121 94.6297 179.048 95.6626C179.855 96.5596 180.297 97.7264 180.286 98.933C180.286 101.659 178.076 103.868 175.35 103.868M184.797 95.8648C184.691 96.0975 184.449 96.4859 184.124 96.4977C183.543 96.5188 183.481 96.2214 183.052 95.5863C182.11 94.1923 173.889 85.6001 172.351 83.9384C170.998 82.4769 172.16 81.4465 172.7 80.9065C173.376 80.229 175.35 78.2561 175.35 78.2561C175.35 78.2561 181.236 83.841 183.688 87.657C186.14 91.4731 185.295 94.7752 184.797 95.8648Z" fill="#E5E5E5"/>
<path d="M230.71 92.8774L230.009 92.1764C227.755 89.9231 227.105 86.7685 227.906 83.9144C225.652 83.4137 224 81.4107 224 79.0073C224 76.2533 226.253 74 229.007 74C231.511 74 233.564 75.8026 233.964 78.2061C236.668 77.5552 239.623 78.3063 241.726 80.4093L242.026 80.7097L238.321 84.4151L238.02 84.1147C236.819 82.9129 234.866 82.9129 233.664 84.1147C232.462 85.3164 232.462 87.2693 233.664 88.471L241.976 96.7831L238.271 100.488L234.365 96.5828L230.71 92.8774V92.8774Z" fill="#E5E5E5"/>
<path d="M234.866 88.7714L243.178 80.4594C245.382 78.2562 248.586 77.5551 251.39 78.3563C251.741 75.9027 253.844 74.05 256.347 74.05C259.101 74.05 261.355 76.3033 261.355 79.0573C261.355 81.611 259.452 83.7141 256.998 84.0145C257.8 86.8186 257.098 89.9732 254.895 92.1764L254.595 92.4768L250.99 88.7714L251.29 88.471C252.492 87.2692 252.492 85.3164 251.29 84.1147C250.088 82.9129 248.135 82.9129 246.934 84.1147L238.622 92.4267L234.866 88.7714V88.7714Z" fill="#E5E5E5"/>
<path d="M251.54 107.449C248.686 108.3 245.481 107.649 243.228 105.396L242.928 105.095L246.633 101.39L246.933 101.69C248.135 102.892 250.088 102.892 251.29 101.69C252.492 100.488 252.492 98.5356 251.29 97.3339L242.978 89.0218L246.683 85.3164L255.045 93.6785C257.148 95.7816 257.899 98.786 257.248 101.54C259.702 101.89 261.555 103.994 261.555 106.497C261.555 109.251 259.302 111.504 256.548 111.504C254.044 111.454 251.991 109.702 251.54 107.449L251.54 107.449Z" fill="#E5E5E5"/>
<path d="M250.088 97.0333L241.776 105.345C239.623 107.498 236.618 108.199 233.914 107.549C233.414 109.802 231.411 111.454 229.007 111.454C226.253 111.454 224 109.201 224 106.447C224 104.093 225.652 102.091 227.856 101.59C227.155 98.7858 227.856 95.7814 230.009 93.6283L230.309 93.3279L234.015 97.0333L233.714 97.3337C232.512 98.5354 232.512 100.488 233.714 101.69C234.916 102.892 236.869 102.892 238.07 101.69L246.383 93.378L250.088 97.0333V97.0333Z" fill="#E5E5E5"/>
<path d="M318.568 97.8405C318.315 94.4998 317.238 92.3344 316.713 91.107C316.188 89.88 315.382 88.7312 315.382 88.7332C315.38 88.7384 314.656 92.6424 313.353 95.467C313.136 95.9387 312.847 96.5277 312.555 97.002C311.656 98.5897 310.351 100.109 309.574 101.648C308.803 103.174 308.66 104.685 308.731 106.403C308.803 108.131 309.203 109.825 309.586 111.505C311.03 111.193 312.287 110.66 313.375 109.978C316.237 108.184 317.966 105.314 318.458 102.222C318.458 102.222 318.482 102.096 318.492 101.943C318.714 99.5536 318.641 98.7997 318.568 97.8405V97.8405Z" fill="#E5E5E5"/>
<path d="M318.568 97.8404C318.315 94.4997 317.238 92.3343 316.713 91.1069C316.188 89.8799 315.382 88.7312 315.382 88.7331L315.381 88.7339L315.382 88.7329L315.189 88.4467C310.968 82.5219 302.874 79.5638 296.035 82.3056C295.706 86.4585 297.631 93.6039 304.655 95.597C307.495 96.4706 309.769 96.244 312.556 97.0018L312.555 97.0019C312.555 97.0019 315.388 97.9892 317.036 99.4697C317.777 100.135 318.52 101.012 318.482 102.054C318.717 99.5736 318.642 98.8148 318.568 97.8404V97.8404Z" fill="#E5E5E5"/>
<path fill-rule="evenodd" clip-rule="evenodd" d="M315.5 85.2563C314.502 82.3364 314.925 80.3799 316.751 77.6572C317.622 76.3581 319.125 74.8513 320.443 74C325.76 77.3316 327.726 83.5373 325.77 89.3006C324.347 93.4941 323.012 95.2524 319.637 99.567C320.03 94.9462 318.404 91.7425 316.807 88.1829C316.4 87.2772 315.839 86.2463 315.5 85.2563" fill="#E5E5E5"/>
<path d="M318.483 102.054C318.52 101.011 317.778 100.135 317.036 99.4695C315.388 97.989 312.556 97.0017 312.556 97.0017C312.847 96.5274 313.136 95.9384 313.353 95.4667C314.656 92.6421 315.38 88.7381 315.382 88.7329C315.382 88.7312 316.189 89.8797 316.713 91.1067C317.238 92.3341 318.315 94.4994 318.568 97.8402C318.642 98.8147 318.717 99.5734 318.483 102.054V102.054Z" fill="#E5E5E5"/>
<path fill-rule="evenodd" clip-rule="evenodd" d="M398.504 92.7522C398.504 103.109 390.109 111.504 379.752 111.504C369.396 111.504 361 103.109 361 92.7522C361 82.3957 369.396 74 379.752 74C390.109 74 398.504 82.3957 398.504 92.7522ZM383.146 83.5078C384.382 82.0555 386.046 81.0054 387.951 80.9386V80.9386C389.854 80.8772 391.293 81.7389 391.341 83.105C391.36 83.6861 391.026 84.8157 389.865 84.8538C388.998 84.8845 388.398 84.3662 388.37 83.5779C388.362 83.288 388.436 83.0362 388.634 82.7409C388.667 82.6769 388.695 82.6224 388.72 82.5753C388.84 82.3435 388.868 82.2908 388.864 82.1531C388.847 81.6574 388.096 81.6374 387.891 81.6481C385.076 81.7396 384.334 85.5392 383.733 88.628L383.438 90.2573C385.058 90.4951 386.209 90.2025 386.851 89.7864C387.398 89.4319 387.191 89.0714 386.974 88.694C386.832 88.4475 386.686 88.1938 386.744 87.93C386.892 87.2499 387.511 86.9226 388.002 86.9086C388.69 86.8925 389.181 87.6053 389.166 88.3301C389.141 89.5272 387.552 91.1738 384.374 91.1056C383.987 91.097 383.631 91.0696 383.298 91.0302L382.7 94.3388L382.683 94.415C382.148 96.9143 381.423 100.3 378.897 103.258C376.706 105.864 374.481 106.269 373.485 106.302C371.621 106.366 370.385 105.372 370.341 104.046C370.298 102.761 371.433 102.06 372.179 102.036C373.173 102.001 373.861 102.722 373.889 103.554C373.913 104.256 373.547 104.475 373.304 104.608C373.28 104.627 373.255 104.646 373.229 104.666C373.076 104.78 372.898 104.914 372.906 105.161C372.913 105.285 373.046 105.57 373.459 105.557C374.227 105.53 374.744 105.16 375.108 104.899C375.117 104.893 375.127 104.886 375.136 104.879C376.951 103.366 377.649 100.731 378.565 95.9307L378.757 94.7683L378.765 94.7276C379.075 93.1763 379.42 91.4513 379.943 89.7329C379.554 89.4396 379.212 89.125 378.876 88.8159C378.108 88.1092 377.372 87.4321 376.175 87.1077C374.994 86.7877 374.275 87.0602 373.769 87.6995C373.17 88.4564 373.369 89.4417 373.948 90.0208L374.903 91.0769C376.076 92.4323 376.717 93.4864 376.476 94.9039C376.094 97.1671 373.397 98.904 370.209 97.924C367.488 97.0843 366.98 95.1598 367.307 94.097C367.595 93.1638 368.337 92.9874 369.063 93.2092C369.84 93.449 370.144 94.3936 369.922 95.1204C369.92 95.1277 369.917 95.1355 369.914 95.1439C369.889 95.2219 369.851 95.3429 369.776 95.4998C369.739 95.5819 369.689 95.66 369.638 95.7397C369.565 95.8538 369.49 95.9713 369.447 96.109C369.271 96.6781 370.053 97.0823 370.597 97.2506C371.814 97.6254 373.001 96.9888 373.303 96.0035C373.582 95.0983 373.011 94.4664 372.773 94.2239L371.621 92.9908C371.093 92.4022 369.933 90.765 370.499 88.9253C370.718 88.2179 371.176 87.465 371.844 86.9667C373.251 85.9179 374.781 85.7456 376.239 86.1644C377.656 86.5731 378.52 87.3789 379.361 88.163C379.639 88.422 379.914 88.6787 380.206 88.9179C380.863 86.9901 381.774 85.1003 383.146 83.5078Z" fill="white"/>
<path d="M214.866 170.039V164.855C214.866 163.772 214.419 163.23 213.525 163.229C212.632 163.229 212.184 163.771 212.182 164.855V170.039H209.541V164.855C209.541 163.772 209.101 163.23 208.221 163.229C207.326 163.229 206.879 163.771 206.88 164.855V170.039H204.239V164.549C204.239 163.418 204.632 162.562 205.417 161.981C206.109 161.462 207.043 161.203 208.221 161.203C209.415 161.203 210.295 161.509 210.86 162.122C211.347 161.509 212.235 161.203 213.523 161.203C214.701 161.203 215.636 161.462 216.326 161.981C217.112 162.562 217.504 163.418 217.505 164.549V170.039H214.866V170.039Z" fill="#E5E5E5"/>
<path d="M247.211 170.015V155.207H249.852V170.015H247.211Z" fill="#E5E5E5"/>
<path d="M243.843 170.015V169.142C243.607 169.456 243.207 169.708 242.641 169.897C242.179 170.062 241.693 170.15 241.202 170.156C239.944 170.156 238.934 169.724 238.172 168.859C237.41 167.994 237.029 166.925 237.028 165.651C237.028 164.394 237.4 163.338 238.149 162.491C238.812 161.741 239.889 161.218 241.131 161.218C242.53 161.218 243.347 161.744 243.843 162.349V155.207H246.414V170.015H243.843H243.843ZM243.843 165.087C243.843 164.615 243.62 164.163 243.173 163.73C242.726 163.298 242.266 163.082 241.794 163.082C241.118 163.082 240.584 163.357 240.191 163.907C239.845 164.395 239.672 164.993 239.672 165.699C239.672 166.391 239.845 166.981 240.191 167.468C240.583 168.035 241.118 168.318 241.794 168.317C242.203 168.317 242.647 168.124 243.126 167.739C243.606 167.354 243.845 166.957 243.845 166.549L243.843 165.087V165.087Z" fill="#E5E5E5"/>
<path d="M232.055 170.25C230.718 170.25 229.614 169.826 228.742 168.977C227.87 168.128 227.433 167.036 227.431 165.699C227.431 164.364 227.867 163.271 228.74 162.422C229.612 161.572 230.717 161.147 232.053 161.148C233.389 161.148 234.497 161.573 235.378 162.422C236.258 163.27 236.698 164.363 236.698 165.699C236.698 167.036 236.258 168.129 235.378 168.977C234.497 169.825 233.389 170.25 232.055 170.25V170.25ZM232.055 163.271C231.418 163.271 230.929 163.512 230.587 163.994C230.245 164.476 230.074 165.048 230.074 165.712C230.074 166.375 230.234 166.936 230.553 167.394C230.919 167.915 231.42 168.176 232.056 168.175C232.693 168.174 233.194 167.914 233.559 167.394C233.893 166.936 234.06 166.375 234.06 165.712C234.06 165.048 233.901 164.487 233.582 164.029C233.216 163.523 232.707 163.27 232.055 163.271H232.055Z" fill="#E5E5E5"/>
<path d="M222.505 170.25C221.169 170.25 220.064 169.826 219.191 168.977C218.319 168.128 217.882 167.036 217.883 165.699C217.883 164.364 218.319 163.271 219.191 162.422C220.064 161.572 221.168 161.147 222.505 161.148C223.84 161.148 224.948 161.573 225.83 162.422C226.711 163.27 227.151 164.363 227.15 165.699C227.15 167.036 226.71 168.129 225.83 168.977C224.95 169.825 223.841 170.25 222.505 170.25ZM222.505 163.271C221.868 163.271 221.379 163.512 221.037 163.994C220.695 164.476 220.524 165.048 220.524 165.712C220.524 166.375 220.684 166.936 221.003 167.394C221.369 167.915 221.87 168.176 222.507 168.175C223.144 168.174 223.645 167.914 224.01 167.394C224.343 166.936 224.51 166.375 224.51 165.712C224.51 165.048 224.35 164.487 224.031 164.029C223.666 163.523 223.157 163.27 222.505 163.271H222.505Z" fill="#E5E5E5"/>
<path d="M252.979 166.501C253.035 167.13 253.852 168.482 255.196 168.482C256.504 168.482 257.122 167.727 257.153 167.421L259.935 167.397C259.632 168.326 258.398 170.298 255.147 170.298C253.795 170.298 252.558 169.877 251.669 169.036C250.78 168.195 250.337 167.099 250.337 165.747C250.337 164.348 250.781 163.235 251.669 162.41C252.557 161.585 253.709 161.173 255.124 161.173C256.664 161.173 257.867 161.683 258.731 162.705C259.534 163.647 259.935 164.913 259.934 166.501L252.979 166.501L252.979 166.501ZM257.294 164.873C257.184 164.307 256.948 163.844 256.587 163.482C256.178 163.089 255.706 162.893 255.172 162.892C254.621 162.892 254.161 163.081 253.792 163.458C253.423 163.836 253.175 164.307 253.05 164.873H257.294V164.873Z" fill="#E5E5E5"/>
<path d="M209.367 160.804L211.988 158.889L211.954 158.772C207.225 159.352 205.074 159.762 201 162.124L201.038 162.231L201.362 162.235C201.332 162.561 201.28 163.366 201.346 164.578C200.894 165.886 201.335 166.775 201.748 167.742C201.814 166.736 201.807 165.635 201.498 164.539C201.434 163.335 201.487 162.544 201.516 162.236L204.217 162.262C204.209 162.791 204.236 163.319 204.297 163.845C206.71 164.693 209.137 163.842 210.425 161.751C210.068 161.351 209.367 160.804 209.367 160.804H209.367Z" fill="#E0E0E0"/>
<path d="M154.752 177.504C144.429 177.504 136 169.107 136 158.752C136 148.397 144.429 140 154.752 140C157.246 140 159.677 140.474 161.95 141.452C162.581 141.736 162.897 142.462 162.645 143.125C162.36 143.757 161.634 144.072 160.971 143.82C158.983 142.999 156.899 142.589 154.752 142.589C145.818 142.589 138.557 149.85 138.557 158.784C138.557 167.718 145.818 174.979 154.752 174.979C163.686 174.979 170.947 167.718 170.947 158.784C170.947 156.858 170.632 154.995 169.969 153.228C169.716 152.565 170.063 151.839 170.726 151.586C171.389 151.333 172.115 151.681 172.368 152.344C173.126 154.396 173.504 156.574 173.504 158.784C173.504 169.075 165.107 177.504 154.752 177.504H154.752Z" fill="#E5E5E5"/>
<path d="M162.96 156.826L160.056 159.857L161.666 166.645H165.328L162.96 156.826Z" fill="#E5E5E5"/>
<path d="M161.76 147.861L162.77 148.871L154.752 157.363L147.901 150.323L143.955 166.645H147.617L149.795 157.584L154.752 162.983L165.359 151.428L166.369 152.47L167.38 146.756L161.76 147.861Z" fill="#E5E5E5"/>
<path fill-rule="evenodd" clip-rule="evenodd" d="M311.833 169.506V157.341C311.833 156.908 311.481 156.557 311.048 156.557H298.945V144H323.545C323.978 144 324.33 144.351 324.33 144.784V169.506H311.833V169.506Z" fill="#E5E5E5"/>
<path fill-rule="evenodd" clip-rule="evenodd" d="M298.945 144V156.557H287.392C287.176 156.557 287 156.381 287 156.164C287 156.061 287.041 155.961 287.114 155.888L298.945 144Z" fill="#E0E0E0"/>
<path fill-rule="evenodd" clip-rule="evenodd" d="M311.833 181.112V169.506H324.33L312.503 181.389C312.35 181.542 312.102 181.543 311.949 181.39C311.875 181.317 311.833 181.216 311.833 181.112V181.112Z" fill="#E0E0E0"/>
<path fill-rule="evenodd" clip-rule="evenodd" d="M298.945 156.557H311.44C311.657 156.557 311.833 156.732 311.833 156.949V169.506H299.73C299.297 169.506 298.945 169.155 298.945 168.721V156.557Z" fill="#E0E0E0"/>
<path d="M368.718 152.885C371.172 152.885 373.16 150.897 373.16 148.443C373.16 145.99 371.172 144.001 368.718 144.001C366.265 144.001 364.276 145.99 364.276 148.443C364.276 150.897 366.265 152.885 368.718 152.885Z" fill="#E5E5E5"/>
<path d="M368.718 153.322C366.028 153.322 363.839 151.134 363.839 148.443C363.839 145.753 366.028 143.564 368.718 143.564C371.408 143.564 373.597 145.753 373.597 148.443C373.597 151.134 371.408 153.322 368.718 153.322ZM368.718 144.438C366.509 144.438 364.713 146.235 364.713 148.443C364.713 150.652 366.509 152.449 368.718 152.449C370.926 152.449 372.723 150.652 372.723 148.443C372.723 146.235 370.926 144.438 368.718 144.438Z" fill="white"/>
<path d="M360.573 172.019C365.067 172.019 368.709 168.376 368.709 163.882C368.709 159.389 365.067 155.746 360.573 155.746C356.079 155.746 352.437 159.389 352.437 163.882C352.437 168.376 356.079 172.019 360.573 172.019Z" fill="#E5E5E5"/>
<path d="M360.573 172.456C355.846 172.456 352 168.61 352 163.883C352 159.155 355.846 155.309 360.573 155.309C365.301 155.309 369.147 159.155 369.147 163.883C369.147 168.61 365.301 172.456 360.573 172.456ZM360.573 156.183C356.328 156.183 352.874 159.637 352.874 163.883C352.874 168.128 356.328 171.582 360.573 171.582C364.819 171.582 368.273 168.128 368.273 163.883C368.273 159.637 364.819 156.183 360.573 156.183Z" fill="white"/>
<path d="M369.753 167.264C374.611 167.264 378.549 163.326 378.549 158.468C378.549 153.61 374.611 149.672 369.753 149.672C364.895 149.672 360.957 153.61 360.957 158.468C360.957 163.326 364.895 167.264 369.753 167.264Z" fill="#E5E5E5"/>
<path d="M369.753 167.701C364.662 167.701 360.52 163.559 360.52 158.468C360.52 153.377 364.662 149.235 369.753 149.235C374.844 149.235 378.986 153.377 378.986 158.468C378.986 163.559 374.844 167.701 369.753 167.701ZM369.753 150.109C365.143 150.109 361.393 153.859 361.393 158.468C361.393 163.077 365.143 166.828 369.753 166.828C374.362 166.828 378.112 163.078 378.112 158.468C378.112 153.859 374.362 150.109 369.753 150.109Z" fill="white"/>
<path d="M387.69 163.039C392.184 163.039 395.827 159.396 395.827 154.902C395.827 150.408 392.184 146.766 387.69 146.766C383.197 146.766 379.554 150.408 379.554 154.902C379.554 159.396 383.197 163.039 387.69 163.039Z" fill="#E5E5E5"/>
<path d="M387.69 163.476C382.963 163.476 379.117 159.63 379.117 154.902C379.117 150.175 382.963 146.329 387.69 146.329C392.418 146.329 396.264 150.175 396.264 154.902C396.264 159.629 392.418 163.476 387.69 163.476ZM387.69 147.203C383.445 147.203 379.991 150.657 379.991 154.902C379.991 159.148 383.445 162.602 387.69 162.602C391.936 162.602 395.39 159.148 395.39 154.902C395.39 150.657 391.936 147.203 387.69 147.203V147.203Z" fill="white"/>
<path d="M378.769 156.71C383.263 156.71 386.905 153.067 386.905 148.573C386.905 144.08 383.263 140.437 378.769 140.437C374.276 140.437 370.633 144.08 370.633 148.573C370.633 153.067 374.276 156.71 378.769 156.71Z" fill="#E5E5E5"/>
<path d="M378.769 157.147C374.041 157.147 370.195 153.301 370.195 148.573C370.195 143.846 374.041 140 378.769 140C383.496 140 387.342 143.846 387.342 148.573C387.342 153.301 383.496 157.147 378.769 157.147ZM378.769 140.874C374.523 140.874 371.069 144.328 371.069 148.573C371.069 152.819 374.523 156.273 378.769 156.273C383.014 156.273 386.468 152.819 386.468 148.573C386.468 144.328 383.014 140.874 378.769 140.874V140.874Z" fill="white"/>
<path d="M405.845 171.678C408.415 171.678 410.498 169.594 410.498 167.024C410.498 164.454 408.415 162.371 405.845 162.371C403.275 162.371 401.191 164.454 401.191 167.024C401.191 169.594 403.275 171.678 405.845 171.678Z" fill="#E5E5E5"/>
<path d="M405.845 172.115C403.038 172.115 400.754 169.831 400.754 167.025C400.754 164.218 403.038 161.934 405.845 161.934C408.651 161.934 410.935 164.218 410.935 167.025C410.935 169.831 408.651 172.115 405.845 172.115ZM405.845 162.808C403.519 162.808 401.628 164.7 401.628 167.025C401.628 169.349 403.519 171.241 405.845 171.241C408.169 171.241 410.061 169.349 410.061 167.025C410.061 164.7 408.169 162.808 405.845 162.808Z" fill="white"/>
<path d="M395.956 172.239C400.814 172.239 404.752 168.301 404.752 163.443C404.752 158.585 400.814 154.647 395.956 154.647C391.098 154.647 387.16 158.585 387.16 163.443C387.16 168.301 391.098 172.239 395.956 172.239Z" fill="#E5E5E5"/>
<path d="M395.956 172.676C390.865 172.676 386.723 168.534 386.723 163.443C386.723 158.352 390.865 154.209 395.956 154.209C401.047 154.209 405.189 158.352 405.189 163.443C405.189 168.534 401.047 172.676 395.956 172.676ZM395.956 155.083C391.346 155.083 387.597 158.833 387.597 163.443C387.597 168.052 391.346 171.802 395.956 171.802C400.565 171.802 404.315 168.052 404.315 163.443C404.315 158.834 400.565 155.083 395.956 155.083Z" fill="white"/>
<path d="M369.215 172.126C371.785 172.126 373.868 170.043 373.868 167.473C373.868 164.903 371.785 162.82 369.215 162.82C366.645 162.82 364.562 164.903 364.562 167.473C364.562 170.043 366.645 172.126 369.215 172.126Z" fill="#E5E5E5"/>
<path d="M369.214 172.563C366.408 172.563 364.124 170.28 364.124 167.473C364.124 164.666 366.408 162.383 369.214 162.383C372.021 162.383 374.305 164.666 374.305 167.473C374.305 170.28 372.021 172.563 369.214 172.563ZM369.214 163.256C366.89 163.256 364.998 165.148 364.998 167.473C364.998 169.798 366.89 171.689 369.214 171.689C371.539 171.689 373.431 169.798 373.431 167.473C373.431 165.148 371.539 163.256 369.214 163.256Z" fill="white"/>
<path d="M392.668 160.844C392.668 167.037 387.646 172.058 381.452 172.058C375.259 172.058 370.237 167.037 370.237 160.844C370.237 154.65 375.259 149.629 381.452 149.629C387.646 149.629 392.668 154.65 392.668 160.844Z" fill="#E5E5E5"/>
<path d="M381.452 172.495C375.027 172.495 369.8 167.268 369.8 160.844C369.8 154.419 375.027 149.192 381.452 149.192C387.877 149.192 393.104 154.419 393.104 160.844C393.104 167.268 387.877 172.495 381.452 172.495ZM381.452 150.066C375.509 150.066 370.674 154.901 370.674 160.844C370.674 166.786 375.509 171.621 381.452 171.621C387.395 171.621 392.23 166.786 392.23 160.844C392.23 154.901 387.395 150.066 381.452 150.066V150.066Z" fill="white"/>
<path d="M42.8855 166.825C42.6089 164.811 41.7436 162.887 40.9265 161.002C40.3707 159.723 39.7795 158.456 39.1806 157.195C38.3356 155.411 37.5337 153.605 36.5999 151.866C35.1966 149.253 33.702 146.69 32.2353 144.109C32.0399 143.766 31.7937 143.452 31.4841 143C30.6188 144.487 29.8347 145.837 29.0176 147.238C28.0533 145.89 27.4316 144.378 26.3735 143.01C25.8101 143.977 25.3077 144.804 24.8382 145.652C23.7014 147.697 22.5062 149.709 21.5115 151.836C20.6766 153.622 19.6717 155.328 18.8064 157.101C18.0349 158.685 17.2889 160.286 16.6469 161.925C15.9592 163.681 15.3933 165.483 15.005 167.335C15.0025 168.361 15.0025 169.386 15 170.414C15.2208 172.116 15.7638 173.73 16.7154 175.139C18.0324 177.082 19.725 178.615 21.958 179.531C23.9576 180.351 25.9598 180.724 28.1041 180.262C28.6649 180.143 29.3069 180.117 29.8499 180.267C31.6059 180.754 33.3011 180.412 34.9683 179.957C36.2751 179.602 37.4297 178.894 38.5259 178.057C42.2765 175.187 43.4971 171.307 42.8855 166.825V166.825ZM28.8705 177.806C27.0434 178.338 25.1656 178.311 23.4121 177.643C21.8363 177.044 20.3949 176.121 19.3291 174.722C18.4689 173.593 17.8548 172.36 17.4919 170.987C17.1518 169.708 17.0961 168.391 17.426 167.153C18.0705 164.729 18.9206 162.369 20.0523 160.114C20.8771 158.469 21.5723 156.759 22.4098 155.12C23.676 152.635 25.0158 150.189 26.447 147.492C26.8556 148.268 27.1398 148.814 27.4316 149.357C28.4669 151.273 29.5429 153.171 30.5325 155.114C31.2202 156.47 31.7912 157.886 32.4129 159.274C32.9991 160.58 33.6056 161.882 34.1664 163.199C34.8591 164.826 35.453 166.511 35.6078 168.264C35.7702 170.099 35.3438 171.896 34.3846 173.497C33.1057 175.633 31.2685 177.105 28.8705 177.806V177.806ZM40.7159 169.571C40.6118 170.929 40.2109 172.175 39.5842 173.327C38.7899 174.788 37.6835 176.004 36.199 176.834C35.5646 177.189 34.9099 177.465 34.042 177.788C34.6511 177.037 35.123 176.473 35.5722 175.895C37.4703 173.454 38.2366 170.672 37.9017 167.622C37.7139 165.904 37.0719 164.29 36.473 162.669C35.4479 159.89 34.0953 157.259 32.8874 154.561C32.4154 153.508 31.8293 152.508 31.2888 151.488C30.9868 150.912 30.6747 150.339 30.3524 149.74C30.7254 149.075 31.0883 148.43 31.5045 147.692C31.9968 148.496 32.5018 149.215 32.8976 149.989C34.2679 152.668 35.5367 155.401 36.9628 158.05C37.9626 159.905 38.7417 161.849 39.5055 163.798C40.2287 165.64 40.8732 167.511 40.7159 169.571V169.571Z" fill="#E5E5E5"/>
<path d="M83.1478 171.778C83.4474 171.64 83.747 171.528 84.0591 171.403C84.4087 171.278 84.7583 171.153 85.1079 171.041C85.5448 170.904 85.9943 170.791 86.4438 170.691C87.0555 170.567 87.6673 170.467 88.279 170.404C87.9295 171.49 87.5549 172.577 87.1304 173.65C87.1429 173.863 87.1554 174.062 87.1679 174.275C88.0043 174.112 88.8658 174.025 89.7522 174.025C90.6386 174.025 91.5001 174.112 92.3366 174.275C92.3366 174.062 92.3491 173.85 92.3741 173.65C91.9621 172.577 91.575 171.49 91.2254 170.404C91.8372 170.467 92.4615 170.554 93.0607 170.691C93.5102 170.791 93.9471 170.904 94.3966 171.041C94.7462 171.153 95.0957 171.266 95.4453 171.403C95.7574 171.515 96.0571 171.64 96.3567 171.778C98.4791 172.726 100.414 174.125 102 175.947C105.983 172.514 108.504 167.433 108.504 161.752C108.504 151.402 100.115 143 89.7522 143C79.4023 143 71 151.39 71 161.752C71 167.42 73.522 172.502 77.5047 175.947C79.0902 174.125 81.0253 172.726 83.1478 171.778Z" fill="#969696"/>
<path d="M84.384 175.173C85.2579 174.786 86.1942 174.487 87.1556 174.299C87.1556 174.087 87.1431 173.875 87.1181 173.675C87.5301 172.602 87.9171 171.515 88.2667 170.429C87.6549 170.492 87.0307 170.579 86.4314 170.716C85.982 170.816 85.5451 170.929 85.0956 171.066C84.746 171.178 84.3964 171.291 84.0469 171.428L85.4077 171.765L84.384 175.173V175.173Z" fill="#828282"/>
<path d="M81.1627 177.183C81.2001 176.834 81.2127 176.484 81.2127 176.122C81.2127 175.91 81.3874 175.735 81.5997 175.735H81.9367L83.1353 171.765C81.0129 172.714 79.0778 174.112 77.4922 175.935C78.3661 176.696 79.3149 177.371 80.3137 177.957C80.6009 177.695 80.8755 177.433 81.1627 177.183V177.183Z" fill="#828282"/>
<path d="M96.3447 171.778L97.5433 175.748H97.8804C98.0926 175.748 98.2674 175.923 98.2674 176.135C98.2674 176.497 98.2924 176.846 98.3173 177.196C98.6045 177.446 98.8916 177.695 99.1538 177.97C100.165 177.383 101.101 176.709 101.975 175.948C100.402 174.125 98.4671 172.726 96.3447 171.778V171.778Z" fill="#828282"/>
<path d="M94.0592 171.74L95.4201 171.403C95.0705 171.278 94.7209 171.153 94.3714 171.041C93.9344 170.903 93.4849 170.791 93.0355 170.691C92.4237 170.566 91.812 170.466 91.2002 170.404C91.5498 171.49 91.9243 172.576 92.3488 173.65C92.3363 173.862 92.3238 174.062 92.3113 174.274C93.2851 174.462 94.2091 174.761 95.083 175.148L94.0592 171.74V171.74Z" fill="#828282"/>
<path d="M89.7406 175.748H92.3874C92.3374 175.261 92.3124 174.774 92.3249 174.299C91.4884 174.137 90.627 174.05 89.7406 174.05C88.8542 174.05 87.9927 174.137 87.1562 174.299C87.1687 174.786 87.1437 175.261 87.0938 175.748H89.7406Z" fill="#E5E5E5"/>
<path d="M80.3262 177.957C80.5384 178.082 80.7632 178.207 80.9879 178.332C81.0628 177.957 81.1252 177.57 81.1627 177.183C80.8755 177.433 80.6008 177.695 80.3262 177.957V177.957Z" fill="#E5E5E5"/>
<path d="M84.209 175.748H87.1055C87.1554 175.261 87.1804 174.774 87.1679 174.3C86.1941 174.487 85.2702 174.786 84.3962 175.173L84.209 175.748V175.748Z" fill="#E5E5E5"/>
<path d="M98.3301 177.183C98.3675 177.57 98.4299 177.957 98.5048 178.332C98.7296 178.22 98.9418 178.095 99.1666 177.957C98.8919 177.695 98.6172 177.433 98.3301 177.183V177.183Z" fill="#E5E5E5"/>
<path d="M95.2836 175.748L95.1088 175.173C94.2348 174.786 93.2985 174.487 92.3372 174.3C92.3247 174.786 92.3497 175.261 92.3996 175.748H95.2836V175.748Z" fill="#E5E5E5"/>
<path d="M84.209 175.748L84.3838 175.173L85.4201 171.74L84.0592 171.403C83.747 171.515 83.4474 171.64 83.1478 171.777L81.9492 175.748H84.209V175.748Z" fill="#888888"/>
<path d="M95.1085 175.173L95.2833 175.748H97.5431L96.3445 171.777C96.0449 171.64 95.7453 171.528 95.4332 171.403L94.0723 171.74L95.1086 175.173L95.1085 175.173Z" fill="#888888"/>
<path d="M81.9863 176.547C81.9988 176.534 82.0113 176.534 82.0238 176.522H81.9863V176.547Z" fill="#B2B2B2"/>
<path d="M89.7405 176.522H82.0249C82.0124 176.534 81.9999 176.534 81.9874 176.547C81.9624 177.283 81.8625 177.995 81.7002 178.694C84.1347 179.855 86.8564 180.504 89.7404 180.504V176.522L89.7405 176.522Z" fill="#A6A6A6"/>
<path d="M97.5052 176.522H97.4678C97.4803 176.534 97.4928 176.534 97.5052 176.547V176.522Z" fill="#999999"/>
<path d="M97.4673 176.522H89.7393V180.504C92.6108 180.504 95.3449 179.855 97.7794 178.694C97.6171 177.995 97.5173 177.271 97.4923 176.547C97.4923 176.534 97.4798 176.522 97.4673 176.522Z" fill="#888888"/>
<path d="M98.3295 177.183C98.2921 176.834 98.2795 176.484 98.2795 176.122C98.2795 175.91 98.1048 175.735 97.8926 175.735H81.5874C81.3751 175.735 81.2003 175.91 81.2003 176.122C81.2003 176.484 81.1753 176.834 81.1503 177.183C81.1129 177.57 81.0505 177.957 80.9756 178.332C81.2128 178.457 81.45 178.582 81.6872 178.694C81.8495 177.995 81.9494 177.271 81.9743 176.547V176.522H97.493V176.547C97.518 177.283 97.6179 177.995 97.7802 178.694C98.0174 178.582 98.2546 178.457 98.4918 178.332C98.4169 177.957 98.367 177.57 98.3295 177.183V177.183Z" fill="#4A4A4A"/>
<path d="M95.1093 173.064C95.0469 173.001 94.997 172.926 94.9346 172.851C94.997 172.939 95.0594 173.001 95.1093 173.064Z" fill="#E0E0E0"/>
<path d="M95.5454 173.5C95.5454 173.5 95.3581 173.351 95.1084 173.076C95.3581 173.351 95.5454 173.5 95.5454 173.5Z" fill="#999999"/>
<path d="M102.225 157.582C102.225 157.582 102.225 157.57 102.225 157.582C102.063 157.357 101.901 157.158 101.738 156.983C101.663 156.895 101.589 156.821 101.514 156.746C101.489 156.721 101.451 156.696 101.426 156.671C101.376 156.621 101.326 156.583 101.276 156.546V158.294L101.938 161.353C101.951 161.378 101.951 161.402 101.963 161.427L102.425 161.952H102.912V161.815C102.912 160.366 102.675 158.98 102.25 157.682C102.238 157.632 102.238 157.607 102.225 157.582V157.582Z" fill="#8A8A8A"/>
<path d="M102.013 161.64V161.665C102.025 161.74 102.025 161.815 102.025 161.89V161.927V161.964C102.025 162.039 102.025 162.114 102.013 162.177V162.202L101.976 162.426L102.437 161.915L101.976 161.39C101.988 161.478 102.001 161.552 102.013 161.64V161.64Z" fill="#383838"/>
<path d="M102.001 162.227V162.202C102.013 162.127 102.013 162.052 102.013 161.989V161.89C102.013 161.815 102.013 161.74 102.001 161.665V161.64L101.963 161.415C101.951 161.39 101.951 161.365 101.938 161.34C101.888 161.19 101.838 161.066 101.763 160.953C101.751 160.941 101.738 160.928 101.738 160.916C101.713 160.891 101.701 160.866 101.676 160.841C101.651 160.803 101.614 160.778 101.576 160.753C101.564 160.741 101.551 160.741 101.539 160.728C101.514 160.704 101.476 160.691 101.451 160.679C101.439 160.679 101.426 160.666 101.414 160.666C101.376 160.654 101.326 160.641 101.276 160.641C101.227 160.641 101.189 160.654 101.139 160.666C101.127 160.666 101.114 160.679 101.102 160.679C101.077 160.691 101.039 160.704 101.014 160.728C101.002 160.741 100.989 160.741 100.977 160.753C100.939 160.778 100.914 160.816 100.877 160.841C100.852 160.866 100.84 160.891 100.815 160.916C100.802 160.928 100.79 160.941 100.79 160.953C100.715 161.066 100.652 161.19 100.615 161.34V161.353C100.59 161.415 100.577 161.49 100.565 161.565C100.565 161.59 100.552 161.602 100.552 161.627C100.54 161.715 100.54 161.79 100.527 161.877V161.915C100.527 162.626 100.864 163.213 101.276 163.213C101.351 163.213 101.414 163.188 101.489 163.163C101.501 163.163 101.514 163.151 101.526 163.151C101.551 163.138 101.576 163.113 101.601 163.101L101.639 163.063C101.676 163.038 101.701 163.001 101.738 162.963C101.763 162.938 101.776 162.913 101.801 162.876C101.813 162.851 101.826 162.838 101.838 162.813C101.863 162.776 101.876 162.739 101.901 162.689C101.913 162.676 101.913 162.664 101.926 162.639C101.951 162.576 101.963 162.514 101.988 162.451C101.988 162.377 102.001 162.302 102.001 162.227L102.001 162.227ZM101.301 161.752C101.139 161.752 101.014 161.54 101.014 161.265C101.014 161.003 101.139 160.778 101.301 160.778C101.464 160.778 101.589 160.991 101.589 161.265C101.589 161.54 101.451 161.752 101.301 161.752Z" fill="#E5E5E5"/>
<path d="M101.302 161.752C101.46 161.752 101.589 161.534 101.589 161.265C101.589 160.997 101.46 160.779 101.302 160.779C101.143 160.779 101.015 160.997 101.015 161.265C101.015 161.534 101.143 161.752 101.302 161.752Z" fill="white"/>
<path d="M100.603 161.34C100.652 161.19 100.702 161.066 100.777 160.953C100.79 160.941 100.802 160.928 100.802 160.916C100.827 160.891 100.84 160.866 100.865 160.841C100.89 160.803 100.927 160.778 100.965 160.753C100.977 160.741 100.99 160.741 101.002 160.729C101.027 160.704 101.064 160.691 101.089 160.679C101.102 160.679 101.114 160.666 101.127 160.666C101.164 160.654 101.214 160.641 101.264 160.641C101.314 160.641 101.352 160.654 101.402 160.666C101.414 160.666 101.427 160.679 101.439 160.679C101.464 160.691 101.501 160.704 101.526 160.729C101.539 160.741 101.551 160.741 101.564 160.753C101.601 160.778 101.626 160.816 101.664 160.841C101.689 160.866 101.701 160.891 101.726 160.916C101.739 160.928 101.751 160.941 101.751 160.953C101.826 161.066 101.888 161.19 101.926 161.34L101.264 158.281L100.603 161.34V161.34Z" fill="#4A4A4A"/>
<path d="M92.4246 161.902C92.4246 161.839 92.4246 161.777 92.4121 161.715C92.3997 161.652 92.3996 161.602 92.3872 161.54C92.3747 161.477 92.3622 161.427 92.3372 161.378C92.3247 161.328 92.2998 161.265 92.2748 161.215L92.1998 161.065C92.1124 160.916 92.0126 160.778 91.8877 160.666C91.7254 160.516 91.5382 160.391 91.3384 160.304C91.2385 160.266 91.1261 160.229 91.0263 160.204H91.0138C90.9015 160.179 90.7891 160.167 90.6768 160.167C90.5644 160.167 90.452 160.179 90.3396 160.204H90.3272C90.2148 160.229 90.1149 160.254 90.015 160.291H90.0025C89.9026 160.329 89.8028 160.379 89.7154 160.441C89.628 160.504 89.5406 160.566 89.4657 160.641H89.4532C89.3284 160.766 89.216 160.903 89.1286 161.053L89.0537 161.203C89.0537 161.203 89.0537 161.215 89.0412 161.215C89.0163 161.265 89.0038 161.303 88.9913 161.353C88.9913 161.365 88.9788 161.365 88.9788 161.378C88.9663 161.427 88.9538 161.465 88.9414 161.515C88.9414 161.527 88.9289 161.54 88.9289 161.552C88.9164 161.602 88.9164 161.64 88.9039 161.69C88.9039 161.702 88.9039 161.715 88.8914 161.727C88.8914 161.79 88.8789 161.852 88.8789 161.914C88.8789 162.027 88.8914 162.139 88.9164 162.251V162.264C88.9413 162.376 88.9663 162.476 89.0163 162.589C89.1036 162.788 89.2285 162.976 89.3783 163.138C89.5032 163.263 89.6405 163.375 89.7903 163.462L89.9401 163.537H89.9526C90.0026 163.562 90.0525 163.575 90.09 163.587C90.0983 163.587 90.1066 163.591 90.1149 163.6C90.1649 163.612 90.2023 163.625 90.2522 163.637C90.2647 163.637 90.2772 163.65 90.2897 163.65C90.3396 163.662 90.3771 163.662 90.427 163.675C90.4395 163.675 90.452 163.675 90.4645 163.687C90.5269 163.687 90.5893 163.7 90.6518 163.7C90.9015 163.7 91.1262 163.65 91.3384 163.562C91.4383 163.512 91.5382 163.462 91.638 163.4C91.8253 163.275 91.9876 163.113 92.1125 162.926C92.1749 162.826 92.2249 162.726 92.2748 162.626C92.3622 162.414 92.4121 162.177 92.4121 161.939V161.927L92.4246 161.902V161.902ZM90.6643 161.69C90.3022 161.69 90.0025 161.39 90.0025 161.028C90.0025 160.666 90.3022 160.366 90.6643 160.366C91.0263 160.366 91.3259 160.666 91.3259 161.028C91.3259 161.39 91.0263 161.69 90.6643 161.69Z" fill="#E5E5E5"/>
<path d="M90.6647 161.69C91.0301 161.69 91.3263 161.394 91.3263 161.028C91.3263 160.663 91.0301 160.366 90.6647 160.366C90.2992 160.366 90.0029 160.663 90.0029 161.028C90.0029 161.394 90.2992 161.69 90.6647 161.69Z" fill="white"/>
<path d="M89.4416 160.641L90.6651 156.908V156.034C89.991 155.897 89.2917 155.822 88.5801 155.822C88.3429 155.822 88.1057 155.835 87.8685 155.847C87.831 155.847 87.806 155.847 87.7686 155.859C86.5451 155.947 85.3466 156.271 84.2354 156.783C83.2866 157.22 82.3876 157.795 81.6011 158.469C81.3888 158.656 81.1766 158.843 80.9769 159.043L80.8645 159.155C80.6772 159.343 80.4899 159.543 80.3151 159.742C80.2777 159.792 80.2402 159.83 80.2028 159.88C80.028 160.092 79.8533 160.304 79.6909 160.516C79.6785 160.529 79.666 160.554 79.6535 160.566C79.5037 160.778 79.3538 160.991 79.204 161.215C79.1791 161.253 79.1416 161.303 79.1166 161.34C79.0043 161.528 78.8919 161.715 78.792 161.902H84.3353L89.4416 160.641V160.641Z" fill="#8A8A8A"/>
<path d="M94.1228 160.229C94.1353 160.079 94.1478 159.942 94.1478 159.792C94.1603 159.592 94.1602 159.405 94.1727 159.205V158.606C94.1727 158.206 94.1478 157.819 94.1353 157.42C94.1353 157.42 94.1228 157.42 94.1228 157.407C94.1228 157.407 94.1103 157.407 94.1103 157.395C94.0354 157.357 93.8607 157.257 93.6984 157.158H93.6859C93.6484 157.133 93.611 157.108 93.5735 157.095C93.5485 157.083 93.5235 157.058 93.4985 157.045L93.4861 157.033C93.4611 157.02 93.4362 157.008 93.4237 156.995C93.174 156.858 92.9118 156.746 92.6496 156.633C92.0254 156.371 91.1764 156.134 90.6895 156.021V156.895L91.9005 160.616C92.0254 160.728 92.1377 160.866 92.2126 161.015L92.2876 161.165C92.3125 161.215 92.3375 161.265 92.35 161.328C92.3624 161.377 92.3874 161.44 92.3999 161.49C92.4124 161.552 92.4248 161.602 92.4248 161.665C92.4373 161.727 92.4373 161.789 92.4373 161.852V161.864H93.9106C94.0105 161.328 94.0854 160.778 94.1228 160.229C94.1228 160.254 94.1228 160.241 94.1228 160.229V160.229Z" fill="#A6A6A6"/>
<path d="M92.4368 167.22C92.7739 166.883 93.086 166.571 93.3856 166.259C93.5604 166.072 93.7352 165.885 93.91 165.71C95.146 164.374 96.0449 163.113 96.5943 161.502C96.6068 161.465 96.6192 161.415 96.6317 161.353V161.328C96.6442 161.265 96.6567 161.203 96.6692 161.128C96.6692 161.078 96.6816 161.028 96.6816 160.978C96.5443 160.279 96.2821 159.592 96.0449 158.918V158.931L96.0324 158.918C95.9825 158.881 95.9451 158.831 95.8951 158.793C95.7578 158.668 95.6204 158.544 95.4706 158.419C95.0336 158.057 94.5842 157.72 94.1098 157.432C94.1347 157.832 94.1472 158.219 94.1472 158.618V159.218C94.1472 159.417 94.1347 159.617 94.1223 159.804C94.1098 159.954 94.1098 160.092 94.0973 160.241V160.291C94.0473 160.841 93.9849 161.39 93.885 161.927L93.7102 162.751C93.3482 164.224 92.6116 165.548 92.0123 166.921C91.85 167.283 91.7002 167.657 91.5629 168.032L91.5254 168.144C91.7127 167.945 91.8875 167.77 92.0123 167.645C92.1746 167.483 92.2994 167.345 92.4368 167.22V167.22Z" fill="#8A8A8A"/>
<path d="M89.4541 160.641C89.529 160.566 89.6164 160.504 89.7038 160.441C89.7912 160.379 89.891 160.329 89.9909 160.291H90.0034C90.1033 160.254 90.2032 160.217 90.3156 160.204H90.328C90.4404 160.179 90.5528 160.167 90.6652 160.167C90.7775 160.167 90.8899 160.179 91.0022 160.204H91.0147C91.127 160.229 91.227 160.254 91.3268 160.304C91.5266 160.391 91.7138 160.504 91.8761 160.666L90.6651 156.946L89.4541 160.641V160.641Z" fill="#4A4A4A"/>
<path d="M89.0293 162.589C88.9918 162.489 88.9543 162.376 88.9293 162.264V162.252C88.9044 162.139 88.8919 162.027 88.8919 161.915C88.8919 161.852 88.8919 161.79 88.9044 161.727C88.9044 161.715 88.9044 161.702 88.9169 161.69C88.9169 161.64 88.9294 161.602 88.9418 161.552C88.9418 161.54 88.9543 161.528 88.9543 161.515C88.9668 161.465 88.9793 161.428 88.9918 161.378C88.9918 161.365 89.0043 161.365 89.0043 161.353C89.0168 161.303 89.0417 161.253 89.0542 161.215C89.0542 161.215 89.0542 161.203 89.0667 161.203L89.1416 161.053C89.229 160.903 89.3414 160.766 89.4662 160.641L84.3475 161.902H84.335L89.4038 163.138C89.2415 162.988 89.1166 162.801 89.0292 162.589L89.0293 162.589Z" fill="#383838"/>
<path d="M100.54 161.627C100.54 161.603 100.552 161.578 100.552 161.565C100.564 161.49 100.577 161.415 100.602 161.353V161.328L101.264 158.269V156.521C100.714 156.072 100.14 155.822 99.5282 155.822C98.7541 155.822 98.0425 156.247 97.5057 156.771C96.9189 157.345 96.4694 158.069 96.0949 158.793C96.0824 158.831 96.0574 158.856 96.0449 158.893L96.382 159.193C96.6317 159.418 96.8814 159.655 97.1186 159.892L97.4557 160.229C97.5681 160.354 97.6929 160.466 97.8053 160.591C97.9551 160.754 98.1049 160.903 98.2422 161.066C98.3047 161.128 98.3671 161.203 98.4296 161.265C98.6043 161.465 98.7791 161.652 98.9539 161.852L99.0163 161.915H100.527V161.877C100.527 161.802 100.527 161.715 100.54 161.627V161.627Z" fill="#A6A6A6"/>
<path d="M77.8801 163.837C77.8801 163.825 77.8926 163.812 77.8926 163.8C77.9925 163.55 78.0923 163.3 78.2047 163.051C78.2297 162.976 78.2672 162.913 78.3046 162.851C78.392 162.651 78.4919 162.464 78.5917 162.277C78.6292 162.202 78.6667 162.127 78.7166 162.039C78.7416 162.002 78.7666 161.952 78.7915 161.914C78.9039 161.727 79.0038 161.54 79.1161 161.353C79.1411 161.315 79.1785 161.265 79.2035 161.228C79.3408 161.003 79.4907 160.791 79.653 160.579C79.6654 160.566 79.678 160.541 79.6904 160.529C79.8527 160.304 80.0275 160.092 80.2023 159.892C80.2397 159.842 80.2772 159.805 80.3146 159.755C80.4894 159.555 80.6767 159.355 80.864 159.168L80.9764 159.055C81.1761 158.856 81.3759 158.668 81.6006 158.481C82.4371 155.66 85.0215 153.6 88.0678 153.6C89.2913 153.6 90.5148 153.949 91.5635 154.598C92.6372 155.26 93.5111 156.221 94.0729 157.333C94.0729 157.333 94.0729 157.345 94.0854 157.345C94.0979 157.37 94.1104 157.395 94.1354 157.432C94.6098 157.72 95.0593 158.057 95.4962 158.419C95.646 158.544 95.7834 158.668 95.9207 158.793C95.9706 158.831 96.0081 158.881 96.058 158.918C96.0705 158.881 96.083 158.856 96.108 158.818C96.5325 156.109 97.731 154.149 99.1418 154.149C100.203 154.149 101.152 155.26 101.726 156.97V156.983C101.888 157.158 102.051 157.358 102.213 157.57C102.213 157.57 102.213 157.582 102.226 157.582C102.238 157.607 102.238 157.632 102.251 157.657L102.226 157.57C100.465 152.376 95.5586 148.631 89.7657 148.631C82.4995 148.631 76.6191 154.511 76.6191 161.777C76.6191 163.213 76.8438 164.586 77.2683 165.872V165.86C77.3557 165.473 77.4556 165.086 77.568 164.711C77.6679 164.411 77.7677 164.124 77.8801 163.837V163.837Z" fill="#383838"/>
<path d="M102.426 161.927L101.964 162.439C101.951 162.501 101.926 162.564 101.901 162.626C101.901 162.639 101.889 162.651 101.876 162.676C101.864 162.713 101.839 162.763 101.814 162.801C101.801 162.826 101.789 162.838 101.776 162.863C101.751 162.888 101.739 162.926 101.714 162.951C101.689 162.988 101.651 163.026 101.614 163.051L101.577 163.088C101.552 163.113 101.527 163.125 101.502 163.138C101.489 163.138 101.477 163.15 101.464 163.15C101.402 163.188 101.327 163.2 101.252 163.2C100.84 163.2 100.503 162.626 100.503 161.902H98.9922C99.2793 162.227 99.554 162.551 99.8162 162.888L99.8287 162.901L100.615 163.874C100.628 163.887 100.64 163.912 100.653 163.924C100.902 164.237 101.14 164.549 101.377 164.861C101.402 164.886 101.427 164.923 101.452 164.948C101.701 165.285 101.951 165.622 102.201 165.947V165.959C102.638 164.674 102.875 163.313 102.887 161.889L102.426 161.927V161.927Z" fill="white"/>
<path d="M87.7686 155.847C87.806 155.847 87.8311 155.847 87.8685 155.834C88.1057 155.822 88.3429 155.809 88.5801 155.809C89.2917 155.809 89.9909 155.884 90.6651 156.022C91.1396 156.134 91.9885 156.371 92.6252 156.633C92.8874 156.746 93.1496 156.871 93.3993 156.996C93.4118 156.996 93.4368 157.008 93.4617 157.033C93.4617 157.033 93.4742 157.033 93.4742 157.045C93.4992 157.058 93.5241 157.07 93.5491 157.095C93.5866 157.12 93.624 157.133 93.6615 157.158H93.674C93.8363 157.245 94.011 157.358 94.0859 157.395C94.0984 157.395 94.0984 157.408 94.0984 157.408L94.1109 157.42C94.0984 157.395 94.086 157.37 94.061 157.333C94.061 157.333 94.061 157.32 94.0485 157.32C93.4867 156.196 92.6003 155.235 91.539 154.586C90.4903 153.949 89.2668 153.587 88.0433 153.587C84.997 153.587 82.4127 155.647 81.5762 158.469C82.3752 157.782 83.2616 157.208 84.2104 156.783C85.3466 156.259 86.5576 155.947 87.7687 155.847L87.7686 155.847Z" fill="#E5E5E5"/>
<path d="M97.5184 156.783C98.0553 156.259 98.7669 155.834 99.5409 155.834C100.153 155.834 100.739 156.084 101.276 156.534C101.326 156.571 101.376 156.621 101.426 156.658C101.451 156.683 101.489 156.708 101.514 156.733C101.588 156.808 101.663 156.883 101.738 156.971V156.958C101.152 155.248 100.215 154.136 99.1539 154.136C97.7432 154.136 96.5446 156.084 96.1201 158.806C96.4697 158.082 96.9316 157.358 97.5184 156.783V156.783Z" fill="#E5E5E5"/>
<path d="M85.0583 174.05C85.1832 174.1 85.2955 174.137 85.4204 174.175C86.7812 174.649 88.2419 174.911 89.7651 174.911C91.5004 174.911 93.1609 174.574 94.6716 173.962C94.7465 173.925 94.8339 173.9 94.9088 173.862C95.0337 173.812 95.171 173.75 95.2959 173.688C95.4082 173.638 95.5206 173.588 95.633 173.525C95.608 173.525 95.583 173.538 95.558 173.538C95.0836 173.588 94.6217 173.6 94.1598 173.525C91.4506 173.138 90.8512 171.827 90.9386 170.479C90.7389 170.367 90.5516 170.242 90.3394 170.092C88.2544 168.581 87.0184 166.971 87.0184 166.971C87.0184 166.971 88.629 168.207 91.0261 169.143C91.076 169.168 91.1259 169.181 91.1759 169.206C91.2882 168.819 91.4256 168.444 91.5379 168.119L91.5754 168.007C91.7127 167.632 91.8625 167.258 92.0248 166.896C92.6241 165.523 93.3607 164.187 93.7228 162.726L93.8976 161.902H92.4244V161.914C92.4244 162.164 92.3744 162.389 92.287 162.601C92.2371 162.701 92.1871 162.813 92.1247 162.901C91.9999 163.088 91.8375 163.25 91.6503 163.375C91.5504 163.438 91.4506 163.487 91.3507 163.537C91.1384 163.625 90.9012 163.675 90.664 163.675C90.6016 163.675 90.5392 163.675 90.4768 163.662C90.4643 163.662 90.4518 163.662 90.4393 163.65C90.3894 163.65 90.3519 163.637 90.3019 163.625C90.2895 163.625 90.277 163.612 90.2645 163.612C90.2146 163.6 90.1771 163.587 90.1272 163.575C90.1189 163.575 90.1105 163.571 90.1022 163.562C90.0523 163.55 90.0023 163.525 89.9649 163.512H89.9524L89.8026 163.438C89.6528 163.35 89.5154 163.25 89.3906 163.113L84.3218 161.877H78.7909C78.766 161.914 78.741 161.964 78.7161 162.002C78.6786 162.077 78.6286 162.152 78.5912 162.239C78.4913 162.426 78.3914 162.626 78.304 162.813C78.2666 162.876 78.2416 162.951 78.2041 163.013C78.0918 163.263 77.9919 163.512 77.892 163.762C77.892 163.775 77.8796 163.787 77.8796 163.8C77.7672 164.087 77.6673 164.386 77.5799 164.686C77.4675 165.061 77.3677 165.448 77.2803 165.835C78.1542 168.494 79.8397 170.779 82.062 172.377C82.1244 172.427 82.1993 172.464 82.2617 172.514C82.6363 172.776 83.0233 173.026 83.4228 173.238C83.9472 173.563 84.4965 173.825 85.0583 174.05V174.05Z" fill="white"/>
<path d="M94.1354 169.955C94.1105 170.092 94.098 170.229 94.098 170.367C94.0855 170.604 94.1105 170.841 94.1479 171.053C94.1729 171.203 94.1979 171.34 94.2353 171.478C94.2977 171.678 94.3602 171.865 94.4475 172.04C94.5349 172.214 94.6223 172.377 94.7097 172.514C94.7347 172.564 94.7722 172.614 94.7971 172.651C94.8471 172.714 94.8845 172.776 94.9345 172.839C94.9969 172.914 95.0593 172.988 95.1093 173.051C95.3465 173.326 95.5462 173.475 95.5462 173.475V173.488C95.5462 173.5 95.5462 173.513 95.5587 173.525C95.5837 173.525 95.6086 173.513 95.6336 173.513C96.2204 173.438 96.8072 173.276 97.394 173.076C97.6936 172.964 97.9932 172.851 98.2804 172.726C98.3678 172.689 98.4552 172.639 98.5426 172.601C101.551 171.141 104.073 168.569 104.073 168.569C100.303 170.429 96.595 170.354 94.1354 169.955V169.955Z" fill="#828282"/>
<path d="M101.402 164.886C101.165 164.574 100.915 164.261 100.678 163.949C100.666 163.937 100.653 163.912 100.641 163.899L99.854 162.926L99.8415 162.913C99.5668 162.576 99.2922 162.251 99.0175 161.927C99.005 161.902 98.98 161.889 98.9675 161.864C98.7928 161.665 98.618 161.477 98.4432 161.278C98.3808 161.215 98.3183 161.14 98.2559 161.078C98.1061 160.916 97.9688 160.766 97.8189 160.603C97.7066 160.479 97.5817 160.366 97.4694 160.241L97.1323 159.904C96.8951 159.667 96.6454 159.43 96.3957 159.205L96.0586 158.906C96.2958 159.592 96.5705 160.279 96.7078 160.99C96.7453 161.178 96.7702 161.353 96.7952 161.527C97.1323 163.987 96.3333 165.597 95.0848 167.72C94.9974 167.87 94.8975 168.032 94.8101 168.182C94.523 168.656 94.3357 169.118 94.2358 169.543C94.1984 169.68 94.1734 169.817 94.1484 169.955C96.6079 170.354 100.303 170.429 104.086 168.569C104.086 168.569 103.35 167.483 102.226 165.984C101.976 165.647 101.727 165.31 101.477 164.986C101.452 164.948 101.427 164.911 101.402 164.886L101.402 164.886Z" fill="#383838"/>
<path d="M95.5457 173.5C95.5457 173.5 95.3584 173.35 95.1087 173.076C95.0463 173.013 94.9964 172.938 94.9339 172.863C94.884 172.801 94.8465 172.739 94.7966 172.676C94.7716 172.626 94.7342 172.589 94.7092 172.539C94.6218 172.389 94.5344 172.239 94.447 172.064C94.3721 171.89 94.2972 171.702 94.2348 171.503C94.1973 171.365 94.1598 171.228 94.1473 171.078C94.1099 170.866 94.0974 170.629 94.0974 170.391C94.0974 170.254 94.11 170.117 94.1349 169.979C94.1599 169.842 94.1848 169.705 94.2223 169.567C94.3347 169.143 94.5095 168.694 94.7966 168.207C94.884 168.044 94.9839 167.895 95.0713 167.745C96.3198 165.622 97.1188 164.024 96.7817 161.552C96.7567 161.377 96.7318 161.19 96.6943 161.015C96.6818 161.14 96.6568 161.253 96.6319 161.34V161.365C96.6194 161.427 96.6069 161.477 96.5944 161.515C96.045 163.125 95.1462 164.386 93.9102 165.722C93.7479 165.909 93.5731 166.084 93.3858 166.271C93.0862 166.584 92.7615 166.908 92.4369 167.233C92.2996 167.37 92.1623 167.495 92.025 167.632C91.9001 167.757 91.7253 167.932 91.5381 168.132C91.4257 168.456 91.2883 168.831 91.176 169.218C91.1261 169.193 91.0761 169.18 91.0261 169.155C88.6291 168.232 87.0186 166.983 87.0186 166.983C87.0186 166.983 88.2545 168.594 90.3395 170.104C90.5392 170.254 90.739 170.379 90.9388 170.491C90.8514 171.852 91.4506 173.151 94.1598 173.538C94.6218 173.6 95.0837 173.6 95.5581 173.55C95.5581 173.525 95.5456 173.513 95.5456 173.5H95.5457Z" fill="#E5E5E5"/>
</svg>
