<svg width="841" height="120" viewBox="0 0 841 120" fill="none" xmlns="http://www.w3.org/2000/svg">
<path d="M62.6057 119.807C52.2826 119.807 43.8535 111.409 43.8535 101.054C43.8535 90.6997 52.2826 82.3022 62.6057 82.3022C65.0997 82.3022 67.5306 82.7758 69.8036 83.7544C70.435 84.0386 70.7507 84.7646 70.4981 85.4276C70.214 86.059 69.4879 86.3747 68.8249 86.1221C66.8361 85.3013 64.7525 84.8909 62.6058 84.8909C53.6716 84.8909 46.4106 92.1519 46.4106 101.086C46.4106 110.02 53.6716 117.281 62.6058 117.281C71.5399 117.281 78.8009 110.02 78.8009 101.086C78.8009 99.1603 78.4852 97.2977 77.8222 95.5298C77.5697 94.8669 77.9169 94.1408 78.5799 93.8882C79.2428 93.6357 79.9689 93.9829 80.2215 94.6459C80.9791 96.6979 81.358 98.8762 81.358 101.086C81.358 111.378 72.9605 119.807 62.6058 119.807H62.6057Z" fill="#E5E5E5"/>
<path d="M70.8136 99.1287L67.9092 102.159L69.5192 108.947H73.1813L70.8136 99.1287Z" fill="#E5E5E5"/>
<path d="M69.6137 90.163L70.624 91.1733L62.6053 99.6654L55.7548 92.6254L51.8086 108.947H55.4706L57.6489 99.8864L62.6053 105.285L73.2127 93.7304L74.2229 94.7722L75.2331 89.0581L69.6137 90.163Z" fill="#E5E5E5"/>
<path d="M789.256 115.759C787.626 114.537 785.209 113.605 782.677 112.615C779.649 111.45 776.184 110.111 773.622 108.044C770.711 105.715 769.284 102.774 769.284 99.0769C769.226 95.8452 770.711 92.7882 773.273 90.8375C776.213 88.5375 780.639 87.3147 786.112 87.3147C787.539 87.3147 788.994 87.402 790.392 87.5767C790.537 87.6058 790.683 87.4894 790.683 87.3438C790.683 87.2565 790.654 87.1691 790.596 87.1109C782.88 80.1817 771.031 80.8222 764.102 88.5084C757.172 96.1946 757.813 108.073 765.499 115.002C768.935 118.088 773.418 119.806 778.047 119.806C782.065 119.835 785.996 118.525 789.227 116.138C789.285 116.08 789.344 116.021 789.344 115.934C789.373 115.905 789.315 115.818 789.256 115.759Z" fill="#E5E5E5"/>
<path d="M796.797 99.3682C796.797 99.31 796.768 99.2226 796.71 99.1935C792.779 95.9327 789.635 94.6226 785.763 94.6226C783.725 94.6226 782.123 95.0302 781.075 95.8454C780.173 96.515 779.678 97.5631 779.678 98.6694C779.678 101.901 783.608 103.357 788.179 105.075C790.537 105.948 792.954 106.851 795.196 108.102C795.225 108.132 795.283 108.132 795.312 108.132C795.341 108.132 795.37 108.132 795.399 108.102C795.487 108.073 795.545 108.015 795.574 107.957C796.448 105.773 796.884 103.444 796.884 101.086C796.855 100.533 796.855 99.9505 796.797 99.3682H796.797Z" fill="#E5E5E5"/>
<path d="M116.655 108.341V103.157C116.655 102.074 116.208 101.532 115.314 101.532C114.421 101.531 113.973 102.073 113.971 103.157V108.341H111.33V103.157C111.33 102.074 110.89 101.532 110.01 101.532C109.115 101.532 108.668 102.074 108.669 103.157V108.341H106.028V102.851C106.028 101.72 106.421 100.864 107.206 100.283C107.898 99.7647 108.832 99.5054 110.01 99.5054C111.204 99.5054 112.084 99.8117 112.649 100.424C113.136 99.8117 114.024 99.5054 115.312 99.5054C116.49 99.5054 117.425 99.7647 118.115 100.283C118.901 100.864 119.294 101.72 119.294 102.851V108.341H116.655Z" fill="#E5E5E5"/>
<path d="M149 108.317V93.5088H151.641V108.317H149Z" fill="#E5E5E5"/>
<path d="M145.632 108.317V107.445C145.396 107.759 144.996 108.01 144.43 108.199C143.968 108.364 143.482 108.452 142.991 108.458C141.734 108.458 140.724 108.026 139.961 107.161C139.199 106.296 138.818 105.227 138.817 103.953C138.817 102.696 139.189 101.64 139.938 100.793C140.601 100.044 141.678 99.5198 142.92 99.5198C144.319 99.5198 145.136 100.046 145.632 100.651V93.5088H148.203V108.317H145.632H145.632ZM145.632 103.389C145.632 102.917 145.409 102.465 144.962 102.033C144.515 101.6 144.055 101.384 143.583 101.384C142.908 101.384 142.373 101.659 141.98 102.209C141.634 102.698 141.461 103.295 141.461 104.001C141.461 104.694 141.634 105.283 141.98 105.77C142.373 106.337 142.907 106.62 143.583 106.619C143.992 106.619 144.436 106.427 144.916 106.041C145.395 105.656 145.634 105.259 145.634 104.851L145.632 103.389Z" fill="#E5E5E5"/>
<path d="M133.844 108.552C132.507 108.552 131.403 108.128 130.531 107.279C129.659 106.43 129.222 105.338 129.22 104.001C129.22 102.666 129.656 101.574 130.529 100.724C131.402 99.8741 132.506 99.4497 133.842 99.4507C135.178 99.4507 136.286 99.8751 137.167 100.724C138.047 101.573 138.487 102.665 138.487 104.001C138.487 105.338 138.047 106.431 137.167 107.279C136.286 108.128 135.179 108.552 133.844 108.552ZM133.844 101.573C133.207 101.573 132.718 101.814 132.376 102.296C132.034 102.778 131.863 103.35 131.863 104.014C131.863 104.677 132.023 105.238 132.342 105.696C132.708 106.217 133.209 106.478 133.846 106.477C134.482 106.477 134.983 106.216 135.349 105.696C135.682 105.238 135.849 104.677 135.849 104.014C135.849 103.35 135.69 102.789 135.371 102.332C135.005 101.825 134.496 101.572 133.844 101.573H133.844Z" fill="#E5E5E5"/>
<path d="M124.294 108.552C122.958 108.552 121.853 108.128 120.98 107.279C120.108 106.43 119.672 105.338 119.672 104.001C119.672 102.666 120.108 101.574 120.98 100.724C121.853 99.8741 122.957 99.4497 124.294 99.4507C125.629 99.4507 126.737 99.8751 127.619 100.724C128.5 101.573 128.94 102.665 128.939 104.001C128.939 105.338 128.499 106.431 127.619 107.279C126.739 108.128 125.63 108.552 124.294 108.552ZM124.294 101.573C123.657 101.573 123.168 101.814 122.826 102.296C122.484 102.778 122.313 103.35 122.313 104.014C122.313 104.677 122.473 105.238 122.792 105.696C123.158 106.217 123.659 106.478 124.296 106.477C124.933 106.477 125.434 106.216 125.799 105.696C126.132 105.238 126.299 104.677 126.299 104.014C126.299 103.35 126.139 102.789 125.82 102.332C125.455 101.825 124.946 101.572 124.294 101.573H124.294Z" fill="#E5E5E5"/>
<path d="M154.768 104.804C154.824 105.432 155.641 106.784 156.985 106.784C158.293 106.784 158.911 106.029 158.942 105.723L161.724 105.699C161.421 106.628 160.187 108.6 156.936 108.6C155.584 108.6 154.347 108.179 153.458 107.338C152.569 106.498 152.126 105.402 152.126 104.049C152.126 102.65 152.57 101.538 153.458 100.713C154.346 99.8874 155.498 99.4749 156.913 99.4749C158.453 99.4749 159.656 99.9856 160.521 101.007C161.323 101.95 161.724 103.215 161.723 104.803L154.768 104.804L154.768 104.804ZM159.083 103.176C158.973 102.609 158.737 102.147 158.376 101.784C157.967 101.392 157.495 101.195 156.961 101.195C156.41 101.195 155.95 101.383 155.581 101.761C155.212 102.138 154.964 102.61 154.839 103.176H159.083V103.176Z" fill="#E5E5E5"/>
<path d="M111.156 99.1061L113.777 97.1908L113.743 97.074C109.014 97.6538 106.863 98.0646 102.789 100.426L102.827 100.533L103.151 100.537C103.121 100.863 103.069 101.669 103.135 102.881C102.683 104.189 103.124 105.077 103.537 106.044C103.603 105.039 103.596 103.937 103.288 102.841C103.223 101.638 103.276 100.846 103.305 100.538L106.006 100.564C105.998 101.093 106.025 101.622 106.086 102.147C108.499 102.995 110.926 102.144 112.214 100.054C111.857 99.6529 111.156 99.1061 111.156 99.1061H111.156Z" fill="#E0E0E0"/>
<path fill-rule="evenodd" clip-rule="evenodd" d="M207.988 107.808V95.6434C207.988 95.2101 207.637 94.8589 207.204 94.8589H195.101V82.3022H219.7C220.134 82.3022 220.485 82.6535 220.485 83.0867V107.808H207.988V107.808Z" fill="#E5E5E5"/>
<path fill-rule="evenodd" clip-rule="evenodd" d="M195.101 82.3022V94.8589H183.548C183.331 94.8589 183.155 94.6833 183.155 94.4667C183.155 94.363 183.196 94.2635 183.269 94.19L195.101 82.3022Z" fill="#E0E0E0"/>
<path fill-rule="evenodd" clip-rule="evenodd" d="M207.988 119.414V107.808H220.485L208.659 119.691C208.506 119.845 208.257 119.845 208.104 119.692C208.03 119.619 207.988 119.519 207.988 119.414Z" fill="#E0E0E0"/>
<path fill-rule="evenodd" clip-rule="evenodd" d="M195.101 94.8591H207.596C207.812 94.8591 207.988 95.0347 207.988 95.2514V107.808H195.885C195.452 107.808 195.101 107.457 195.101 107.024V94.8591Z" fill="#E0E0E0"/>
<path d="M258.635 97.6021C261.089 97.6021 263.077 95.6134 263.077 93.1601C263.077 90.7068 261.089 88.718 258.635 88.718C256.182 88.718 254.193 90.7068 254.193 93.1601C254.193 95.6134 256.182 97.6021 258.635 97.6021Z" fill="#E5E5E5"/>
<path d="M258.635 98.0393C255.945 98.0393 253.756 95.8505 253.756 93.1603C253.756 90.4701 255.945 88.2812 258.635 88.2812C261.325 88.2812 263.514 90.4701 263.514 93.1603C263.514 95.8505 261.325 98.0393 258.635 98.0393ZM258.635 89.1552C256.426 89.1552 254.63 90.9518 254.63 93.1603C254.63 95.3687 256.426 97.1654 258.635 97.1654C260.843 97.1654 262.64 95.3687 262.64 93.1603C262.64 90.9518 260.843 89.1552 258.635 89.1552Z" fill="white"/>
<path d="M250.49 116.736C254.984 116.736 258.626 113.093 258.626 108.599C258.626 104.105 254.984 100.463 250.49 100.463C245.996 100.463 242.354 104.105 242.354 108.599C242.354 113.093 245.996 116.736 250.49 116.736Z" fill="#E5E5E5"/>
<path d="M250.49 117.173C245.763 117.173 241.917 113.327 241.917 108.599C241.917 103.872 245.763 100.026 250.49 100.026C255.218 100.026 259.064 103.872 259.064 108.599C259.064 113.327 255.218 117.173 250.49 117.173ZM250.49 100.9C246.245 100.9 242.791 104.354 242.791 108.599C242.791 112.845 246.245 116.299 250.49 116.299C254.736 116.299 258.19 112.845 258.19 108.599C258.19 104.354 254.736 100.9 250.49 100.9Z" fill="white"/>
<path d="M259.67 111.981C264.528 111.981 268.466 108.043 268.466 103.185C268.466 98.3271 264.528 94.3889 259.67 94.3889C254.812 94.3889 250.874 98.3271 250.874 103.185C250.874 108.043 254.812 111.981 259.67 111.981Z" fill="#E5E5E5"/>
<path d="M259.67 112.418C254.579 112.418 250.437 108.276 250.437 103.185C250.437 98.094 254.579 93.9521 259.67 93.9521C264.761 93.9521 268.903 98.094 268.903 103.185C268.903 108.276 264.761 112.418 259.67 112.418ZM259.67 94.8261C255.06 94.8261 251.31 98.576 251.31 103.185C251.31 107.794 255.06 111.544 259.67 111.544C264.279 111.544 268.029 107.794 268.029 103.185C268.029 98.5758 264.279 94.8261 259.67 94.8261Z" fill="white"/>
<path d="M277.607 107.755C282.101 107.755 285.744 104.113 285.744 99.6189C285.744 95.1252 282.101 91.4824 277.607 91.4824C273.114 91.4824 269.471 95.1252 269.471 99.6189C269.471 104.113 273.114 107.755 277.607 107.755Z" fill="#E5E5E5"/>
<path d="M277.607 108.192C272.88 108.192 269.034 104.346 269.034 99.6189C269.034 94.8914 272.88 91.0457 277.607 91.0457C282.335 91.0457 286.181 94.8916 286.181 99.6189C286.181 104.346 282.335 108.192 277.607 108.192ZM277.607 91.9195C273.362 91.9195 269.908 95.3736 269.908 99.6189C269.908 103.864 273.362 107.318 277.607 107.318C281.853 107.318 285.307 103.864 285.307 99.6189C285.307 95.3736 281.853 91.9195 277.607 91.9195Z" fill="white"/>
<path d="M268.686 101.426C273.18 101.426 276.822 97.7836 276.822 93.2901C276.822 88.7965 273.18 85.1538 268.686 85.1538C264.193 85.1538 260.55 88.7965 260.55 93.2901C260.55 97.7836 264.193 101.426 268.686 101.426Z" fill="#E5E5E5"/>
<path d="M268.686 101.863C263.958 101.863 260.112 98.0174 260.112 93.29C260.112 88.5627 263.958 84.7168 268.686 84.7168C273.413 84.7168 277.259 88.5627 277.259 93.29C277.259 98.0174 273.413 101.863 268.686 101.863ZM268.686 85.5907C264.44 85.5907 260.986 89.0447 260.986 93.29C260.986 97.5354 264.44 100.989 268.686 100.989C272.931 100.989 276.385 97.5354 276.385 93.29C276.385 89.0447 272.931 85.5907 268.686 85.5907Z" fill="white"/>
<path d="M295.762 116.395C298.332 116.395 300.415 114.311 300.415 111.741C300.415 109.171 298.332 107.088 295.762 107.088C293.192 107.088 291.108 109.171 291.108 111.741C291.108 114.311 293.192 116.395 295.762 116.395Z" fill="#E5E5E5"/>
<path d="M295.762 116.832C292.955 116.832 290.671 114.548 290.671 111.741C290.671 108.934 292.955 106.651 295.762 106.651C298.568 106.651 300.852 108.934 300.852 111.741C300.852 114.548 298.568 116.832 295.762 116.832ZM295.762 107.525C293.436 107.525 291.545 109.416 291.545 111.741C291.545 114.066 293.436 115.958 295.762 115.958C298.086 115.958 299.978 114.066 299.978 111.741C299.978 109.416 298.086 107.525 295.762 107.525Z" fill="white"/>
<path d="M285.873 116.956C290.731 116.956 294.669 113.018 294.669 108.16C294.669 103.302 290.731 99.3635 285.873 99.3635C281.015 99.3635 277.077 103.302 277.077 108.16C277.077 113.018 281.015 116.956 285.873 116.956Z" fill="#E5E5E5"/>
<path d="M285.873 117.392C280.782 117.392 276.64 113.251 276.64 108.159C276.64 103.068 280.782 98.9263 285.873 98.9263C290.964 98.9263 295.106 103.068 295.106 108.159C295.106 113.251 290.964 117.392 285.873 117.392ZM285.873 99.8002C281.263 99.8002 277.514 103.55 277.514 108.159C277.514 112.769 281.263 116.518 285.873 116.518C290.482 116.518 294.232 112.769 294.232 108.159C294.232 103.55 290.482 99.8002 285.873 99.8002Z" fill="white"/>
<path d="M259.132 116.843C261.702 116.843 263.785 114.76 263.785 112.19C263.785 109.62 261.702 107.536 259.132 107.536C256.562 107.536 254.479 109.62 254.479 112.19C254.479 114.76 256.562 116.843 259.132 116.843Z" fill="#E5E5E5"/>
<path d="M259.131 117.28C256.325 117.28 254.041 114.997 254.041 112.19C254.041 109.383 256.325 107.099 259.131 107.099C261.938 107.099 264.222 109.383 264.222 112.19C264.222 114.997 261.938 117.28 259.131 117.28ZM259.131 107.973C256.807 107.973 254.915 109.865 254.915 112.19C254.915 114.515 256.807 116.406 259.131 116.406C261.456 116.406 263.348 114.515 263.348 112.19C263.348 109.865 261.456 107.973 259.131 107.973Z" fill="white"/>
<path d="M282.585 105.56C282.585 111.754 277.563 116.774 271.369 116.774C265.176 116.774 260.154 111.754 260.154 105.56C260.154 99.3665 265.176 94.3455 271.369 94.3455C277.563 94.3455 282.585 99.3665 282.585 105.56Z" fill="#E5E5E5"/>
<path d="M271.369 117.212C264.944 117.212 259.717 111.985 259.717 105.561C259.717 99.1357 264.944 93.9087 271.369 93.9087C277.794 93.9087 283.021 99.1357 283.021 105.561C283.021 111.985 277.794 117.212 271.369 117.212ZM271.369 94.7826C265.426 94.7826 260.591 99.6177 260.591 105.561C260.591 111.503 265.426 116.338 271.369 116.338C277.312 116.338 282.147 111.503 282.147 105.561C282.147 99.6177 277.312 94.7826 271.369 94.7826Z" fill="white"/>
<path d="M330.477 105.581L345.78 90.5772C347.423 88.9669 350.06 88.9928 351.671 90.6352L344.727 83.5511C343.115 81.9092 340.479 81.8832 338.835 83.4931L323.532 98.4971C321.89 100.108 321.864 102.745 323.474 104.388L330.421 111.474C328.81 109.831 328.836 107.194 330.478 105.583" fill="#E0E0E0"/>
<path d="M336.314 111.532L351.615 96.528C353.257 94.9168 353.283 92.2796 351.673 90.6367L358.619 97.7195C360.229 99.3625 360.204 102 358.562 103.611L343.26 118.616C341.617 120.226 338.98 120.2 337.369 118.559L330.421 111.474C332.032 113.117 334.669 113.142 336.312 111.532" fill="#E5E5E5"/>
<path d="M358.62 97.7194L351.673 90.6353C353.284 92.2783 353.258 94.9155 351.615 96.5265L351.19 96.9429L355.221 101.052C356.831 102.695 356.805 105.332 355.163 106.943L358.561 103.612C360.203 102.001 360.229 99.3642 358.619 97.7211" fill="#383838"/>
<path d="M341.326 86.8851L345.357 90.994L345.781 90.5771C347.424 88.967 350.061 88.9927 351.673 90.6347L344.726 83.5506C343.115 81.9089 340.478 81.8831 338.835 83.493L338.41 83.9098L341.326 86.8851L341.326 86.8851Z" fill="#707070"/>
<path d="M422.999 103.619L422.89 103.447C422.87 103.425 422.852 103.401 422.838 103.374L415.236 91.8079L405.415 99.1021L412.631 110.179L412.72 110.32L412.761 110.377C414.58 113.244 418.379 114.094 421.246 112.276C424.114 110.457 424.964 106.658 423.145 103.791C423.105 103.728 423.064 103.665 423.021 103.604" fill="#E0E0E0"/>
<path d="M393.536 106.839C393.536 103.444 390.784 100.691 387.388 100.691C383.993 100.691 381.24 103.444 381.24 106.839C381.24 110.235 383.993 112.987 387.388 112.987C390.784 112.987 393.536 110.235 393.536 106.839Z" fill="#E0E0E0"/>
<path d="M416.186 95.0277C416.196 91.6294 413.449 88.8662 410.051 88.856C406.653 88.8458 403.889 91.5923 403.879 94.9907C403.876 96.2042 404.231 97.3918 404.9 98.4039L400.211 91.8078C398.438 88.9188 394.659 88.0141 391.77 89.7872C390.947 90.2924 390.254 90.9847 389.749 91.8078L382.319 103.395C384.217 100.583 388.036 99.8424 390.848 101.74C391.588 102.24 392.211 102.896 392.672 103.661L397.523 110.481C399.522 113.215 403.359 113.81 406.093 111.811C406.602 111.438 407.05 110.99 407.422 110.481L407.474 110.403C407.601 110.226 407.718 110.042 407.823 109.851L415.118 98.4769C415.802 97.4575 416.165 96.2559 416.16 95.0277M405.823 99.4981L405.927 99.5971L405.823 99.4981ZM406.344 99.9566L406.463 100.045L406.38 99.9566M407.724 100.722L407.886 100.78L407.724 100.722ZM408.391 100.947L408.61 100.999L408.391 100.947ZM409.105 101.098L409.324 101.129L409.105 101.098ZM414.091 99.6544L414.253 99.5033L414.091 99.6544ZM410.762 101.134L410.981 101.098L410.762 101.134ZM411.46 101.009L411.694 100.947L411.46 101.009ZM412.158 100.795C412.226 100.775 412.292 100.751 412.356 100.723C412.292 100.751 412.226 100.775 412.158 100.795ZM413.544 100.071L413.674 99.9618L413.523 100.076M414.565 99.1542L414.696 99.0136L414.565 99.1542ZM382.168 103.64C382.215 103.562 382.257 103.489 382.309 103.416L382.163 103.64H382.168Z" fill="#E5E5E5"/>
<path d="M409.988 88.8762C406.597 88.8805 403.851 91.6331 403.855 95.0242C403.86 98.4154 406.612 101.161 410.003 101.157C413.395 101.152 416.14 98.3998 416.136 95.0086C416.132 91.6236 413.389 88.8805 410.003 88.8762" fill="#707070"/>
<path d="M410.025 101.176C407.955 101.178 406.023 100.135 404.888 98.4041L400.199 91.808C398.429 88.9204 394.653 88.0144 391.765 89.7842C390.941 90.2898 390.247 90.9832 389.742 91.808L382.291 103.395C384.189 100.584 388.007 99.8426 390.819 101.741C391.56 102.24 392.183 102.896 392.644 103.661L397.52 110.481C399.52 113.215 403.357 113.81 406.091 111.811C406.599 111.439 407.048 110.99 407.42 110.481L407.467 110.403L407.821 109.882L415.115 98.5031C413.967 100.183 412.06 101.184 410.025 101.176M382.135 103.64L382.27 103.416L382.135 103.64Z" fill="#E5E5E5"/>
<path d="M469.855 107.215C469.372 107.358 468.987 107.407 468.483 107.407C464.347 107.407 458.273 92.9556 458.273 88.146C458.273 86.3742 458.694 85.7836 459.285 85.2776C454.223 85.8678 448.148 87.7245 446.207 90.0868C445.785 90.6778 445.532 91.6058 445.532 92.7865C445.532 100.296 453.548 117.339 459.201 117.339C461.816 117.339 466.227 113.036 469.855 107.215" fill="#E5E5E5"/>
<path d="M467.215 84.7708C472.447 84.7708 477.678 85.6146 477.678 88.5675C477.678 94.5583 473.882 101.814 471.941 101.814C468.482 101.814 464.179 92.1964 464.179 87.3867C464.179 85.1931 465.023 84.7708 467.215 84.7708Z" fill="#E5E5E5"/>
<path d="M541.972 94.906C541.956 93.1038 538.622 92.2857 529.992 92.2857C509.744 92.2857 504.607 91.4217 499.109 85.6428C501.422 89.1127 502.687 95.621 524.089 95.2971C546.419 94.9535 532.797 101.049 528.833 107.935C535.981 101.562 541.95 97.3614 541.972 94.9321V94.906V94.906Z" fill="#E5E5E5"/>
<path d="M513.519 113.413C513.518 115.088 512.139 116.466 510.461 116.466C508.767 116.466 507.397 115.098 507.397 113.413V113.41C507.397 111.732 508.779 110.351 510.46 110.351H510.461C512.15 110.351 513.519 111.72 513.519 113.413Z" fill="#E5E5E5"/>
<path d="M527.462 113.413C527.462 115.088 526.082 116.466 524.405 116.466C522.712 116.466 521.342 115.098 521.342 113.413V113.41C521.342 111.732 522.724 110.351 524.403 110.351H524.405C526.093 110.351 527.462 111.72 527.462 113.413Z" fill="#E5E5E5"/>
<path d="M574.523 107.253L571.988 99.3447C571.738 100.038 571.544 100.7 571.332 101.355C571.12 102.007 570.909 102.659 570.699 103.311C570.486 103.97 570.275 104.63 570.062 105.289C569.851 105.941 569.638 106.592 569.423 107.254H567.286L563.643 95.898C563.843 95.8476 565.108 95.8321 565.799 95.8688L568.331 104.189L568.38 104.192L571.065 95.8721H572.883L575.566 104.187C575.906 103.28 576.174 102.359 576.461 101.444C576.753 100.514 577.027 99.5774 577.312 98.6448C577.594 97.7213 577.881 96.7991 578.168 95.8698H580.305C580.077 96.6476 579.819 97.3975 579.581 98.1536C579.342 98.9144 579.099 99.6739 578.855 100.433C578.615 101.185 578.372 101.936 578.13 102.688C577.885 103.447 577.641 104.206 577.397 104.966C577.152 105.725 576.909 106.485 576.662 107.253H574.523L574.523 107.253Z" fill="#E5E5E5"/>
<path d="M591.28 95.871H593.555L596.837 100.615L600.12 95.8708H602.415V107.232C602.253 107.273 600.742 107.284 600.376 107.243V98.8952L600.336 98.8771L596.837 103.886L593.329 98.8643V107.251H591.28V95.871V95.871Z" fill="#E5E5E5"/>
<path d="M583.18 95.8708V100.556C583.361 100.61 587.691 100.624 588.012 100.575V95.8991C588.211 95.8487 589.505 95.8331 590.042 95.8706C590.086 96.0511 590.104 106.727 590.061 107.253H588.021V102.537H583.189C583.178 102.925 583.185 103.313 583.184 103.701C583.182 104.1 583.183 104.5 583.183 104.899V107.252H581.137V95.8708H583.18Z" fill="#E5E5E5"/>
<path d="M608.63 98.6455C607.475 98.9261 606.743 99.6464 606.433 100.789C606.046 102.216 606.881 103.911 608.562 104.309C609.782 104.597 610.801 104.201 611.612 103.218H614.034L614.908 104.069L614.328 105.074L612.853 104.658L612.464 105.155L612.85 106.513C612.54 106.756 612.199 106.939 611.829 107.107L610.779 106.03L610.21 106.189L609.834 107.668C609.45 107.708 609.065 107.694 608.672 107.676L608.294 106.192L607.728 106.028L606.657 107.122L605.65 106.54L606.064 105.068L605.624 104.667L604.215 105.066C603.958 104.762 603.788 104.413 603.608 104.056L604.688 103.004L604.537 102.435L603.079 102.069V100.888L604.532 100.522L604.692 99.9579L603.605 98.8962C603.695 98.726 603.778 98.5529 603.875 98.3873C603.973 98.2191 604.083 98.0583 604.193 97.8858L605.641 98.2916L606.046 97.8568C605.955 97.4183 605.783 96.943 605.66 96.4391C605.959 96.199 606.307 96.0276 606.669 95.8418L607.723 96.9222L608.289 96.7776L608.664 95.3057H609.838L610.056 96.1189C610.111 96.2656 610.039 96.3136 609.905 96.3095C609.848 96.3077 609.794 96.2869 609.739 96.272C609.39 96.1776 609.207 96.2937 609.137 96.6478C609.114 96.7622 609.176 96.8326 609.245 96.9037C609.353 97.0147 609.489 97.0941 609.593 97.2101C609.829 97.4737 609.733 97.8203 609.397 97.9135C609.24 97.957 609.082 97.9994 608.923 98.0319C608.757 98.0656 608.692 98.1567 608.697 98.3233C608.701 98.4328 608.728 98.5542 608.63 98.6455V98.6455Z" fill="#E0E0E0"/>
<path d="M616.126 96.3704C616.552 96.1389 616.993 95.9415 617.473 95.8541C617.79 95.7962 618.113 95.7462 618.435 95.7312C618.864 95.7113 619.296 95.7074 619.724 95.7792C620.195 95.8583 620.656 95.9732 621.099 96.1547C621.358 96.2611 621.613 96.378 621.866 96.4884V98.496C621.661 98.3842 621.465 98.2708 621.263 98.1684C620.466 97.764 619.618 97.5875 618.728 97.6414C618.276 97.6688 617.827 97.7458 617.422 97.9745C617.176 98.1133 616.965 98.2953 616.866 98.5645C616.691 99.0404 616.792 99.4832 617.234 99.7841C617.593 100.028 618.002 100.154 618.413 100.276C619.069 100.47 619.735 100.635 620.367 100.905C620.886 101.128 621.362 101.412 621.75 101.83C622.176 102.288 622.415 102.835 622.519 103.447C622.578 103.793 622.589 104.141 622.569 104.491C622.54 105.007 622.363 105.468 622.061 105.882C621.513 106.631 620.747 107.043 619.866 107.26C619.215 107.421 618.555 107.431 617.885 107.37C616.957 107.287 616.074 107.066 615.246 106.634C615.132 106.574 615.02 106.512 614.9 106.447V104.355C614.973 104.401 615.039 104.44 615.102 104.483C615.786 104.953 616.536 105.253 617.36 105.366C618.09 105.466 618.813 105.462 619.526 105.26C619.649 105.225 619.767 105.171 619.884 105.117C620.706 104.738 620.643 103.748 620.23 103.283C619.942 102.957 619.571 102.761 619.17 102.623C618.615 102.432 618.052 102.261 617.493 102.081C617.008 101.925 616.53 101.751 616.091 101.488C615.681 101.242 615.334 100.931 615.084 100.519C615.082 100.441 615.141 100.453 615.186 100.455C615.284 100.458 615.376 100.493 615.469 100.523C615.87 100.652 615.936 100.62 616.106 100.249C616.162 100.128 616.149 100.036 616.058 99.94C615.94 99.8155 615.799 99.719 615.673 99.6032C615.539 99.4792 615.505 99.3381 615.556 99.1623C615.604 98.9994 615.713 98.9244 615.869 98.895C616.029 98.865 616.184 98.8152 616.343 98.7844C616.549 98.7444 616.592 98.6047 616.588 98.4248C616.585 98.2463 616.571 98.0799 616.351 98.0282C616.178 97.9873 616.003 97.9488 615.832 97.8951C615.524 97.7983 615.443 97.4853 615.659 97.2442C615.821 97.064 616.02 96.9185 616.131 96.7471C616.175 96.5914 616.001 96.4893 616.126 96.3704V96.3704Z" fill="#E5E5E5"/>
<path d="M610.056 96.2855C609.815 96.222 609.594 96.1643 609.371 96.1056C609.226 96.3158 609.092 96.5133 609.012 96.7449L609.688 97.4184C609.657 97.5436 609.625 97.6726 609.594 97.7972C609.265 97.8818 608.956 97.9609 608.63 98.045V98.6457C608.634 98.7361 608.667 98.7889 608.769 98.8109C609.048 98.8705 609.323 98.9453 609.612 99.0171C609.633 99.1564 609.653 99.2884 609.677 99.4517C609.455 99.6555 609.233 99.8588 609.021 100.054C609.092 100.292 609.259 100.574 609.398 100.705C609.704 100.619 610.007 100.534 610.27 100.46C610.401 100.579 610.496 100.666 610.585 100.746C610.497 101.062 610.383 101.357 610.34 101.687C610.554 101.805 610.755 101.917 610.967 102.036C611.197 101.802 611.419 101.576 611.652 101.339C611.781 101.37 611.909 101.4 612.018 101.425C612.102 101.761 612.178 102.067 612.254 102.368H613.007C613.116 102.046 613.11 101.7 613.276 101.415C613.414 101.388 613.529 101.365 613.644 101.342L613.605 101.405C613.848 101.596 614.09 101.788 614.369 102.008C614.517 101.92 614.733 101.791 614.943 101.667C614.849 101.328 614.763 101.016 614.692 100.761C614.797 100.632 614.868 100.545 614.943 100.456C614.998 100.48 615.041 100.5 615.084 100.519C615.102 100.512 615.124 100.495 615.14 100.499C615.388 100.567 615.635 100.638 615.899 100.713C616.023 100.502 616.145 100.295 616.274 100.077C616.033 99.8387 615.803 99.6115 615.568 99.3793C615.6 99.2591 615.631 99.1432 615.665 99.0157C615.976 98.937 616.287 98.8583 616.6 98.7796C616.674 98.5264 616.662 98.282 616.606 98.0333C616.292 97.9531 615.988 97.8754 615.672 97.7948C615.636 97.6682 615.601 97.5465 615.57 97.4375C615.807 97.1916 616.033 96.9585 616.255 96.7273C616.228 96.6003 616.096 96.5152 616.125 96.3705C616.048 96.2923 615.97 96.2146 615.866 96.111C615.585 96.1873 615.281 96.2694 614.963 96.3554C614.883 96.2718 614.793 96.179 614.683 96.0646C614.765 95.784 614.853 95.4883 614.946 95.1721C614.763 95.0001 614.54 94.8852 614.273 94.7748C614.053 95.0147 613.833 95.2537 613.629 95.4751C613.478 95.4346 613.364 95.4033 613.244 95.371C613.16 95.0509 613.076 94.7317 612.993 94.415H612.267C612.189 94.721 612.111 95.027 612.025 95.3613C611.907 95.3994 611.775 95.4424 611.635 95.4879C611.412 95.2513 611.198 95.023 610.987 94.7982C610.701 94.8921 610.498 95.0142 610.335 95.1956C610.417 95.4883 610.502 95.7919 610.582 96.0778C610.486 96.1799 610.402 96.2679 610.313 96.3622L610.132 96.2977L610.056 96.2855L610.056 96.2855ZM613.869 96.98C614.102 97.175 614.268 97.4209 614.385 97.698C614.432 97.807 614.461 97.9228 614.493 98.0367C614.496 98.0455 614.46 98.0651 614.442 98.0797C614.397 98.0176 614.351 97.9551 614.302 97.8891C613.813 98.0255 613.33 98.1608 612.862 98.2913C612.709 98.1359 612.579 98.0044 612.439 97.8632C612.568 97.4336 612.698 96.9976 612.829 96.5616C613.24 96.5411 613.569 96.7278 613.869 96.98Z" fill="#969696"/>
<path d="M614.476 98.8338C614.291 99.5635 613.83 100.046 613.093 100.241C612.717 100.34 612.343 100.317 611.975 100.183C611.884 100.15 611.827 100.099 611.78 100.018C611.553 99.6251 611.251 99.3016 610.859 99.0454C610.637 98.458 610.712 97.8954 611.058 97.3719C611.438 96.7962 611.989 96.5215 612.675 96.5127C612.726 96.5117 612.778 96.5445 612.829 96.5616C612.698 96.9976 612.567 97.4335 612.438 97.8632C612.578 98.0044 612.708 98.1359 612.862 98.2913C613.329 98.1608 613.813 98.0254 614.302 97.8891C614.351 97.955 614.396 98.0176 614.442 98.0797C614.602 98.324 614.539 98.5904 614.476 98.8338Z" fill="#E0E0E0"/>
<path d="M661.469 82.3022L644.011 88.528L646.674 111.612L661.469 119.807L676.265 111.612L678.927 88.528L661.469 82.3022Z" fill="#828282"/>
<path d="M661.47 82.3022V86.4652V86.4465V105.442V119.807L676.265 111.612L678.928 88.528L661.47 82.3022Z" fill="#E5E5E5"/>
<path d="M661.468 86.4465L650.555 110.918H654.624L656.818 105.443H666.082L668.276 110.918H672.345L661.468 86.4465ZM664.656 102.067H658.281L661.468 94.3975L664.656 102.067Z" fill="white"/>
<path d="M703.691 104.546C704.741 109.431 705.615 114.083 708.675 117.43H702.839C701.475 117.43 700.366 116.329 700.358 114.965V87.1545C700.361 85.7864 701.471 84.6785 702.839 84.6785H707.056C706.028 85.6154 705.126 86.6813 704.372 87.8497C701.035 92.9636 702.406 98.5395 703.691 104.546V104.546ZM735.381 84.6785H728.763C730.33 86.2452 731.651 88.2739 732.648 90.7962L722.589 92.9195C721.486 90.8067 719.81 89.0489 716.532 89.7398C714.723 90.1221 713.524 91.1364 712.993 92.2474C712.34 93.6167 712.018 95.1519 713.581 102.448C715.143 109.744 716.063 111.016 717.218 112.004C718.157 112.802 719.671 113.245 721.48 112.862C724.76 112.172 725.569 109.889 725.711 107.513L735.771 105.388C736.008 110.592 734.398 114.629 731.554 117.42H735.381C736.745 117.421 737.855 116.319 737.863 114.954V87.1546C737.861 85.7856 736.75 84.6773 735.381 84.6785Z" fill="#E5E5E5"/>
<path d="M2.66504 18.7517C2.66504 25.1192 6.36549 30.622 11.7315 33.2297L4.0578 12.2048C3.16521 14.2055 2.66504 16.4195 2.66504 18.7517Z" fill="#E5E5E5"/>
<path d="M29.6123 17.94C29.6123 15.9519 28.8982 14.575 28.2857 13.5033C27.4702 12.1782 26.7059 11.0561 26.7059 9.73096C26.7059 8.25218 27.8274 6.87565 29.4072 6.87565C29.4785 6.87565 29.5462 6.88452 29.6157 6.8885C26.7536 4.26644 22.9405 2.66553 18.7524 2.66553C13.1324 2.66553 8.18796 5.549 5.31152 9.91645C5.68895 9.92778 6.04464 9.93574 6.34676 9.93574C8.0294 9.93574 10.634 9.73157 10.634 9.73157C11.5012 9.68044 11.6034 10.9541 10.7372 11.0567C10.7372 11.0567 9.86571 11.1592 8.89598 11.21L14.7541 28.6349L18.2746 18.0765L15.7683 11.2094C14.902 11.1586 14.0813 11.0561 14.0813 11.0561C13.2145 11.0053 13.3161 9.67984 14.183 9.73096C14.183 9.73096 16.8396 9.93513 18.4203 9.93513C20.1027 9.93513 22.7076 9.73096 22.7076 9.73096C23.5754 9.67983 23.6773 10.9535 22.8107 11.0561C22.8107 11.0561 21.9374 11.1586 20.9695 11.2094L26.783 28.5023L28.3876 23.1403C29.0831 20.9153 29.6123 19.3171 29.6123 17.94L29.6123 17.94Z" fill="#E5E5E5"/>
<path d="M19.0336 20.1589L14.207 34.1842C15.6482 34.6079 17.1722 34.8396 18.7514 34.8396C20.6248 34.8396 22.4213 34.5157 24.0935 33.9277C24.0503 33.8588 24.0112 33.7856 23.979 33.7061L19.0336 20.1589V20.1589Z" fill="#E5E5E5"/>
<path d="M32.8675 11.0337C32.9367 11.5461 32.9759 12.0962 32.9759 12.6879C32.9759 14.3203 32.671 16.1554 31.7527 18.4499L26.8389 32.657C31.6214 29.8681 34.8382 24.6867 34.8382 18.752C34.8385 15.9552 34.1241 13.3252 32.8675 11.0337V11.0337Z" fill="#E5E5E5"/>
<path d="M18.7524 0C8.41259 0 0 8.41197 0 18.7518C0 29.0928 8.41259 37.5045 18.7524 37.5045C29.0922 37.5045 37.5057 29.0928 37.5057 18.7518C37.5054 8.41197 29.0919 0 18.7524 0ZM18.7524 36.6449C8.88674 36.6449 0.859835 28.618 0.859835 18.7518C0.859835 8.88612 8.88643 0.859835 18.7524 0.859835C28.6177 0.859835 36.644 8.88611 36.644 18.7518C36.644 28.618 28.6177 36.6449 18.7524 36.6449Z" fill="#E5E5E5"/>
<path fill-rule="evenodd" clip-rule="evenodd" d="M95.3465 8.48448C95.36 8.53448 95.3669 8.58603 95.3671 8.63782V16.688C95.3671 16.8984 95.2545 17.0926 95.0721 17.1972L88.3154 21.0874V28.7979C88.3154 29.0077 88.2039 29.2014 88.0219 29.3071L73.9178 37.4263C73.8856 37.4446 73.8504 37.4563 73.8151 37.4688C73.8019 37.4732 73.7895 37.4813 73.7755 37.4849C73.6769 37.5109 73.5733 37.5109 73.4747 37.4849C73.4586 37.4805 73.4439 37.4717 73.4285 37.4659C73.3962 37.4541 73.3624 37.4439 73.3316 37.4262L59.2305 29.3071C59.0482 29.2023 58.9357 29.0081 58.9355 28.7979V4.6472C58.9355 4.59437 58.9429 4.54301 58.9561 4.49312C58.9605 4.47625 58.9708 4.46084 58.9766 4.44396C58.9876 4.41314 58.9979 4.3816 59.0141 4.35299C59.0251 4.33391 59.0412 4.3185 59.0544 4.3009C59.0713 4.27742 59.0867 4.2532 59.1065 4.23266C59.1234 4.21578 59.1454 4.20331 59.1645 4.18864C59.1857 4.17104 59.2048 4.15195 59.229 4.13801H59.2297L66.2807 0.0784135C66.4624 -0.0261378 66.686 -0.0261378 66.8677 0.0784135L73.9186 4.13801H73.9201C73.9436 4.15268 73.9634 4.17103 73.9846 4.1879C74.0037 4.20257 74.025 4.21578 74.0419 4.23192C74.0624 4.2532 74.0771 4.27741 74.0947 4.30089C74.1072 4.31849 74.124 4.3339 74.1343 4.35297C74.1512 4.38232 74.1607 4.41314 74.1725 4.44395C74.1783 4.46083 74.1886 4.47623 74.193 4.49384C74.2065 4.54384 74.2134 4.59539 74.2136 4.64719V19.7315L80.0891 16.3483V8.63709C80.0891 8.58573 80.0964 8.53365 80.1096 8.48448C80.1148 8.46688 80.1243 8.45147 80.1302 8.43459C80.1419 8.40377 80.1522 8.37223 80.1683 8.34362C80.1793 8.32454 80.1955 8.30913 80.2079 8.29153C80.2255 8.26805 80.2402 8.24383 80.2608 8.22329C80.2777 8.20642 80.2989 8.19394 80.318 8.17927C80.34 8.16167 80.3591 8.14258 80.3826 8.12864H80.3833L87.435 4.06905C87.6166 3.96434 87.8403 3.96434 88.0219 4.06905L95.0728 8.12864C95.0978 8.14331 95.1169 8.16166 95.1389 8.17853C95.1572 8.1932 95.1785 8.20642 95.1954 8.22255C95.2159 8.24383 95.2306 8.26804 95.2482 8.29152C95.2614 8.30912 95.2775 8.32453 95.2878 8.34361C95.3047 8.37222 95.3142 8.40377 95.326 8.43458C95.3326 8.45146 95.3421 8.46687 95.3465 8.48447V8.48448ZM94.1917 16.3484V9.65402L91.7242 11.0745L88.3154 13.0371V19.7315L94.1924 16.3484H94.1917ZM87.1407 28.4582V21.7595L83.7877 23.6744L74.2128 29.1391V35.9009L87.1407 28.4582V28.4582ZM60.111 5.66339V28.4582L73.0374 35.9002V29.1398L66.2844 25.3179L66.2822 25.3164L66.2793 25.315C66.2565 25.3018 66.2374 25.2827 66.2161 25.2666C66.1978 25.2519 66.1765 25.2401 66.1604 25.224L66.1589 25.2218C66.1398 25.2035 66.1266 25.1807 66.1105 25.1602C66.0958 25.1404 66.0782 25.1235 66.0665 25.1029L66.0657 25.1007C66.0525 25.0787 66.0445 25.0523 66.0349 25.0274C66.0254 25.0054 66.0129 24.9848 66.007 24.9613V24.9606C65.9997 24.9327 65.9982 24.9034 65.9953 24.8748C65.9924 24.8528 65.9865 24.8308 65.9865 24.8087V9.04651L62.5784 7.08311L60.111 5.66411V5.66339H60.111ZM66.5749 1.26554L60.7001 4.6472L66.5735 8.02886L72.4475 4.64647L66.5735 1.26555H66.5749V1.26554ZM69.6301 22.3699L73.0382 20.4079V5.66339L70.5707 7.08385L67.1619 9.04651V23.7911L69.6301 22.3699L69.6301 22.3699ZM87.7284 5.25616L81.8544 8.63782L87.7284 12.0195L93.6018 8.63709L87.7284 5.25618V5.25616ZM87.1407 13.0371L83.7319 11.0745L81.2645 9.654V16.3483L84.6725 18.3103L87.1407 19.7315V13.0371H87.1407ZM73.6244 28.1229L82.2403 23.2041L86.5472 20.7462L80.6775 17.3667L73.9193 21.2576L67.7599 24.8036L73.6244 28.1229L73.6244 28.1229Z" fill="#E5E5E5"/>
<path d="M126.846 37.5019C124.597 36.5299 122.493 34.0594 122.488 31.5316C122.482 28.7756 124.228 26.4357 126.401 24.898C126.14 25.8847 125.997 26.7872 126.644 27.6697C127.246 28.4902 128.299 28.8889 129.294 28.6725C131.618 28.1637 131.724 25.6088 130.346 24.1202C128.984 22.6461 127.666 20.981 128.185 18.8433C128.444 17.7717 129.102 16.7679 129.936 16.0504C129.295 17.7342 131.116 19.3947 132.316 20.2218C134.396 21.6568 136.68 22.7413 138.593 24.4234C140.606 26.1914 142.092 28.5818 141.792 31.3543C141.466 34.3593 139.079 36.4493 136.4 37.5045C142.06 36.2552 147.908 31.8624 148.028 25.5854C148.127 20.4212 144.585 16.4469 140.196 14.1716L139.967 14.0465C140.087 14.3387 140.127 14.5873 140.122 14.8098C140.162 14.6457 140.188 14.4771 140.196 14.3031C140.195 14.5098 140.168 14.7155 140.115 14.9155L140.122 14.8098C140.057 15.084 139.947 15.3456 139.797 15.5842L139.862 15.5149C138.986 16.967 136.616 17.2824 135.445 15.7787C133.563 13.3601 135.485 10.7523 135.754 8.19103C136.09 4.98105 134.077 1.86481 131.581 0C132.956 2.22379 131.145 5.16588 129.696 6.81068C128.291 8.40507 126.582 9.73627 125.031 11.1849C123.365 12.7409 121.763 14.3798 120.394 16.206C117.654 19.8612 115.978 24.4583 117.21 29.0183C118.441 33.5752 122.389 36.476 126.846 37.5018L126.846 37.5019L126.846 37.5019Z" fill="#E5E5E5"/>
<path d="M219.603 11.0631C218.751 10.9019 217.9 11.3854 217.117 12.5595C216.472 13.4804 216.058 14.4243 215.851 15.4142C215.735 15.9667 215.689 16.5652 215.689 17.1638C215.689 17.8545 215.851 18.6142 216.127 19.3509C216.472 20.2948 216.956 20.8013 217.531 20.9164C218.13 21.0544 218.774 20.7782 219.465 20.1566C220.34 19.3739 220.938 18.1998 221.284 16.6113C221.399 16.0588 221.445 15.4602 221.445 14.8156C221.445 14.125 221.284 13.3652 221.007 12.6286C220.662 11.6846 220.179 11.1782 219.603 11.0631L219.603 11.0631Z" fill="#E5E5E5"/>
<path d="M222.918 1.20972H174.941C171.902 1.20972 169.439 3.69606 169.462 6.71192V25.0141C169.462 28.053 171.925 30.5163 174.964 30.5163H197.687L208.069 36.2947L205.698 30.5163H222.895C225.934 30.5163 228.397 28.053 228.397 25.0141V6.71192C228.397 3.67302 225.934 1.20972 222.918 1.20972ZM193.888 25.2444C193.934 25.8429 193.842 26.3724 193.612 26.8328C193.336 27.3623 192.898 27.6386 192.346 27.6846C191.724 27.7306 191.079 27.4544 190.458 26.7868C188.225 24.5076 186.452 21.1005 185.163 16.5882C183.597 19.6501 182.446 21.9522 181.71 23.4947C180.305 26.2112 179.108 27.5925 178.095 27.6616C177.451 27.7077 176.898 27.1551 176.415 26.004C175.194 22.8731 173.882 16.7954 172.455 7.81692C172.34 7.19534 172.478 6.64285 172.823 6.22845C173.169 5.76801 173.652 5.5378 174.343 5.49177C175.563 5.39965 176.253 5.97519 176.438 7.21839C177.174 12.2371 178.003 16.4731 178.855 19.9494L184.104 9.95794C184.587 9.03707 185.186 8.57665 185.9 8.53061C186.959 8.46154 187.603 9.12921 187.856 10.5335C188.432 13.6874 189.215 16.404 190.112 18.7062C190.734 12.6285 191.793 8.23132 193.266 5.5378C193.635 4.87019 194.164 4.52487 194.855 4.47879C195.407 4.43275 195.914 4.59389 196.374 4.96226C196.835 5.33063 197.065 5.76801 197.111 6.32052C197.134 6.75796 197.065 7.10329 196.881 7.4716C195.937 9.19822 195.177 12.099 194.556 16.1278C193.957 20.0414 193.75 23.0803 193.888 25.2444ZM208.599 21.4688C207.149 23.8631 205.284 25.0602 202.959 25.0602C202.567 25.0602 202.13 25.0141 201.669 24.922C199.989 24.5537 198.7 23.6558 197.848 22.1364C197.088 20.8242 196.697 19.2357 196.697 17.3939C196.697 14.9306 197.318 12.6745 198.561 10.6486C200.035 8.25436 201.9 7.05725 204.202 7.05725C204.593 7.05725 205.031 7.10329 205.491 7.19534C207.149 7.56371 208.461 8.46153 209.313 9.98098C210.072 11.2702 210.464 12.8356 210.464 14.6774C210.464 17.1637 209.842 19.4199 208.599 21.4688V21.4688ZM223.586 21.4688C222.136 23.8631 220.271 25.0602 217.946 25.0602C217.554 25.0602 217.117 25.0141 216.656 24.922C214.976 24.5537 213.687 23.6558 212.835 22.1364C212.075 20.8242 211.684 19.2357 211.684 17.3939C211.684 14.9306 212.305 12.6745 213.549 10.6486C215.022 8.25436 216.887 7.05725 219.189 7.05725C219.58 7.05725 220.018 7.10329 220.478 7.19534C222.159 7.56371 223.448 8.46153 224.3 9.98098C225.059 11.2702 225.474 12.8356 225.451 14.6774C225.451 17.1637 224.829 19.4199 223.586 21.4688V21.4688Z" fill="#E5E5E5"/>
<path d="M205.998 12.6286C205.652 11.6847 205.169 11.1782 204.593 11.0631C203.742 10.9019 202.89 11.3854 202.107 12.5595C201.462 13.4804 201.048 14.4243 200.841 15.4142C200.726 15.9667 200.68 16.5652 200.68 17.1638C200.68 17.8545 200.841 18.6142 201.117 19.3509C201.462 20.2948 201.946 20.8013 202.521 20.9164C203.12 21.0544 203.765 20.7782 204.455 20.1566C205.33 19.3739 205.929 18.1998 206.274 16.6113C206.389 16.0588 206.458 15.4602 206.435 14.8156C206.435 14.125 206.274 13.3652 205.998 12.6286L205.998 12.6286Z" fill="#E5E5E5"/>
<path d="M278.958 36.7995C278.764 36.7995 278.57 36.7486 278.4 36.6501L276.623 35.5987C276.358 35.4502 276.487 35.3976 276.575 35.3671C276.929 35.2443 277 35.216 277.378 35.0016C277.418 34.9795 277.47 34.9879 277.51 35.0118L278.876 35.8223C278.925 35.8497 278.995 35.8497 279.04 35.8223L284.363 32.7503C284.412 32.722 284.444 32.6651 284.444 32.6063V26.4641C284.444 26.404 284.412 26.3478 284.362 26.3173L279.041 23.248C278.992 23.2193 278.927 23.2193 278.877 23.248L273.559 26.3183C273.507 26.3479 273.474 26.4057 273.474 26.4641V32.6063C273.474 32.6651 273.507 32.7207 273.558 32.7486L275.016 33.5909C275.807 33.9865 276.292 33.5207 276.292 33.0526V26.9882C276.292 26.9025 276.361 26.8349 276.446 26.8349H277.121C277.206 26.8349 277.275 26.9025 277.275 26.9882V33.0526C277.275 34.1084 276.7 34.7139 275.699 34.7139C275.392 34.7139 275.15 34.7139 274.473 34.3807L273.078 33.5772C272.733 33.3779 272.52 33.0053 272.52 32.6063V26.4641C272.52 26.065 272.733 25.6924 273.078 25.494L278.4 22.4185C278.737 22.228 279.185 22.228 279.519 22.4185L284.841 25.494C285.185 25.6933 285.4 26.065 285.4 26.4641V32.6063C285.4 33.0053 285.185 33.3766 284.841 33.5772L279.519 36.6501C279.348 36.7486 279.155 36.7995 278.958 36.7995Z" fill="#E0E0E0"/>
<path d="M280.602 32.5676C278.273 32.5676 277.785 31.4986 277.785 30.6019C277.785 30.5166 277.854 30.4485 277.939 30.4485H278.627C278.704 30.4485 278.768 30.5038 278.78 30.5789C278.884 31.2793 279.194 31.6329 280.602 31.6329C281.723 31.6329 282.201 31.3793 282.201 30.7844C282.201 30.4414 282.065 30.1869 280.323 30.0163C278.867 29.8722 277.966 29.5504 277.966 28.3855C277.966 27.3116 278.871 26.6711 280.389 26.6711C282.094 26.6711 282.937 27.2629 283.044 28.5326C283.048 28.5764 283.033 28.6184 283.004 28.6511C282.975 28.6816 282.934 28.7001 282.891 28.7001H282.2C282.129 28.7001 282.065 28.6493 282.051 28.5799C281.885 27.8428 281.482 27.6072 280.389 27.6072C279.165 27.6072 279.022 28.0337 279.022 28.3532C279.022 28.7404 279.19 28.853 280.843 29.0718C282.479 29.288 283.256 29.5942 283.256 30.7437C283.256 31.9034 282.289 32.5676 280.602 32.5676Z" fill="#E0E0E0"/>
<path d="M288.277 26.1261C288.277 26.6905 287.816 27.1519 287.251 27.1519C286.692 27.1519 286.226 26.696 286.226 26.1261C286.226 25.5454 286.703 25.1001 287.251 25.1001C287.805 25.1001 288.277 25.5454 288.277 26.1261ZM286.391 26.1232C286.391 26.601 286.777 26.9864 287.249 26.9864C287.726 26.9864 288.112 26.5928 288.112 26.1232C288.112 25.6457 287.721 25.2658 287.249 25.2658C286.782 25.2658 286.391 25.6402 286.391 26.1232ZM286.866 25.5507H287.262C287.398 25.5507 287.664 25.5507 287.664 25.8547C287.664 26.0664 287.528 26.1098 287.447 26.1369C287.604 26.1478 287.615 26.251 287.637 26.3974C287.648 26.4896 287.664 26.6472 287.696 26.7013H287.452C287.447 26.6472 287.409 26.3539 287.409 26.3378C287.393 26.2726 287.371 26.2401 287.289 26.2401H287.089V26.7013H286.866V25.5507V25.5507ZM287.083 26.0554H287.262C287.409 26.0554 287.436 25.9524 287.436 25.8927C287.436 25.7352 287.327 25.7352 287.268 25.7352H287.083V26.0554L287.083 26.0554Z" fill="#E0E0E0"/>
<path fill-rule="evenodd" clip-rule="evenodd" d="M262.476 12.7685C262.476 12.5232 262.347 12.2978 262.135 12.1763L256.493 8.92885C256.397 8.87274 256.29 8.84355 256.182 8.83911H256.124C256.016 8.84355 255.909 8.87274 255.812 8.92885L250.169 12.1763C249.959 12.2978 249.828 12.5232 249.828 12.7685L249.841 21.5129C249.841 21.6344 249.904 21.7475 250.011 21.8072C250.115 21.87 250.245 21.87 250.349 21.8072L253.703 19.8869C253.915 19.761 254.044 19.5387 254.044 19.2956V15.2103C254.044 14.9668 254.173 14.7413 254.384 14.6203L255.812 13.7978C255.919 13.7364 256.035 13.7063 256.154 13.7063C256.27 13.7063 256.389 13.7363 256.493 13.7978L257.92 14.6203C258.131 14.7413 258.261 14.9668 258.261 15.2103V19.2956C258.261 19.5387 258.392 19.7623 258.603 19.8869L261.955 21.8072C262.06 21.87 262.192 21.87 262.296 21.8072C262.4 21.7476 262.465 21.6344 262.465 21.5129L262.476 12.7685Z" fill="#E5E5E5"/>
<path fill-rule="evenodd" clip-rule="evenodd" d="M289.628 0.747947C289.522 0.689204 289.393 0.690522 289.289 0.751708C289.185 0.812936 289.121 0.924763 289.121 1.04559V9.70536C289.121 9.79044 289.075 9.86932 289.002 9.91196C288.928 9.95464 288.837 9.95464 288.763 9.91196L287.35 9.09767C287.139 8.97616 286.879 8.97639 286.669 9.0979L281.024 12.3557C280.813 12.4775 280.683 12.7025 280.683 12.9459V19.4629C280.683 19.7064 280.813 19.9314 281.023 20.0533L286.668 23.3136C286.879 23.4354 287.139 23.4354 287.35 23.3136L292.996 20.0533C293.207 19.9314 293.336 19.7064 293.336 19.4629V3.21781C293.336 2.97076 293.203 2.7429 292.987 2.62248L289.628 0.747947ZM289.104 17.3217C289.104 17.3824 289.071 17.4388 289.019 17.4691L287.08 18.5863C287.028 18.6166 286.963 18.6166 286.91 18.5863L284.972 17.4691C284.919 17.4388 284.887 17.3824 284.887 17.3217V15.0837C284.887 15.0229 284.919 14.9665 284.972 14.936L286.91 13.8166C286.963 13.7861 287.028 13.7861 287.081 13.8166L289.019 14.936C289.071 14.9665 289.104 15.0229 289.104 15.0837V17.3217Z" fill="#E5E5E5"/>
<path fill-rule="evenodd" clip-rule="evenodd" d="M308.424 15.0251C308.634 14.9031 308.763 14.6786 308.763 14.4357V12.8564C308.763 12.6136 308.634 12.3888 308.424 12.2669L302.815 9.01039C302.604 8.88775 302.344 8.88753 302.132 9.00949L296.489 12.2673C296.278 12.3891 296.148 12.614 296.148 12.8575V19.3727C296.148 19.6178 296.28 19.8438 296.493 19.9649L302.101 23.1604C302.307 23.2785 302.561 23.2798 302.769 23.1642L306.161 21.2788C306.269 21.219 306.336 21.106 306.336 20.9832C306.337 20.8603 306.272 20.7465 306.165 20.6853L300.486 17.426C300.38 17.3652 300.315 17.2523 300.315 17.1303V15.0885C300.315 14.9668 300.38 14.8541 300.486 14.7933L302.253 13.7744C302.358 13.7136 302.488 13.7136 302.593 13.7744L304.362 14.7933C304.467 14.8541 304.532 14.9668 304.532 15.0885V16.695C304.532 16.817 304.597 16.9297 304.703 16.9904C304.809 17.0514 304.939 17.051 305.044 16.9898L308.424 15.0251L308.424 15.0251Z" fill="#E5E5E5"/>
<path fill-rule="evenodd" clip-rule="evenodd" d="M302.39 14.72C302.43 14.6965 302.48 14.6965 302.521 14.72L303.604 15.3449C303.644 15.3683 303.669 15.4114 303.669 15.4582V16.7089C303.669 16.7558 303.644 16.7989 303.604 16.8223L302.521 17.4472C302.48 17.4706 302.43 17.4706 302.39 17.4472L301.308 16.8223C301.267 16.7989 301.242 16.7558 301.242 16.7089V15.4582C301.242 15.4114 301.267 15.3683 301.308 15.3449L302.39 14.72Z" fill="#9A9A9A"/>
<path fill-rule="evenodd" clip-rule="evenodd" d="M271.055 7.85278L270.978 7.89694H271.081L271.055 7.85278Z" fill="#E0E0E0"/>
<path fill-rule="evenodd" clip-rule="evenodd" d="M278.032 19.773L277.878 19.5094C277.891 19.4589 277.899 19.4068 277.899 19.3536V12.8698C277.899 12.8155 277.889 12.7628 277.875 12.7113C277.871 12.6955 277.865 12.6806 277.86 12.6652C277.847 12.6288 277.831 12.594 277.813 12.5603C277.805 12.5457 277.797 12.5311 277.788 12.5171C277.761 12.4749 277.73 12.4348 277.694 12.399L277.691 12.3974C277.647 12.3534 277.597 12.3143 277.543 12.2828L273.859 10.1632L271.919 9.04352C271.855 9.00622 271.785 8.98442 271.714 8.97012L271.707 8.96747C271.702 8.96643 271.696 8.96804 271.691 8.96713C271.632 8.95734 271.573 8.95546 271.514 8.96134C271.499 8.96256 271.484 8.96002 271.469 8.96222C271.458 8.96395 271.447 8.96932 271.435 8.97168C271.391 8.9814 271.349 8.99785 271.307 9.0164C271.282 9.02706 271.254 9.02958 271.23 9.04351L265.605 12.2828C265.395 12.4039 265.242 12.6276 265.242 12.87V19.3536C265.242 19.4269 265.26 19.4971 265.286 19.5647C265.292 19.5826 265.301 19.5987 265.31 19.616C265.334 19.6671 265.364 19.7144 265.4 19.7588C265.407 19.7669 265.41 19.7772 265.417 19.785L265.433 19.7981C265.484 19.853 265.541 19.9031 265.606 19.9408L270.458 22.7306L271.241 23.1828C271.304 23.219 271.372 23.2408 271.44 23.2553C271.454 23.2583 271.468 23.2597 271.482 23.2618C271.497 23.264 271.511 23.2651 271.525 23.2664C271.564 23.2695 271.601 23.2693 271.639 23.266C271.652 23.2649 271.666 23.2688 271.679 23.267L271.791 23.4709L278.032 19.8581L278.069 19.8366L278.032 19.773V19.773Z" fill="#E0E0E0"/>
<path fill-rule="evenodd" clip-rule="evenodd" d="M330.208 22.5051C330.208 26.6456 340.964 30.0063 354.233 30.0063V37.5045C340.964 37.5045 330.208 34.1468 330.208 30.0063V22.5051ZM378.266 22.5051V30.0048C378.266 31.7725 376.3 33.3944 373.028 34.6773L354.232 30.0048V22.5051L373.028 27.1761C376.3 25.8947 378.267 24.2729 378.266 22.5051ZM354.233 0C367.504 0 378.266 3.36376 378.266 7.5012V15.0069C378.266 16.7686 376.3 18.3965 373.029 19.6733L354.233 15.0069V22.5051C340.964 22.5051 330.208 19.1459 330.208 15.0069V7.5012C330.208 3.36376 340.964 0 354.233 0Z" fill="#E5E5E5"/>
<path d="M429.21 5.33716C423.101 5.33716 417.923 9.47856 416.319 15.0897C414.924 12.1135 411.902 10.0284 408.42 10.0284C403.633 10.0284 399.697 13.9638 399.697 18.7514C399.697 23.5389 403.633 27.4762 408.42 27.4762C411.902 27.4762 414.924 25.3898 416.319 22.4131C417.923 28.0246 423.101 32.1674 429.21 32.1674C435.274 32.1674 440.425 28.0871 442.071 22.5388C443.491 25.448 446.476 27.4762 449.908 27.4762C454.696 27.4762 458.633 23.5389 458.633 18.7514C458.633 13.9639 454.696 10.0284 449.908 10.0284C446.476 10.0284 443.491 12.0553 442.071 14.9639C440.425 9.41611 435.274 5.33717 429.21 5.33717V5.33716ZM429.21 10.4578C433.821 10.4578 437.505 14.1399 437.505 18.7514C437.505 23.3629 433.821 27.0468 429.21 27.0468C424.598 27.0468 420.916 23.3629 420.916 18.7514C420.916 14.1399 424.599 10.4578 429.21 10.4578ZM408.42 15.149C410.441 15.149 412.024 16.731 412.024 18.7514C412.024 20.7718 410.441 22.3556 408.42 22.3556C406.4 22.3556 404.818 20.7718 404.818 18.7514C404.818 16.731 406.4 15.149 408.42 15.149ZM449.908 15.149C451.928 15.149 453.512 16.731 453.512 18.7514C453.512 20.7718 451.928 22.3556 449.908 22.3556C447.888 22.3556 446.306 20.7718 446.306 18.7514C446.306 16.731 447.888 15.149 449.908 15.149Z" fill="#E5E5E5"/>
<path d="M496.317 0L480.062 9.38328V28.1253L484.702 30.808L484.669 12.0619L496.285 5.35719L507.9 12.0619V30.7998L512.541 28.1253V9.3669L496.317 0Z" fill="#E5E5E5"/>
<path d="M498.619 30.8038L496.301 32.1512L493.97 30.8161V12.0618L489.334 14.7404L489.342 33.4865L496.297 37.5043L503.259 33.4865V14.7404L498.619 12.0618V30.8038Z" fill="#E5E5E5"/>
<path d="M554.228 7.98737C551.59 5.34988 549.072 2.83563 548.323 0C547.573 2.83563 545.055 5.34988 542.417 7.98737C538.46 11.9423 533.973 16.4247 533.973 23.1474C533.969 31.073 540.391 37.5008 548.317 37.5045C556.242 37.5081 562.67 31.0861 562.674 23.1606C562.674 23.1562 562.674 23.1518 562.674 23.1474C562.674 16.4251 558.187 11.9423 554.228 7.98737ZM540.072 26.4913C539.192 26.4615 535.945 20.8641 541.969 14.9044L545.956 19.2591C546.09 19.3913 546.091 19.6071 545.959 19.741C545.949 19.7504 545.94 19.7593 545.929 19.7676C544.978 20.7433 540.923 24.8093 540.419 26.2152C540.315 26.5054 540.163 26.4945 540.072 26.4913ZM548.323 33.8684C545.597 33.8685 543.388 31.6588 543.388 28.933V28.933C543.406 27.7362 543.841 26.5834 544.618 25.6729C545.508 24.5847 548.322 21.524 548.322 21.524C548.322 21.524 551.094 24.6297 552.02 25.6626C552.827 26.5596 553.269 27.7264 553.259 28.933C553.259 31.6587 551.049 33.8684 548.323 33.8684M557.77 25.8648C557.663 26.0975 557.422 26.4859 557.096 26.4977C556.516 26.5188 556.454 26.2214 556.025 25.5863C555.083 24.1923 546.861 15.6001 545.324 13.9384C543.971 12.4769 545.133 11.4465 545.672 10.9065C546.348 10.229 548.323 8.25611 548.323 8.25611C548.323 8.25611 554.209 13.841 556.661 17.657C559.113 21.4731 558.268 24.7752 557.77 25.8648Z" fill="#E5E5E5"/>
<path d="M590.814 18.8774L590.113 18.1764C587.86 15.9231 587.209 12.7685 588.01 9.91439C585.757 9.41366 584.104 7.41075 584.104 5.00727C584.104 2.25327 586.358 0 589.112 0C591.615 0 593.668 1.80262 594.069 4.20611C596.773 3.55516 599.727 4.30626 601.83 6.40931L602.131 6.70974L598.425 10.4151L598.125 10.1147C596.923 8.91295 594.97 8.91295 593.769 10.1147C592.567 11.3164 592.567 13.2693 593.769 14.471L602.081 22.7831L598.375 26.4885L594.47 22.5828L590.814 18.8774V18.8774Z" fill="#E5E5E5"/>
<path d="M594.971 14.7714L603.283 6.45936C605.486 4.25616 608.691 3.55514 611.495 4.35631C611.845 1.90274 613.948 0.0500488 616.452 0.0500488C619.206 0.0500488 621.459 2.30332 621.459 5.05732C621.459 7.61102 619.556 9.71408 617.103 10.0145C617.904 12.8186 617.203 15.9732 615 18.1764L614.699 18.4768L611.094 14.7714L611.395 14.471C612.596 13.2692 612.596 11.3164 611.395 10.1147C610.193 8.91291 608.24 8.91291 607.038 10.1147L598.726 18.4267L594.971 14.7714Z" fill="#E5E5E5"/>
<path d="M611.645 33.4485C608.791 34.2998 605.586 33.6488 603.333 31.3956L603.032 31.0951L606.738 27.3897L607.038 27.6902C608.24 28.8919 610.193 28.8919 611.394 27.6902C612.596 26.4884 612.596 24.5356 611.394 23.3339L603.082 15.0218L606.788 11.3164L615.15 19.6785C617.253 21.7816 618.004 24.786 617.353 27.54C619.807 27.8905 621.659 29.9935 621.659 32.4971C621.659 35.2511 619.406 37.5044 616.652 37.5044C614.148 37.4543 612.095 35.7018 611.645 33.4485L611.645 33.4485Z" fill="#E5E5E5"/>
<path d="M610.192 23.0333L601.88 31.3453C599.727 33.4984 596.723 34.1995 594.019 33.5485C593.518 35.8018 591.515 37.4542 589.112 37.4542C586.358 37.4542 584.104 35.2009 584.104 32.4469C584.104 30.0935 585.757 28.0906 587.96 27.5899C587.259 24.7858 587.96 21.7814 590.113 19.6283L590.414 19.3279L594.119 23.0333L593.819 23.3337C592.617 24.5354 592.617 26.4883 593.819 27.69C595.02 28.8918 596.973 28.8918 598.175 27.69L606.487 19.378L610.192 23.0333Z" fill="#E5E5E5"/>
<path d="M665.459 23.8405C665.206 20.4998 664.128 18.3344 663.603 17.107C663.079 15.88 662.273 14.7312 662.272 14.7332C662.271 14.7384 661.546 18.6424 660.244 21.467C660.026 21.9387 659.737 22.5277 659.446 23.002C658.547 24.5897 657.242 26.1086 656.464 27.6481C655.693 29.174 655.55 30.6851 655.622 32.4031C655.694 34.1306 656.093 35.825 656.476 37.5045C657.921 37.1929 659.178 36.6596 660.266 35.978C663.128 34.1836 664.857 31.3138 665.348 28.2219C665.348 28.2219 665.372 28.0963 665.383 27.9432C665.605 25.5536 665.531 24.7997 665.459 23.8405Z" fill="#E5E5E5"/>
<path d="M665.459 23.8404C665.206 20.4997 664.128 18.3343 663.603 17.1069C663.079 15.8799 662.273 14.7312 662.272 14.7331L662.272 14.7339L662.272 14.7329L662.08 14.4467C657.859 8.52192 649.765 5.56377 642.926 8.30555C642.596 12.4585 644.522 19.6039 651.546 21.597C654.385 22.4706 656.659 22.244 659.446 23.0018L659.446 23.0019C659.446 23.0019 662.279 23.9892 663.927 25.4697C664.668 26.1354 665.41 27.0116 665.373 28.0538C665.608 25.5736 665.533 24.8148 665.459 23.8404V23.8404Z" fill="#E5E5E5"/>
<path fill-rule="evenodd" clip-rule="evenodd" d="M662.391 11.2563C661.393 8.3364 661.816 6.37988 663.642 3.65715C664.512 2.35807 666.016 0.851273 667.334 0C672.65 3.33165 674.616 9.53726 672.661 15.3006C671.238 19.4941 669.903 21.2524 666.527 25.567C666.921 20.9462 665.294 17.7425 663.698 14.1829C663.291 13.2772 662.729 12.2463 662.391 11.2563" fill="#E5E5E5"/>
<path d="M665.373 28.0536C665.41 27.0114 664.668 26.1352 663.927 25.4695C662.279 23.989 659.446 23.0017 659.446 23.0017C659.738 22.5274 660.026 21.9384 660.244 21.4667C661.546 18.6421 662.271 14.7381 662.272 14.7329C662.273 14.7312 663.079 15.8797 663.604 17.1067C664.129 18.3341 665.206 20.4994 665.459 23.8402C665.533 24.8147 665.608 25.5734 665.373 28.0536Z" fill="#E5E5E5"/>
<path fill-rule="evenodd" clip-rule="evenodd" d="M732.337 18.7522C732.337 29.1088 723.942 37.5045 713.585 37.5045C703.229 37.5045 694.833 29.1088 694.833 18.7522C694.833 8.39566 703.229 0 713.585 0C723.942 0 732.337 8.39566 732.337 18.7522ZM716.979 9.50775C718.215 8.05551 719.879 7.00541 721.784 6.93861V6.93863C723.687 6.87717 725.126 7.7389 725.174 9.10497C725.193 9.68613 724.859 10.8157 723.698 10.8538C722.831 10.8845 722.231 10.3662 722.203 9.57792C722.195 9.288 722.269 9.03616 722.467 8.74091C722.5 8.67685 722.528 8.62239 722.553 8.57531C722.673 8.34354 722.701 8.29076 722.697 8.15306C722.68 7.65741 721.929 7.63737 721.724 7.64805C718.909 7.73957 718.167 11.5392 717.566 14.628L717.271 16.2573C718.891 16.4951 720.042 16.2025 720.684 15.7864C721.231 15.4319 721.024 15.0714 720.807 14.694C720.665 14.4475 720.519 14.1938 720.577 13.93C720.725 13.2499 721.344 12.9226 721.835 12.9086C722.523 12.8925 723.014 13.6053 722.999 14.3301C722.974 15.5272 721.385 17.1738 718.207 17.1056C717.82 17.097 717.464 17.0696 717.131 17.0302L716.533 20.3388L716.516 20.415C715.981 22.9143 715.256 26.3002 712.73 29.258C710.539 31.8639 708.314 32.2694 707.318 32.3021C705.454 32.3662 704.218 31.3716 704.174 30.0462C704.131 28.761 705.266 28.0603 706.012 28.0356C707.006 28.0015 707.694 28.7216 707.722 29.5539C707.746 30.256 707.38 30.4751 707.137 30.6081C707.113 30.6271 707.088 30.6461 707.062 30.6657C706.909 30.7805 706.731 30.9136 706.739 31.1612C706.746 31.2854 706.879 31.57 707.292 31.5566C708.06 31.5299 708.577 31.1598 708.941 30.8993C708.95 30.8925 708.96 30.8859 708.969 30.8793C710.784 29.3662 711.482 26.731 712.398 21.9307L712.59 20.7683L712.598 20.7276C712.908 19.1763 713.253 17.4513 713.776 15.7329C713.387 15.4396 713.045 15.125 712.709 14.8159C711.941 14.1092 711.205 13.4321 710.008 13.1077C708.827 12.7877 708.108 13.0602 707.602 13.6995C707.003 14.4564 707.202 15.4417 707.781 16.0208L708.736 17.0769C709.909 18.4323 710.55 19.4864 710.309 20.9039C709.927 23.1671 707.23 24.904 704.042 23.924C701.321 23.0843 700.813 21.1598 701.14 20.097C701.428 19.1638 702.17 18.9874 702.896 19.2092C703.673 19.449 703.977 20.3936 703.755 21.1204C703.753 21.1277 703.75 21.1355 703.747 21.1439C703.722 21.2219 703.684 21.3428 703.609 21.4998C703.572 21.5819 703.522 21.66 703.471 21.7397C703.398 21.8538 703.323 21.9713 703.28 22.109C703.104 22.6781 703.886 23.0823 704.43 23.2506C705.647 23.6254 706.834 22.9888 707.136 22.0035C707.415 21.0983 706.844 20.4664 706.606 20.2239L705.454 18.9908C704.926 18.4022 703.766 16.765 704.332 14.9253C704.551 14.2179 705.009 13.465 705.677 12.9667C707.084 11.9179 708.614 11.7456 710.072 12.1644C711.489 12.5731 712.353 13.3789 713.194 14.163C713.472 14.422 713.747 14.6787 714.039 14.9179C714.696 12.9901 715.607 11.1003 716.979 9.50775Z" fill="white"/>
<path d="M781.654 23.8254C781.377 21.8106 780.512 19.8871 779.695 18.0017C779.139 16.7227 778.548 15.4565 777.949 14.1953C777.104 12.4114 776.302 10.6046 775.368 8.86637C773.965 6.25264 772.471 3.68965 771.004 1.10895C770.808 0.766353 770.562 0.451702 770.253 0C769.387 1.48706 768.603 2.83706 767.786 4.23782C766.822 2.89034 766.2 1.37795 765.142 0.0101583C764.579 0.976988 764.076 1.80425 763.607 2.65182C762.47 4.69713 761.275 6.70942 760.28 8.83589C759.445 10.6224 758.44 12.3276 757.575 14.1014C756.803 15.6848 756.057 17.2861 755.415 18.9253C754.728 20.6813 754.162 22.483 753.774 24.3355C753.771 25.3607 753.771 26.3858 753.769 27.4136C753.989 29.1163 754.532 30.7302 755.484 32.1386C756.801 34.0823 758.494 35.615 760.727 36.5311C762.726 37.3508 764.728 37.7238 766.873 37.2619C767.433 37.1427 768.075 37.1173 768.618 37.267C770.375 37.7542 772.07 37.4117 773.737 36.9574C775.044 36.6022 776.198 35.8942 777.295 35.0568C781.045 32.1868 782.266 28.3068 781.654 23.8254V23.8254ZM767.639 34.8055C765.812 35.3385 763.934 35.3105 762.181 34.6431C760.605 34.0443 759.163 33.1206 758.098 31.7224C757.237 30.5931 756.623 29.3599 756.26 27.987C755.92 26.7081 755.865 25.3911 756.195 24.1528C756.839 21.7294 757.689 19.3694 758.821 17.1135C759.646 15.4691 760.341 13.7588 761.178 12.1196C762.445 9.63526 763.784 7.18899 765.216 4.49157C765.624 5.26808 765.908 5.81364 766.2 6.35666C767.236 8.27255 768.311 10.1707 769.301 12.1145C769.989 13.4695 770.56 14.8855 771.181 16.2736C771.768 17.5804 772.374 18.8822 772.935 20.1992C773.628 21.8258 774.222 23.5108 774.376 25.2642C774.539 27.0989 774.112 28.8955 773.153 30.4967C771.874 32.6334 770.037 34.1052 767.639 34.8056V34.8055ZM779.484 26.571C779.38 27.9287 778.979 29.1747 778.353 30.3267C777.558 31.7883 776.452 33.0038 774.968 33.8336C774.333 34.1889 773.678 34.4655 772.811 34.7878C773.42 34.0367 773.892 33.4733 774.341 32.8947C776.239 30.4536 777.005 27.6724 776.67 24.6222C776.482 22.9043 775.84 21.2904 775.242 19.6689C774.216 16.8902 772.864 14.2587 771.656 11.5613C771.184 10.5082 770.598 9.50839 770.057 8.48828C769.755 7.91224 769.443 7.33875 769.121 6.73985C769.494 6.07504 769.857 5.43048 770.273 4.69206C770.765 5.49645 771.27 6.21461 771.666 6.98852C773.036 9.66823 774.305 12.4012 775.731 15.0504C776.731 16.9054 777.51 18.8492 778.274 20.798C778.997 22.6404 779.642 24.5106 779.484 26.571V26.571Z" fill="#E5E5E5"/>
<path d="M815.382 28.7776C815.682 28.6402 815.981 28.5279 816.294 28.403C816.643 28.2782 816.993 28.1533 817.342 28.0409C817.779 27.9036 818.229 27.7913 818.678 27.6914C819.29 27.5665 819.902 27.4667 820.513 27.4042C820.164 28.4904 819.789 29.5766 819.365 30.6503C819.377 30.8625 819.39 31.0623 819.402 31.2745C820.239 31.1122 821.1 31.0248 821.987 31.0248C822.873 31.0248 823.734 31.1122 824.571 31.2745C824.571 31.0623 824.583 30.85 824.608 30.6503C824.196 29.5766 823.809 28.4904 823.46 27.4042C824.072 27.4667 824.696 27.554 825.295 27.6914C825.745 27.7913 826.181 27.9036 826.631 28.041C826.981 28.1533 827.33 28.2657 827.68 28.403C827.992 28.5154 828.291 28.6402 828.591 28.7776C830.713 29.7264 832.649 31.1247 834.234 32.9475C838.217 29.5142 840.739 24.4328 840.739 18.7522C840.739 8.4023 832.349 0 821.987 0C811.637 0 803.234 8.38981 803.234 18.7522C803.234 24.4203 805.756 29.5017 809.739 32.9475C811.325 31.1247 813.26 29.7264 815.382 28.7776Z" fill="#969696"/>
<path d="M816.618 32.1734C817.492 31.7864 818.429 31.4868 819.39 31.2995C819.39 31.0873 819.377 30.875 819.352 30.6753C819.764 29.6016 820.151 28.5154 820.501 27.4292C819.889 27.4916 819.265 27.579 818.666 27.7164C818.216 27.8162 817.779 27.9286 817.33 28.0659C816.98 28.1783 816.631 28.2907 816.281 28.428L817.642 28.7651L816.618 32.1734Z" fill="#828282"/>
<path d="M813.397 34.1833C813.435 33.8337 813.447 33.4842 813.447 33.1221C813.447 32.9099 813.622 32.7351 813.834 32.7351H814.171L815.37 28.7649C813.247 29.7137 811.312 31.112 809.727 32.9348C810.6 33.6964 811.549 34.3706 812.548 34.9574C812.835 34.6952 813.11 34.433 813.397 34.1833Z" fill="#828282"/>
<path d="M828.579 28.7776L829.778 32.7478H830.115C830.327 32.7478 830.502 32.9226 830.502 33.1348C830.502 33.4969 830.527 33.8464 830.552 34.196C830.839 34.4457 831.126 34.6954 831.388 34.9701C832.399 34.3833 833.336 33.7091 834.21 32.9475C832.637 31.1247 830.702 29.7264 828.579 28.7776Z" fill="#828282"/>
<path d="M826.294 28.7399L827.654 28.4028C827.305 28.278 826.955 28.1531 826.606 28.0408C826.169 27.9034 825.719 27.7911 825.27 27.6912C824.658 27.5664 824.046 27.4665 823.435 27.4041C823.784 28.4902 824.159 29.5764 824.583 30.6501C824.571 30.8624 824.558 31.0621 824.546 31.2744C825.52 31.4616 826.443 31.7613 827.317 32.1483L826.294 28.7399V28.7399Z" fill="#828282"/>
<path d="M821.975 32.7477H824.622C824.572 32.2608 824.547 31.7739 824.559 31.2995C823.723 31.1372 822.861 31.0498 821.975 31.0498C821.089 31.0498 820.227 31.1372 819.391 31.2995C819.403 31.7864 819.378 32.2608 819.328 32.7477H821.975Z" fill="#E5E5E5"/>
<path d="M812.561 34.9574C812.773 35.0823 812.998 35.2071 813.222 35.332C813.297 34.9574 813.36 34.5704 813.397 34.1833C813.11 34.433 812.835 34.6952 812.561 34.9574Z" fill="#E5E5E5"/>
<path d="M816.443 32.7478H819.34C819.39 32.2609 819.415 31.774 819.402 31.2996C818.428 31.4868 817.505 31.7865 816.631 32.1735L816.443 32.7478V32.7478Z" fill="#E5E5E5"/>
<path d="M830.564 34.1833C830.602 34.5704 830.664 34.9574 830.739 35.332C830.964 35.2196 831.176 35.0947 831.401 34.9574C831.126 34.6952 830.852 34.433 830.564 34.1833Z" fill="#E5E5E5"/>
<path d="M827.518 32.7478L827.343 32.1735C826.469 31.7865 825.533 31.4868 824.572 31.2996C824.559 31.7865 824.584 32.2609 824.634 32.7478H827.518V32.7478Z" fill="#E5E5E5"/>
<path d="M816.443 32.7475L816.618 32.1732L817.654 28.7399L816.294 28.4028C815.981 28.5152 815.682 28.64 815.382 28.7774L814.184 32.7476H816.443V32.7475Z" fill="#888888"/>
<path d="M827.343 32.1733L827.518 32.7476H829.777L828.579 28.7774C828.279 28.6401 827.98 28.5277 827.668 28.4028L826.307 28.7399L827.343 32.1732L827.343 32.1733Z" fill="#888888"/>
<path d="M814.221 33.5467C814.233 33.5342 814.246 33.5342 814.258 33.5217H814.221V33.5467Z" fill="#B2B2B2"/>
<path d="M821.975 33.5217H814.259C814.247 33.5342 814.234 33.5342 814.222 33.5467C814.197 34.2833 814.097 34.995 813.935 35.6941C816.369 36.8552 819.091 37.5044 821.975 37.5044V33.5217L821.975 33.5217Z" fill="#A6A6A6"/>
<path d="M829.74 33.5217H829.702C829.715 33.5342 829.727 33.5342 829.74 33.5467V33.5217Z" fill="#999999"/>
<path d="M829.702 33.5217H821.974V37.5044C824.845 37.5044 827.579 36.8552 830.014 35.6941C829.852 34.9949 829.752 34.2708 829.727 33.5467C829.727 33.5342 829.714 33.5217 829.702 33.5217Z" fill="#888888"/>
<path d="M830.564 34.1834C830.526 33.8338 830.514 33.4842 830.514 33.1221C830.514 32.9099 830.339 32.7351 830.127 32.7351H813.822C813.609 32.7351 813.435 32.9099 813.435 33.1221C813.435 33.4842 813.41 33.8338 813.385 34.1834C813.347 34.5704 813.285 34.9574 813.21 35.332C813.447 35.4568 813.684 35.5817 813.922 35.694C814.084 34.9949 814.184 34.2707 814.209 33.5466V33.5217H829.727V33.5466C829.752 34.2832 829.852 34.9949 830.015 35.694C830.252 35.5817 830.489 35.4568 830.726 35.332C830.651 34.9574 830.601 34.5704 830.564 34.1834Z" fill="#4A4A4A"/>
<path d="M827.344 30.0636C827.281 30.0011 827.231 29.9262 827.169 29.8513C827.231 29.9387 827.294 30.0011 827.344 30.0636Z" fill="#E0E0E0"/>
<path d="M827.78 30.5004C827.78 30.5004 827.592 30.3506 827.343 30.0759C827.592 30.3506 827.78 30.5004 827.78 30.5004Z" fill="#999999"/>
<path d="M834.46 14.5821C834.46 14.5821 834.46 14.5697 834.46 14.5821C834.297 14.3574 834.135 14.1577 833.973 13.9829C833.898 13.8955 833.823 13.8206 833.748 13.7457C833.723 13.7207 833.686 13.6957 833.661 13.6707C833.611 13.6208 833.561 13.5833 833.511 13.5459V15.2938L834.172 18.3526C834.185 18.3775 834.185 18.4025 834.197 18.4275L834.659 18.9518H835.146V18.8145C835.146 17.3663 834.909 15.9804 834.485 14.682C834.472 14.6321 834.472 14.6071 834.46 14.5821Z" fill="#8A8A8A"/>
<path d="M834.247 18.6399V18.6648C834.26 18.7397 834.26 18.8146 834.26 18.8895V18.927V18.9644C834.26 19.0394 834.26 19.1143 834.247 19.1767V19.2017L834.21 19.4264L834.672 18.9145L834.21 18.3901C834.222 18.4775 834.235 18.5524 834.247 18.6398V18.6399Z" fill="#383838"/>
<path d="M834.235 19.2267V19.2017C834.247 19.1268 834.247 19.0519 834.247 18.9895V18.8896C834.247 18.8147 834.247 18.7398 834.235 18.6649V18.6399L834.197 18.4152C834.185 18.3902 834.185 18.3652 834.173 18.3403C834.123 18.1904 834.073 18.0656 833.998 17.9532C833.985 17.9407 833.973 17.9283 833.973 17.9158C833.948 17.8908 833.935 17.8658 833.91 17.8409C833.885 17.8034 833.848 17.7784 833.81 17.7535C833.798 17.741 833.785 17.741 833.773 17.7285C833.748 17.7035 833.711 17.691 833.686 17.6786C833.673 17.6786 833.661 17.6661 833.648 17.6661C833.611 17.6536 833.561 17.6411 833.511 17.6411C833.461 17.6411 833.423 17.6536 833.373 17.6661C833.361 17.6661 833.349 17.6786 833.336 17.6786C833.311 17.691 833.274 17.7035 833.249 17.7285C833.236 17.741 833.224 17.741 833.211 17.7535C833.174 17.7784 833.149 17.8159 833.111 17.8409C833.086 17.8658 833.074 17.8908 833.049 17.9158C833.036 17.9283 833.024 17.9407 833.024 17.9532C832.949 18.0656 832.887 18.1904 832.849 18.3403V18.3527C832.824 18.4152 832.812 18.4901 832.799 18.565C832.799 18.59 832.787 18.6024 832.787 18.6274C832.774 18.7148 832.774 18.7897 832.762 18.8771V18.9146C832.762 19.6262 833.099 20.213 833.511 20.213C833.586 20.213 833.648 20.188 833.723 20.163C833.736 20.163 833.748 20.1506 833.761 20.1506C833.786 20.1381 833.81 20.1131 833.835 20.1006L833.873 20.0632C833.91 20.0382 833.935 20.0007 833.973 19.9633C833.998 19.9383 834.01 19.9134 834.035 19.8759C834.048 19.8509 834.06 19.8384 834.073 19.8135C834.098 19.776 834.11 19.7386 834.135 19.6886C834.148 19.6761 834.148 19.6637 834.16 19.6387C834.185 19.5763 834.198 19.5138 834.222 19.4514C834.222 19.3765 834.235 19.3016 834.235 19.2267L834.235 19.2267ZM833.536 18.7523C833.373 18.7523 833.249 18.54 833.249 18.2654C833.249 18.0032 833.373 17.7785 833.536 17.7785C833.698 17.7785 833.823 17.9907 833.823 18.2654C833.823 18.54 833.686 18.7523 833.536 18.7523Z" fill="#E5E5E5"/>
<path d="M833.536 18.7524C833.695 18.7524 833.823 18.5344 833.823 18.2655C833.823 17.9966 833.695 17.7786 833.536 17.7786C833.378 17.7786 833.249 17.9966 833.249 18.2655C833.249 18.5344 833.378 18.7524 833.536 18.7524Z" fill="white"/>
<path d="M832.837 18.3403C832.887 18.1905 832.937 18.0656 833.012 17.9532C833.024 17.9408 833.037 17.9283 833.037 17.9158C833.062 17.8908 833.074 17.8659 833.099 17.8409C833.124 17.8034 833.162 17.7785 833.199 17.7535C833.211 17.741 833.224 17.741 833.236 17.7285C833.261 17.7036 833.299 17.6911 833.324 17.6786C833.336 17.6786 833.349 17.6661 833.361 17.6661C833.399 17.6536 833.449 17.6411 833.499 17.6411C833.549 17.6411 833.586 17.6536 833.636 17.6661C833.648 17.6661 833.661 17.6786 833.673 17.6786C833.698 17.6911 833.736 17.7036 833.761 17.7285C833.773 17.741 833.786 17.741 833.798 17.7535C833.836 17.7785 833.861 17.8159 833.898 17.8409C833.923 17.8659 833.936 17.8908 833.961 17.9158C833.973 17.9283 833.986 17.9408 833.986 17.9532C834.06 18.0656 834.123 18.1905 834.16 18.3403L833.499 15.2815L832.837 18.3403Z" fill="#4A4A4A"/>
<path d="M824.659 18.9019C824.659 18.8395 824.659 18.7771 824.647 18.7146C824.634 18.6522 824.634 18.6023 824.622 18.5398C824.609 18.4774 824.597 18.4275 824.572 18.3775C824.559 18.3276 824.534 18.2652 824.509 18.2152L824.434 18.0654C824.347 17.9156 824.247 17.7783 824.122 17.6659C823.96 17.5161 823.773 17.3912 823.573 17.3038C823.473 17.2664 823.361 17.2289 823.261 17.204H823.248C823.136 17.179 823.023 17.1665 822.911 17.1665C822.799 17.1665 822.686 17.179 822.574 17.204H822.562C822.449 17.2289 822.349 17.2539 822.249 17.2914H822.237C822.137 17.3288 822.037 17.3787 821.95 17.4412C821.862 17.5036 821.775 17.566 821.7 17.6409H821.688C821.563 17.7658 821.45 17.9031 821.363 18.0529L821.288 18.2027C821.288 18.2027 821.288 18.2152 821.276 18.2152C821.251 18.2652 821.238 18.3026 821.226 18.3526C821.226 18.365 821.213 18.365 821.213 18.3775C821.201 18.4275 821.188 18.4649 821.176 18.5148C821.176 18.5273 821.163 18.5398 821.163 18.5523C821.151 18.6022 821.151 18.6397 821.138 18.6896C821.138 18.7021 821.138 18.7146 821.126 18.7271C821.126 18.7895 821.113 18.8519 821.113 18.9144C821.113 19.0267 821.126 19.1391 821.151 19.2514V19.2639C821.176 19.3763 821.201 19.4762 821.251 19.5885C821.338 19.7883 821.463 19.9756 821.613 20.1379C821.738 20.2627 821.875 20.3751 822.025 20.4625L822.174 20.5374H822.187C822.237 20.5623 822.287 20.5748 822.324 20.5873C822.333 20.5873 822.341 20.5915 822.349 20.5998C822.399 20.6123 822.437 20.6248 822.487 20.6373C822.499 20.6373 822.512 20.6497 822.524 20.6497C822.574 20.6622 822.611 20.6622 822.661 20.6747C822.674 20.6747 822.686 20.6747 822.699 20.6872C822.761 20.6872 822.824 20.6997 822.886 20.6997C823.136 20.6997 823.361 20.6497 823.573 20.5623C823.673 20.5124 823.773 20.4625 823.872 20.4C824.06 20.2752 824.222 20.1129 824.347 19.9256C824.409 19.8257 824.459 19.7259 824.509 19.626C824.597 19.4137 824.646 19.1765 824.646 18.9393V18.9268L824.659 18.9019V18.9019ZM822.899 18.6897C822.537 18.6897 822.237 18.39 822.237 18.028C822.237 17.6659 822.537 17.3663 822.899 17.3663C823.261 17.3663 823.56 17.6659 823.56 18.028C823.56 18.39 823.261 18.6897 822.899 18.6897Z" fill="#E5E5E5"/>
<path d="M822.899 18.6898C823.264 18.6898 823.561 18.3936 823.561 18.0281C823.561 17.6627 823.264 17.3665 822.899 17.3665C822.534 17.3665 822.237 17.6627 822.237 18.0281C822.237 18.3936 822.534 18.6898 822.899 18.6898Z" fill="white"/>
<path d="M821.676 17.6412L822.9 13.9082V13.0343C822.225 12.8969 821.526 12.822 820.814 12.822C820.577 12.822 820.34 12.8345 820.103 12.847C820.065 12.847 820.04 12.847 820.003 12.8595C818.779 12.9469 817.581 13.2715 816.47 13.7834C815.521 14.2203 814.622 14.7946 813.835 15.4688C813.623 15.6561 813.411 15.8434 813.211 16.0431L813.099 16.1555C812.912 16.3427 812.724 16.5425 812.55 16.7423C812.512 16.7922 812.475 16.8296 812.437 16.8796C812.262 17.0918 812.088 17.3041 811.925 17.5163C811.913 17.5288 811.9 17.5538 811.888 17.5662C811.738 17.7785 811.588 17.9907 811.438 18.2155C811.413 18.2529 811.376 18.3028 811.351 18.3403C811.239 18.5276 811.126 18.7149 811.026 18.9021H816.57L821.676 17.6411V17.6412Z" fill="#8A8A8A"/>
<path d="M826.357 17.2289C826.37 17.079 826.382 16.9417 826.382 16.7919C826.395 16.5921 826.395 16.4049 826.407 16.2051V15.6058C826.407 15.2063 826.382 14.8193 826.37 14.4198C826.37 14.4198 826.357 14.4198 826.357 14.4073C826.357 14.4073 826.345 14.4073 826.345 14.3948C826.27 14.3574 826.095 14.2575 825.933 14.1576H825.92C825.883 14.1326 825.845 14.1077 825.808 14.0952C825.783 14.0827 825.758 14.0577 825.733 14.0452L825.72 14.0328C825.695 14.0203 825.671 14.0078 825.658 13.9953C825.408 13.858 825.146 13.7456 824.884 13.6332C824.26 13.3711 823.411 13.1338 822.924 13.0215V13.8954L824.135 17.6159C824.26 17.7283 824.372 17.8656 824.447 18.0154L824.522 18.1652C824.547 18.2152 824.572 18.2651 824.584 18.3275C824.597 18.3775 824.622 18.4399 824.634 18.4899C824.647 18.5523 824.659 18.6022 824.659 18.6646C824.672 18.7271 824.672 18.7895 824.672 18.8519V18.8644H826.145C826.245 18.3276 826.32 17.7782 826.357 17.2289C826.357 17.2539 826.357 17.2414 826.357 17.2289V17.2289Z" fill="#A6A6A6"/>
<path d="M824.671 24.2205C825.008 23.8834 825.32 23.5713 825.62 23.2591C825.795 23.0719 825.97 22.8846 826.144 22.7098C827.38 21.3739 828.279 20.113 828.829 18.5024C828.841 18.465 828.854 18.415 828.866 18.3526V18.3276C828.879 18.2652 828.891 18.2028 828.904 18.1279C828.904 18.0779 828.916 18.028 828.916 17.9781C828.779 17.2789 828.516 16.5922 828.279 15.9181V15.9306L828.267 15.9181C828.217 15.8806 828.179 15.8307 828.129 15.7932C827.992 15.6684 827.855 15.5435 827.705 15.4187C827.268 15.0566 826.819 14.7195 826.344 14.4324C826.369 14.8319 826.382 15.2189 826.382 15.6184V16.2177C826.382 16.4175 826.369 16.6172 826.357 16.8045C826.344 16.9543 826.344 17.0916 826.332 17.2415V17.2914C826.282 17.8407 826.219 18.3901 826.119 18.9269L825.945 19.7509C825.583 21.2241 824.846 22.5475 824.247 23.9208C824.084 24.2829 823.935 24.6574 823.797 25.032L823.76 25.1443C823.947 24.9446 824.122 24.7698 824.247 24.645C824.409 24.4826 824.534 24.3453 824.671 24.2205Z" fill="#8A8A8A"/>
<path d="M821.688 17.6411C821.763 17.5662 821.851 17.5037 821.938 17.4413C822.026 17.3789 822.125 17.3289 822.225 17.2915H822.238C822.338 17.254 822.438 17.2166 822.55 17.2041H822.562C822.675 17.1791 822.787 17.1667 822.9 17.1667C823.012 17.1667 823.124 17.1791 823.237 17.2041H823.249C823.361 17.2291 823.461 17.254 823.561 17.304C823.761 17.3914 823.948 17.5037 824.111 17.666L822.899 13.9456L821.688 17.6411Z" fill="#4A4A4A"/>
<path d="M821.264 19.5887C821.226 19.4888 821.189 19.3765 821.164 19.2641V19.2516C821.139 19.1393 821.126 19.0269 821.126 18.9145C821.126 18.8521 821.126 18.7897 821.139 18.7273C821.139 18.7148 821.139 18.7023 821.151 18.6898C821.151 18.6399 821.164 18.6024 821.176 18.5525C821.176 18.54 821.189 18.5275 821.189 18.515C821.201 18.4651 821.214 18.4276 821.226 18.3777C821.226 18.3652 821.239 18.3652 821.239 18.3527C821.251 18.3028 821.276 18.2529 821.289 18.2154C821.289 18.2154 821.289 18.2029 821.301 18.2029L821.376 18.0531C821.463 17.9033 821.576 17.766 821.701 17.6411L816.582 18.9021H816.569L821.638 20.1381C821.476 19.9883 821.351 19.801 821.264 19.5888L821.264 19.5887Z" fill="#383838"/>
<path d="M832.774 18.6275C832.774 18.6025 832.786 18.5775 832.786 18.565C832.799 18.4901 832.811 18.4152 832.836 18.3528V18.3278L833.498 15.2691V13.5212C832.949 13.0717 832.374 12.822 831.763 12.822C830.989 12.822 830.277 13.2465 829.74 13.7709C829.153 14.3452 828.704 15.0693 828.329 15.7934C828.317 15.8309 828.292 15.8558 828.279 15.8933L828.616 16.1929C828.866 16.4177 829.116 16.6549 829.353 16.8921L829.69 17.2292C829.802 17.354 829.927 17.4664 830.04 17.5912C830.189 17.7535 830.339 17.9034 830.477 18.0657C830.539 18.1281 830.602 18.203 830.664 18.2654C830.839 18.4652 831.013 18.6524 831.188 18.8522L831.251 18.9146H832.761V18.8772C832.761 18.8023 832.761 18.7149 832.774 18.6275Z" fill="#A6A6A6"/>
<path d="M810.114 20.8371C810.114 20.8246 810.127 20.8122 810.127 20.7997C810.227 20.55 810.327 20.3003 810.439 20.0506C810.464 19.9757 810.502 19.9133 810.539 19.8508C810.626 19.6511 810.726 19.4638 810.826 19.2765C810.864 19.2016 810.901 19.1267 810.951 19.0393C810.976 19.0019 811.001 18.9519 811.026 18.9145C811.138 18.7272 811.238 18.5399 811.351 18.3527C811.375 18.3152 811.413 18.2653 811.438 18.2278C811.575 18.0031 811.725 17.7908 811.887 17.5786C811.9 17.5661 811.912 17.5412 811.925 17.5287C812.087 17.3039 812.262 17.0917 812.437 16.8919C812.474 16.842 812.512 16.8045 812.549 16.7546C812.724 16.5549 812.911 16.3551 813.098 16.1678L813.211 16.0555C813.411 15.8557 813.61 15.6684 813.835 15.4812C814.671 12.6596 817.256 10.5996 820.302 10.5996C821.526 10.5996 822.749 10.9492 823.798 11.5984C824.872 12.2601 825.745 13.2214 826.307 14.3326C826.307 14.3326 826.307 14.345 826.32 14.345C826.332 14.37 826.345 14.395 826.37 14.4324C826.844 14.7196 827.294 15.0567 827.731 15.4187C827.88 15.5436 828.018 15.6684 828.155 15.7933C828.205 15.8307 828.242 15.8807 828.292 15.9181C828.305 15.8807 828.317 15.8557 828.342 15.8183C828.767 13.1091 829.965 11.1489 831.376 11.1489C832.437 11.1489 833.386 12.2601 833.96 13.9705V13.983C834.123 14.1578 834.285 14.3575 834.447 14.5698C834.447 14.5698 834.447 14.5822 834.46 14.5822C834.472 14.6072 834.472 14.6322 834.485 14.6572L834.46 14.5698C832.7 9.37606 827.793 5.63062 822 5.63062C814.734 5.63062 808.854 11.511 808.854 18.7771C808.854 20.2129 809.078 21.5862 809.503 22.8722V22.8597C809.59 22.4727 809.69 22.0856 809.802 21.7111C809.902 21.4114 810.002 21.1243 810.114 20.8371V20.8371Z" fill="#383838"/>
<path d="M834.66 18.9269L834.198 19.4388C834.186 19.5012 834.161 19.5636 834.136 19.626C834.136 19.6385 834.123 19.651 834.111 19.676C834.098 19.7134 834.073 19.7634 834.048 19.8008C834.036 19.8258 834.023 19.8383 834.011 19.8632C833.986 19.8882 833.973 19.9257 833.948 19.9506C833.923 19.9881 833.886 20.0255 833.848 20.0505L833.811 20.088C833.786 20.1129 833.761 20.1254 833.736 20.1379C833.724 20.1379 833.711 20.1504 833.699 20.1504C833.636 20.1878 833.561 20.2003 833.486 20.2003C833.074 20.2003 832.737 19.626 832.737 18.9019H831.227C831.514 19.2265 831.788 19.5511 832.051 19.8882L832.063 19.9007L832.85 20.8745C832.862 20.887 832.875 20.9119 832.887 20.9244C833.137 21.2366 833.374 21.5487 833.611 21.8608C833.636 21.8858 833.661 21.9232 833.686 21.9482C833.936 22.2853 834.186 22.6224 834.435 22.947V22.9595C834.872 21.6735 835.109 20.3127 835.122 18.8894L834.66 18.9269V18.9269Z" fill="white"/>
<path d="M820.003 12.8469C820.04 12.8469 820.065 12.8469 820.103 12.8344C820.34 12.822 820.577 12.8095 820.814 12.8095C821.526 12.8095 822.225 12.8844 822.9 13.0217C823.374 13.1341 824.223 13.3713 824.86 13.6335C825.122 13.7458 825.384 13.8707 825.634 13.9955C825.646 13.9955 825.671 14.008 825.696 14.033C825.696 14.033 825.709 14.033 825.709 14.0455C825.734 14.0579 825.759 14.0704 825.783 14.0954C825.821 14.1204 825.858 14.1328 825.896 14.1578H825.908C826.071 14.2452 826.245 14.3576 826.32 14.395C826.333 14.395 826.333 14.4075 826.333 14.4075L826.345 14.42C826.333 14.395 826.32 14.3701 826.295 14.3326C826.295 14.3326 826.295 14.3201 826.283 14.3201C825.721 13.1965 824.835 12.2352 823.773 11.5859C822.725 10.9492 821.501 10.5872 820.278 10.5872C817.231 10.5872 814.647 12.6472 813.811 15.4687C814.61 14.7821 815.496 14.2078 816.445 13.7833C817.581 13.2589 818.792 12.9468 820.003 12.8469L820.003 12.8469Z" fill="#E5E5E5"/>
<path d="M829.753 13.7833C830.29 13.2589 831.001 12.8344 831.775 12.8344C832.387 12.8344 832.974 13.0841 833.511 13.5336C833.561 13.571 833.611 13.621 833.661 13.6584C833.685 13.6834 833.723 13.7083 833.748 13.7333C833.823 13.8082 833.898 13.8831 833.973 13.9705V13.958C833.386 12.2476 832.45 11.1365 831.388 11.1365C829.978 11.1365 828.779 13.0841 828.354 15.8058C828.704 15.0817 829.166 14.3576 829.753 13.7833V13.7833Z" fill="#E5E5E5"/>
<path d="M817.293 31.0497C817.418 31.0996 817.53 31.1371 817.655 31.1745C819.016 31.6489 820.476 31.9111 821.999 31.9111C823.735 31.9111 825.395 31.574 826.906 30.9623C826.981 30.9248 827.068 30.8999 827.143 30.8624C827.268 30.8125 827.405 30.75 827.53 30.6876C827.643 30.6377 827.755 30.5877 827.867 30.5253C827.842 30.5253 827.817 30.5378 827.792 30.5378C827.318 30.5877 826.856 30.6002 826.394 30.5253C823.685 30.1383 823.086 28.8274 823.173 27.479C822.973 27.3666 822.786 27.2418 822.574 27.092C820.489 25.5813 819.253 23.9708 819.253 23.9708C819.253 23.9708 820.863 25.2068 823.26 26.1431C823.31 26.1681 823.36 26.1806 823.41 26.2055C823.523 25.8185 823.66 25.444 823.772 25.1194L823.81 25.007C823.947 24.6325 824.097 24.2579 824.259 23.8959C824.858 22.5225 825.595 21.1867 825.957 19.7259L826.132 18.9019H824.659V18.9144C824.659 19.1641 824.609 19.3888 824.521 19.6011C824.471 19.7009 824.422 19.8133 824.359 19.9007C824.234 20.088 824.072 20.2503 823.885 20.3751C823.785 20.4376 823.685 20.4875 823.585 20.5374C823.373 20.6248 823.136 20.6748 822.898 20.6748C822.836 20.6748 822.774 20.6748 822.711 20.6623C822.699 20.6623 822.686 20.6623 822.674 20.6498C822.624 20.6498 822.586 20.6373 822.536 20.6248C822.524 20.6248 822.511 20.6123 822.499 20.6123C822.449 20.5999 822.412 20.5874 822.362 20.5749C822.353 20.5749 822.345 20.5707 822.337 20.5624C822.287 20.5499 822.237 20.525 822.199 20.5125H822.187L822.037 20.4376C821.887 20.3502 821.75 20.2503 821.625 20.113L816.556 18.877H811.025C811 18.9144 810.975 18.9643 810.95 19.0018C810.913 19.0767 810.863 19.1516 810.826 19.239C810.726 19.4263 810.626 19.626 810.538 19.8133C810.501 19.8757 810.476 19.9506 810.439 20.0131C810.326 20.2628 810.226 20.5125 810.126 20.7622C810.126 20.7746 810.114 20.7871 810.114 20.7996C810.002 21.0868 809.902 21.3864 809.814 21.686C809.702 22.0606 809.602 22.4476 809.515 22.8346C810.389 25.4939 812.074 27.7786 814.296 29.3767C814.359 29.4266 814.434 29.4641 814.496 29.514C814.871 29.7762 815.258 30.0259 815.657 30.2381C816.182 30.5627 816.731 30.8249 817.293 31.0496V31.0497Z" fill="white"/>
<path d="M826.37 26.9547C826.345 27.092 826.332 27.2293 826.332 27.3667C826.32 27.6039 826.345 27.8411 826.382 28.0533C826.407 28.2032 826.432 28.3405 826.47 28.4778C826.532 28.6776 826.595 28.8649 826.682 29.0396C826.769 29.2144 826.857 29.3767 826.944 29.5141C826.969 29.564 827.007 29.6139 827.031 29.6514C827.081 29.7138 827.119 29.7762 827.169 29.8387C827.231 29.9136 827.294 29.9885 827.344 30.0509C827.581 30.3256 827.781 30.4754 827.781 30.4754V30.4879C827.781 30.5004 827.781 30.5128 827.793 30.5253C827.818 30.5253 827.843 30.5128 827.868 30.5128C828.455 30.4379 829.042 30.2756 829.628 30.0759C829.928 29.9635 830.228 29.8511 830.515 29.7263C830.602 29.6888 830.69 29.6389 830.777 29.6015C833.786 28.1407 836.308 25.5688 836.308 25.5688C832.537 27.4291 828.829 27.3542 826.37 26.9547V26.9547Z" fill="#828282"/>
<path d="M833.636 21.8857C833.399 21.5736 833.15 21.2615 832.912 20.9494C832.9 20.9369 832.887 20.9119 832.875 20.8994L832.088 19.9256L832.076 19.9131C831.801 19.5761 831.527 19.2514 831.252 18.9268C831.239 18.9019 831.214 18.8894 831.202 18.8644C831.027 18.6647 830.852 18.4774 830.678 18.2776C830.615 18.2152 830.553 18.1403 830.49 18.0779C830.34 17.9156 830.203 17.7658 830.053 17.6035C829.941 17.4786 829.816 17.3662 829.704 17.2414L829.367 16.9043C829.129 16.6671 828.88 16.4299 828.63 16.2052L828.293 15.9055C828.53 16.5922 828.805 17.2789 828.942 17.9905C828.98 18.1778 829.005 18.3525 829.03 18.5273C829.367 20.9868 828.568 22.5974 827.319 24.7198C827.232 24.8696 827.132 25.0319 827.044 25.1818C826.757 25.6562 826.57 26.1181 826.47 26.5426C826.433 26.6799 826.408 26.8173 826.383 26.9546C828.842 27.3541 832.538 27.429 836.321 25.5688C836.321 25.5688 835.584 24.4826 834.46 22.9844C834.211 22.6473 833.961 22.3102 833.711 21.9856C833.686 21.9482 833.662 21.9107 833.637 21.8858L833.636 21.8857Z" fill="#383838"/>
<path d="M827.78 30.5002C827.78 30.5002 827.593 30.3504 827.343 30.0757C827.281 30.0133 827.231 29.9384 827.168 29.8635C827.118 29.8011 827.081 29.7386 827.031 29.6762C827.006 29.6263 826.969 29.5888 826.944 29.5389C826.856 29.3891 826.769 29.2392 826.681 29.0645C826.606 28.8897 826.532 28.7024 826.469 28.5026C826.432 28.3653 826.394 28.228 826.382 28.0782C826.344 27.8659 826.332 27.6287 826.332 27.3915C826.332 27.2542 826.344 27.1168 826.369 26.9795C826.394 26.8422 826.419 26.7048 826.457 26.5675C826.569 26.143 826.744 25.6936 827.031 25.2066C827.118 25.0443 827.218 24.8945 827.306 24.7447C828.554 22.6223 829.353 21.0242 829.016 18.5522C828.991 18.3774 828.966 18.1902 828.929 18.0154C828.916 18.1402 828.891 18.2526 828.866 18.34V18.365C828.854 18.4274 828.841 18.4773 828.829 18.5148C828.279 20.1253 827.381 21.3863 826.145 22.7222C825.982 22.9094 825.807 23.0842 825.62 23.2715C825.321 23.5836 824.996 23.9082 824.671 24.2328C824.534 24.3701 824.397 24.495 824.259 24.6323C824.135 24.7572 823.96 24.932 823.772 25.1317C823.66 25.4563 823.523 25.8309 823.41 26.2179C823.36 26.1929 823.31 26.1805 823.261 26.1555C820.863 25.2316 819.253 23.9831 819.253 23.9831C819.253 23.9831 820.489 25.5937 822.574 27.1043C822.774 27.2541 822.973 27.379 823.173 27.4914C823.086 28.8522 823.685 30.1506 826.394 30.5377C826.856 30.6001 827.318 30.6001 827.793 30.5502C827.793 30.5252 827.78 30.5127 827.78 30.5002H827.78Z" fill="#E5E5E5"/>
</svg>
