<?xml version="1.0" encoding="UTF-8"?>
<svg id="uuid-7c034a4a-fc14-4db1-ad99-e4a6dc59cbe2" data-name="Layer 1" xmlns="http://www.w3.org/2000/svg" width="784.6" height="111.80649" xmlns:xlink="http://www.w3.org/1999/xlink" viewBox="0 0 784.6 111.80649">
  <defs>
    <style>
      .uuid-bfdad9a4-7ec9-422e-8e85-e6fbb44833dc {
        fill: none;
      }

      .uuid-f24ddb71-f215-456d-a3c5-482b98494b5c {
        fill: #fff;
      }

      .uuid-3ed69926-0abe-4c2b-90c5-af729971d01a {
        fill: #969696;
      }

      .uuid-254de7a5-78d9-46fc-89f8-aa053c33cbc6 {
        fill: #999;
      }

      .uuid-4116193c-1a42-4dd2-bd0a-abe534be784d {
        fill: #8a8a8a;
      }

      .uuid-7f6cb932-b7a3-46d7-a666-11cd5523c757 {
        fill: #a6a6a6;
      }

      .uuid-912e1912-3bfb-4d98-91f3-baeacb6591fd {
        fill: #b2b2b2;
      }

      .uuid-b02695c5-b372-4340-b12a-5aba8df0443b {
        fill: #242424;
      }

      .uuid-25e36814-8344-4dc5-81f7-5c5ff92a917f {
        fill: #707070;
      }

      .uuid-97729946-4924-45fa-b33f-6a4498d1dbbf, .uuid-6adb7a7e-4c4e-4d24-ac17-da7d340b9138 {
        fill: #535353;
      }

      .uuid-c8166fee-91b5-421d-a786-52a1cea598ef {
        fill: #888;
      }

      .uuid-ee514aff-fe31-423d-a645-6b8afb9e23a8 {
        fill: #4a4a4a;
      }

      .uuid-c3809ecb-d96c-4a4b-9c44-a5315d0dff02 {
        fill: #383838;
      }

      .uuid-c8283289-d361-4935-8e8c-4202c22abe81 {
        clip-path: url(#uuid-9cf7beeb-0551-41b4-a6f2-53bd94df8e3b);
      }

      .uuid-b24c0bd5-5912-4bcf-b07f-b1aa7237ba2c {
        fill: #9a9a9a;
      }

      .uuid-b24c0bd5-5912-4bcf-b07f-b1aa7237ba2c, .uuid-6adb7a7e-4c4e-4d24-ac17-da7d340b9138, .uuid-9740ec79-de30-4664-8309-b8ef3a3e84cb {
        fill-rule: evenodd;
      }
    </style>
    <clipPath id="uuid-9cf7beeb-0551-41b4-a6f2-53bd94df8e3b">
      <path class="uuid-bfdad9a4-7ec9-422e-8e85-e6fbb44833dc" d="M376.89523,88.68223c-.0026,1.41038,.51702,2.77179,1.45869,3.82176l6.72455,10.31778,.08266,.13128,.0389,.05349c1.80304,2.60575,5.37707,3.25647,7.98282,1.45343,2.52589-1.74779,3.22724-5.17484,1.59103-7.7744l-.10211-.16046c-.0189-.02064-.03523-.0435-.04862-.06807l-7.11353-10.77969c-1.6554-2.6988-5.18518-3.54464-7.88398-1.88923-1.70173,1.04382-2.73788,2.89777-2.73526,4.89413"/>
    </clipPath>
  </defs>
  <g>
    <g>
      <path d="M2.48754,17.49963c0,5.94233,3.45336,11.07767,8.46101,13.51122L3.7873,11.3899c-.83299,1.86708-1.29976,3.93327-1.29976,6.10973Z"/>
      <path d="M27.63491,16.74206c0-1.85537-.66645-3.14028-1.23806-4.14038-.761-1.23663-1.4743-2.28386-1.4743-3.52049,0-1.38003,1.04666-2.66465,2.52096-2.66465,.06656,0,.12969,.00828,.19454,.012-2.67094-2.44698-6.22942-3.94099-10.13785-3.94099-5.24475,0-9.85904,2.69093-12.5434,6.76675,.35222,.01057,.68416,.018,.96611,.018,1.57028,0,4.00098-.19054,4.00098-.19054,.80928-.04771,.90469,1.14093,.09627,1.23663,0,0-.81328,.0957-1.71825,.14312l5.46699,16.26129,3.28539-9.85333-2.339-6.40853c-.80842-.04742-1.57428-.14312-1.57428-.14312-.80899-.04742-.71415-1.28433,.09484-1.23663,0,0,2.47926,.19054,3.95441,.19054,1.57,0,4.00098-.19054,4.00098-.19054,.80985-.04771,.90498,1.14093,.09627,1.23663,0,0-.81499,.0957-1.71825,.14312l5.42529,16.13817,1.49744-5.00393c.64903-2.07647,1.14293-3.56791,1.14293-4.85311Z"/>
      <path d="M17.76358,18.81282l-4.50431,13.08873c1.3449,.39536,2.7672,.6116,4.24093,.6116,1.74825,0,3.4248-.30223,4.98537-.85099-.04028-.06427-.07684-.13255-.10684-.20682l-4.61515-12.64253Z"/>
      <path d="M30.67321,10.29696c.06456,.4782,.10112,.99153,.10112,1.54372,0,1.52343-.28452,3.23597-1.1415,5.3773l-4.58573,13.25841c4.46318-2.60266,7.4652-7.43806,7.4652-12.97647,.00029-2.61009-.66645-5.06449-1.83909-7.20296Z"/>
      <path d="M17.5002,0C7.85084,0,0,7.85027,0,17.49963c0,9.65051,7.85084,17.50049,17.5002,17.50049s17.50106-7.84998,17.50106-17.50049C35.00098,7.85027,27.14928,0,17.5002,0Zm0,34.19798C8.29333,34.19798,.80242,26.70708,.80242,17.49963,.80242,8.29276,8.29304,.80242,17.5002,.80242c9.20659,0,16.69692,7.49033,16.69692,16.69721,0,9.20745-7.49034,16.69835-16.69692,16.69835Z"/>
    </g>
    <path class="uuid-9740ec79-de30-4664-8309-b8ef3a3e84cb" d="M88.98095,7.91794c.01261,.04666,.01905,.09477,.01917,.1431v7.51268c0,.19627-.105,.37755-.27526,.47519l-6.30553,3.63035v7.19566c0,.19583-.10408,.37659-.27389,.47519l-13.16226,7.57704c-.03013,.01712-.06299,.02807-.09586,.03971-.01232,.00411-.02396,.01164-.03698,.01506-.09201,.02423-.18872,.02423-.28073,0-.01506-.00411-.02876-.01233-.04314-.0178-.03013-.01095-.06162-.02054-.09038-.03698l-13.15952-7.57704c-.17015-.09775-.27512-.27896-.27526-.47519V4.33689c0-.0493,.00685-.09723,.01917-.14379,.00411-.01575,.01369-.03013,.01917-.04588,.01027-.02876,.01986-.0582,.03492-.0849,.01027-.0178,.02533-.03218,.03766-.04861,.01575-.02191,.03013-.04451,.04861-.06368,.01575-.01575,.03629-.02739,.05409-.04108,.01986-.01643,.03766-.03424,.06025-.04725h.00068L61.85601,.07318c.16956-.09757,.37821-.09757,.54777,0l6.5801,3.78852h.00137c.02191,.01369,.0404,.03081,.06025,.04656,.0178,.01369,.03766,.02602,.05341,.04108,.01917,.01986,.03287,.04245,.0493,.06436,.01164,.01643,.02739,.03081,.03698,.04861,.01575,.02739,.02465,.05615,.03561,.0849,.00548,.01575,.01506,.03013,.01917,.04656,.01261,.04666,.01905,.09477,.01917,.14311v14.07704l5.48319-3.15722v-7.19634c0-.04793,.00685-.09654,.01917-.14242,.00479-.01643,.01369-.03081,.01917-.04656,.01096-.02876,.02054-.0582,.03561-.0849,.01027-.0178,.02533-.03218,.03698-.04861,.01643-.02191,.03013-.04451,.0493-.06368,.01575-.01575,.03561-.02739,.05341-.04108,.02054-.01643,.03834-.03424,.06025-.04725h.00068l6.58079-3.78852c.16952-.09771,.37825-.09771,.54777,0l6.5801,3.78852c.02328,.01369,.04108,.03081,.06162,.04656,.01712,.01369,.03698,.02602,.05272,.04108,.01917,.01986,.03287,.04245,.0493,.06436,.01233,.01643,.02739,.03081,.03698,.04861,.01575,.0267,.02465,.05615,.0356,.0849,.00616,.01575,.01506,.03013,.01917,.04656Zm-1.07774,7.33877v-6.24733l-2.30269,1.32561-3.18118,1.83161v6.24733l5.48456-3.15722h-.00069Zm-6.5801,11.30121v-6.25144l-3.12914,1.7871-8.93552,5.09975v6.31032l12.06466-6.94574ZM56.09825,5.28522V26.55792l12.06329,6.94505v-6.30896l-6.30211-3.56668-.00205-.00137-.00274-.00137c-.02123-.01233-.03903-.03013-.05889-.04519-.01712-.01369-.03697-.02465-.05204-.03971l-.00137-.00205c-.0178-.01712-.03013-.03834-.04519-.05752-.01369-.01849-.03013-.03424-.04108-.05341l-.00068-.00205c-.01232-.02054-.01986-.04519-.02876-.06847-.0089-.02054-.02054-.03971-.02602-.06162v-.00068c-.00685-.02602-.00822-.05341-.01096-.08011-.00274-.02054-.00822-.04108-.00822-.06162V8.44244l-3.1805-1.8323-2.30269-1.32424v-.00068Zm6.03233-4.10418l-5.48251,3.15585,5.48114,3.15585,5.48182-3.15653-5.48182-3.15516h.00137Zm2.85115,19.69511l3.1805-1.83093V5.28522l-2.30269,1.32561-3.18118,1.83161v13.76002l2.30338-1.32629Zm16.88984-15.97096l-5.48182,3.15585,5.48182,3.15585,5.48114-3.15653-5.48114-3.15516Zm-.54846,7.26139l-3.18118-1.83161-2.30269-1.32561v6.24733l3.1805,1.83093,2.30338,1.32629v-6.24733Zm-12.6138,14.07841l8.0406-4.59032,4.01927-2.29379-5.47771-3.15379-6.3069,3.63104-5.74817,3.30922,5.47292,3.09765Z"/>
    <path d="M118.37647,34.99778c-2.09861-.90715-4.06239-3.21268-4.06708-5.57171-.00572-2.57197,1.62422-4.75557,3.65146-6.1906-.24371,.92078-.37664,1.76301,.22715,2.58662,.56129,.76573,1.54435,1.13782,2.4726,.93587,2.16895-.47483,2.26846-2.8592,.98262-4.24836-1.27133-1.37567-2.50118-2.92955-2.01727-4.92454,.24225-1.00006,.8563-1.93681,1.63419-2.60641-.59793,1.57132,1.10118,3.12094,2.22068,3.89283,1.94194,1.33918,4.07264,2.35126,5.85822,3.92111,1.87819,1.64987,3.26515,3.88066,2.98509,6.46802-.30351,2.80439-2.53196,4.75484-5.03153,5.73951,5.28198-1.16581,10.73968-5.26528,10.85149-11.1232,.09262-4.81932-3.21342-8.52823-7.30878-10.6516l-.21397-.1168c.1124,.27273,.14919,.50472,.14494,.71238,.03664-.15315,.06155-.31054,.06859-.47292-.001,.19291-.0262,.38492-.07503,.57155l.00645-.09863c-.06081,.25586-.16325,.49999-.30321,.72264l.06009-.06463c-.81702,1.35515-3.02891,1.64943-4.12159,.24621-1.75656-2.25717,.03679-4.6908,.28768-7.08104C127.00332,4.64844,125.12469,1.74029,122.79541,0c1.28291,2.0753-.40726,4.82093-1.75949,6.3559-1.31119,1.48793-2.90581,2.73024-4.35329,4.08217-1.5549,1.45202-3.04972,2.98157-4.32779,4.68581-2.55614,3.41111-4.12101,7.70124-2.97102,11.95678,1.14925,4.25261,4.83295,6.95969,8.99279,7.91696l-.00015,.00015Z"/>
    <g>
      <path d="M204.93924,10.32427c-.79493-.15038-1.58985,.30076-2.32031,1.39649-.60157,.85938-.98829,1.74026-1.18164,2.66404-.10742,.51566-.15039,1.07422-.15039,1.63283,0,.64453,.15039,1.35353,.4082,2.04102,.32227,.88088,.77345,1.35353,1.31056,1.46095,.55859,.12887,1.16015-.12893,1.80468-.709,.8164-.73045,1.37501-1.82617,1.69727-3.30858,.10742-.51566,.15039-1.07422,.15039-1.67579,0-.64453-.15039-1.35353-.40821-2.04102-.32227-.88088-.77343-1.35353-1.31054-1.46095Z"/>
      <path d="M208.03299,1.12894h-44.77346c-2.83594,0-5.13477,2.32032-5.1133,5.1348V23.34383c0,2.83593,2.29883,5.13475,5.13477,5.13475h21.2051l9.68946,5.3926-2.21289-5.3926h16.04884c2.83594,0,5.13476-2.29882,5.13476-5.13475V6.26374c0-2.83598-2.29882-5.1348-5.11328-5.1348Zm-27.09181,22.42974c.04296,.55856-.04297,1.05271-.25782,1.4824-.25782,.49415-.66602,.75195-1.18164,.79491-.58008,.04296-1.18164-.21484-1.76172-.83787-2.08399-2.12699-3.73829-5.30663-4.94141-9.5176-1.46094,2.85743-2.53516,5.00587-3.22266,6.44532-1.31054,2.53517-2.42773,3.82423-3.37305,3.8887-.60156,.04296-1.11719-.4727-1.56836-1.54692-1.13867-2.92185-2.36328-8.59376-3.69532-16.97267-.10742-.58007,.02149-1.09567,.34376-1.4824,.32227-.42969,.77343-.64453,1.41796-.68749,1.13867-.08597,1.7832,.45114,1.95509,1.61133,.68749,4.68361,1.46094,8.63671,2.25586,11.88088l4.89844-9.32426c.45117-.85938,1.00977-1.28906,1.67578-1.33202,.98828-.06446,1.58985,.55862,1.82617,1.86913,.53711,2.94335,1.26758,5.47852,2.10547,7.62696,.58008-5.67186,1.56836-9.7754,2.94336-12.28906,.34375-.62303,.83788-.94529,1.48242-.9883,.51563-.04296,.98829,.10742,1.41798,.45119s.64453,.75195,.6875,1.26756c.02148,.40823-.04297,.7305-.21484,1.07422-.88087,1.61133-1.58985,4.31838-2.16993,8.07815-.55859,3.65235-.75195,6.48828-.62304,8.50784Zm13.72852-3.52347c-1.35351,2.23441-3.09374,3.35159-5.26368,3.35159-.36524,0-.77343-.04296-1.20312-.12893-1.56836-.34372-2.77149-1.18164-3.56642-2.59958-.70898-1.22465-1.07422-2.70705-1.07422-4.42581,0-2.29882,.58008-4.4043,1.74024-6.29494,1.37499-2.23436,3.11524-3.35153,5.26368-3.35153,.36524,0,.77343,.04296,1.20312,.12887,1.54688,.34377,2.77149,1.18164,3.56642,2.59963,.70898,1.20309,1.07422,2.66404,1.07422,4.38279,0,2.32032-.58008,4.42581-1.74024,6.3379Zm13.98635,0c-1.35353,2.23441-3.09376,3.35159-5.26368,3.35159-.36524,0-.77345-.04296-1.20313-.12893-1.56836-.34372-2.77149-1.18164-3.5664-2.59958-.709-1.22465-1.07422-2.70705-1.07422-4.42581,0-2.29882,.58008-4.4043,1.74023-6.29494,1.37501-2.23436,3.11524-3.35153,5.26368-3.35153,.36524,0,.77345,.04296,1.20313,.12887,1.56836,.34377,2.77148,1.18164,3.5664,2.59963,.70898,1.20309,1.09571,2.66404,1.07422,4.38279,0,2.32032-.58008,4.42581-1.74023,6.3379Z"/>
      <path d="M192.24196,11.78522c-.32227-.88088-.77343-1.35353-1.31054-1.46095-.79493-.15038-1.58985,.30076-2.32031,1.39649-.60157,.85938-.98829,1.74026-1.18164,2.66404-.10742,.51566-.15039,1.07422-.15039,1.63283,0,.64453,.15039,1.35353,.4082,2.04102,.32227,.88088,.77345,1.35353,1.31056,1.46095,.55859,.12887,1.16015-.12893,1.80468-.709,.8164-.73045,1.37501-1.82617,1.69727-3.30858,.10742-.51566,.17187-1.07422,.15039-1.67579,0-.64453-.15039-1.35353-.40821-2.04102Z"/>
    </g>
    <g>
      <g>
        <path class="uuid-97729946-4924-45fa-b33f-6a4498d1dbbf" d="M260.33086,34.34232c-.18148,0-.36211-.04743-.52091-.13941l-1.65838-.98117c-.24749-.13857-.12662-.18764-.04498-.21611,.33039-.11466,.39721-.14106,.74981-.34108,.0367-.02065,.0854-.0128,.12332,.00946l1.27402,.7564c.0462,.02559,.11137,.02559,.15386,0l4.96696-2.86685c.0462-.0264,.07589-.07957,.07589-.13443v-5.73206c0-.05609-.02969-.10846-.07712-.13692l-4.96493-2.86436c-.04578-.02682-.10681-.02682-.15301,0l-4.96366,2.86521c-.04827,.02762-.07876,.08164-.07876,.13608v5.73206c0,.05486,.03049,.10681,.07834,.13278l1.36064,.78613c.73824,.36912,1.19027-.06559,1.19027-.50237v-5.65946c0-.07999,.06436-.14309,.14435-.14309h.62983c.07877,0,.14393,.0631,.14393,.14309v5.65946c0,.98531-.53658,1.55035-1.47074,1.55035-.28706,0-.5131,0-1.14411-.31097l-1.30248-.74981c-.32169-.186-.52091-.53371-.52091-.90612v-5.73206c0-.37242,.19922-.72012,.52091-.90528l4.96696-2.87015c.3143-.17776,.73208-.17776,1.04389,0l4.96658,2.87015c.32169,.186,.52171,.53286,.52171,.90528v5.73206c0,.37242-.20002,.71886-.52171,.90612l-4.96658,2.86766c-.1588,.09198-.33901,.13941-.52298,.13941Z"/>
        <path class="uuid-97729946-4924-45fa-b33f-6a4498d1dbbf" d="M261.86511,30.39323c-2.17351,0-2.62887-.99768-2.62887-1.8345,0-.07961,.06394-.14313,.14355-.14313h.64216c.07175,0,.13156,.05157,.14271,.12167,.09693,.65369,.38601,.98366,1.70045,.98366,1.04638,0,1.49181-.23672,1.49181-.79188,0-.32005-.12624-.55761-1.75244-.71683-1.35899-.13443-2.19956-.43471-2.19956-1.52189,0-1.0022,.84467-1.59985,2.26101-1.59985,1.59115,0,2.37851,.55225,2.47831,1.73719,.00372,.04084-.01073,.08003-.03793,.11053-.02724,.02847-.06517,.04578-.10516,.04578h-.64465c-.06681,0-.12581-.04743-.13941-.11217-.15466-.68794-.53079-.90777-1.55115-.90777-1.14246,0-1.27528,.39801-1.27528,.69618,0,.36131,.15673,.46647,1.69927,.67063,1.5264,.20171,2.25147,.4875,2.25147,1.56028,0,1.08223-.9024,1.7021-2.47628,1.7021Z"/>
      </g>
      <path class="uuid-97729946-4924-45fa-b33f-6a4498d1dbbf" d="M269.02721,24.38175c0,.52669-.43061,.95727-.95727,.95727-.52175,0-.95726-.42542-.95726-.95727,0-.54194,.44581-.95748,.95726-.95748,.51677,0,.95727,.41554,.95727,.95748Zm-1.75987-.00266c0,.44582,.35962,.80548,.80011,.80548,.44586,0,.80548-.36726,.80548-.80548,0-.44565-.36456-.80016-.80548-.80016-.43551,0-.80011,.34936-.80011,.80016Zm.44295-.53434h.36997c.12661,0,.3749,0,.3749,.28377,0,.19757-.12662,.23799-.20293,.26333,.14723,.01014,.15715,.10643,.17734,.24314,.0103,.08599,.02559,.23304,.05571,.28356h-.22768c-.00536-.05051-.04084-.32418-.04084-.33922-.01482-.06086-.03548-.09114-.11133-.09114h-.18726v.43036h-.20787v-1.07379Zm.20293,.47103h.16704c.1365,0,.16209-.09612,.16209-.15179,0-.14706-.10149-.14706-.15715-.14706h-.17197v.29884Z"/>
      <path class="uuid-9740ec79-de30-4664-8309-b8ef3a3e84cb" d="M244.94989,11.91594c0-.22891-.12045-.43927-.31802-.55267l-5.26597-3.03059c-.08907-.05237-.18891-.07961-.28993-.08375h-.05444c-.10064,.00414-.20044,.03138-.29078,.08375l-5.26601,3.03059c-.1963,.1134-.3184,.32376-.3184,.55267l.01157,8.16045c0,.11344,.05896,.21902,.1588,.27469,.09773,.05858,.21856,.05858,.31591,0l3.12959-1.79205c.19795-.11754,.3184-.32499,.3184-.55182v-3.81255c0-.22726,.12041-.43762,.31755-.5506l1.33259-.76755c.09938-.05735,.20787-.0854,.31882-.0854,.10846,0,.21983,.02804,.31633,.0854l1.33217,.76755c.19715,.11297,.31798,.32334,.31798,.5506v3.81255c0,.22684,.1221,.43555,.31882,.55182l3.12874,1.79205c.09815,.05858,.22067,.05858,.31798,0,.09693-.05566,.158-.16125,.158-.27469l.0103-8.16045Z"/>
      <path class="uuid-9740ec79-de30-4664-8309-b8ef3a3e84cb" d="M270.28814,.69803c-.09857-.05482-.21881-.05359-.31616,.00351-.09714,.05714-.15694,.1615-.15694,.27426V9.05732c0,.0794-.04249,.15301-.11112,.1928-.06888,.03983-.15386,.03983-.22274,0l-1.31895-.75991c-.19677-.1134-.43885-.11319-.63557,.00021l-5.26808,3.04027c-.19693,.11365-.31819,.32359-.31819,.55081v6.0818c0,.22726,.12125,.4372,.31802,.55102l5.26783,3.04255c.19693,.11365,.43944,.11365,.63637,0l5.26868-3.04255c.19677-.11382,.31802-.32376,.31802-.55102V3.00297c0-.23055-.12476-.4432-.32625-.55558l-3.13491-1.74936Zm-.48877,15.46702c0,.05672-.03032,.1093-.07961,.13755l-1.80874,1.04262c-.04908,.02825-.10968,.02825-.15875,0l-1.80878-1.04262c-.04929-.02825-.07957-.08083-.07957-.13755v-2.08857c0-.05672,.03028-.1093,.0794-.13777l1.80874-1.04469c.04929-.02847,.10989-.02847,.15918,0l1.80874,1.04469c.04908,.02847,.0794,.08105,.0794,.13777v2.08857Z"/>
      <g>
        <path class="uuid-9740ec79-de30-4664-8309-b8ef3a3e84cb" d="M287.82999,14.02183c.19592-.11382,.31654-.32334,.31654-.55001v-1.47382c0-.22663-.12062-.43636-.31675-.55018l-5.23421-3.03904c-.19693-.11445-.44007-.11466-.63743-.00084l-5.26618,3.04027c-.19677,.11365-.31802,.32355-.31802,.55081v6.08015c0,.22869,.12273,.43965,.32131,.55267l5.23341,2.98211c.19301,.11015,.42956,.11137,.62379,.00351l3.16545-1.75945c.10043-.05587,.16294-.16125,.16353-.27591,.00084-.11466-.06018-.22084-.1596-.27798l-5.29959-3.0417c-.099-.05672-.15981-.16209-.15981-.27595v-1.90545c0-.11361,.06061-.21877,.15918-.27549l1.64935-.95089c.09815-.05672,.2194-.05672,.31755,0l1.65019,.95089c.09857,.05672,.15918,.16188,.15918,.27549v1.49921c0,.11386,.06086,.21902,.15943,.27574,.09857,.05689,.22004,.05647,.3184-.00063l3.1543-1.83348Z"/>
        <path class="uuid-b24c0bd5-5912-4bcf-b07f-b1aa7237ba2c" d="M282.1992,13.73705c.03776-.02188,.08434-.02188,.1221,0l1.01086,.58316c.03776,.02188,.06103,.06208,.06103,.10579v1.16721c0,.04371-.02327,.08392-.06103,.10579l-1.01086,.58316c-.03776,.02188-.08434,.02188-.1221,0l-1.01006-.58316c-.03776-.02188-.06103-.06208-.06103-.10579v-1.16721c0-.04371,.02327-.08392,.06103-.10579l1.01006-.58316Z"/>
      </g>
      <g>
        <polygon class="uuid-6adb7a7e-4c4e-4d24-ac17-da7d340b9138" points="252.95476 7.32833 252.88277 7.36954 252.97888 7.36954 252.95476 7.32833"/>
        <path class="uuid-6adb7a7e-4c4e-4d24-ac17-da7d340b9138" d="M259.46636,18.45268l-.14398-.24597c.01218-.04716,.01966-.09573,.01966-.14539v-6.05087c0-.05071-.00895-.09987-.02186-.14791-.00396-.01476-.00922-.02867-.01423-.04305-.01194-.03393-.02662-.06644-.04423-.09791-.00757-.01362-.01423-.02724-.0228-.04032-.02583-.03936-.05468-.07677-.08831-.1102l-.00197-.0015c-.04159-.04103-.08793-.07748-.13893-.10689l-3.43738-1.9781-1.81031-1.04491c-.06025-.03481-.12532-.05515-.19156-.0685l-.00672-.00247c-.00484-.00097-.00986,.00053-.01473-.00032-.05494-.00913-.10985-.01089-.16517-.0054-.01409,.00114-.02773-.00123-.04173,.00082-.01115,.00161-.02119,.00663-.03225,.00883-.041,.00907-.08012,.02442-.1191,.04173-.02371,.00995-.04969,.0123-.0722,.0253l-5.24948,3.02301c-.1959,.11296-.33841,.32177-.33841,.54799v6.05066c0,.06841,.0167,.13386,.04056,.19696,.00637,.0167,.01464,.03173,.02248,.04787,.02289,.04772,.05077,.09189,.08464,.13327,.00619,.00757,.00907,.0172,.01558,.02451l.01476,.01218c.04807,.05127,.10102,.09802,.16183,.13321l4.52813,2.60348,.73065,.42197c.05852,.03378,.12153,.05412,.18574,.06771,.01309,.00282,.02586,.00408,.03906,.00608,.01365,.00205,.02647,.00305,.04021,.00426,.03557,.00291,.07049,.0027,.10604-.00038,.01238-.00097,.0248,.00264,.03713,.00097l.10442,.19026,5.82447-3.37155,.03472-.0201-.03472-.05931Z"/>
      </g>
    </g>
    <path class="uuid-9740ec79-de30-4664-8309-b8ef3a3e84cb" d="M308.15916,21.00234c0,3.864,10.03732,7.00031,22.42084,7.00031h0v6.99747c-12.38352,0-22.42084-3.13347-22.42084-6.99747h0v-7.00031Zm44.84878,0v6.99889c0,1.64972-1.83413,3.16326-4.88816,4.36048h0l-17.5412-4.36048v-6.99889l17.5412,4.35906c3.05404-1.1958,4.88958-2.70934,4.88816-4.35906h0ZM330.58,0C342.96494,0,353.00794,3.13915,353.00794,7.00031h0v7.00456c0,1.64404-1.83413,3.16326-4.88674,4.3548h0l-17.5412-4.3548v6.99747c-12.38352,0-22.42084-3.13489-22.42084-6.99747h0V7.00031C308.15916,3.13915,318.19648,0,330.58,0Z"/>
    <path id="uuid-0aab2353-592e-457f-bbb8-d35d2201df53" data-name="path1052" d="M400.55002,4.98073c-5.70094,0-10.53295,3.86486-12.03056,9.10131-1.30157-2.77749-4.12213-4.72336-7.37091-4.72336-4.46785,0-8.14054,3.67269-8.14054,8.14054s3.67269,8.14221,8.14054,8.14221c3.24879,0,6.06934-1.94705,7.37091-4.72503,1.4976,5.23685,6.32962,9.10299,12.03056,9.10299,5.65878,0,10.46615-3.80784,12.00206-8.98561,1.32562,2.71491,4.11126,4.60766,7.3139,4.60766,4.46785,0,8.14222-3.67437,8.14222-8.14221s-3.67436-8.14054-8.14222-8.14054c-3.20264,0-5.98829,1.89156-7.3139,4.60599-1.5359-5.17737-6.34328-8.98394-12.00206-8.98394Zm0,4.77869c4.30357,0,7.74148,3.43625,7.74148,7.7398s-3.43792,7.74148-7.74148,7.74148-7.73979-3.43793-7.73979-7.74148,3.43625-7.7398,7.73979-7.7398Zm-19.40147,4.37795c1.88548,0,3.36352,1.47636,3.36352,3.36185s-1.47804,3.36352-3.36352,3.36352-3.36186-1.47804-3.36186-3.36352,1.47638-3.36185,3.36186-3.36185Zm38.71743,0c1.8855,0,3.36353,1.47636,3.36353,3.36185s-1.47804,3.36352-3.36353,3.36352-3.36185-1.47804-3.36185-3.36352,1.47638-3.36185,3.36185-3.36185Z"/>
    <g>
      <polygon points="463.17763 0 448.00722 8.75672 448.00722 26.24722 452.3378 28.75078 452.30722 11.25645 463.14705 4.99947 473.98688 11.25645 473.98688 28.74314 478.31746 26.24722 478.31746 8.74143 463.17763 0"/>
      <polygon points="465.32572 28.74696 463.16234 30.00447 460.98749 28.75843 460.98749 11.25645 456.66073 13.75619 456.66838 31.25052 463.15852 35.00012 469.6563 31.25052 469.6563 13.75619 465.32572 11.25645 465.32572 28.74696"/>
    </g>
    <g id="uuid-f1410174-0978-4923-b8a6-6e52344ef365" data-name="Livello 2">
      <g id="uuid-641b204f-466d-4a48-805b-f4c66dbcd028" data-name="Livello 1-2">
        <path d="M517.2206,7.45402C514.75807,4.99265,512.40857,2.64628,511.70934,0c-.69928,2.64628-3.04915,4.99265-5.51127,7.45402-3.6932,3.69087-7.88053,7.87392-7.88053,14.14776-.0034,7.3963,5.98974,13.39494,13.38604,13.39834,7.3963,.0034,13.39494-5.98974,13.39834-13.38604,0-.0041,0-.0082,0-.0123,0-6.27344-4.18698-10.45689-7.88131-14.14776m-13.21096,17.26837c-.82115-.02788-3.8517-5.25145,1.77045-10.81324l3.7204,4.0639c.12495,.12344,.12617,.32479,.00273,.44974-.0087,.00881-.01791,.0171-.02757,.02483-.88778,.91052-4.67172,4.70505-5.14204,6.01711-.09707,.27082-.23886,.26058-.32398,.25766m7.70012,6.8845c-2.54376,.00002-4.6059-2.06209-4.60592-4.60585v-.00004c.01701-1.11682,.42299-2.19272,1.14801-3.04235,.8305-1.01555,3.45729-3.87187,3.45729-3.87187,0,0,2.58657,2.89825,3.45109,3.86218,.7531,.83715,1.16533,1.92602,1.15544,3.05202,0,2.54377-2.06214,4.60591-4.60592,4.60592m8.81571-7.46917c-.09927,.21711-.32446,.57955-.6284,.59061-.54177,.01973-.59966-.25787-1.0001-.85051-.87915-1.30099-8.5514-9.31939-9.98644-10.87014-1.26225-1.36395-.17775-2.32554,.32532-2.82947,.63114-.63226,2.47343-2.47341,2.47343-2.47341,0,0,5.49325,5.21199,7.78153,8.7732s1.49967,6.6428,1.03466,7.65972"/>
      </g>
    </g>
    <g>
      <path d="M551.36369,17.61688l-.65421-.65421c-2.10281-2.10281-2.71029-5.04675-1.96262-7.71031-2.10281-.46729-3.64487-2.33646-3.64487-4.57945C545.10198,2.10281,547.20479,0,549.7749,0,552.11135,0,554.02725,1.68225,554.40108,3.92525c2.52337-.60748,5.28039,.09346,7.24302,2.05608l.28037,.28037-3.45796,3.45796-.28037-.28037c-1.1215-1.1215-2.94393-1.1215-4.06543,0s-1.1215,2.94393,0,4.06543l7.75704,7.75703-3.45796,3.45796-3.64487-3.64487-3.41123-3.45795Z"/>
      <path d="M555.2422,13.7851l7.75704-7.75703c2.05608-2.05608,5.04675-2.71029,7.66358-1.96262,.3271-2.28973,2.28973-4.01871,4.62618-4.01871,2.5701,0,4.67291,2.10281,4.67291,4.67291,0,2.38318-1.77571,4.34581-4.06543,4.62618,.74767,2.61683,.09346,5.56077-1.96262,7.61685l-.28037,.28037-3.3645-3.45796,.28037-.28037c1.1215-1.1215,1.1215-2.94393,0-4.06543-1.1215-1.1215-2.94394-1.1215-4.06543,0l-7.75703,7.75704-3.50469-3.41123Z"/>
      <path d="M570.803,31.21506c-2.66356,.79439-5.65422,.18692-7.75703-1.91589l-.28037-.28037,3.45796-3.45796,.28037,.28037c1.1215,1.1215,2.94394,1.1215,4.06543,0,1.1215-1.1215,1.1215-2.94394,0-4.06543l-7.75703-7.75703,3.45796-3.45796,7.80377,7.80376c1.96262,1.96262,2.66356,4.76637,2.05608,7.33647,2.28973,.3271,4.0187,2.28973,4.0187,4.62618,0,2.5701-2.10281,4.67291-4.67291,4.67291-2.33646-.04673-4.25235-1.68225-4.67292-3.78506Z"/>
      <path d="M569.44786,21.4954l-7.75703,7.75703c-2.00935,2.00935-4.8131,2.66356-7.33647,2.05608-.46729,2.10281-2.33646,3.64487-4.57945,3.64487-2.5701,0-4.67291-2.10281-4.67291-4.67291,0-2.19627,1.54206-4.06543,3.59814-4.53272-.65421-2.61683,0-5.42058,2.00935-7.42993l.28037-.28037,3.45796,3.45796-.28037,.28037c-1.1215,1.1215-1.1215,2.94394,0,4.06543s2.94393,1.1215,4.06543,0l7.75703-7.75703,3.45796,3.41122Z"/>
    </g>
    <g>
      <path d="M621.02321,22.24847c-.2362-3.11759-1.24177-5.13843-1.73145-6.28384-.48937-1.14509-1.24193-2.2171-1.24241-2.21532-.00146,.00485-.67755,3.64818-1.89312,6.28416-.20289,.44022-.47239,.98989-.74432,1.43253h0c-.83921,1.48168-2.05689,2.89918-2.78261,4.33591-.71958,1.42396-.85312,2.83419-.78619,4.43744,.06742,1.61214,.4399,3.19341,.7975,4.76077,1.34798-.29084,2.5212-.78845,3.53614-1.42461,2.6709-1.67455,4.28482-4.35272,4.74348-7.23816,0,0,.02231-.11721,.03233-.26012,.20677-2.23004,.13839-2.93361,.07065-3.82876Z"/>
      <path d="M621.02321,22.24847c-.2362-3.11759-1.24177-5.13843-1.73145-6.28384-.48937-1.14509-1.24193-2.2171-1.24241-2.21532l-.00016,.00081,.00016-.00097-.17961-.26707c-3.93886-5.52918-11.49275-8.2898-17.87505-5.7311-.30733,3.87565,1.48944,10.54393,8.04456,12.40391,2.65005,.81529,4.77209,.60383,7.37283,1.31096l-.00016,.00016s2.64358,.92134,4.18152,2.30295c.69177,.62129,1.38452,1.439,1.34976,2.41159,.21906-2.31459,.1489-3.02269,.08002-3.93207Z"/>
      <g>
        <path class="uuid-9740ec79-de30-4664-8309-b8ef3a3e84cb" d="M618.16073,10.50464c-.93136-2.7249-.53673-4.55077,1.16724-7.09169C620.14067,2.20061,621.54378,.79443,622.77358,0c4.96173,3.10918,6.79632,8.90042,4.97159,14.27892-1.32793,3.91348-2.5739,5.5544-5.72431,9.58088,.36715-4.31231-1.15058-7.30202-2.64067-10.62395-.37927-.8452-.90372-1.80728-1.21945-2.73121"/>
      </g>
      <g >
        <path d="M620.94319,26.18054c.03476-.97259-.65799-1.7903-1.34976-2.41159-1.53794-1.38161-4.18136-2.30295-4.18136-2.30295,.27193-.44265,.54142-.99231,.74432-1.43253,1.21557-2.63598,1.89167-6.27931,1.89312-6.28416,.00049-.00162,.75288,1.07024,1.24241,2.21532,.48969,1.14541,1.4951,3.16609,1.73145,6.28384,.06871,.90938,.13887,1.61748-.08019,3.93207Z"/>
      </g>
    </g>
    <g id="uuid-1dabc1f1-131a-4754-b03f-e012e9fa6195" data-name="g12">
      <circle id="uuid-90ed4282-e14b-49b9-9d42-4cbe2d76d0fe" data-name="circle14" cx="665.93621" cy="17.50006" r="17.50006"/>
      <path id="uuid-5ca0fa10-50f2-426d-9127-caa345d72e74" data-name="path16" class="uuid-f24ddb71-f215-456d-a3c5-482b98494b5c" d="M673.58719,6.47525c-1.77731,.06234-3.3302,1.04232-4.48411,2.39759-1.27984,1.48618-2.13015,3.24978-2.74358,5.04891-1.09656-.89894-1.94251-2.0622-3.70174-2.56965-1.36088-.39087-2.78846-.23003-4.10197,.7487-.62278,.46505-1.05105,1.16763-1.2549,1.82781-.52864,1.71684,.5542,3.24479,1.04669,3.79401l1.07536,1.1508c.22193,.22629,.75494,.81603,.49498,1.66074-.2824,.91951-1.38956,1.51361-2.52601,1.16388-.50745-.1571-1.23682-.53425-1.07287-1.06539,.06733-.21819,.22318-.38214,.30734-.56854,.07668-.16208,.11284-.28302,.1359-.35409,.20759-.67826-.07606-1.55974-.80169-1.78354-.67764-.20697-1.36961-.04239-1.63829,.8285-.30547,.99183,.16894,2.78784,2.70804,3.57146,2.97486,.91453,5.49152-.70631,5.84811-2.81839,.22505-1.32285-.37342-2.30658-1.46748-3.57145l-.89146-.98559c-.54049-.54049-.72564-1.46-.16707-2.16631,.47191-.59659,1.14331-.85094,2.24486-.55233,1.6065,.43513,2.32279,1.55039,3.51722,2.44996-.49311,1.61772-.81603,3.24168-1.10716,4.69918l-.17891,1.08472c-.85468,4.47975-1.50613,6.93906-3.20053,8.35105-.341,.24375-.82975,.60657-1.56473,.63213-.38588,.01247-.50994-.2531-.51617-.36905-.00873-.27055,.22006-.39461,.37155-.51618,.22629-.12405,.56854-.32853,.54547-.98373-.02556-.77676-.66766-1.44878-1.59528-1.41699-.69634,.02307-1.75549,.67701-1.71559,1.87643,.04115,1.23682,1.19443,2.16506,2.93372,2.10522,.93011-.03055,3.00603-.40895,5.0514-2.84083,2.38076-2.78846,3.04718-5.98463,3.54839-8.32363l.55857-3.0877c.31108,.03678,.64272,.06234,1.0043,.07044,2.96551,.06359,4.44858-1.47309,4.47164-2.59022,.01434-.67639-.44386-1.34156-1.08596-1.32659-.45882,.01309-1.03609,.31856-1.17449,.95318-.13528,.6234,.94383,1.18571,.10037,1.73243-.59909,.38838-1.6732,.66143-3.18557,.4395l.27554-1.52047c.56044-2.8826,1.25366-6.42849,3.88004-6.5139,.19138-.00997,.89208,.00873,.90829,.47129,.00437,.1546-.03366,.1945-.21445,.54859-.18515,.27554-.25435,.51056-.24624,.78112,.02618,.73561,.58537,1.21937,1.39517,1.19069,1.08284-.03553,1.39454-1.0897,1.37709-1.63206-.04488-1.27485-1.38769-2.07904-3.16375-2.02168Z"/>
    </g>
    <path d="M729.45983,22.23449c-.25813-1.88029-1.06566-3.67536-1.82821-5.43487-.51862-1.19355-1.0704-2.37525-1.62928-3.55221-.78859-1.66481-1.53692-3.35095-2.40839-4.97309-1.30959-2.4392-2.70441-4.83104-4.0732-7.23942C719.33839,.71518,719.10869,.42154,718.81977,0c-.80753,1.38776-1.53929,2.64762-2.30182,3.95484-.89989-1.2575-1.48009-2.6689-2.4676-3.94536-.52573,.90227-.99462,1.67429-1.43274,2.46527-1.06092,1.90873-2.17631,3.78665-3.10463,5.77113-.77911,1.66718-1.7169,3.25856-2.52443,4.91389-.71992,1.47772-1.41616,2.97203-2.01529,4.50184-.64177,1.63873-1.16986,3.32014-1.53219,5.04889-.00236,.95674-.00236,1.91342-.00473,2.87253,.20603,1.58907,.71281,3.09517,1.60086,4.4095,1.22906,1.81397,2.80861,3.24434,4.89257,4.09921,1.8661,.76496,3.73456,1.11307,5.73564,.68205,.52335-.1113,1.1225-.135,1.62927,.00474,1.63876,.45466,3.22068,.135,4.77655-.28891,1.21958-.33152,2.2971-.99224,3.32012-1.77373,3.50012-2.67838,4.63919-6.29927,4.06848-10.48139Zm-13.07924,10.24694c-1.70506,.49733-3.45748,.47126-5.09387-.15159-1.47061-.55885-2.81571-1.42088-3.81033-2.72567-.8028-1.05387-1.37589-2.20475-1.71453-3.48595-.31734-1.19355-.36943-2.4226-.06157-3.57823,.6015-2.26158,1.39484-4.46397,2.45102-6.56922,.76965-1.53461,1.41851-3.13067,2.20001-4.66048,1.1817-2.31842,2.43207-4.60134,3.7677-7.11864,.38127,.72466,.6465,1.23379,.91884,1.74055,.9662,1.78796,1.97029,3.55932,2.89386,5.37335,.64177,1.26455,1.1746,2.58599,1.7548,3.88136,.54704,1.21957,1.11303,2.43445,1.63638,3.6635,.64651,1.51801,1.20065,3.09043,1.3451,4.7268,.15156,1.71216-.24628,3.38882-1.14143,4.88313-1.19355,1.99395-2.90808,3.36749-5.14598,4.0211Zm11.05447-7.68466c-.09709,1.26698-.47126,2.42977-1.05618,3.50492-.74123,1.36399-1.77373,2.49834-3.1591,3.27273-.59203,.33152-1.20302,.58966-2.01292,.89042,.56836-.70096,1.00883-1.22668,1.42799-1.76662,1.77136-2.27812,2.48655-4.87365,2.17395-7.72016-.17524-1.60318-.77439-3.10934-1.33326-4.62255-.95672-2.59316-2.21895-5.04889-3.34618-7.56625-.44047-.98275-.98751-1.91579-1.49192-2.86778-.28181-.53757-.5731-1.07277-.87384-1.63168,.34811-.62042,.68675-1.22194,1.07513-1.91105,.45942,.75068,.93068,1.42088,1.30011,2.14312,1.2788,2.50077,2.46287,5.05126,3.79376,7.52358,.93305,1.73112,1.66007,3.5451,2.37288,5.36381,.67491,1.71933,1.27642,3.46462,1.12959,5.38752Z"/>
    <g>
      <path class="uuid-3ed69926-0abe-4c2b-90c5-af729971d01a" d="M760.93647,26.85595c.27963-.12816,.55926-.23302,.85054-.34954,.32623-.11651,.65247-.23302,.9787-.33788,.40779-.12816,.82723-.23302,1.24667-.32623,.57091-.11651,1.14182-.20972,1.71272-.26798-.32623,1.01365-.67577,2.0273-1.07191,3.02931,.01165,.19807,.0233,.38449,.03495,.58256,.78063-.15146,1.58456-.23302,2.41179-.23302s1.63116,.08156,2.41179,.23302c0-.19807,.01165-.39614,.03495-.58256-.38449-1.002-.74567-2.01565-1.07191-3.0293,.57091,.05826,1.15347,.13981,1.71272,.26798,.41944,.09321,.82723,.19807,1.24668,.32623,.32623,.10486,.65247,.20972,.9787,.33788,.29128,.10486,.57091,.22137,.85053,.34954,1.9807,.88549,3.78663,2.19042,5.26633,3.89149,3.71672-3.20407,6.07026-7.9461,6.07026-13.24738C784.6,7.84124,776.77041,0,767.09994,0,757.44112,0,749.59988,7.82959,749.59988,17.50006c0,5.28963,2.35354,10.03166,6.07026,13.24738,1.4797-1.70107,3.28563-3.006,5.26633-3.89149Z"/>
      <path class="uuid-b02695c5-b372-4340-b12a-5aba8df0443b" d="M762.08994,30.02507c.81558-.36119,1.68942-.64081,2.58656-.81558,0-.19807-.01165-.39614-.03495-.58256,.38449-1.002,.74567-2.01565,1.07191-3.0293-.57091,.05826-1.15347,.13981-1.71272,.26798-.41944,.09321-.82723,.19807-1.24667,.32623-.32623,.10486-.65247,.20972-.9787,.33788l1.26998,.31458-.9554,3.18077Z"/>
      <path class="uuid-b02695c5-b372-4340-b12a-5aba8df0443b" d="M759.08393,31.90091c.03495-.32623,.0466-.65247,.0466-.99035,0-.19807,.16312-.36119,.36119-.36119h.31458l1.11851-3.70507c-1.9807,.88549-3.78663,2.19042-5.26633,3.89149,.81558,.71072,1.70107,1.33988,2.63317,1.88749,.26798-.24468,.5243-.48935,.79228-.72237Z"/>
      <path class="uuid-b02695c5-b372-4340-b12a-5aba8df0443b" d="M773.25176,26.85595l1.11851,3.70507h.31458c.19807,0,.36119,.16312,.36119,.36119,0,.33788,.0233,.66412,.0466,.99035,.26798,.23302,.53595,.46605,.78063,.72237,.94375-.54761,1.81758-1.17677,2.63317-1.88749-1.46805-1.70107-3.27398-3.006-5.25468-3.89149Z"/>
      <path class="uuid-b02695c5-b372-4340-b12a-5aba8df0443b" d="M771.11959,26.82099l1.26998-.31458c-.32623-.11651-.65247-.23302-.9787-.33788-.40779-.12816-.82723-.23302-1.24668-.32623-.57091-.11651-1.14181-.20972-1.71272-.26798,.32623,1.01365,.67577,2.0273,1.07191,3.02931-.01165,.19807-.0233,.38449-.03495,.58256,.90879,.17477,1.77098,.45439,2.58656,.81558l-.9554-3.18077Z"/>
      <path d="M767.08829,30.56102h2.47005c-.0466-.45439-.06991-.90879-.05826-1.35154-.78063-.15146-1.58456-.23302-2.41179-.23302s-1.63116,.08156-2.41179,.23302c.01165,.45439-.01165,.89714-.05826,1.35154h2.47005Z"/>
      <path d="M758.30331,32.62328c.19807,.11651,.40779,.23302,.61751,.34954,.06991-.34954,.12816-.71072,.16312-1.07191-.26798,.23302-.5243,.4777-.78063,.72237Z"/>
      <path d="M761.92682,30.56102h2.70307c.0466-.45439,.06991-.90879,.05826-1.35154-.90879,.17477-1.77098,.45439-2.58656,.81558l-.17477,.53595Z"/>
      <path d="M775.1043,31.90091c.03495,.36119,.09321,.72237,.16312,1.07191,.20972-.10486,.40779-.22137,.61751-.34954-.25632-.24468-.51265-.48935-.78063-.72237Z"/>
      <path d="M772.26141,30.56102l-.16312-.53595c-.81558-.36119-1.68942-.64081-2.58656-.81558-.01165,.45439,.01165,.89714,.05826,1.35154h2.69142Z"/>
      <path class="uuid-c8166fee-91b5-421d-a786-52a1cea598ef" d="M761.92682,30.56102l.16312-.53595,.96705-3.20407-1.26998-.31458c-.29128,.10486-.57091,.22137-.85054,.34954l-1.11851,3.70507h2.10886Z"/>
      <path class="uuid-c8166fee-91b5-421d-a786-52a1cea598ef" d="M772.09829,30.02507l.16312,.53595h2.10886l-1.11851-3.70507c-.27963-.12816-.55925-.23302-.85053-.34954l-1.26998,.31458,.96705,3.20407Z"/>
      <path class="uuid-912e1912-3bfb-4d98-91f3-baeacb6591fd" d="M759.85291,31.30669c.01165-.01165,.0233-.01165,.03495-.0233h-.03495v.0233Z"/>
      <path class="uuid-7f6cb932-b7a3-46d7-a666-11cd5523c757" d="M767.08829,31.28339h-7.20043c-.01165,.01165-.0233,.01165-.03495,.0233-.0233,.68742-.11651,1.35154-.26798,2.004,2.27198,1.08356,4.81193,1.68942,7.50335,1.68942v-3.71673h0Z"/>
      <path class="uuid-254de7a5-78d9-46fc-89f8-aa053c33cbc6" d="M774.33532,31.28339h-.03495c.01165,.01165,.0233,.01165,.03495,.0233v-.0233Z"/>
      <path class="uuid-c8166fee-91b5-421d-a786-52a1cea598ef" d="M774.30036,31.28339h-7.21207v3.71672c2.67977,0,5.23138-.60586,7.50335-1.68942-.15146-.65247-.24468-1.32823-.26798-2.004,0-.01165-.01165-.0233-.0233-.0233Z"/>
      <path class="uuid-ee514aff-fe31-423d-a645-6b8afb9e23a8" d="M775.1043,31.90091c-.03495-.32623-.0466-.65247-.0466-.99035,0-.19807-.16312-.36119-.36119-.36119h-15.21643c-.19807,0-.36119,.16312-.36119,.36119,0,.33788-.0233,.66412-.0466,.99035-.03495,.36119-.09321,.72237-.16312,1.07191,.22137,.11651,.44274,.23302,.66412,.33788,.15147-.65247,.24468-1.32823,.26798-2.004v-.0233h14.4824v.0233c.0233,.68742,.11651,1.35154,.26798,2.004,.22137-.10486,.44274-.22137,.66412-.33788-.06991-.34954-.11651-.71072-.15146-1.07191Z"/>
      <g>
        <path class="uuid-bfdad9a4-7ec9-422e-8e85-e6fbb44833dc" d="M772.98378,14.84359h0c.22137,.62916,.46605,1.26998,.59421,1.92244,0,.0466-.01165,.09321-.01165,.13981-.01165,.06991-.0233,.12816-.03495,.18642,.0233-.08156,.03495-.18642,.05826-.30293-.12816-.66412-.38449-1.30493-.60586-1.94575h0Z"/>
        <path class="uuid-bfdad9a4-7ec9-422e-8e85-e6fbb44833dc" d="M778.07534,18.80499c-.01165,0-.0233,.01165-.03495,.01165,.01165-.01165,.0233-.01165,.03495-.01165Z"/>
        <path class="uuid-bfdad9a4-7ec9-422e-8e85-e6fbb44833dc" d="M778.19186,18.71178l-.03495,.03495,.03495-.03495Z"/>
        <path class="uuid-bfdad9a4-7ec9-422e-8e85-e6fbb44833dc" d="M772.45948,14.38919c-.40779-.33788-.82723-.65247-1.26998-.92044h0c.44274,.26798,.86219,.57091,1.26998,.92044Z"/>
        <path class="uuid-bfdad9a4-7ec9-422e-8e85-e6fbb44833dc" d="M777.24811,19.50406c.01165,.01165,.0233,.03495,.03495,.0466,0-.0233-.0233-.03495-.03495-.0466Z"/>
        <path class="uuid-bfdad9a4-7ec9-422e-8e85-e6fbb44833dc" d="M773.51974,17.12722c-.01165,.05826-.0233,.10486-.03495,.13981l.03495-.13981Z"/>
        <path class="uuid-bfdad9a4-7ec9-422e-8e85-e6fbb44833dc" d="M771.80701,23.51206c-.26798,.44274-.44274,.87384-.53595,1.26998,.09321-.40779,.26798-.82723,.53595-1.26998,.09321-.15147,.17477-.29128,.25633-.43109-.08156,.12816-.16312,.27963-.25633,.43109q0-.01165,0,0Z"/>
        <path class="uuid-bfdad9a4-7ec9-422e-8e85-e6fbb44833dc" d="M772.98378,14.84359c.01165-.03495,.03495-.05826,.0466-.09321h0c-.0233,.03495-.03495,.05826-.0466,.09321l.31458,.27963-.31458-.27963Z"/>
        <path class="uuid-bfdad9a4-7ec9-422e-8e85-e6fbb44833dc" d="M770.56034,13.10757c-.0233-.01165-.0466-.0233-.05826-.03495,.0233,.01165,.03495,.0233,.05826,.03495Z"/>
        <path class="uuid-bfdad9a4-7ec9-422e-8e85-e6fbb44833dc" d="M770.65355,13.15417c-.0233-.01165-.0466-.03495-.06991-.0466,.01165,.0233,.0466,.03495,.06991,.0466Z"/>
        <path class="uuid-bfdad9a4-7ec9-422e-8e85-e6fbb44833dc" d="M777.97048,20.4245c.0233,.0233,.0466,.05826,.06991,.08156-.0233-.0233-.0466-.05826-.06991-.08156Z"/>
        <path class="uuid-bfdad9a4-7ec9-422e-8e85-e6fbb44833dc" d="M771.22445,15.11157c0,.18642-.01165,.37284-.0233,.5476,.01165-.17477,.0233-.36119,.0233-.5476Z"/>
        <path class="uuid-bfdad9a4-7ec9-422e-8e85-e6fbb44833dc" d="M771.15455,13.44545c-.05826-.03495-.23302-.12816-.38449-.22137,.15146,.08156,.31458,.17477,.38449,.22137Z"/>
        <path class="uuid-bfdad9a4-7ec9-422e-8e85-e6fbb44833dc" d="M770.75841,13.21243c-.03495-.0233-.06991-.0466-.10486-.05826,.03495,.0233,.06991,.0466,.10486,.05826Z"/>
        <path class="uuid-bfdad9a4-7ec9-422e-8e85-e6fbb44833dc" d="M775.68685,17.60492c.01165,.0233,.03495,.03495,.0466,.05826h0c0-.01165-.0233-.03495-.0466-.05826h0Z"/>
        <path class="uuid-bfdad9a4-7ec9-422e-8e85-e6fbb44833dc" d="M773.29836,15.12322c.23302,.20972,.46605,.43109,.68742,.65247-.23302-.22137-.45439-.44274-.68742-.65247Z"/>
        <path class="uuid-bfdad9a4-7ec9-422e-8e85-e6fbb44833dc" d="M777.85397,16.45145c.0466,0,.08156,.01165,.12816,.0233-.0466-.01165-.09321-.0233-.12816-.0233Z"/>
        <path class="uuid-bfdad9a4-7ec9-422e-8e85-e6fbb44833dc" d="M777.1782,17.32529c0,.0233-.01165,.03495-.01165,.05826,0-.0233,.01165-.03495,.01165-.05826Z"/>
        <path class="uuid-bfdad9a4-7ec9-422e-8e85-e6fbb44833dc" d="M778.01709,16.48641c.0233,.01165,.05826,.0233,.08156,.0466-.0233-.01165-.05826-.03495-.08156-.0466Z"/>
        <path class="uuid-bfdad9a4-7ec9-422e-8e85-e6fbb44833dc" d="M778.28506,16.71943c.01165,.01165,.0233,.0233,.0233,.03495-.01165-.01165-.01165-.0233-.0233-.03495Z"/>
        <path class="uuid-bfdad9a4-7ec9-422e-8e85-e6fbb44833dc" d="M777.38792,16.75438c.01165-.01165,.0233-.0233,.0233-.03495,0,.01165-.01165,.0233-.0233,.03495Z"/>
        <path class="uuid-bfdad9a4-7ec9-422e-8e85-e6fbb44833dc" d="M777.72581,16.47476c.03495-.01165,.08156-.0233,.12816-.0233-.04661,0-.09321,.01165-.12816,.0233Z"/>
        <path class="uuid-bfdad9a4-7ec9-422e-8e85-e6fbb44833dc" d="M774.61494,16.42815c-.10486-.11651-.22137-.22137-.32623-.33788,.11651,.10486,.22137,.22137,.32623,.33788Z"/>
        <path class="uuid-bfdad9a4-7ec9-422e-8e85-e6fbb44833dc" d="M777.85397,12.62987h0v1.61951l-.61751,2.85454v.01165h0l.61751-2.85454v-1.63116h0Z"/>
        <path class="uuid-bfdad9a4-7ec9-422e-8e85-e6fbb44833dc" d="M775.1975,17.04566c-.05826-.05826-.11651-.12816-.17477-.18642,.06991,.06991,.11651,.12816,.17477,.18642Z"/>
        <path class="uuid-bfdad9a4-7ec9-422e-8e85-e6fbb44833dc" d="M778.47148,17.11557c.01165,.0233,.01165,.0466,.0233,.06991h0c0-.03496-.01165-.04661-.0233-.06991h0Z"/>
        <path class="uuid-bfdad9a4-7ec9-422e-8e85-e6fbb44833dc" d="M777.14325,17.65152h0v-.03495c.01165,.0233,0,.0233,0,.03495Z"/>
        <path class="uuid-bfdad9a4-7ec9-422e-8e85-e6fbb44833dc" d="M777.6093,16.53301c.0233-.0233,.05826-.03495,.08156-.0466-.03496,.01165-.05826,.03495-.08156,.0466Z"/>
        <path class="uuid-bfdad9a4-7ec9-422e-8e85-e6fbb44833dc" d="M777.48113,16.63787c.0233-.03495,.05826-.05826,.09321-.08156-.03495,.0233-.06991,.05826-.09321,.08156Z"/>
        <path class="uuid-bfdad9a4-7ec9-422e-8e85-e6fbb44833dc" d="M778.49478,18.14087h0c-.01165,.05826-.03495,.11651-.05826,.17477,.0233-.0466,.04661-.10486,.05826-.17477h0Z"/>
        <path class="uuid-bfdad9a4-7ec9-422e-8e85-e6fbb44833dc" d="M757.17314,17.11557c.0233-.03495,.05826-.08156,.08156-.11651-.0233,.0466-.05826,.08156-.08156,.11651Z"/>
        <path class="uuid-bfdad9a4-7ec9-422e-8e85-e6fbb44833dc" d="M778.1336,16.55631c.03495,.0233,.05826,.05826,.09321,.08156-.03495-.0233-.05826-.05826-.09321-.08156Z"/>
        <path class="uuid-bfdad9a4-7ec9-422e-8e85-e6fbb44833dc" d="M757.67414,16.3932c.01165-.01165,.0233-.03495,.03495-.0466-.01165,.01165-.0233,.0233-.03495,.0466Z"/>
        <path class="uuid-bfdad9a4-7ec9-422e-8e85-e6fbb44833dc" d="M756.41582,18.51371c-.03495,.05826-.05826,.12816-.09321,.18642,.03495-.05826,.05826-.11651,.09321-.18642Z"/>
        <path class="uuid-bfdad9a4-7ec9-422e-8e85-e6fbb44833dc" d="M756.03133,19.41085c0,.01165-.01165,.0233-.01165,.03495,0-.01165,.01165-.0233,.01165-.03495Z"/>
        <path class="uuid-bfdad9a4-7ec9-422e-8e85-e6fbb44833dc" d="M758.80431,15.06496l.10486-.10486-.10486,.10486Z"/>
        <path class="uuid-bfdad9a4-7ec9-422e-8e85-e6fbb44833dc" d="M758.18679,15.74073c.03495-.0466,.06991-.08156,.10486-.12816-.03495,.04661-.06991,.08156-.10486,.12816Z"/>
        <path class="uuid-bfdad9a4-7ec9-422e-8e85-e6fbb44833dc" d="M778.47148,17.11557l-.61751-2.85454,.61751,2.85454Z"/>
        <path class="uuid-bfdad9a4-7ec9-422e-8e85-e6fbb44833dc" d="M767.61259,19.27104c-.01165,0-.0233-.01165-.03495-.01165,.01165,.01165,.0233,.01165,.03495,.01165Z"/>
        <path class="uuid-bfdad9a4-7ec9-422e-8e85-e6fbb44833dc" d="M767.77571,19.29434c-.01165,0-.0233,0-.03495-.01165,.01165,.01165,.0233,.01165,.03495,.01165Z"/>
        <path class="uuid-bfdad9a4-7ec9-422e-8e85-e6fbb44833dc" d="M756.8003,17.75638c-.03495,.06991-.08156,.13981-.11651,.22137,.03495-.06991,.06991-.13981,.11651-.22137Z"/>
        <path class="uuid-bfdad9a4-7ec9-422e-8e85-e6fbb44833dc" d="M767.44947,19.22443q-.01165,0-.0233-.01165,.01165,.01165,.0233,.01165Z"/>
        <path class="uuid-bfdad9a4-7ec9-422e-8e85-e6fbb44833dc" d="M766.34261,17.27869c0,.01165-.01165,.0233-.01165,.03495,.01165-.01165,.01165-.0233,.01165-.03495Z"/>
        <path class="uuid-bfdad9a4-7ec9-422e-8e85-e6fbb44833dc" d="M766.38922,17.12722c0,.01165-.01165,.01165-.01165,.0233,0,0,.01165-.01165,.01165-.0233Z"/>
        <path class="uuid-bfdad9a4-7ec9-422e-8e85-e6fbb44833dc" d="M766.44747,16.98741s0,.01165-.01165,.01165l.01165-.01165Z"/>
        <path class="uuid-bfdad9a4-7ec9-422e-8e85-e6fbb44833dc" d="M778.33167,18.53701c-.0233,.0233-.03495,.05826-.05826,.08156,.0233-.0233,.0466-.05826,.05826-.08156Z"/>
        <path class="uuid-bfdad9a4-7ec9-422e-8e85-e6fbb44833dc" d="M766.31931,17.45345c0,.01165,0,.0233-.01165,.03495,0-.01165,0-.0233,.01165-.03495Z"/>
        <path class="uuid-bfdad9a4-7ec9-422e-8e85-e6fbb44833dc" d="M778.42488,18.36224c-.01165,.03495-.03495,.08156-.05826,.11651,.0233-.03495,.03495-.06991,.05826-.11651Z"/>
        <path class="uuid-97729946-4924-45fa-b33f-6a4498d1dbbf" d="M772.09829,28.05602c-.05826-.05826-.10486-.12816-.16312-.19807,.05826,.08156,.11651,.13981,.16312,.19807h0Z"/>
        <path class="uuid-254de7a5-78d9-46fc-89f8-aa053c33cbc6" d="M772.50608,28.46381h0s-.17477-.13981-.40779-.39614h0c.23302,.25633,.40779,.39614,.40779,.39614Z"/>
        <path class="uuid-4116193c-1a42-4dd2-bd0a-abe534be784d" d="M778.73946,13.60857h0s0-.01165,0,0h0c-.15146-.20972-.30293-.39614-.45439-.55926h0c-.06991-.08156-.13982-.15147-.20972-.22137-.0233-.0233-.05826-.0466-.08156-.06991-.0466-.0466-.09321-.08156-.13982-.11651h0v1.63116l.61751,2.85454h0c.01165,.0233,.01165,.0466,.0233,.06991l.43109,.48935h.45439v-.12816h0c0-1.35154-.22137-2.64482-.61751-3.85654h0c-.01165-.0466-.01165-.06991-.0233-.09321Z"/>
        <path class="uuid-c3809ecb-d96c-4a4b-9c44-a5315d0dff02" d="M778.54139,17.3952v.0233h0c.01165,.06991,.01165,.13981,.01165,.20972v.03495h0v.03495c0,.06991,0,.13981-.01165,.19807h0v.0233l-.03495,.20972h0l.43109-.4777-.43109-.48935h0c.01165,.08155,.0233,.15146,.03495,.23302Z"/>
        <path d="M778.52974,17.9428v-.0233c.01165-.06991,.01165-.13981,.01165-.19807v-.09321c0-.06991,0-.13981-.01165-.20972v-.0233l-.03495-.20972c-.01165-.0233-.01165-.0466-.0233-.06991-.0466-.13981-.09321-.25633-.16312-.36119-.01165-.01165-.0233-.0233-.0233-.03495-.0233-.0233-.03495-.0466-.05826-.06991-.0233-.03495-.05826-.05826-.09321-.08156-.01165-.01165-.0233-.01165-.03495-.0233-.0233-.0233-.05826-.03495-.08156-.0466-.01165,0-.0233-.01165-.03495-.01165-.03495-.01165-.08156-.0233-.12816-.0233s-.08156,.01165-.12816,.0233c-.01165,0-.0233,.01165-.03495,.01165-.0233,.01165-.05826,.0233-.08156,.0466-.01165,.01165-.0233,.01165-.03495,.0233-.03495,.0233-.05826,.05826-.09321,.08156-.0233,.0233-.03495,.0466-.05826,.06991-.01165,.01165-.0233,.0233-.0233,.03495-.06991,.10486-.12816,.22137-.16312,.36119v.01165c-.0233,.05826-.03495,.12816-.0466,.19807,0,.0233-.01165,.03495-.01165,.05826-.01165,.08156-.01165,.15147-.0233,.23302v.03495h0c0,.66412,.31458,1.21172,.69907,1.21172,.06991,0,.12816-.0233,.19807-.0466,.01165,0,.0233-.01165,.03495-.01165,.0233-.01165,.0466-.03495,.06991-.0466l.03495-.03495c.03495-.0233,.05826-.05826,.09321-.09321,.0233-.0233,.03495-.0466,.05826-.08156,.01165-.0233,.0233-.03495,.03495-.05826,.0233-.03495,.03495-.06991,.05826-.11651,.01165-.01165,.01165-.0233,.0233-.0466,.0233-.05826,.03495-.11651,.05826-.17477,0-.06991,.01165-.13982,.01165-.20972Zm-.65247-.44274c-.15146,0-.26798-.19807-.26798-.45439,0-.24468,.11651-.45439,.26798-.45439s.26798,.19807,.26798,.45439-.12816,.45439-.26798,.45439Z"/>
        <ellipse class="uuid-f24ddb71-f215-456d-a3c5-482b98494b5c" cx="777.87727" cy="17.04566" rx=".26798" ry=".45439"/>
        <path class="uuid-ee514aff-fe31-423d-a645-6b8afb9e23a8" d="M777.22481,17.11557h0c.0466-.13981,.09321-.25633,.16312-.36119,.01165-.01165,.0233-.0233,.0233-.03495,.0233-.0233,.03495-.0466,.05826-.06991,.0233-.03495,.05826-.05826,.09321-.08156,.01165-.01165,.0233-.01165,.03495-.0233,.0233-.0233,.05826-.03495,.08156-.0466,.01165,0,.0233-.01165,.03495-.01165,.03495-.01165,.08156-.0233,.12816-.0233s.08156,.01165,.12816,.0233c.01165,0,.0233,.01165,.03495,.01165,.0233,.01165,.05826,.0233,.08156,.0466,.01165,.01165,.0233,.01165,.03495,.0233,.03495,.0233,.05826,.05826,.09321,.08156,.0233,.0233,.03495,.0466,.05826,.06991,.01165,.01165,.0233,.0233,.0233,.03495,.06991,.10486,.12816,.22137,.16312,.36119h0l-.61751-2.85454-.61751,2.85454h0Z"/>
        <path d="M769.59329,17.63987c0-.05826,0-.11651-.01165-.17477h0c-.01165-.05826-.01165-.10486-.0233-.16312h0c-.01165-.05826-.0233-.10486-.0466-.15147h0c-.01165-.0466-.03495-.10486-.05826-.15147h0l-.06991-.13981h0c-.08156-.13981-.17477-.26798-.29128-.37284-.15146-.13981-.32623-.25633-.51265-.33788h0c-.09321-.03495-.19807-.06991-.29128-.09321h-.01165c-.10486-.0233-.20972-.03495-.31458-.03495s-.20972,.01165-.31458,.03495h-.01165c-.10486,.0233-.19807,.0466-.29128,.08156h-.01165c-.09321,.03495-.18642,.08156-.26798,.13981h0c-.08156,.05826-.16312,.11651-.23302,.18642h-.01165c-.11651,.11651-.22137,.24468-.30293,.38449h0l-.06991,.13981s0,.01165-.01165,.01165c-.0233,.0466-.03495,.08156-.0466,.12816,0,.01165-.01165,.01165-.01165,.0233-.01165,.0466-.0233,.08156-.03495,.12816,0,.01165-.01165,.0233-.01165,.03495-.01165,.0466-.01165,.08156-.0233,.12816,0,.01165,0,.0233-.01165,.03495,0,.05826-.01165,.11651-.01165,.17477,0,.10486,.01165,.20972,.03495,.31458v.01165c.0233,.10486,.0466,.19807,.09321,.30293h0c.08156,.18642,.19807,.36119,.33788,.51265,.11651,.11651,.24468,.22137,.38449,.30293h0l.13982,.06991h.01165c.0466,.0233,.09321,.03495,.12816,.0466q.01165,0,.0233,.01165c.0466,.01165,.08156,.0233,.12816,.03495,.01165,0,.0233,.01165,.03495,.01165,.0466,.01165,.08156,.01165,.12816,.0233,.01165,0,.0233,0,.03495,.01165,.05826,0,.11651,.01165,.17477,.01165,.23302,0,.44274-.0466,.64081-.12816,.09321-.0466,.18642-.09321,.27963-.15147,.17477-.11651,.32623-.26798,.44274-.44274,.05826-.09321,.10486-.18642,.15146-.27963,.08156-.19807,.12816-.41944,.12816-.64081v-.01165h0l.01166-.02331h0Zm-1.64282-.19807c-.33788,0-.61751-.27963-.61751-.61751s.27963-.61751,.61751-.61751,.61751,.27963,.61751,.61751c0,.33789-.27962,.61751-.61751,.61751Z"/>
        <circle class="uuid-f24ddb71-f215-456d-a3c5-482b98494b5c" cx="767.95047" cy="16.82429" r=".61751"/>
        <path class="uuid-4116193c-1a42-4dd2-bd0a-abe534be784d" d="M766.80866,16.4631h0l1.14181-3.4837v-.81558c-.62916-.12816-1.28163-.19807-1.94575-.19807-.22137,0-.44274,.01165-.66412,.0233-.03495,0-.05826,0-.09321,.01165-1.14182,.08156-2.26033,.38449-3.29728,.86219-.88549,.40779-1.72437,.94374-2.4584,1.57291h0c-.19807,.17477-.39614,.34954-.58256,.53595l-.10486,.10486c-.17477,.17477-.34954,.36119-.51265,.5476-.03495,.0466-.06991,.08156-.10486,.12816-.16312,.19807-.32623,.39614-.4777,.59421-.01165,.01165-.0233,.03495-.03495,.0466-.13981,.19807-.27963,.39614-.41944,.60586-.0233,.03495-.05826,.08156-.08156,.11651-.10486,.17477-.20972,.34954-.30293,.5243h5.17312l4.76533-1.17677Z"/>
        <path class="uuid-7f6cb932-b7a3-46d7-a666-11cd5523c757" d="M771.17785,16.07861c.01165-.13981,.0233-.26798,.0233-.40779,.01165-.18642,.01165-.36119,.0233-.5476v-.55926c0-.37284-.0233-.73402-.03495-1.10686h0s-.01165,0-.01165-.01165c0,0-.01165,0-.01165-.01165-.06991-.03495-.23302-.12816-.38449-.22137h-.01165c-.03495-.0233-.06991-.0466-.10486-.05826h0c-.0233-.01165-.0466-.03495-.06991-.0466l-.01165-.01165c-.0233-.01165-.0466-.0233-.05826-.03495-.23302-.12816-.4777-.23302-.72237-.33788-.58256-.24467-1.37484-.46605-1.82924-.57091v.81558l1.13017,3.47205h0c.11651,.10486,.22137,.23302,.29128,.37284h0l.06991,.13981h0c.0233,.0466,.0466,.09321,.05826,.15147h0c.01165,.0466,.03495,.10486,.0466,.15147h0c.01165,.05826,.0233,.10486,.0233,.16312h0c.01165,.05826,.01165,.11651,.01165,.17477h0v.01165h1.37484c.09321-.501,.16312-1.01365,.19807-1.5263,0,.0233,0,.01165,0,0Z"/>
        <path class="uuid-4116193c-1a42-4dd2-bd0a-abe534be784d" d="M769.60494,22.60327c.31458-.31458,.60586-.60586,.88549-.89714,.16312-.17477,.32623-.34954,.48935-.51265,1.15347-1.24667,1.99235-2.42344,2.505-3.92644,.01165-.03495,.0233-.08156,.03495-.13981v-.0233c.01165-.05826,.0233-.11651,.03495-.18642,0-.0466,.01165-.09321,.01165-.13981-.12816-.65247-.37284-1.29328-.59421-1.92244v.01165l-.01165-.01165c-.0466-.03495-.08156-.08156-.12816-.11651-.12816-.11651-.25633-.23302-.39614-.34954-.40779-.33788-.82723-.65247-1.26998-.92044h0c.0233,.37284,.03495,.73402,.03495,1.10686v.55926c0,.18642-.01165,.37284-.0233,.5476-.01165,.13981-.01165,.26798-.0233,.40779v.0466c-.0466,.51265-.10486,1.0253-.19807,1.5263l-.16312,.76898c-.33788,1.37484-1.0253,2.60986-1.58456,3.89149-.15146,.33788-.29128,.68742-.41944,1.03695l-.03495,.10486c.17477-.18642,.33788-.34954,.45439-.46605,.15147-.15147,.26798-.27963,.39615-.39614Z"/>
        <path class="uuid-ee514aff-fe31-423d-a645-6b8afb9e23a8" d="M766.82031,16.4631h0c.06991-.06991,.15147-.12816,.23302-.18642h0c.08156-.05826,.17477-.10486,.26798-.13981h.01165c.09321-.03495,.18642-.06991,.29128-.08156h.01165c.10486-.0233,.20972-.03495,.31458-.03495s.20972,.01165,.31458,.03495h.01165c.10486,.0233,.19807,.0466,.29128,.09321h0c.18642,.08156,.36119,.18642,.51265,.33788h0l-1.13017-3.47205-1.13017,3.44875Z"/>
        <path class="uuid-c3809ecb-d96c-4a4b-9c44-a5315d0dff02" d="M766.42417,18.28069c-.03495-.09321-.06991-.19807-.09321-.30293v-.01165c-.0233-.10486-.03495-.20972-.03495-.31458,0-.05826,0-.11651,.01165-.17477,0-.01165,0-.0233,.01165-.03495,0-.0466,.01165-.08156,.0233-.12816,0-.01165,.01165-.0233,.01165-.03495,.01165-.0466,.0233-.08156,.03495-.12816,0-.01165,.01165-.01165,.01165-.0233,.01165-.0466,.03495-.09321,.0466-.12816,0,0,0-.01165,.01165-.01165l.06991-.13981h0c.08156-.13981,.18642-.26798,.30293-.38449h0l-4.77698,1.17677h-.01165l4.73037,1.15347c-.15147-.13981-.26798-.31458-.34954-.51265h0Z"/>
        <path class="uuid-7f6cb932-b7a3-46d7-a666-11cd5523c757" d="M777.16655,17.38355c0-.0233,.01165-.0466,.01165-.05826,.01165-.06991,.0233-.13981,.0466-.19807v-.0233l.61751-2.85454v-1.63116c-.51265-.41944-1.04861-.65247-1.61951-.65247-.72237,0-1.38649,.39614-1.88749,.88549-.54761,.53595-.96705,1.21172-1.31658,1.88749-.01165,.03495-.03495,.05826-.0466,.09321l.31458,.27963c.23302,.20972,.46605,.43109,.68742,.65247l.31458,.31458c.10486,.11651,.22137,.22137,.32623,.33788,.13982,.15147,.27963,.29128,.40779,.44274,.05826,.05826,.11651,.12816,.17477,.18642,.16312,.18642,.32623,.36119,.48935,.5476h0l.05826,.05826h1.40979v-.03495c0-.06991,0-.15146,.01165-.23302Z"/>
        <path class="uuid-c3809ecb-d96c-4a4b-9c44-a5315d0dff02" d="M756.01967,19.4458c0-.01165,.01165-.0233,.01165-.03495,.09321-.23302,.18642-.46605,.29128-.69907,.0233-.06991,.05826-.12816,.09321-.18642,.08156-.18642,.17477-.36119,.26798-.53595,.03495-.06991,.06991-.13981,.11651-.22137,.0233-.03495,.0466-.08156,.06991-.11651,.10486-.17477,.19807-.34954,.30293-.5243,.0233-.03495,.05826-.08156,.08156-.11651,.12816-.20972,.26798-.40779,.41944-.60586,.01165-.01165,.0233-.03495,.03495-.0466,.15147-.20972,.31458-.40779,.4777-.59421,.03495-.0466,.06991-.08156,.10486-.12816,.16312-.18642,.33788-.37284,.51265-.5476l.10486-.10486c.18642-.18642,.37284-.36119,.58256-.53595h0c.78063-2.63316,3.19242-4.55561,6.03531-4.55561,1.14182,0,2.28363,.32623,3.26233,.93209,1.002,.61751,1.81758,1.51465,2.34189,2.55161,0,0,0,.01165,.01165,.01165,.01165,.0233,.0233,.0466,.0466,.08156h0c.44274,.26798,.86219,.58256,1.26998,.92044,.13982,.11651,.26798,.23302,.39614,.34954,.0466,.03495,.08156,.08156,.12816,.11651h0c.01165-.03495,.0233-.05826,.0466-.09321,.39614-2.5283,1.51465-4.35754,2.83123-4.35754,.99035,0,1.87584,1.03695,2.41179,2.63316v.01165h0c.15146,.16312,.30293,.34954,.45439,.5476h0s0,.01165,.01165,.01165h0c.01165,.0233,.01165,.0466,.0233,.06991h0l-.0233-.08156c-1.64282-4.84689-6.22172-8.34224-11.62787-8.34224-6.78098,0-12.26868,5.4877-12.26868,12.26868,0,1.33988,.20972,2.62151,.60586,3.82158v-.01165c.08156-.36119,.17477-.72237,.27963-1.07191,.09321-.27963,.18642-.54761,.29128-.81558Z"/>
        <path class="uuid-f24ddb71-f215-456d-a3c5-482b98494b5c" d="M778.92588,17.66317l-.43109,.4777h0c-.01165,.05826-.03495,.11651-.05826,.17477,0,.01165-.01165,.0233-.0233,.0466-.01165,.03495-.03495,.08156-.05826,.11651-.01165,.0233-.0233,.03495-.03495,.05826-.0233,.0233-.03495,.05826-.05826,.08156-.0233,.03495-.05826,.06991-.09321,.09321l-.03495,.03495c-.0233,.0233-.0466,.03495-.06991,.0466-.01165,0-.0233,.01165-.03495,.01165-.05826,.03495-.12816,.0466-.19807,.0466-.38449,0-.69907-.53595-.69907-1.21172h-1.40979c.26798,.30293,.5243,.60586,.76898,.92044l.01165,.01165,.73402,.90879c.01165,.01165,.0233,.03495,.03495,.0466,.23302,.29128,.45439,.58256,.67577,.87384,.0233,.0233,.0466,.05826,.06991,.08156,.23302,.31458,.46605,.62916,.69907,.93209v.01165c.40779-1.20007,.62916-2.47005,.64081-3.79828h0l-.43109,.03495h0Z"/>
        <path d="M765.2474,11.98905c.03495,0,.05826,0,.09321-.01165,.22137-.01165,.44274-.0233,.66412-.0233,.66412,0,1.31658,.06991,1.94575,.19807v0c.44274,.10486,1.23502,.32623,1.82924,.57091,.24468,.10486,.48935,.22137,.72237,.33788,.01165,0,.03495,.01165,.05826,.03495,0,0,.01165,0,.01165,.01165,.0233,.01165,.0466,.0233,.06991,.0466h0c.03495,.0233,.06991,.03495,.10486,.05826h.01165c.15146,.08156,.31458,.18642,.38449,.22137,.01165,0,.01165,.01165,.01165,.01165l.01165,.01165h0c-.01165-.0233-.0233-.0466-.0466-.08156,0,0,0-.01165-.01165-.01165-.5243-1.04861-1.35154-1.94575-2.34189-2.55161-.9787-.59421-2.12051-.93209-3.26233-.93209-2.84289,0-5.25468,1.92244-6.03531,4.55561,.74567-.64081,1.57291-1.17677,2.4584-1.57291,1.06025-.48935,2.19041-.78063,3.32058-.87384Z"/>
        <path d="M774.34697,12.86289c.501-.48935,1.16512-.88549,1.88749-.88549,.57091,0,1.11851,.23302,1.61951,.65247h0c.0466,.03495,.09321,.08156,.13982,.11651,.0233,.0233,.05826,.0466,.08156,.06991,.06991,.06991,.13982,.13981,.20972,.22137h0v-.01165c-.54761-1.59621-1.42144-2.63316-2.41179-2.63316-1.31658,0-2.43509,1.81758-2.83123,4.35754h0c.32623-.67577,.75732-1.35154,1.30493-1.88749Z"/>
        <path class="uuid-f24ddb71-f215-456d-a3c5-482b98494b5c" d="M762.7191,28.97646c.11651,.0466,.22137,.08156,.33788,.11651,1.26998,.44274,2.63317,.68742,4.05461,.68742,1.61951,0,3.16912-.31458,4.57891-.88549,.06991-.03495,.15146-.05826,.22137-.09321,.11651-.0466,.24468-.10486,.36119-.16312,.10486-.0466,.20972-.09321,.31458-.15147-.0233,0-.0466,.01165-.06991,.01165h0c-.44274,.04661-.87384,.05825-1.30493-.01165-2.52831-.36119-3.08756-1.58456-3.006-2.84289-.18642-.10486-.36119-.22137-.55925-.36119-1.94575-1.40979-3.09921-2.91279-3.09921-2.91279,0,0,1.503,1.15347,3.74003,2.0273,.0466,.0233,.09321,.03495,.13982,.05826,.10486-.36119,.23302-.71072,.33788-1.01365h0l.03495-.10486c.12816-.34954,.26798-.69907,.41944-1.03695,.55925-1.28163,1.24668-2.5283,1.58456-3.89149l.16312-.76898h-1.37484v.01165c0,.23302-.0466,.44274-.12816,.64081-.0466,.09321-.09321,.19807-.15146,.27963-.11651,.17477-.26798,.32623-.44274,.44274-.09321,.05826-.18642,.10486-.27963,.15147-.19807,.08156-.41944,.12816-.64081,.12816-.05826,0-.11651,0-.17477-.01165-.01165,0-.0233,0-.03495-.01165-.0466,0-.08156-.01165-.12816-.0233-.01165,0-.0233-.01165-.03495-.01165-.0466-.01165-.08156-.0233-.12816-.03495q-.01165,0-.0233-.01165c-.0466-.01165-.09321-.03495-.12816-.0466h-.01165l-.13981-.06991h0c-.13981-.08156-.26798-.17477-.38449-.30293l-4.73038-1.15347h-5.16147c-.0233,.03495-.0466,.08156-.06991,.11651-.03495,.06991-.08156,.13981-.11651,.22137-.09321,.17477-.18642,.36119-.26798,.53595-.03495,.05826-.05826,.12816-.09321,.18642-.10486,.23302-.19807,.46605-.29128,.69907,0,.01165-.01165,.0233-.01165,.03495-.10486,.26798-.19807,.5476-.27963,.82723-.10486,.34954-.19807,.71072-.27963,1.07191,.81558,2.4817,2.38849,4.61386,4.4624,6.10521,.05826,.0466,.12816,.08156,.18642,.12816,.34954,.24468,.71072,.4777,1.08356,.67577,.48935,.30293,1.002,.5476,1.5263,.75732Z"/>
        <path class="uuid-b02695c5-b372-4340-b12a-5aba8df0443b" d="M771.1895,25.15488c-.0233,.12816-.03495,.25633-.03495,.38449-.01165,.22137,.01165,.44274,.0466,.64081,.0233,.13981,.0466,.26798,.08156,.39614,.05826,.18642,.11651,.36119,.19807,.5243s.16312,.31458,.24468,.44274c.0233,.0466,.05826,.09321,.08156,.12816,.0466,.05826,.08156,.11651,.12816,.17477,.05826,.06991,.11651,.13981,.16312,.19807,.22137,.25633,.40779,.39614,.40779,.39614v.01165c0,.01165,0,.0233,.01165,.03495h0c.0233,0,.0466-.01165,.06991-.01165,.54761-.06991,1.09521-.22137,1.64282-.40779,.27963-.10486,.55925-.20972,.82723-.32623,.08156-.03495,.16312-.08156,.24468-.11651,2.80793-1.36319,5.16147-3.76333,5.16147-3.76333-3.51866,1.73602-6.97906,1.66612-9.27434,1.29328Z"/>
        <path class="uuid-c3809ecb-d96c-4a4b-9c44-a5315d0dff02" d="M777.97048,20.4245c-.22137-.29128-.45439-.58256-.67577-.87384-.01165-.01165-.0233-.03495-.03495-.0466l-.73402-.90879-.01165-.01165c-.25633-.31458-.51265-.61751-.76898-.92044-.01165-.0233-.03495-.03495-.0466-.05826-.16312-.18642-.32623-.36119-.48935-.5476-.05826-.05826-.11651-.12816-.17477-.18642-.13982-.15147-.26798-.29128-.40779-.44274-.10486-.11651-.22137-.22137-.32623-.33788l-.31458-.31458c-.22137-.22137-.45439-.44274-.68742-.65247l-.31458-.27963h0c.22137,.64081,.4777,1.28163,.60586,1.94575,.03495,.17477,.05826,.33788,.08156,.501,.31458,2.29528-.43109,3.79828-1.59621,5.77898-.08156,.13981-.17477,.29128-.25633,.43109-.26798,.44274-.44274,.87384-.53595,1.26998-.03495,.12816-.05826,.25633-.08156,.38449,2.29528,.37284,5.74403,.44274,9.27433-1.29328,0,0-.68742-1.01365-1.73602-2.41179-.23302-.31458-.46605-.62916-.69907-.93209-.0233-.03495-.0466-.06991-.06991-.09321Z"/>
        <path d="M772.50608,28.46381s-.17477-.13981-.40779-.39614c-.05826-.05826-.10486-.12816-.16312-.19807-.0466-.05826-.08156-.11651-.12816-.17477-.0233-.0466-.05826-.08156-.08156-.12816-.08156-.13981-.16312-.27963-.24468-.44274-.06991-.16312-.13982-.33788-.19807-.5243-.03495-.12816-.06991-.25633-.08156-.39614-.03495-.19807-.0466-.41944-.0466-.64081,0-.12816,.01165-.25633,.03495-.38449,.0233-.12816,.0466-.25633,.08156-.38449,.10486-.39614,.26798-.81558,.53595-1.26998h0c.08156-.15147,.17477-.29128,.25633-.43109,1.16512-1.9807,1.91079-3.47205,1.59621-5.77898-.0233-.16312-.0466-.33788-.08156-.501-.01165,.11651-.03495,.22137-.05826,.30293v.0233c-.01165,.05826-.0233,.10486-.03495,.13981-.51265,1.503-1.35154,2.67977-2.505,3.92644-.15146,.17477-.31458,.33788-.48935,.51265-.27963,.29128-.58256,.59421-.88549,.89714-.12816,.12816-.25633,.24468-.38449,.37284-.11651,.11651-.27963,.27963-.45439,.46605h0c-.10486,.30293-.23302,.65247-.33788,1.01365-.0466-.0233-.09321-.03495-.13982-.05826-2.23702-.86219-3.74003-2.0273-3.74003-2.0273,0,0,1.15347,1.503,3.09921,2.91279,.18642,.13981,.37284,.25633,.55925,.36119-.08156,1.26998,.4777,2.4817,3.006,2.84289,.43109,.05825,.86219,.05825,1.30493,.01165,0-.0233-.01165-.03495-.01165-.04661h0Z"/>
      </g>
    </g>
  </g>
  <g>
    <g id="uuid-89e63478-53cb-4d3a-9e9c-233aa50b8135" data-name="brandmark">
      <path d="M58.42593,111.80649c-9.63387,0-17.50006-7.83673-17.50006-17.50006s7.86619-17.50006,17.50006-17.50006c2.32745,0,4.59598,.44192,6.7172,1.35522,.58923,.26515,.88384,.94276,.64815,1.56145-.26515,.58923-.94276,.88384-1.56145,.64815-1.85607-.766-3.80052-1.14899-5.80389-1.14899-8.33757,0-15.11369,6.77612-15.11369,15.11369s6.77612,15.11369,15.11369,15.11369,15.11369-6.77612,15.11369-15.11369c0-1.79714-.29461-3.53537-.9133-5.1852-.23569-.61869,.08839-1.2963,.70707-1.53199,.61869-.23569,1.2963,.08838,1.53199,.70707,.70707,1.91499,1.06061,3.94782,1.06061,6.01012,0,9.60441-7.83672,17.4706-17.50006,17.4706Z"/>
      <polygon points="66.08589 92.50929 63.37544 95.33758 64.87798 101.67178 68.29549 101.67178 66.08589 92.50929"/>
      <polygon points="64.96636 84.14226 65.90913 85.08502 58.42593 93.01013 52.03281 86.44024 48.35014 101.67178 51.76766 101.67178 53.8005 93.21636 58.42593 98.25426 68.32496 87.47139 69.26772 88.44362 70.21048 83.11111 64.96636 84.14226"/>
    </g>
    <g id="uuid-b5f95908-aaad-4649-8b74-c34dcf0843b5" data-name=" Gruppe 3">
      <path id="uuid-18a95170-f6e5-452d-85a9-ed4b4923ac74" data-name=" Pfad 2" d="M736.55554,108.02939c-1.52153-1.14115-3.77666-2.01059-6.14046-2.93438-2.8257-1.08681-6.05895-2.33664-8.44993-4.26572-2.71702-2.17362-4.04836-4.91781-4.04836-8.36842-.05434-3.01589,1.33134-5.86876,3.72232-7.68917,2.74419-2.14644,6.87406-3.2876,11.98206-3.2876,1.33134,0,2.68985,.08151,3.99402,.24453,.13585,.02717,.2717-.08151,.2717-.21736,0-.08151-.02717-.16302-.08151-.21736-7.2001-6.46651-18.25837-5.86876-24.72488,1.30417-6.46651,7.17294-5.86876,18.25837,1.30417,24.72488,3.20608,2.88004,7.39029,4.48308,11.71035,4.48308,3.74949,.02717,7.41746-1.19549,10.43336-3.42345,.05434-.05434,.10868-.10868,.10868-.19019,.02717-.02716-.02717-.10867-.08151-.16301Z"/>
      <path id="uuid-c04cc19a-c0ba-4e09-a0c1-418199216b91" data-name=" Pfad 3" d="M743.59262,92.73258c0-.05434-.02717-.13585-.08151-.16302-3.66798-3.04307-6.60236-4.26572-10.21599-4.26572-1.90191,0-3.39627,.38039-4.3744,1.14115-.84228,.62491-1.30417,1.60304-1.30417,2.63551,0,3.01589,3.66798,4.3744,7.9337,5.97744,2.20079,.81511,4.45591,1.65738,6.54802,2.8257,.02717,.02717,.08151,.02717,.10868,.02717s.05434,0,.08151-.02717c.08151-.02717,.13585-.08151,.16302-.13585,.8151-2.03776,1.22266-4.21138,1.22266-6.41217-.02717-.51623-.02717-1.05964-.08151-1.60304Z"/>
    </g>
    <g id="uuid-f915772e-8434-47f4-91be-1b1f4e9c0578" data-name="Layer 2">
      <g id="uuid-09ebb2de-e0e6-4f13-a0b7-fecc1d348a43" data-name="Layer 1-2">
        <path d="M108.86699,101.10644v-4.83749c0-1.01105-.41705-1.51672-1.25115-1.51702-.8341-.0003-1.25205,.50538-1.25383,1.51702v4.83749h-2.46432v-4.83749c0-1.01105-.41065-1.51672-1.23194-1.51702-.83559,0-1.25264,.50567-1.25115,1.51702v4.83749h-2.46477v-5.12302c0-1.05544,.36641-1.85424,1.09923-2.3964,.64524-.48408,1.51747-.72611,2.6167-.72611,1.11442,0,1.93541,.28583,2.46298,.85749,.45459-.57166,1.28303-.85749,2.48532-.85749,1.09923,0,1.97116,.24204,2.6158,.72611,.73282,.54187,1.09938,1.34067,1.09967,2.3964v5.12302h-2.46254Z"/>
        <path d="M139.05058,101.0841v-13.81942h2.46477v13.81942h-2.46477Z"/>
        <path d="M135.9093,101.0841v-.81414c-.22014,.29313-.59415,.52787-1.12201,.70422-.43117,.15416-.88489,.23584-1.34275,.24174-1.1737,0-2.11624-.4035-2.8276-1.21049-.71137-.80699-1.0672-1.80494-1.0675-2.99383,0-1.17295,.34675-2.15824,1.04561-2.94914,.61887-.6993,1.62426-1.18815,2.78337-1.18815,1.30567,0,2.06797,.49152,2.5309,1.05588v-6.66551h2.39864v13.81942h-2.39864Zm0-4.59888c0-.44029-.20853-.86225-.62558-1.2659-.41705-.40365-.84601-.60547-1.2869-.60547-.63034,0-1.12901,.25678-1.49602,.77035-.32321,.45578-.48467,1.01328-.48438,1.67252,0,.64583,.16146,1.19604,.48438,1.65063,.36641,.52876,.86508,.79284,1.49602,.79225,.3816,0,.79612-.17978,1.24356-.53934,.44743-.35956,.67085-.72984,.67026-1.11084l-.00134-1.3642Z"/>
        <path d="M124.90676,101.30395c-1.24728,0-2.27784-.39605-3.09169-1.18815-.81384-.7921-1.22166-1.81179-1.22345-3.05907,0-1.24609,.40722-2.26563,1.22166-3.05862s1.845-1.18904,3.09169-1.18815c1.24668,0,2.28097,.39605,3.10286,1.18815,.82189,.7921,1.23268,1.81164,1.23239,3.05862,0,1.24758-.4108,2.26727-1.23239,3.05907-.82159,.7918-1.85528,1.18785-3.10107,1.18815Zm0-6.51359c-.594,0-1.05052,.22491-1.36957,.67473-.31904,.44982-.47857,.98424-.47856,1.60326,0,.61902,.14895,1.14227,.44684,1.56975,.34139,.48676,.80908,.72984,1.40308,.72924,.594-.0006,1.06154-.24368,1.40263-.72924,.3116-.42718,.4674-.95043,.4674-1.56975s-.14895-1.14257-.44684-1.56975c-.34139-.47246-.81638-.70854-1.42497-.70824Z"/>
        <path d="M115.99498,101.30395c-1.24698,0-2.27769-.39605-3.09213-1.18815-.81444-.7921-1.22151-1.81179-1.22121-3.05907,0-1.24609,.40707-2.26563,1.22121-3.05862s1.84485-1.18904,3.09213-1.18815c1.24609,0,2.28037,.39605,3.10286,1.18815,.82248,.7921,1.23313,1.81164,1.23194,3.05862,0,1.24758-.41065,2.26727-1.23194,3.05907-.82129,.7918-1.85558,1.18785-3.10286,1.18815Zm0-6.51359c-.594,0-1.05067,.22491-1.37001,.67473-.31934,.44982-.47886,.98424-.47857,1.60326,0,.61902,.14895,1.14227,.44684,1.56975,.34139,.48676,.80923,.72984,1.40352,.72924,.5943-.0006,1.06184-.24368,1.40263-.72924,.311-.42718,.4665-.95043,.4665-1.56975s-.14895-1.14257-.44684-1.56975c-.34079-.47246-.81548-.70854-1.42408-.70824Z"/>
        <path d="M144.43411,97.80519c.05273,.5867,.81548,1.84858,2.06932,1.84858,1.22032,0,1.79764-.70467,1.82623-.9902l2.59659-.02234c-.2833,.86642-1.43436,2.70696-4.4684,2.70696-1.26188,0-2.41651-.39277-3.24585-1.17742s-1.24311-1.80747-1.24311-3.06979c0-1.30567,.41437-2.34353,1.24311-3.11358s1.90354-1.15508,3.2244-1.15508c1.43733,0,2.5595,.47663,3.36649,1.42989,.7486,.87968,1.12276,2.06053,1.12246,3.54255l-6.49125,.00045Zm4.02737-1.51926c-.10278-.52861-.32306-.96026-.65998-1.29852-.3819-.36641-.82203-.54976-1.32041-.55006-.51387,0-.94313,.17606-1.28779,.52816-.34466,.35211-.57553,.79225-.6926,1.32041h3.96079Z"/>
        <path class="uuid-97729946-4924-45fa-b33f-6a4498d1dbbf" d="M103.73414,92.48824l2.446-1.78736-.03128-.10903c-4.41389,.54112-6.42109,.92451-10.22281,3.12833l.0353,.10009,.30206,.00313c-.0277,.3043-.07596,1.05633-.0143,2.18728-.42182,1.22077-.01072,2.0501,.37535,2.95227,.06122-.93836,.05496-1.9661-.23325-2.98891-.06032-1.12336-.01072-1.86198,.01653-2.1493l2.52018,.02413c-.00677,.49351,.01815,.98694,.07462,1.47725,2.25207,.79135,4.51711-.00268,5.71955-1.95358-.33379-.37401-.98796-.8843-.98796-.8843Z"/>
      </g>
    </g>
    <g>
      <path id="uuid-b3d49907-106c-43e4-ad48-609d28a99bb0" data-name="Combined-Shape-Copy" class="uuid-9740ec79-de30-4664-8309-b8ef3a3e84cb" d="M194.1009,100.60896v-11.3523c0-.40432-.32777-.73209-.73209-.73209h-11.29477v-11.7182h22.95719c.40432,0,.73209,.32777,.73209,.73209v23.07049h-11.66242Z"/>
      <path id="uuid-105bc287-d31b-4581-93ab-d21a14177f36" data-name="Rectangle-Copy-6" class="uuid-6adb7a7e-4c4e-4d24-ac17-da7d340b9138" d="M182.07404,76.80637v11.7182h-10.78167c-.20216,0-.36605-.16388-.36605-.36605,0-.09678,.03833-.18962,.1066-.25822l11.04112-11.09393Z"/>
      <path id="uuid-a45daace-6034-4114-a0e0-7ceb37c87dfd" data-name="Rectangle-Copy-7" class="uuid-6adb7a7e-4c4e-4d24-ac17-da7d340b9138" d="M194.1009,111.44045v-10.83149h11.66242l-11.03692,11.08971c-.14261,.14329-.37438,.14384-.51767,.00123-.06903-.0687-.10783-.16207-.10783-.25945Z"/>
      <path id="uuid-80fe3bf3-c01e-45e1-9ddc-0b0872234db8" data-name="Rectangle-Copy-8" class="uuid-6adb7a7e-4c4e-4d24-ac17-da7d340b9138" d="M182.07404,88.52457h11.66082c.20216,0,.36604,.16388,.36604,.36605v11.71834h-11.29477c-.40432,0-.73209-.32777-.73209-.73209v-11.3523Z"/>
    </g>
    <g>
      <g id="uuid-28a9106c-0d8c-4be8-9aef-7e6f66bfb532" data-name="circle265">
        <circle cx="241.36577" cy="86.93952" r="4.14544"/>
        <path class="uuid-f24ddb71-f215-456d-a3c5-482b98494b5c" d="M241.36574,91.49273c-2.51056,0-4.55322-2.04266-4.55322-4.55322s2.04266-4.55322,4.55322-4.55322,4.55322,2.04266,4.55322,4.55322-2.04266,4.55322-4.55322,4.55322Zm0-8.29089c-2.06097,0-3.73767,1.67669-3.73767,3.73767s1.67669,3.73767,3.73767,3.73767,3.73767-1.67669,3.73767-3.73767-1.67669-3.73767-3.73767-3.73767Z"/>
      </g>
      <g id="uuid-1c91ea4a-6c12-490f-95c5-f5f670cf6654" data-name="circle272">
        <circle cx="233.76425" cy="101.34741" r="7.59317"/>
        <path class="uuid-f24ddb71-f215-456d-a3c5-482b98494b5c" d="M233.76417,109.3484c-4.41165,0-8.00078-3.58913-8.00078-8.00098s3.58913-8.00098,8.00078-8.00098,8.00098,3.58913,8.00098,8.00098-3.58913,8.00098-8.00098,8.00098Zm0-15.18642c-3.96186,0-7.18524,3.22337-7.18524,7.18543s3.22337,7.18543,7.18524,7.18543c3.96206,0,7.18543-3.22337,7.18543-7.18543s-3.22337-7.18543-7.18543-7.18543Z"/>
      </g>
      <g id="uuid-869a9ac3-55c2-4982-b2cd-2091df129f82" data-name="circle279">
        <circle cx="242.33037" cy="96.29488" r="8.20871"/>
        <path class="uuid-f24ddb71-f215-456d-a3c5-482b98494b5c" d="M242.33042,104.91146c-4.75113,0-8.61663-3.8655-8.61663-8.61663s3.8655-8.61643,8.61663-8.61643,8.61643,3.8653,8.61643,8.61643-3.8653,8.61663-8.61643,8.61663Zm0-16.41751c-4.30154,0-7.80108,3.49953-7.80108,7.80088s3.49953,7.80108,7.80108,7.80108,7.80088-3.49953,7.80088-7.80108-3.49953-7.80088-7.80088-7.80088Z"/>
      </g>
      <g id="uuid-4f120cea-2cdb-483b-ad40-d059d3e16313" data-name="circle286">
        <circle cx="259.07135" cy="92.96663" r="7.59317"/>
        <path class="uuid-f24ddb71-f215-456d-a3c5-482b98494b5c" d="M259.07128,100.96751c-4.41165,0-8.00078-3.58913-8.00078-8.00098s3.58913-8.00078,8.00078-8.00078,8.00098,3.58913,8.00098,8.00078-3.58913,8.00098-8.00098,8.00098Zm0-15.18622c-3.96186,0-7.18524,3.22337-7.18524,7.18524,0,3.96206,3.22337,7.18543,7.18524,7.18543,3.96206,0,7.18543-3.22337,7.18543-7.18543,0-3.96186-3.22337-7.18524-7.18543-7.18524Z"/>
      </g>
      <g id="uuid-898fa1e6-dda7-4924-afc8-2cb01657bbfd" data-name="circle293">
        <circle cx="250.74439" cy="87.06042" r="7.59297"/>
        <path class="uuid-f24ddb71-f215-456d-a3c5-482b98494b5c" d="M250.74436,95.06115c-4.41165,0-8.00078-3.58913-8.00078-8.00078s3.58913-8.00078,8.00078-8.00078,8.00078,3.58913,8.00078,8.00078-3.58913,8.00078-8.00078,8.00078Zm0-15.18602c-3.96186,0-7.18524,3.22337-7.18524,7.18524s3.22337,7.18524,7.18524,7.18524,7.18524-3.22337,7.18524-7.18524-3.22337-7.18524-7.18524-7.18524Z"/>
      </g>
      <g id="uuid-9f8113cc-e641-4d36-8208-202d2522e9d2" data-name="circle300">
        <circle cx="276.01296" cy="104.27952" r="4.3428"/>
        <path class="uuid-f24ddb71-f215-456d-a3c5-482b98494b5c" d="M276.01304,109.03002c-2.61947,0-4.75073-2.13106-4.75073-4.75053s2.13126-4.75053,4.75073-4.75053,4.75053,2.13106,4.75053,4.75053-2.13106,4.75053-4.75053,4.75053Zm0-8.68552c-2.16989,0-3.93518,1.7653-3.93518,3.93498s1.7653,3.93498,3.93518,3.93498c2.16969,0,3.93498-1.7653,3.93498-3.93498s-1.7653-3.93498-3.93498-3.93498Z"/>
      </g>
      <g id="uuid-9d1743c1-3412-4bf4-a8e6-1fbc50c810c6" data-name="circle307">
        <circle cx="266.7842" cy="100.93679" r="8.20871"/>
        <path class="uuid-f24ddb71-f215-456d-a3c5-482b98494b5c" d="M266.78416,109.55328c-4.75113,0-8.61643-3.8653-8.61643-8.61643s3.8653-8.61663,8.61643-8.61663,8.61643,3.8655,8.61643,8.61663-3.8653,8.61643-8.61643,8.61643Zm0-16.41751c-4.30134,0-7.80088,3.49953-7.80088,7.80108s3.49953,7.80088,7.80088,7.80088,7.80088-3.49953,7.80088-7.80088-3.49953-7.80108-7.80088-7.80108Z"/>
      </g>
      <g id="uuid-13e47d2d-2c64-4ed0-a314-c9c0b23618e0" data-name="circle314">
        <circle cx="241.82819" cy="104.6981" r="4.34259"/>
        <path class="uuid-f24ddb71-f215-456d-a3c5-482b98494b5c" d="M241.82827,109.44855c-2.61947,0-4.75053-2.13106-4.75053-4.75053,0-2.61927,2.13106-4.75034,4.75053-4.75034,2.61927,0,4.75034,2.13106,4.75034,4.75034,0,2.61947-2.13106,4.75053-4.75034,4.75053Zm0-8.68532c-2.16969,0-3.93498,1.7651-3.93498,3.93479s1.7653,3.93498,3.93498,3.93498,3.93479-1.7653,3.93479-3.93498-1.7651-3.93479-3.93479-3.93479Z"/>
      </g>
      <g id="uuid-dd0dd7b8-8406-4efd-90c3-06f01119589d" data-name="path321">
        <path d="M263.71447,98.51175c0,5.7798-4.68615,10.46513-10.46635,10.46513s-10.46615-4.68533-10.46615-10.46513c0-5.78041,4.68614-10.46615,10.46615-10.46615s10.46635,4.68574,10.46635,10.46615Z"/>
        <path class="uuid-f24ddb71-f215-456d-a3c5-482b98494b5c" d="M253.24815,109.38463c-5.99596,0-10.87392-4.87757-10.87392-10.87293,0-5.99596,4.87796-10.87392,10.87392-10.87392s10.87412,4.87796,10.87412,10.87392c0,5.99536-4.87816,10.87293-10.87412,10.87293Zm0-20.9313c-5.54617,0-10.05837,4.5122-10.05837,10.05837,0,5.54558,4.5122,10.05738,10.05837,10.05738s10.05857-4.5118,10.05857-10.05738c0-5.54617-4.5122-10.05837-10.05857-10.05837Z"/>
      </g>
    </g>
    <g>
      <path class="uuid-97729946-4924-45fa-b33f-6a4498d1dbbf" d="M308.41014,98.5309l14.28121-14.00218c1.53333-1.50277,3.99442-1.47853,5.49786,.05415l-6.48086-6.61107c-1.50363-1.53223-3.96434-1.55647-5.49786-.05415l-14.28162,14.00218c-1.53223,1.50363-1.55647,3.96434-.05415,5.49786l6.48293,6.61273c-1.50289-1.53322-1.47883-3.99431,.05374-5.49786"/>
      <path d="M313.85674,104.08415l14.27955-14.00218c1.53257-1.50355,1.55663-3.96464,.05374-5.49786l6.48251,6.60983c1.50266,1.53331,1.4786,3.99421-.05374,5.49786l-14.27997,14.00342c-1.5334,1.50243-3.99412,1.47838-5.49786-.05374l-6.48375-6.61107c1.50355,1.53257,3.96464,1.55663,5.49786,.05374"/>
      <path class="uuid-c3809ecb-d96c-4a4b-9c44-a5315d0dff02" d="M334.67296,91.19394l-6.48251-6.61107c1.50278,1.53333,1.47854,3.99442-.05415,5.49786l-.39642,.38857,3.76169,3.83445c1.50232,1.53352,1.47808,3.99423-.05415,5.49786l3.17057-3.10815c1.53269-1.50343,1.55693-3.96453,.05415-5.49786"/>
      <path class="uuid-25e36814-8344-4dc5-81f7-5c5ff92a917f" d="M318.53447,81.08325l3.76169,3.83445,.39642-.38898c1.53331-1.50266,3.99421-1.47861,5.49786,.05374l-6.48252-6.61107c-1.50374-1.53212-3.96446-1.55617-5.49786-.05374l-.39642,.38898,2.72082,2.77663Z"/>
    </g>
    <g>
      <g id="uuid-4f89e381-2124-4ce6-bd50-62d655511cc6" data-name="Group 1132">
        <path id="uuid-b7890d7e-9bd7-4ae6-a2f1-81375fbf9d74" data-name="Path 2438" class="uuid-97729946-4924-45fa-b33f-6a4498d1dbbf" d="M394.75441,96.70015l-.10211-.16046c-.01891-.02063-.03524-.04349-.04862-.06807l-7.09408-10.79428-9.16541,6.8072,6.73427,10.33723,.08266,.13128,.0389,.05349c1.69726,2.67585,5.24237,3.46916,7.91822,1.7719,2.67585-1.69726,3.46916-5.24237,1.7719-7.91822-.03737-.05891-.07581-.11714-.1153-.17465"/>
        <path id="uuid-a08b4fca-3b6b-460c-a178-c4f5646a2701" data-name="Path 2439" class="uuid-97729946-4924-45fa-b33f-6a4498d1dbbf" d="M367.25817,99.70504c0-3.16873-2.56877-5.7375-5.7375-5.7375s-5.7375,2.56877-5.7375,5.7375c0,3.16873,2.56877,5.7375,5.7375,5.7375h0c3.16873,0,5.7375-2.56877,5.7375-5.7375"/>
      </g>
      <g class="uuid-c8283289-d361-4935-8e8c-4202c22abe81">
        <g id="uuid-05527ef3-66c9-4b78-aa74-43e9a08c2a3d" data-name="Group 1134">
          <path id="uuid-701a0fd4-15dc-4037-8051-26bf21c7cffc" data-name="Path 2441" d="M388.39454,88.68223c.00955-3.17141-2.55364-5.75008-5.72505-5.75963s-5.75008,2.55364-5.75963,5.72505c-.00341,1.13252,.32814,2.24077,.95296,3.18535l-4.37606-6.15566c-1.65465-2.69611-5.18163-3.54038-7.87774-1.88573-.76819,.47145-1.41428,1.11754-1.88573,1.88573l-6.93363,10.81373c1.77127-2.62421,5.33451-3.31565,7.95872-1.54438,.69115,.46651,1.27221,1.07818,1.70265,1.79236l4.52679,6.36474c1.86595,2.5511,5.44668,3.10652,7.99778,1.24057,.47483-.3473,.89327-.76574,1.24057-1.24057l.04862-.07294c.11873-.16518,.22752-.33728,.32577-.5154l6.8072-10.61438c.63916-.95136,.97794-2.07272,.97246-3.21884m-9.64678,4.17185l.09725,.09238-.09725-.09238m.48623,.42788l.11183,.08266-.0778-.08266m1.25447,.71476l.15073,.05349-.15073-.05349m.62237,.20908l.20422,.04862-.20422-.04862m.66613,.14101l.20422,.02917-.20422-.02917m4.65321-1.34685l.15073-.14101-.15073,.14101m-3.107,1.38089l.20422-.03404-.20422,.03404m.65155-.11669l.2188-.05835-.2188,.05835m.65155-.19935c.06283-.01918,.12452-.0419,.18477-.06807-.06025,.02617-.12194,.0489-.18477,.06807m1.29337-.67586l.12156-.10211-.14101,.10697m.97246-.86063l.12156-.13128-.12156,.13128m-30.23371,4.18643c.04376-.07294,.08266-.14101,.13128-.20908l-.13614,.20908h.00486Z"/>
        </g>
      </g>
      <g id="uuid-942e9d77-05a2-4e21-a23e-5fe9e74f33e0" data-name="Group 1135">
        <path id="uuid-5d9fbd30-03fe-46cb-b3ee-2bff1b9088b6" data-name="Path 2443" class="uuid-25e36814-8344-4dc5-81f7-5c5ff92a917f" d="M382.61328,82.94126c-3.1647,.00403-5.72694,2.57279-5.72291,5.7375,.00403,3.1647,2.57279,5.72694,5.73749,5.72291,3.1647-.00403,5.72694-2.57279,5.72291-5.7375-.00402-3.15901-2.5639-5.71889-5.72291-5.72291"/>
        <path id="uuid-3cbcb05b-dca2-408f-8db1-06802c4aabfd" data-name="Path 2444" d="M382.64732,94.41973c-1.93207,.00152-3.7347-.9711-4.79422-2.58674l-4.37606-6.15566c-1.6517-2.69477-5.17521-3.54034-7.86998-1.88864-.7697,.47177-1.41687,1.11894-1.88864,1.88864l-6.95307,10.81373c1.77127-2.62421,5.33451-3.31565,7.95872-1.54438,.69115,.46651,1.27221,1.07818,1.70265,1.79236l4.5511,6.36474c1.86595,2.5511,5.44668,3.10652,7.99778,1.24057,.47483-.3473,.89327-.76574,1.24057-1.24057l.04376-.07294,.33064-.48623,6.8072-10.61924c-1.07205,1.56757-2.85138,2.50185-4.75046,2.49435m-26.02783,2.29986l.12642-.20908-.12642,.20908Z"/>
      </g>
    </g>
    <g>
      <path id="uuid-e27a0d38-a328-46f8-aa49-50052ef24c39" data-name="path5775" d="M438.48193,100.05528c-.45122,.133-.81076,.17883-1.28113,.17883-3.85918,0-9.52773-13.4861-9.52773-17.97457,0-1.65345,.3926-2.2046,.94451-2.67686-4.72404,.55077-10.39334,2.2835-12.20496,4.4881-.39336,.55152-.62967,1.41751-.62967,2.51944,0,7.00829,7.48017,22.91277,12.75612,22.91277,2.44054,0,6.55708-4.01547,9.94288-9.44771"/>
      <path id="uuid-61656c45-d9a9-42e7-9b30-9764fcf3b4e1" data-name="path5779" d="M436.01861,79.10987c4.88184,0,9.76442,.78746,9.76442,3.54322,0,5.59078-3.54322,12.36238-5.35447,12.36238-3.22801,0-7.24385-8.97583-7.24385-13.46431,0-2.04718,.78746-2.44129,2.8339-2.44129"/>
    </g>
    <g>
      <path d="M505.7828,88.5684c-.0149-1.68191-3.12604-2.44536-11.17957-2.44536-18.89633,0-23.69046-.80631-28.82057-6.19932,2.15828,3.2382,3.33911,9.31189,23.312,9.00965,20.83857-.32069,8.12579,5.36763,4.42682,11.79431,6.67079-5.94762,12.2412-9.86791,12.26132-12.13495v-.02434Z"/>
      <path d="M479.22929,105.83922c-.00075,1.56336-1.28812,2.84956-2.85338,2.84993-1.5809,0-2.85934-1.27697-2.85934-2.84993v-.00223c0-1.56596,1.28961-2.85462,2.85785-2.85462h.00149c1.57568,0,2.85338,1.27734,2.85338,2.85685Z"/>
      <path d="M492.24231,105.83922c-.00075,1.56336-1.28812,2.84956-2.85338,2.84993-1.57941,0-2.85858-1.27697-2.85858-2.84993v-.00223c0-1.56596,1.28959-2.85462,2.85709-2.85462h.00149c1.57568,0,2.85338,1.27734,2.85338,2.85685Z"/>
    </g>
    <g>
      <path d="M536.16093,100.09151l-2.3652-7.38056c-.23378,.64671-.41472,1.26446-.61293,1.87631-.19707,.60836-.39402,1.21676-.59041,1.82534-.19849,.61509-.39554,1.23066-.5945,1.8456-.19686,.60843-.39533,1.21634-.59613,1.8338h-1.9943l-3.40017-10.59755c.1869-.04706,1.36713-.06149,2.01212-.02728l2.36345,7.76506,.04578,.00207,2.50499-7.76399h1.69697l2.50373,7.75991c.31774-.84627,.56781-1.70616,.83585-2.56011,.27253-.86827,.5277-1.74197,.79373-2.6123,.26344-.86185,.53094-1.72247,.79855-2.58973h1.99479c-.21273,.72588-.45404,1.4257-.67578,2.13138-.2231,.71-.45034,1.4187-.67732,2.12747-.22469,.70161-.45134,1.40259-.67708,2.10386-.22813,.70868-.45634,1.41734-.68426,2.12609-.22786,.70857-.45541,1.41724-.6859,2.13462h-1.99601Z"/>
      <path d="M551.79968,89.46925h2.12255l3.0627,4.42681,3.06447-4.42697h2.14185v10.60275c-.15151,.03813-1.56122,.0482-1.90336,.01036v-7.79068l-.0367-.01689-3.26567,4.67409-3.27367-4.68608v7.8271h-1.91216v-10.6205Z"/>
      <path d="M544.24025,89.46911v4.37224c.16827,.05043,4.209,.06371,4.50893,.01783v-4.36369c.1853-.04704,1.39322-.06152,1.89453-.02657,.04081,.16841,.05827,10.13182,.01772,10.62191h-1.90367v-4.40026h-4.5099c-.01008,.36167-.00349,.72409-.00463,1.0862-.00117,.37246-.00026,.74492-.00026,1.11739v2.19637h-1.90991v-10.62142h1.90719Z"/>
      <path class="uuid-97729946-4924-45fa-b33f-6a4498d1dbbf" d="M567.99062,92.0584c-1.07837,.26181-1.76151,.93407-2.05057,1.99994-.36129,1.3322,.41871,2.91377,1.98733,3.28493,1.13796,.26926,2.08927-.10021,2.84612-1.01783h2.26028l.81603,.79399-.54151,.93844-1.37628-.3889-.36388,.46408,.36045,1.2679c-.28933,.22635-.60723,.39679-.95243,.5536l-.97974-1.0051-.53141,.14846-.35129,1.38056c-.35804,.03701-.71718,.0244-1.08369,.00716l-.35264-1.38444-.52888-.15364-.99965,1.0217-.93945-.54339,.38667-1.37376-.41073-.37449-1.3149,.37225c-.23997-.28381-.39882-.60938-.56668-.94182l1.00811-.98196-.14148-.53162-1.36008-.34162v-1.10166l1.35565-.34119,.14917-.52684-1.01372-.99085c.08347-.15884,.16152-.32035,.25148-.47494,.09133-.15693,.19441-.30701,.29738-.46796l1.35043,.37871,.37846-.40578c-.08467-.40926-.24583-.85276-.3607-1.32306,.27954-.22402,.60449-.38402,.94159-.55742l.98402,1.00828,.5281-.13491,.35051-1.37368h1.09472l.20386,.75897c.05118,.13685-.01537,.18166-.14071,.17784-.05359-.00164-.104-.02108-.15532-.03496-.32563-.0881-.49589,.02018-.56171,.35071-.02125,.10671,.03625,.1724,.10089,.23875,.10096,.10363,.22794,.17775,.32486,.28595,.22037,.24602,.13084,.56945-.1834,.65645-.14646,.04055-.2936,.08018-.44233,.11049-.15407,.0314-.21537,.11642-.21032,.27193,.00332,.10218,.02845,.21549-.06263,.30071Z"/>
      <path d="M574.98568,89.93522c.3978-.21602,.80952-.40026,1.25697-.48178,.29654-.05403,.59714-.10076,.8976-.11469,.40087-.01858,.80404-.02221,1.2033,.04478,.43954,.07375,.87005,.181,1.28293,.35039,.24206,.09931,.48013,.20837,.7162,.31138v1.87362c-.19135-.10438-.37426-.21022-.56243-.30572-.74375-.37746-1.53549-.54217-2.36572-.49188-.42232,.02558-.84115,.09745-1.21891,.31085-.22944,.12961-.42722,.29945-.51955,.55067-.16322,.44412-.06828,.85737,.34386,1.13816,.33452,.2279,.71666,.34546,1.09981,.45895,.61254,.18144,1.23391,.33494,1.82378,.58745,.48443,.20738,.92906,.47289,1.29109,.86243,.39754,.42774,.62007,.93835,.71736,1.50959,.05505,.32318,.06569,.64717,.04711,.97392-.02737,.48143-.19236,.91216-.47461,1.29794-.51162,.69927-1.22633,1.08387-2.0484,1.28656-.60782,.14987-1.22365,.15909-1.8482,.10287-.86647-.07799-1.69058-.2838-2.46281-.68743-.10651-.05567-.21166-.11398-.32294-.17403v-1.95302c.06758,.04312,.12908,.07984,.18799,.12031,.63846,.43863,1.3379,.71822,2.1075,.82382,.6809,.09343,1.35584,.08953,2.02151-.09892,.11476-.03249,.22508-.08349,.33389-.13367,.76664-.35355,.7079-1.27713,.32316-1.71159-.2694-.30421-.61499-.48723-.98921-.61572-.51858-.17805-1.04342-.33787-1.56542-.50597-.45253-.14573-.89824-.30792-1.30849-.55348-.38268-.22907-.70651-.51966-.93954-.90439-.00181-.07235,.0533-.06105,.09474-.05976,.09203,.00286,.17772,.03612,.26434,.06391,.37414,.12005,.43569,.0907,.59508-.25624,.05164-.11238,.03956-.19885-.04508-.28802-.11031-.1162-.24227-.20629-.35918-.31432-.12527-.11574-.15751-.24741-.10926-.41148,.0447-.152,.14623-.22207,.2917-.24942,.14912-.02804,.29423-.07448,.44289-.1033,.19228-.03728,.23224-.16766,.22868-.33552-.00355-.16662-.01637-.32193-.22116-.37014-.16228-.0382-.3256-.07413-.48464-.12418-.28726-.09039-.36292-.38245-.16138-.60747,.1506-.16814,.33706-.30398,.44006-.46394,.04101-.14526-.12128-.24051-.00462-.35156Z"/>
      <path class="uuid-3ed69926-0abe-4c2b-90c5-af729971d01a" d="M569.32139,89.85598c-.22532-.0593-.43103-.11313-.63902-.16785-.13592,.19612-.26044,.3804-.3357,.5966l.63127,.62853c-.02874,.11677-.05884,.23718-.08757,.35349-.30697,.07891-.59523,.1528-.89992,.23126v.56056c.00365,.08439,.03467,.13365,.12999,.15417,.25999,.05565,.51678,.12543,.78681,.19248,.01961,.13,.03786,.25315,.06066,.4055-.20753,.1902-.41416,.37994-.61257,.56193,.06659,.22214,.22259,.48577,.35212,.60801,.28507-.08028,.56833-.15964,.81326-.22852,.12224,.11083,.21164,.19157,.2942,.26638-.08165,.29465-.18883,.57059-.22897,.87803,.19978,.11083,.3877,.21529,.58566,.32566,.21437-.21803,.42191-.4292,.63948-.64997,.11996,.02827,.23992,.05656,.34118,.08028,.07845,.31289,.14961,.59888,.21985,.8794h.70288c.10217-.30013,.0967-.62305,.25178-.88898,.12817-.02555,.23581-.04698,.343-.06796l-.03603,.05838c.22624,.1788,.45247,.35805,.71246,.5633,.13821-.0821,.34027-.20251,.53548-.31837-.08712-.31609-.16785-.60755-.23353-.84564,.09807-.11997,.1642-.20116,.23353-.28507,.05154,.02325,.09168,.04105,.13182,.05929,.01733-.00684,.0374-.02281,.052-.0187,.23171,.0634,.46251,.12954,.70835,.19932,.11631-.19659,.22989-.38997,.34985-.59295-.22487-.22258-.43924-.43467-.65818-.65133,.02965-.11221,.05838-.22031,.08986-.33936,.29055-.07343,.5811-.14687,.87347-.2203,.06887-.23628,.05701-.46434,.00502-.69649-.29283-.07481-.57653-.14733-.87164-.22259-.0333-.11814-.06568-.2317-.09487-.33341,.22122-.22944,.43149-.44701,.63948-.66275-.02554-.11858-.14869-.19795-.12133-.33296-.07252-.07298-.1455-.1455-.24174-.2422-.26272,.07116-.54643,.14778-.84291,.22806-.07526-.07799-.15873-.16465-.26181-.27139,.07708-.26181,.15873-.53777,.24539-.83287-.17059-.16055-.37858-.26775-.62762-.37083-.20571,.22396-.41096,.447-.60071,.65362-.1414-.03786-.24813-.06705-.35988-.09716-.07845-.29875-.15645-.5966-.23444-.89216h-.67734c-.07298,.28553-.1455,.57106-.22532,.88304-.10992,.03558-.23353,.07572-.36444,.11814-.20753-.22077-.40777-.43377-.60481-.64358-.26683,.08757-.45566,.2016-.608,.37082,.07663,.27321,.15599,.55646,.2308,.8233-.09031,.09532-.16831,.17743-.25178,.26546l-.16831-.06021-.07115-.0114Zm3.55864,.64814c.21711,.18199,.37219,.41142,.48166,.67004,.04333,.10171,.0707,.20982,.1008,.31609,.00228,.00822-.03102,.02646-.04789,.04014-.04242-.05793-.08484-.11631-.13045-.17789-.45658,.12726-.90768,.2536-1.34373,.37538-.14368-.14504-.265-.26774-.39545-.39955,.12042-.40093,.2422-.80778,.36444-1.21465,.3836-.01915,.69011,.15509,.97062,.39044Z"/>
      <path class="uuid-97729946-4924-45fa-b33f-6a4498d1dbbf" d="M573.44699,92.23418c-.17332,.68099-.60345,1.13163-1.29082,1.31317-.35121,.09259-.70014,.0707-1.04406-.05428-.08484-.03102-.13775-.07846-.18154-.15417-.21209-.36626-.49397-.66821-.85933-.90722-.20708-.54826-.13729-1.07325,.18564-1.56175,.35486-.53731,.86891-.79365,1.50884-.80186,.04789-.00091,.09579,.02965,.14368,.04561-.12224,.40687-.24402,.81372-.36444,1.21465,.13045,.13181,.25178,.25451,.39545,.39955,.43605-.12178,.88715-.24813,1.34373-.37538,.04561,.06158,.08803,.11997,.13045,.17789,.14915,.22806,.09031,.47664,.03239,.70379Z"/>
    </g>
    <g>
      <polygon class="uuid-b02695c5-b372-4340-b12a-5aba8df0443b" points="617.30012 76.80637 617.30012 76.80637 617.30012 76.80637 601.00757 82.61639 603.49258 104.15897 617.30012 111.80649 617.30012 111.80649 617.30012 111.80649 631.10767 104.15897 633.59268 82.61639 617.30012 76.80637"/>
      <polygon points="617.30012 76.80637 617.30012 80.69139 617.30012 80.67389 617.30012 98.40145 617.30012 98.40145 617.30012 111.80649 617.30012 111.80649 631.10767 104.15897 633.59268 82.61639 617.30012 76.80637"/>
      <path class="uuid-f24ddb71-f215-456d-a3c5-482b98494b5c" d="M617.30012,80.67389l-10.18503,22.83758h3.79751l2.04751-5.11002h8.64503l2.04751,5.11002h3.79751l-10.15004-22.83758h0Zm2.97501,14.57755h-5.95002l2.97501-7.15753,2.97501,7.15753Z"/>
    </g>
    <path d="M656.70313,97.56479c.97996,4.55876,1.79528,8.89996,4.65087,12.02406h-5.4466c-1.27301,.00002-2.30711-1.02795-2.31466-2.30094v-25.95317c.00216-1.27682,1.03784-2.31074,2.31466-2.31074h3.9355c-.95901,.87438-1.80092,1.86912-2.50477,2.95947-3.1143,4.77239-1.83448,9.97596-.63501,15.58131Zm29.57312-18.54078h-6.17568c1.4621,1.46209,2.69488,3.35537,3.62584,5.70923l-9.38798,1.98147c-1.02895-1.97167-2.59297-3.61212-5.65239-2.96731-1.68748,.3567-2.80659,1.30334-3.30245,2.34014-.60953,1.27786-.9094,2.71056,.54878,9.5193,1.45817,6.80874,2.31662,7.99644,3.39457,8.9176,.87608,.74477,2.28918,1.15831,3.97666,.8016,3.06138-.64481,3.81595-2.77524,3.94922-4.9919l9.38798-1.98343c.22147,4.85666-1.28178,8.62362-3.93551,11.22834h3.57096c1.27378,.0011,2.30907-1.02718,2.31662-2.30094v-25.94336c-.00216-1.27758-1.03903-2.31182-2.31662-2.31074Z"/>
  </g>
</svg>