<svg width="79" height="50" viewBox="0 0 79 50" fill="none" xmlns="http://www.w3.org/2000/svg">
<path d="M28.5 12.6L20.5 17C20.2 17.2 20 17.5 20 17.8V26.7C20 27 20.2 27.3 20.5 27.5L28.5 31.9C28.8 32.1 29.2 32.1 29.5 31.9L37.5 27.5C37.8 27.3 38 27 38 26.7V17.8C38 17.5 37.8 17.2 37.5 17L29.5 12.6C29.3 12.5 29.2 12.5 29 12.5C28.8 12.5 28.6 12.5 28.5 12.6ZM69.7 20.6L68.4 21.3C68.3 21.3 68.3 21.4 68.3 21.4V22.9C68.3 23 68.3 23 68.4 23L69.7 23.7C69.8 23.7 69.8 23.7 69.9 23.7L71.2 23L71.3 22.9V21.4C71.3 21.3 71.3 21.3 71.2 21.3L69.9 20.6C69.8 20.5 69.8 20.5 69.7 20.6C69.7 20.5 69.7 20.5 69.7 20.6Z" fill="#5C8C44"/>
<path d="M58.7006 3.20006L54.8006 1.00005C54.7006 0.900049 54.5006 0.900049 54.4006 1.00005C54.3006 1.10005 54.2006 1.20007 54.2006 1.30007V14.4L50.6006 12.4C50.4006 12.3 50.3006 12.3001 50.1006 12.3001C49.9006 12.3001 49.8006 12.3 49.6006 12.4L41.6006 16.8001C41.3006 17.0001 41.1006 17.3001 41.1006 17.6001V26.5C41.1006 26.8 41.3006 27.1001 41.6006 27.3001L49.6006 31.7001C49.9006 31.9001 50.3006 31.9001 50.6006 31.7001L58.6006 27.3001C58.9006 27.1001 59.1006 26.8 59.1006 26.5V3.80007C59.2006 3.60007 59.0006 3.30006 58.7006 3.20006ZM54.0005 24.5L50.4006 26.5C50.3006 26.6 50.1005 26.6 50.0005 26.5L46.4006 24.5C46.3006 24.4 46.2006 24.3001 46.2006 24.1001V20.1001C46.2006 20.0001 46.3006 19.8001 46.4006 19.7001L50.0005 17.7001C50.1005 17.7001 50.1006 17.6001 50.2006 17.6001C50.3006 17.6001 50.4006 17.6001 50.4006 17.7001L54.0005 19.7001C54.1005 19.8001 54.2006 19.9001 54.2006 20.1001V24.1001C54.3006 24.3001 54.2005 24.5 54.0005 24.5Z" fill="#363636"/>
<path d="M28.5 12.6L20 26.7C20 27 20.2 27.3 20.5 27.5L28.5 31.9C28.8 32.1 29.2 32.1 29.5 31.9L38 17.8C38 17.5 37.8 17.2 37.5 17L29.5 12.6C29.3 12.5 29.2 12.5 29 12.5C28.8 12.5 28.6 12.5 28.5 12.6Z" fill="#507C3A"/>
<path d="M28.5 12.6L20.5 17C20.2 17.2 20 17.5 20 17.8L28.5 31.9C28.8 32.1 29.2 32.1 29.5 31.9L37.5 27.5C37.8 27.3 38 27 38 26.7L29.5 12.6C29.3 12.5 29.2 12.5 29 12.5C28.8 12.5 28.6 12.5 28.5 12.6Z" fill="#73AC57"/>
<path d="M78.2004 16.9L70.2004 12.5C70.1004 12.4 69.9004 12.4 69.7004 12.4C69.5004 12.4 69.4004 12.4 69.2004 12.5L61.2004 16.9C60.9004 17.1 60.7004 17.4 60.7004 17.7V26.5C60.7004 26.8 60.9004 27.2 61.2004 27.3L69.2004 31.7C69.5004 31.9 69.9004 31.9 70.2004 31.7L73.9004 29.7C74.2004 29.5 74.2004 29 73.9004 28.8L65.9004 24.4C65.8004 24.3 65.7004 24.2 65.7004 24V20C65.7004 19.8 65.8004 19.7 65.9004 19.6L69.5004 17.6C69.6004 17.6 69.6004 17.5 69.7004 17.5C69.8004 17.5 69.9004 17.5 69.9004 17.6L73.5004 19.6C73.6004 19.7 73.7004 19.8 73.7004 20V23.3C73.7004 23.4 73.8004 23.6 73.9004 23.6C74.0004 23.7 74.2004 23.7 74.3004 23.6L78.2004 21.3C78.4004 21.2 78.6004 20.9 78.6004 20.6V17.5C78.7004 17.4 78.5004 17.1 78.2004 16.9ZM17.9004 16.9L9.90039 12.5C9.70039 12.4 9.60039 12.4 9.40039 12.4C9.20039 12.4 9.10039 12.4 8.90039 12.5L0.900391 16.9C0.600391 17.1 0.400391 17.4 0.400391 17.7V29.9C0.400391 30 0.500403 30.2 0.600403 30.2C0.700403 30.3 0.900366 30.3 1.00037 30.2L4.90039 27.9C5.10039 27.8 5.30042 27.5 5.30042 27.2V20C5.30042 19.9 5.40037 19.7 5.50037 19.6L9.1004 17.6C9.2004 17.6 9.20041 17.5 9.30042 17.5C9.40042 17.5 9.50037 17.5 9.50037 17.6L13.1004 19.6C13.2004 19.7 13.3004 19.8 13.3004 20V27.2C13.3004 27.5 13.4004 27.7 13.7004 27.9L17.6004 30.2C17.7004 30.3 17.9004 30.3 18.0004 30.2C18.1004 30.1 18.2004 30 18.2004 29.9V17.7C18.4004 17.4 18.2004 17.1 17.9004 16.9Z" fill="#363636"/>
<path d="M39.3004 49.5C39.0004 49.5 38.8004 49.4 38.5004 49.3L36.1004 47.9C35.7004 47.7 35.9004 47.6 36.0004 47.6C36.5004 47.4 36.6004 47.4 37.1004 47.1C37.2004 47.1 37.2004 47.1 37.3004 47.1L39.2004 48.2C39.3004 48.2 39.4004 48.2 39.4004 48.2L46.7004 44C46.8004 44 46.8004 43.9 46.8004 43.8V35.3C46.8004 35.2 46.8004 35.1 46.7004 35.1L39.4004 30.9C39.3004 30.9 39.2004 30.9 39.2004 30.9L31.9004 35.1C31.8004 35.1 31.8004 35.2 31.8004 35.3V43.8C31.8004 43.9 31.8004 44 31.9004 44L33.9004 45.2C35.0004 45.7 35.7004 45.1 35.7004 44.5V36.2C35.7004 36.1 35.8004 36 35.9004 36H36.8004C36.9004 36 37.0004 36.1 37.0004 36.2V44.5C37.0004 46 36.2004 46.8 34.8004 46.8C34.4004 46.8 34.0004 46.8 33.1004 46.3L31.2004 45.2C30.7004 44.9 30.4004 44.4 30.4004 43.9V35.5C30.4004 35 30.7004 34.4 31.2004 34.2L38.5004 30C39.0004 29.7 39.6004 29.7 40.0004 30L47.3004 34.2C47.8004 34.5 48.1004 35 48.1004 35.5V44C48.1004 44.5 47.8004 45.1 47.3004 45.3L40.0004 49.5C39.8004 49.4 39.6004 49.5 39.3004 49.5Z" fill="#7A9D66"/>
<path d="M41.6002 43.7C38.4002 43.7 37.7002 42.2 37.7002 41C37.7002 40.9 37.8002 40.8 37.9002 40.8H38.8002C38.9002 40.8 39.0002 40.9 39.0002 41C39.1002 42 39.6002 42.4 41.5002 42.4C43.0002 42.4 43.7002 42.1 43.7002 41.2C43.7002 40.7 43.5002 40.4 41.1002 40.1C39.1002 39.9 37.9002 39.5 37.9002 37.9C37.9002 36.4 39.2002 35.6 41.2002 35.6C43.5002 35.6 44.7002 36.4 44.9002 38.2C44.9002 38.3 44.9002 38.3 44.8002 38.4C44.8002 38.4 44.7002 38.5 44.6002 38.5H43.7002C43.6002 38.5 43.5002 38.4 43.5002 38.3C43.3002 37.3 42.7002 37 41.2002 37C39.5002 37 39.3002 37.6 39.3002 38C39.3002 38.5 39.5002 38.7 41.8002 39C44.1002 39.3 45.1002 39.7 45.1002 41.3C45.2002 42.8 43.9002 43.7 41.6002 43.7ZM50.5002 34.7H50.7002C50.9002 34.7 50.9002 34.6 50.9002 34.5C50.9002 34.3 50.7002 34.3 50.7002 34.3H50.5002V34.7ZM50.2002 34H50.7002C50.9002 34 51.2002 34 51.2002 34.4C51.2002 34.7 51.0002 34.8 50.9002 34.8C51.1002 34.8 51.1002 35 51.2002 35.2C51.2002 35.3 51.2002 35.5 51.3002 35.6H51.0002C51.0002 35.5 50.9002 35.1 50.9002 35.1C50.9002 35 50.8002 35 50.7002 35H50.4002V35.6H50.1002L50.2002 34ZM49.5002 34.8C49.5002 35.5 50.0002 36 50.7002 36C51.4002 36 51.9002 35.5 51.9002 34.8C51.9002 34.1 51.4002 33.6 50.7002 33.6C50.0002 33.7 49.5002 34.2 49.5002 34.8ZM52.1002 34.8C52.1002 35.6 51.5002 36.2 50.7002 36.2C49.9002 36.2 49.3002 35.6 49.3002 34.8C49.3002 34 50.0002 33.4 50.7002 33.4C51.4002 33.4 52.1002 34 52.1002 34.8Z" fill="#7A9D66"/>
</svg>
