<svg width="115" height="60" viewBox="0 0 115 60" fill="none" xmlns="http://www.w3.org/2000/svg">
<path d="M57.6 3C88.2 3 111.7 15.9 111.7 30C111.7 44.1 88.2 57 57.6 57C27 57 3.5 44.1 3.5 30C3.5 15.9 27 3 57.6 3ZM57.6 0C26.1 0 0.5 13.4 0.5 30C0.5 46.6 26.1 60 57.6 60C89.1 60 114.7 46.6 114.7 30C114.7 13.4 89.1 0 57.6 0ZM39.4 27.6C38 34.8 33 34.1 26.9 34.1L29.3 21.5C36.2 21.5 40.8 20.8 39.4 27.6ZM17.9 46.8H24.4L26 38.8C33.3 38.8 37.9 39.3 42.1 35.4C46.8 31.1 48 23.5 44.7 19.7C43 17.7 40.2 16.7 36.4 16.7H23.8L17.9 46.8ZM51 8.7H57.5L55.9 16.7C61.5 16.7 66.7 16.3 69.2 18.6C71.8 21 70.6 24.1 67.7 38.8H61.1C63.8 24.6 64.4 23.5 63.4 22.4C62.4 21.4 60.2 21.6 54.9 21.6L51.5 38.8H45L51 8.7ZM90.6 27.6C89.2 34.9 84.1 34.1 78.1 34.1L80.5 21.5C87.4 21.5 91.9 20.8 90.6 27.6ZM69.1 46.8H75.7L77.3 38.8C85 38.8 89.3 39.2 93.4 35.4C98.1 31.1 99.3 23.5 96 19.7C94.3 17.7 91.5 16.7 87.7 16.7H75.1L69.1 46.8Z" fill="#273B7B"/>
</svg>
