<svg width="605" height="537" viewBox="0 0 605 537" fill="none" xmlns="http://www.w3.org/2000/svg">
<path d="M228.642 525.972C229.179 525.342 229.103 524.395 228.472 523.858L218.193 515.107C217.562 514.57 216.615 514.646 216.078 515.277C215.541 515.907 215.617 516.854 216.248 517.391L225.385 525.17L217.607 534.307C217.07 534.938 217.146 535.885 217.776 536.422C218.407 536.959 219.354 536.883 219.891 536.252L228.642 525.972ZM588.5 8.49988C588.5 12.9182 592.082 16.4999 596.5 16.4999C600.919 16.4999 604.5 12.9182 604.5 8.49988C604.5 4.0816 600.919 0.499878 596.5 0.499878C592.082 0.499878 588.5 4.0816 588.5 8.49988ZM224.838 523.697C224.012 523.756 223.389 524.473 223.448 525.3C223.507 526.126 224.224 526.748 225.05 526.69L224.838 523.697ZM217.914 527.104C218.742 527.066 219.382 526.365 219.345 525.538C219.308 524.71 218.607 524.069 217.779 524.107L217.914 527.104ZM212.791 524.284C211.963 524.305 211.309 524.994 211.331 525.822C211.352 526.65 212.041 527.304 212.869 527.283L212.791 524.284ZM205.883 527.372C206.711 527.373 207.383 526.702 207.384 525.873C207.384 525.045 206.713 524.373 205.884 524.372L205.883 527.372ZM201.006 524.323C200.178 524.307 199.493 524.965 199.477 525.794C199.46 526.622 200.119 527.306 200.947 527.323L201.006 524.323ZM193.882 527.085C194.71 527.125 195.413 526.486 195.452 525.659C195.491 524.831 194.853 524.128 194.025 524.089L193.882 527.085ZM189.006 523.798C188.18 523.742 187.464 524.366 187.408 525.193C187.351 526.019 187.976 526.735 188.802 526.791L189.006 523.798ZM181.778 526.21C182.603 526.29 183.337 525.687 183.417 524.862C183.497 524.038 182.894 523.304 182.069 523.224L181.778 526.21ZM177.179 522.696C176.357 522.598 175.611 523.186 175.513 524.009C175.415 524.831 176.003 525.577 176.826 525.675L177.179 522.696ZM169.944 524.756C170.763 524.878 171.526 524.312 171.648 523.493C171.77 522.673 171.204 521.91 170.385 521.788L169.944 524.756ZM165.403 520.991C164.587 520.851 163.812 521.399 163.672 522.216C163.531 523.032 164.08 523.808 164.896 523.948L165.403 520.991ZM157.933 522.641C158.745 522.807 159.537 522.283 159.703 521.471C159.868 520.66 159.344 519.867 158.533 519.702L157.933 522.641ZM153.7 518.66C152.892 518.476 152.088 518.982 151.904 519.79C151.721 520.598 152.227 521.401 153.034 521.585L153.7 518.66ZM146.282 519.937C147.084 520.146 147.903 519.666 148.112 518.864C148.322 518.063 147.841 517.243 147.04 517.034L146.282 519.937ZM142.226 515.717C141.43 515.489 140.599 515.95 140.371 516.747C140.143 517.543 140.604 518.374 141.401 518.602L142.226 515.717ZM134.607 516.534C135.395 516.789 136.241 516.356 136.495 515.567C136.749 514.779 136.316 513.934 135.528 513.679L134.607 516.534ZM130.829 512.101C130.047 511.828 129.191 512.241 128.918 513.023C128.645 513.805 129.058 514.66 129.84 514.933L130.829 512.101ZM123.287 512.521C124.06 512.82 124.929 512.436 125.228 511.664C125.527 510.892 125.144 510.023 124.371 509.723L123.287 512.521ZM119.779 507.879C119.014 507.561 118.136 507.923 117.818 508.688C117.5 509.453 117.862 510.331 118.627 510.649L119.779 507.879ZM112.117 507.807C112.871 508.152 113.761 507.821 114.106 507.067C114.45 506.314 114.119 505.424 113.366 505.079L112.117 507.807ZM108.881 502.958C108.136 502.594 107.238 502.903 106.875 503.648C106.511 504.392 106.82 505.29 107.564 505.654L108.881 502.958ZM101.327 502.47C102.058 502.86 102.967 502.583 103.356 501.852C103.746 501.121 103.469 500.212 102.738 499.823L101.327 502.47ZM98.4091 497.445C97.6882 497.037 96.7729 497.291 96.3648 498.011C95.9567 498.732 96.2104 499.648 96.9313 500.056L98.4091 497.445ZM90.8214 496.449C91.527 496.883 92.4509 496.663 92.8849 495.958C93.3189 495.252 93.0987 494.328 92.393 493.894L90.8214 496.449ZM88.202 491.241C87.5079 490.789 86.5786 490.985 86.1264 491.679C85.6742 492.373 85.8703 493.302 86.5644 493.754L88.202 491.241ZM80.7571 489.819C81.4343 490.296 82.3701 490.134 82.8473 489.456C83.3245 488.779 83.1624 487.844 82.4853 487.366L80.7571 489.819ZM78.4818 484.466C77.8173 483.971 76.8776 484.108 76.3828 484.773C75.8879 485.437 76.0254 486.377 76.6898 486.872L78.4818 484.466ZM71.0894 482.536C71.7349 483.056 72.6791 482.953 73.1983 482.308C73.7176 481.662 73.6152 480.718 72.9696 480.199L71.0894 482.536ZM69.1483 477.041C68.5168 476.504 67.5702 476.582 67.034 477.213C66.4978 477.845 66.5751 478.791 67.2066 479.327L69.1483 477.041ZM61.9373 474.682C62.5484 475.241 63.4972 475.199 64.0566 474.588C64.6159 473.977 64.574 473.028 63.9629 472.469L61.9373 474.682ZM60.3549 469.077C59.759 468.501 58.8094 468.518 58.2339 469.113C57.6584 469.709 57.6749 470.659 58.2708 471.234L60.3549 469.077ZM53.2794 466.228C53.8532 466.826 54.8027 466.845 55.4003 466.271C55.9979 465.698 56.0172 464.748 55.4434 464.151L53.2794 466.228ZM52.06 460.53C51.5025 459.918 50.5539 459.873 49.9411 460.43C49.3282 460.988 49.2834 461.936 49.8408 462.549L52.06 460.53ZM45.2066 457.258C45.7406 457.891 46.6869 457.972 47.3202 457.438C47.9536 456.904 48.0342 455.958 47.5002 455.324L45.2066 457.258ZM44.3564 451.491C43.8397 450.844 42.8959 450.738 42.2484 451.254C41.6008 451.771 41.4947 452.715 42.0114 453.362L44.3564 451.491ZM37.7145 447.763C38.2063 448.429 39.1454 448.571 39.812 448.079C40.4787 447.588 40.6205 446.649 40.1287 445.982L37.7145 447.763ZM37.2415 441.955C36.7679 441.276 35.833 441.108 35.1533 441.582C34.4736 442.056 34.3065 442.991 34.7801 443.67L37.2415 441.955ZM30.863 437.816C31.3106 438.513 32.2385 438.715 32.9356 438.267C33.6328 437.82 33.835 436.892 33.3875 436.195L30.863 437.816ZM30.767 431.99C30.3384 431.281 29.4163 431.053 28.7073 431.482C27.9984 431.91 27.7711 432.833 28.1997 433.542L30.767 431.99ZM24.6665 427.44C25.0681 428.165 25.981 428.427 26.7056 428.025C27.4302 427.624 27.6921 426.711 27.2906 425.986L24.6665 427.44ZM24.9466 421.618C24.5647 420.883 23.6592 420.597 22.924 420.979C22.1889 421.36 21.9025 422.266 22.2843 423.001L24.9466 421.618ZM19.1506 416.68C19.5045 417.429 20.3987 417.749 21.1477 417.396C21.8967 417.042 22.2169 416.147 21.863 415.398L19.1506 416.68ZM19.8097 410.898C19.4759 410.14 18.5907 409.796 17.8325 410.13C17.0743 410.464 16.7302 411.349 17.064 412.107L19.8097 410.898ZM14.3461 405.606C14.6513 406.376 15.523 406.753 16.2932 406.448C17.0633 406.143 17.4403 405.271 17.1351 404.501L14.3461 405.606ZM15.3688 399.864C15.0842 399.086 14.2228 398.686 13.4448 398.971C12.6668 399.255 12.2668 400.117 12.5513 400.895L15.3688 399.864ZM10.2505 394.221C10.5059 395.009 11.3518 395.441 12.1399 395.186C12.928 394.93 13.3598 394.084 13.1044 393.296L10.2505 394.221ZM11.6436 388.578C11.409 387.783 10.5748 387.329 9.78025 387.564C8.98572 387.799 8.53178 388.633 8.76634 389.427L11.6436 388.578ZM6.89661 382.635C7.10175 383.438 7.9187 383.922 8.72133 383.717C9.52395 383.512 10.0083 382.695 9.80317 381.893L6.89661 382.635ZM8.63622 377.063C8.45223 376.255 7.64828 375.75 6.84054 375.934C6.03281 376.118 5.52715 376.921 5.71114 377.729L8.63622 377.063ZM4.26994 370.821C4.42429 371.635 5.20923 372.169 6.02315 372.015C6.83707 371.861 7.37176 371.076 7.21741 370.262L4.26994 370.821ZM6.36082 365.403C6.22753 364.585 5.45666 364.03 4.63902 364.164C3.82139 364.297 3.26662 365.068 3.39991 365.885L6.36082 365.403ZM2.39226 358.914C2.49598 359.736 3.24635 360.318 4.06826 360.214C4.89017 360.111 5.47238 359.36 5.36866 358.538L2.39226 358.914ZM4.80923 353.593C4.72668 352.769 3.99153 352.168 3.16723 352.25C2.34292 352.333 1.74161 353.068 1.82416 353.892L4.80923 353.593ZM1.24669 346.862C1.2998 347.689 2.01304 348.316 2.83977 348.263C3.66649 348.21 4.29363 347.497 4.24052 346.67L1.24669 346.862ZM3.98641 341.748C3.95408 340.92 3.25681 340.275 2.42901 340.308C1.60121 340.34 0.956363 341.037 0.988693 341.865L3.98641 341.748ZM0.837516 334.824C0.840791 335.653 1.51501 336.321 2.34343 336.318C3.17185 336.315 3.84077 335.641 3.83749 334.812L0.837516 334.824ZM3.88015 329.829C3.89759 329.001 3.24029 328.315 2.41205 328.298C1.58381 328.28 0.898249 328.937 0.880817 329.766L3.88015 329.829ZM1.15137 322.716C1.10532 323.543 1.73853 324.251 2.56568 324.297C3.39282 324.343 4.10069 323.71 4.14673 322.882L1.15137 322.716ZM4.47992 317.972C4.54601 317.147 3.93015 316.424 3.10437 316.358C2.27858 316.291 1.55557 316.907 1.48948 317.733L4.47992 317.972ZM2.16973 310.729C2.07573 311.552 2.66677 312.296 3.48984 312.39C4.31292 312.484 5.05636 311.893 5.15036 311.07L2.16973 310.729ZM5.77614 306.121C5.88995 305.3 5.31701 304.543 4.49643 304.429C3.67586 304.315 2.9184 304.888 2.80459 305.708L5.77614 306.121ZM3.89257 298.723C3.75149 299.539 4.29889 300.315 5.11522 300.457C5.93154 300.598 6.70767 300.05 6.84875 299.234L3.89257 298.723ZM7.74107 294.406C7.90106 293.593 7.37182 292.804 6.55899 292.644C5.74616 292.484 4.95753 293.013 4.79755 293.826L7.74107 294.406ZM6.26563 286.957C6.07943 287.765 6.58287 288.57 7.39009 288.756C8.19732 288.942 9.00266 288.439 9.18887 287.632L6.26563 286.957ZM10.3659 282.785C10.5707 281.982 10.0859 281.165 9.28316 280.961C8.48043 280.756 7.66372 281.241 7.45898 282.044L10.3659 282.785ZM9.32628 275.183C9.09599 275.979 9.55441 276.811 10.3502 277.041C11.146 277.271 11.9777 276.813 12.208 276.017L9.32628 275.183ZM13.6196 271.333C13.8673 270.543 13.4273 269.701 12.6368 269.453C11.8463 269.206 11.0046 269.646 10.7569 270.436L13.6196 271.333ZM12.9526 263.79C12.6807 264.572 13.0948 265.427 13.8773 265.699C14.6599 265.97 15.5146 265.556 15.7865 264.774L12.9526 263.79ZM17.4714 260.089C17.7603 259.313 17.365 258.449 16.5885 258.16C15.8121 257.871 14.9485 258.267 14.6597 259.043L17.4714 260.089ZM17.2452 252.403C16.933 253.17 17.302 254.045 18.0693 254.358C18.8366 254.67 19.7118 254.301 20.024 253.534L17.2452 252.403ZM21.9296 248.987C22.2578 248.227 21.9072 247.344 21.1466 247.016C20.386 246.688 19.5033 247.038 19.1751 247.799L21.9296 248.987ZM22.0248 241.448C21.6749 242.198 21.9999 243.091 22.7508 243.441C23.5017 243.791 24.3941 243.466 24.744 242.715L22.0248 241.448ZM26.8844 238.242C27.2495 237.498 26.9427 236.599 26.1991 236.234C25.4555 235.869 24.5567 236.176 24.1915 236.919L26.8844 238.242ZM27.4099 230.595C27.0238 231.328 27.305 232.235 28.0379 232.621C28.7709 233.007 29.6781 232.726 30.0642 231.993L27.4099 230.595ZM32.4672 227.54C32.868 226.815 32.6051 225.903 31.8801 225.502C31.155 225.101 30.2424 225.364 29.8416 226.089L32.4672 227.54ZM33.2626 220.091C32.8427 220.805 33.0811 221.724 33.7952 222.144C34.5093 222.564 35.4286 222.326 35.8486 221.612L33.2626 220.091ZM38.3854 217.39C38.8188 216.684 38.5978 215.76 37.8918 215.327C37.1857 214.894 36.2621 215.115 35.8287 215.821L38.3854 217.39ZM39.5938 209.864C39.142 210.559 39.3387 211.488 40.0331 211.94C40.7275 212.392 41.6566 212.195 42.1084 211.5L39.5938 209.864ZM44.8909 207.31C45.3556 206.624 45.1762 205.691 44.4903 205.227C43.8045 204.762 42.8718 204.941 42.4072 205.627L44.8909 207.31ZM46.452 199.818C45.9701 200.491 46.1257 201.428 46.7995 201.91C47.4733 202.392 48.4102 202.237 48.8922 201.563L46.452 199.818ZM51.7638 197.621C52.2574 196.955 52.1181 196.016 51.4528 195.522C50.7874 195.029 49.8479 195.168 49.3544 195.833L51.7638 197.621ZM53.5769 190.283C53.0674 190.936 53.184 191.879 53.8372 192.388C54.4905 192.898 55.433 192.781 55.9425 192.128L53.5769 190.283ZM59.0411 188.224C59.5616 187.58 59.4612 186.636 58.8168 186.115C58.1723 185.594 57.2279 185.695 56.7073 186.339L59.0411 188.224ZM61.251 180.849C60.7153 181.481 60.7933 182.428 61.4252 182.964C62.0571 183.499 63.0037 183.421 63.5394 182.789L61.251 180.849ZM66.8334 178.969C67.3795 178.346 67.3172 177.398 66.6943 176.852C66.0714 176.306 65.1237 176.368 64.5776 176.991L66.8334 178.969ZM69.1695 171.869C68.6098 172.479 68.6512 173.428 69.262 173.988C69.8727 174.548 70.8216 174.506 71.3813 173.895L69.1695 171.869ZM74.7337 170.294C75.3029 169.692 75.2762 168.743 74.6743 168.173C74.0723 167.604 73.1229 167.631 72.5538 168.233L74.7337 170.294ZM77.4386 163.177C76.8566 163.767 76.8627 164.716 77.4522 165.298C78.0418 165.88 78.9915 165.874 79.5735 165.285L77.4386 163.177ZM83.1356 161.731C83.7265 161.151 83.7349 160.201 83.1543 159.61C82.5737 159.019 81.624 159.011 81.0331 159.591L83.1356 161.731ZM86.2137 154.609C85.6106 155.177 85.5821 156.126 86.1501 156.729C86.718 157.332 87.6673 157.361 88.2704 156.793L86.2137 154.609ZM91.8269 153.491C92.4379 152.932 92.4799 151.983 91.9205 151.372C91.3611 150.761 90.4123 150.719 89.8012 151.278L91.8269 153.491ZM94.9446 146.662C94.3227 147.209 94.2623 148.157 94.8096 148.779C95.3569 149.401 96.3047 149.461 96.9266 148.914L94.9446 146.662ZM100.664 145.67C101.294 145.132 101.367 144.185 100.829 143.555C100.29 142.926 99.343 142.852 98.7136 143.391L100.664 145.67ZM104.124 138.85C103.484 139.377 103.393 140.322 103.919 140.961C104.446 141.601 105.391 141.693 106.031 141.166L104.124 138.85ZM109.96 137.977C110.606 137.459 110.711 136.515 110.193 135.868C109.675 135.221 108.731 135.117 108.085 135.635L109.96 137.977ZM113.678 131.241C113.022 131.746 112.9 132.688 113.406 133.344C113.912 134.001 114.854 134.123 115.51 133.617L113.678 131.241ZM119.371 130.679C120.034 130.181 120.167 129.241 119.67 128.579C119.172 127.916 118.232 127.783 117.57 128.28L119.371 130.679ZM123.137 124.173C122.466 124.659 122.316 125.597 122.802 126.268C123.288 126.939 124.226 127.089 124.897 126.603L123.137 124.173ZM128.93 123.719C129.607 123.241 129.768 122.305 129.291 121.628C128.813 120.951 127.877 120.79 127.2 121.268L128.93 123.719ZM133.009 117.24C132.324 117.707 132.147 118.64 132.614 119.324C133.08 120.009 134.013 120.186 134.698 119.72L133.009 117.24ZM138.904 116.893C139.594 116.435 139.783 115.504 139.324 114.813C138.866 114.123 137.936 113.935 137.245 114.393L138.904 116.893ZM143.224 110.496C142.527 110.942 142.323 111.87 142.77 112.568C143.217 113.266 144.144 113.469 144.842 113.022L143.224 110.496ZM148.936 110.433C149.638 109.994 149.852 109.069 149.413 108.366C148.974 107.664 148.049 107.45 147.346 107.889L148.936 110.433ZM153.224 104.278C152.515 104.706 152.287 105.628 152.715 106.337C153.144 107.047 154.066 107.274 154.775 106.846L153.224 104.278ZM159.023 104.312C159.737 103.891 159.974 102.971 159.554 102.258C159.133 101.544 158.213 101.306 157.5 101.727L159.023 104.312ZM163.594 98.1962C162.874 98.6062 162.623 99.5221 163.033 100.242C163.443 100.962 164.359 101.213 165.079 100.803L163.594 98.1962ZM169.482 98.3261C170.206 97.9237 170.467 97.0105 170.065 96.2863C169.662 95.5622 168.749 95.3013 168.025 95.7037L169.482 98.3261ZM174.338 92.2563C173.608 92.6481 173.334 93.5574 173.726 94.2873C174.117 95.0173 175.027 95.2914 175.757 94.8997L174.338 92.2563ZM180.11 92.5908C180.844 92.2062 181.127 91.2997 180.743 90.5659C180.358 89.8321 179.451 89.549 178.718 89.9336L180.11 92.5908ZM184.807 86.7939C184.068 87.1687 183.773 88.0714 184.148 88.8102C184.523 89.549 185.425 89.8442 186.164 89.4695L184.807 86.7939ZM190.558 87.2674C191.3 86.8997 191.604 85.9998 191.236 85.2574C190.868 84.5151 189.968 84.2114 189.226 84.5791L190.558 87.2674ZM195.509 81.518C194.762 81.876 194.446 82.7718 194.804 83.5189C195.162 84.266 196.058 84.5814 196.805 84.2234L195.509 81.518ZM201.337 82.0776C202.088 81.7265 202.411 80.8337 202.06 80.0833C201.709 79.3329 200.816 79.0092 200.066 79.3603L201.337 82.0776ZM206.543 76.3805C205.789 76.7219 205.454 77.6106 205.795 78.3654C206.136 79.1202 207.025 79.4553 207.78 79.1139L206.543 76.3805ZM212.452 77.0264C213.21 76.6918 213.553 75.8063 213.218 75.0484C212.884 74.2905 211.998 73.9473 211.24 74.2819L212.452 77.0264ZM217.608 71.5166C216.846 71.842 216.493 72.7234 216.818 73.4852C217.143 74.2471 218.025 74.6009 218.787 74.2754L217.608 71.5166ZM223.267 72.3835C224.032 72.0644 224.393 71.186 224.074 70.4215C223.755 69.657 222.876 69.2959 222.112 69.615L223.267 72.3835ZM228.503 66.9908C227.735 67.301 227.363 68.1753 227.674 68.9434C227.984 69.7115 228.858 70.0827 229.626 69.7724L228.503 66.9908ZM234.23 67.9345C235.001 67.6305 235.379 66.7594 235.075 65.9887C234.771 65.2181 233.9 64.8398 233.129 65.1438L234.23 67.9345ZM239.693 62.5973C238.919 62.8926 238.531 63.7595 238.826 64.5335C239.121 65.3075 239.988 65.6956 240.762 65.4003L239.693 62.5973ZM245.49 63.6181C246.267 63.329 246.662 62.4653 246.372 61.6889C246.083 60.9126 245.22 60.5176 244.443 60.8067L245.49 63.6181ZM251.181 58.3402C250.401 58.6207 249.997 59.48 250.277 60.2595C250.558 61.039 251.417 61.4435 252.196 61.163L251.181 58.3402ZM256.986 59.4606C257.767 59.1861 258.178 58.33 257.904 57.5483C257.629 56.7667 256.773 56.3555 255.992 56.63L256.986 59.4606ZM262.426 54.4072C261.642 54.6738 261.222 55.5257 261.488 56.3101C261.755 57.0945 262.607 57.5143 263.391 57.2477L262.426 54.4072ZM268.021 55.6928C268.808 55.4319 269.234 54.583 268.973 53.7967C268.712 53.0105 267.863 52.5846 267.077 52.8455L268.021 55.6928ZM273.664 50.6959C272.875 50.949 272.441 51.7937 272.694 52.5825C272.947 53.3713 273.791 53.8056 274.58 53.5525L273.664 50.6959ZM279.32 52.0501C280.111 51.8026 280.551 50.961 280.303 50.1704C280.056 49.3798 279.214 48.9396 278.424 49.1872L279.32 52.0501ZM285.165 47.1126C284.372 47.3525 283.923 48.1897 284.163 48.9827C284.403 49.7756 285.24 50.224 286.033 49.9842L285.165 47.1126ZM290.883 48.5356C291.678 48.3013 292.132 47.4672 291.898 46.6726C291.663 45.878 290.829 45.4238 290.035 45.6581L290.883 48.5356ZM296.93 43.6605C296.134 43.8872 295.671 44.7169 295.898 45.5137C296.125 46.3105 296.955 46.7727 297.751 46.546L296.93 43.6605ZM302.649 45.1702C303.447 44.9489 303.915 44.1223 303.694 43.324C303.472 42.5257 302.646 42.058 301.847 42.2793L302.649 45.1702ZM308.41 40.4906C307.609 40.7049 307.134 41.5274 307.349 42.3276C307.563 43.1278 308.386 43.6028 309.186 43.3884L308.41 40.4906ZM313.904 42.1403C314.705 41.9309 315.185 41.1114 314.976 40.3098C314.766 39.5083 313.947 39.0283 313.145 39.2377L313.904 42.1403ZM319.843 37.5187C319.04 37.7212 318.553 38.5366 318.755 39.3399C318.958 40.1432 319.773 40.6302 320.577 40.4277L319.843 37.5187ZM325.392 39.2296C326.196 39.032 326.688 38.2197 326.491 37.4151C326.293 36.6106 325.481 36.1186 324.676 36.3162L325.392 39.2296ZM331.511 34.6685C330.705 34.8592 330.206 35.6674 330.396 36.4735C330.587 37.2797 331.395 37.7786 332.202 37.5878L331.511 34.6685ZM337.115 36.4408C337.922 36.2549 338.426 35.4497 338.24 34.6424C338.054 33.8351 337.249 33.3314 336.442 33.5173L337.115 36.4408ZM343.413 31.9423C342.604 32.1215 342.094 32.9225 342.273 33.7313C342.452 34.5401 343.253 35.0505 344.062 34.8713L343.413 31.9423ZM349.074 33.7764C349.884 33.602 350.399 32.8041 350.224 31.9942C350.05 31.1844 349.252 30.6692 348.442 30.8437L349.074 33.7764ZM355.246 29.4061C354.435 29.5742 353.914 30.3681 354.082 31.1793C354.25 31.9905 355.044 32.5118 355.855 32.3437L355.246 29.4061ZM360.611 31.3717C361.423 31.208 361.949 30.417 361.785 29.6049C361.621 28.7928 360.83 28.2672 360.018 28.4309L360.611 31.3717ZM366.759 27.0984C365.946 27.256 365.415 28.0431 365.572 28.8564C365.73 29.6697 366.517 30.2012 367.33 30.0436L366.759 27.0984ZM372.173 29.1186C372.987 28.9653 373.522 28.1811 373.369 27.367C373.216 26.5529 372.432 26.0171 371.617 26.1704L372.173 29.1186ZM378.479 24.9048C377.664 25.052 377.123 25.8323 377.27 26.6475C377.417 27.4628 378.198 28.0043 379.013 27.857L378.479 24.9048ZM383.942 26.9799C384.758 26.8369 385.304 26.0595 385.161 25.2435C385.018 24.4275 384.24 23.8819 383.424 24.0249L383.942 26.9799ZM390.408 22.8273C389.591 22.9643 389.04 23.7378 389.177 24.5548C389.314 25.3718 390.087 25.923 390.904 25.7859L390.408 22.8273ZM395.921 24.9576C396.738 24.8247 397.294 24.0541 397.161 23.2364C397.028 22.4187 396.257 21.8636 395.44 21.9964L395.921 24.9576ZM402.545 20.868C401.727 20.995 401.166 21.7616 401.293 22.5802C401.42 23.3989 402.187 23.9595 403.005 23.8325L402.545 20.868ZM407.971 23.0746C408.79 22.9516 409.355 22.1878 409.232 21.3685C409.109 20.5493 408.345 19.9848 407.526 20.1078L407.971 23.0746ZM414.257 19.1199C413.437 19.2376 412.868 19.9977 412.985 20.8177C413.103 21.6377 413.863 22.2072 414.683 22.0896L414.257 19.1199ZM419.516 21.408C420.336 21.2942 420.909 20.5367 420.795 19.7161C420.682 18.8956 419.924 18.3226 419.104 18.4364L419.516 21.408ZM425.942 17.5106C425.121 17.6191 424.543 18.3728 424.651 19.1941C424.76 20.0154 425.514 20.5933 426.335 20.4848L425.942 17.5106ZM431.244 19.8477C432.066 19.743 432.647 18.9919 432.543 18.1701C432.438 17.3483 431.687 16.767 430.865 16.8718L431.244 19.8477ZM437.811 16.009C436.989 16.1085 436.403 16.8559 436.502 17.6783C436.602 18.5008 437.349 19.0868 438.171 18.9873L437.811 16.009ZM443.158 18.3955C443.981 18.2997 444.57 17.5549 444.475 16.7321C444.379 15.9092 443.634 15.3198 442.811 15.4156L443.158 18.3955ZM449.866 14.6169C449.042 14.7075 448.448 15.4485 448.539 16.272C448.629 17.0954 449.37 17.6895 450.194 17.5989L449.866 14.6169ZM455.258 17.0529C456.082 16.966 456.679 16.2276 456.592 15.4037C456.505 14.5799 455.767 13.9825 454.943 14.0695L455.258 17.0529ZM462.106 13.3358C461.281 13.4177 460.68 14.1523 460.761 14.9767C460.843 15.8011 461.578 16.403 462.402 16.3211L462.106 13.3358ZM467.367 15.8386C468.192 15.7602 468.797 15.0281 468.718 14.2034C468.64 13.3787 467.908 12.7737 467.083 12.8521L467.367 15.8386ZM473.86 12.2274C473.035 12.3011 472.426 13.0298 472.499 13.8549C472.573 14.68 473.302 15.2892 474.127 15.2155L473.86 12.2274ZM478.99 14.791C479.815 14.7206 480.427 13.9944 480.357 13.169C480.286 12.3436 479.56 11.7315 478.735 11.8019L478.99 14.791ZM485.607 11.2353C484.781 11.3011 484.165 12.0238 484.231 12.8496C484.296 13.6755 485.019 14.2916 485.845 14.2258L485.607 11.2353ZM490.776 13.843C491.602 13.7806 492.221 13.0602 492.158 12.2342C492.096 11.4081 491.376 10.7891 490.55 10.8516L490.776 13.843ZM497.517 10.3439C496.691 10.4019 496.068 11.1188 496.126 11.9452C496.184 12.7716 496.901 13.3945 497.727 13.3366L497.517 10.3439ZM502.727 12.9961C503.553 12.9414 504.179 12.2269 504.124 11.4003C504.07 10.5737 503.355 9.94792 502.529 10.0026L502.727 12.9961ZM509.593 9.55467C508.766 9.60485 508.136 10.3159 508.186 11.1428C508.236 11.9697 508.947 12.5993 509.774 12.5492L509.593 9.55467ZM514.843 12.2514C515.67 12.2044 516.302 11.4959 516.255 10.6688C516.208 9.84168 515.5 9.20928 514.672 9.25626L514.843 12.2514ZM521.833 8.86884C521.006 8.91138 520.369 9.61655 520.412 10.4439C520.454 11.2712 521.16 11.9074 521.987 11.8649L521.833 8.86884ZM527.125 11.6105C527.952 11.5711 528.591 10.8684 528.552 10.0409C528.512 9.21341 527.809 8.57453 526.982 8.61392L527.125 11.6105ZM533.836 8.30489C533.008 8.34014 532.366 9.03967 532.401 9.86735C532.437 10.695 533.136 11.3374 533.964 11.3022L533.836 8.30489ZM538.82 11.1039C539.648 11.0716 540.293 10.3743 540.261 9.54649C540.228 8.71869 539.531 8.07385 538.703 8.10619L538.82 11.1039ZM545.56 7.85512C544.732 7.88342 544.084 8.57754 544.112 9.40548C544.14 10.2334 544.834 10.8817 545.662 10.8534L545.56 7.85512ZM550.58 10.6938C551.408 10.6684 552.058 9.97653 552.033 9.1485C552.007 8.32046 551.315 7.66982 550.487 7.69525L550.58 10.6938ZM557.429 7.49885C556.601 7.52029 555.947 8.20902 555.968 9.03716C555.99 9.86531 556.678 10.5193 557.507 10.4978L557.429 7.49885ZM562.485 10.3775C563.313 10.3589 563.969 9.67241 563.951 8.84419C563.932 8.01598 563.246 7.35966 562.417 7.37826L562.485 10.3775ZM569.444 7.23718C568.616 7.25184 567.956 7.93519 567.971 8.76349C567.986 9.59179 568.669 10.2514 569.497 10.2367L569.444 7.23718ZM574.537 10.156C575.365 10.1442 576.027 9.46303 576.015 8.63469C576.003 7.80635 575.322 7.14446 574.494 7.15633L574.537 10.156ZM581.607 7.0712C580.778 7.07917 580.113 7.75717 580.121 8.58556C580.129 9.41395 580.807 10.079 581.635 10.0711L581.607 7.0712ZM586.736 10.0305C587.565 10.0253 588.232 9.34949 588.227 8.52108C588.222 7.69267 587.546 7.02533 586.718 7.03054L586.736 10.0305ZM593.916 7.00201C593.088 7.00337 592.417 7.67605 592.418 8.50448C592.42 9.33291 593.093 10.0034 593.921 10.002L593.916 7.00201ZM227.38 523.505C226.531 523.573 225.683 523.637 224.838 523.697L225.05 526.69C225.905 526.629 226.762 526.564 227.62 526.495L227.38 523.505ZM217.779 524.107C216.109 524.182 214.446 524.241 212.791 524.284L212.869 527.283C214.544 527.239 216.225 527.179 217.914 527.104L217.779 524.107ZM205.884 524.372C204.25 524.372 202.624 524.355 201.006 524.323L200.947 527.323C202.585 527.355 204.23 527.372 205.883 527.372L205.884 524.372ZM194.025 524.089C192.343 524.009 190.67 523.912 189.006 523.798L188.802 526.791C190.487 526.906 192.18 527.004 193.882 527.085L194.025 524.089ZM182.069 523.224C180.43 523.064 178.8 522.888 177.179 522.696L176.826 525.675C178.468 525.87 180.119 526.048 181.778 526.21L182.069 523.224ZM170.385 521.788C168.714 521.54 167.054 521.274 165.403 520.991L164.896 523.948C166.569 524.234 168.251 524.504 169.944 524.756L170.385 521.788ZM158.533 519.702C156.911 519.371 155.3 519.024 153.7 518.66L153.034 521.585C154.657 521.954 156.29 522.306 157.933 522.641L158.533 519.702ZM147.04 517.034C145.424 516.612 143.819 516.173 142.226 515.717L141.401 518.602C143.017 519.064 144.644 519.509 146.282 519.937L147.04 517.034ZM135.528 513.679C133.95 513.17 132.383 512.644 130.829 512.101L129.84 514.933C131.417 515.484 133.006 516.018 134.607 516.534L135.528 513.679ZM124.371 509.723C122.828 509.125 121.297 508.511 119.779 507.879L118.627 510.649C120.168 511.29 121.721 511.914 123.287 512.521L124.371 509.723ZM113.366 505.079C111.857 504.389 110.362 503.682 108.881 502.958L107.564 505.654C109.068 506.388 110.586 507.106 112.117 507.807L113.366 505.079ZM102.738 499.823C101.281 499.046 99.838 498.254 98.4091 497.445L96.9313 500.056C98.3824 500.877 99.8477 501.682 101.327 502.47L102.738 499.823ZM92.393 493.894C90.9812 493.026 89.5842 492.141 88.202 491.241L86.5644 493.754C87.9684 494.669 89.3874 495.567 90.8214 496.449L92.393 493.894ZM82.4853 487.366C81.1353 486.415 79.8008 485.448 78.4818 484.466L76.6898 486.872C78.0299 487.87 79.3858 488.852 80.7571 489.819L82.4853 487.366ZM72.9696 480.199C71.6797 479.161 70.4059 478.108 69.1483 477.041L67.2066 479.327C68.4844 480.412 69.7787 481.482 71.0894 482.536L72.9696 480.199ZM63.9629 472.469C62.7435 471.353 61.5407 470.222 60.3549 469.077L58.2708 471.234C59.4759 472.398 60.6981 473.548 61.9373 474.682L63.9629 472.469ZM55.4434 464.151C54.2982 462.958 53.1703 461.751 52.06 460.53L49.8408 462.549C50.9693 463.79 52.1155 465.016 53.2794 466.228L55.4434 464.151ZM47.5002 455.324C46.4343 454.06 45.3863 452.782 44.3564 451.491L42.0114 453.362C43.0581 454.674 44.1232 455.973 45.2066 457.258L47.5002 455.324ZM40.1287 445.982C39.1478 444.652 38.1853 443.31 37.2415 441.955L34.7801 443.67C35.7393 445.047 36.7175 446.411 37.7145 447.763L40.1287 445.982ZM33.3875 436.195C32.495 434.805 31.6215 433.403 30.767 431.99L28.1997 433.542C29.0681 434.978 29.9559 436.403 30.863 437.816L33.3875 436.195ZM27.2906 425.986C26.4898 424.541 25.7085 423.085 24.9466 421.618L22.2843 423.001C23.0586 424.492 23.8527 425.971 24.6665 427.44L27.2906 425.986ZM21.863 415.398C21.1589 413.908 20.4744 412.408 19.8097 410.898L17.064 412.107C17.7395 413.642 18.435 415.166 19.1506 416.68L21.863 415.398ZM17.1351 404.501C16.5262 402.965 15.9374 401.419 15.3688 399.864L12.5513 400.895C13.1291 402.474 13.7274 404.045 14.3461 405.606L17.1351 404.501ZM13.1044 393.296C12.5973 391.732 12.1103 390.159 11.6436 388.578L8.76634 389.427C9.2405 391.034 9.73528 392.632 10.2505 394.221L13.1044 393.296ZM9.80317 381.893C9.3936 380.29 9.00456 378.68 8.63622 377.063L5.71114 377.729C6.08531 379.372 6.48053 381.007 6.89661 382.635L9.80317 381.893ZM7.21741 370.262C6.91148 368.649 6.62589 367.029 6.36082 365.403L3.39991 365.885C3.66913 367.537 3.95919 369.182 4.26994 370.821L7.21741 370.262ZM5.36866 358.538C5.16137 356.896 4.97484 355.247 4.80923 353.593L1.82416 353.892C1.99233 355.572 2.18176 357.246 2.39226 358.914L5.36866 358.538ZM4.24052 346.67C4.13542 345.034 4.05066 343.393 3.98641 341.748L0.988693 341.865C1.05393 343.535 1.13998 345.201 1.24669 346.862L4.24052 346.67ZM3.83749 334.812C3.83094 333.155 3.84511 331.494 3.88015 329.829L0.880817 329.766C0.845247 331.456 0.830865 333.142 0.837516 334.824L3.83749 334.812ZM4.14673 322.882C4.23768 321.249 4.34869 319.612 4.47992 317.972L1.48948 317.733C1.35632 319.397 1.24366 321.058 1.15137 322.716L4.14673 322.882ZM5.15036 311.07C5.33848 309.422 5.54703 307.773 5.77614 306.121L2.80459 305.708C2.57217 307.384 2.3606 309.058 2.16973 310.729L5.15036 311.07ZM6.84875 299.234C7.1266 297.626 7.424 296.017 7.74107 294.406L4.79755 293.826C4.476 295.46 4.17438 297.092 3.89257 298.723L6.84875 299.234ZM9.18887 287.632C9.56131 286.017 9.95361 284.401 10.3659 282.785L7.45898 282.044C7.04099 283.682 6.64325 285.32 6.26563 286.957L9.18887 287.632ZM12.208 276.017C12.6597 274.456 13.1302 272.895 13.6196 271.333L10.7569 270.436C10.2609 272.019 9.7841 273.601 9.32628 275.183L12.208 276.017ZM15.7865 264.774C16.329 263.212 16.8906 261.65 17.4714 260.089L14.6597 259.043C14.0713 260.625 13.5023 262.207 12.9526 263.79L15.7865 264.774ZM20.024 253.534C20.6409 252.017 21.276 250.502 21.9296 248.987L19.1751 247.799C18.5133 249.333 17.87 250.867 17.2452 252.403L20.024 253.534ZM24.744 242.715C25.4394 241.223 26.1528 239.732 26.8844 238.242L24.1915 236.919C23.451 238.427 22.7288 239.937 22.0248 241.448L24.744 242.715ZM30.0642 231.993C30.8468 230.507 31.6478 229.023 32.4672 227.54L29.8416 226.089C29.0125 227.589 28.202 229.091 27.4099 230.595L30.0642 231.993ZM35.8486 221.612C36.6773 220.203 37.5229 218.795 38.3854 217.39L35.8287 215.821C34.9562 217.242 34.1009 218.665 33.2626 220.091L35.8486 221.612ZM42.1084 211.5C43.0188 210.101 43.9462 208.704 44.8909 207.31L42.4072 205.627C41.4521 207.037 40.5143 208.45 39.5938 209.864L42.1084 211.5ZM48.8922 201.563C49.8337 200.246 50.7909 198.932 51.7638 197.621L49.3544 195.833C48.3712 197.159 47.4037 198.487 46.452 199.818L48.8922 201.563ZM55.9425 192.128C56.9595 190.824 57.9923 189.523 59.0411 188.224L56.7073 186.339C55.6479 187.651 54.6045 188.965 53.5769 190.283L55.9425 192.128ZM63.5394 182.789C64.6217 181.513 65.7196 180.239 66.8334 178.969L64.5776 176.991C63.4529 178.274 62.3441 179.56 61.251 180.849L63.5394 182.789ZM71.3813 173.895C72.4843 172.692 73.6018 171.491 74.7337 170.294L72.5538 168.233C71.4112 169.441 70.2831 170.653 69.1695 171.869L71.3813 173.895ZM79.5735 165.285C80.7462 164.097 81.9336 162.912 83.1356 161.731L81.0331 159.591C79.8202 160.783 78.6221 161.978 77.4386 163.177L79.5735 165.285ZM88.2704 156.793C89.4428 155.689 90.6282 154.588 91.8269 153.491L89.8012 151.278C88.5922 152.385 87.3964 153.495 86.2137 154.609L88.2704 156.793ZM96.9266 148.914C98.1592 147.829 99.4051 146.748 100.664 145.67L98.7136 143.391C97.444 144.478 96.1877 145.568 94.9446 146.662L96.9266 148.914ZM106.031 141.166C107.327 140.099 108.637 139.036 109.96 137.977L108.085 135.635C106.751 136.703 105.431 137.774 104.124 138.85L106.031 141.166ZM115.51 133.617C116.785 132.634 118.072 131.655 119.371 130.679L117.57 128.28C116.261 129.263 114.964 130.25 113.678 131.241L115.51 133.617ZM124.897 126.603C126.23 125.638 127.574 124.676 128.93 123.719L127.2 121.268C125.834 122.232 124.479 123.201 123.137 124.173L124.897 126.603ZM134.698 119.72C136.088 118.774 137.49 117.831 138.904 116.893L137.245 114.393C135.821 115.338 134.409 116.287 133.009 117.24L134.698 119.72ZM144.842 113.022C146.196 112.156 147.561 111.292 148.936 110.433L147.346 107.889C145.962 108.754 144.588 109.623 143.224 110.496L144.842 113.022ZM154.775 106.846C156.18 105.997 157.596 105.152 159.023 104.312L157.5 101.727C156.064 102.573 154.638 103.424 153.224 104.278L154.775 106.846ZM165.079 100.803C166.536 99.9734 168.004 99.1477 169.482 98.3261L168.025 95.7037C166.537 96.5304 165.06 97.3612 163.594 98.1962L165.079 100.803ZM175.757 94.8997C177.198 94.1262 178.649 93.3565 180.11 92.5908L178.718 89.9336C177.248 90.7039 175.788 91.4782 174.338 92.2563L175.757 94.8997ZM186.164 89.4695C187.619 88.7316 189.084 87.9976 190.558 87.2674L189.226 84.5791C187.743 85.3135 186.271 86.0518 184.807 86.7939L186.164 89.4695ZM196.805 84.2234C198.306 83.5042 199.817 82.7889 201.337 82.0776L200.066 79.3603C198.537 80.0755 197.018 80.7947 195.509 81.518L196.805 84.2234ZM207.78 79.1139C209.327 78.4139 210.885 77.7181 212.452 77.0264L211.24 74.2819C209.665 74.9772 208.099 75.6768 206.543 76.3805L207.78 79.1139ZM218.787 74.2754C220.272 73.6411 221.765 73.0105 223.267 72.3835L222.112 69.615C220.602 70.2451 219.101 70.879 217.608 71.5166L218.787 74.2754ZM229.626 69.7724C231.152 69.156 232.687 68.5433 234.23 67.9345L233.129 65.1438C231.579 65.7556 230.036 66.3713 228.503 66.9908L229.626 69.7724ZM240.762 65.4003C242.33 64.8023 243.906 64.2082 245.49 63.6181L244.443 60.8067C242.851 61.3996 241.268 61.9965 239.693 62.5973L240.762 65.4003ZM252.196 61.163C253.784 60.5916 255.381 60.0241 256.986 59.4606L255.992 56.63C254.38 57.1961 252.776 57.7662 251.181 58.3402L252.196 61.163ZM263.391 57.2477C264.927 56.7258 266.47 56.2075 268.021 55.6928L267.077 52.8455C265.519 53.3624 263.969 53.883 262.426 54.4072L263.391 57.2477ZM274.58 53.5525C276.153 53.048 277.733 52.5472 279.32 52.0501L278.424 49.1872C276.829 49.6864 275.243 50.1893 273.664 50.6959L274.58 53.5525ZM286.033 49.9842C287.642 49.4976 289.259 49.0147 290.883 48.5356L290.035 45.6581C288.404 46.1391 286.78 46.624 285.165 47.1126L286.033 49.9842ZM297.751 46.546C299.376 46.0836 301.009 45.625 302.649 45.1702L301.847 42.2793C300.201 42.7359 298.562 43.1963 296.93 43.6605L297.751 46.546ZM309.186 43.3884C310.752 42.9689 312.324 42.5529 313.904 42.1403L313.145 39.2377C311.56 39.6518 309.981 40.0695 308.41 40.4906L309.186 43.3884ZM320.577 40.4277C322.175 40.0248 323.78 39.6255 325.392 39.2296L324.676 36.3162C323.059 36.7135 321.448 37.1143 319.843 37.5187L320.577 40.4277ZM332.202 37.5878C333.833 37.2019 335.47 36.8195 337.115 36.4408L336.442 33.5173C334.791 33.8974 333.148 34.2811 331.511 34.6685L332.202 37.5878ZM344.062 34.8713C345.726 34.5027 347.396 34.1377 349.074 33.7764L348.442 30.8437C346.759 31.2062 345.083 31.5724 343.413 31.9423L344.062 34.8713ZM355.855 32.3437C357.434 32.0165 359.02 31.6925 360.611 31.3717L360.018 28.4309C358.422 28.7527 356.831 29.0778 355.246 29.4061L355.855 32.3437ZM367.33 30.0436C368.938 29.732 370.552 29.4237 372.173 29.1186L371.617 26.1704C369.992 26.4764 368.373 26.7858 366.759 27.0984L367.33 30.0436ZM379.013 27.857C380.65 27.5613 382.293 27.2689 383.942 26.9799L383.424 24.0249C381.77 24.3148 380.122 24.6081 378.479 24.9048L379.013 27.857ZM390.904 25.7859C392.57 25.5064 394.242 25.2303 395.921 24.9576L395.44 21.9964C393.756 22.2699 392.079 22.5469 390.408 22.8273L390.904 25.7859ZM403.005 23.8325C404.655 23.5766 406.31 23.3239 407.971 23.0746L407.526 20.1078C405.86 20.3579 404.2 20.6113 402.545 20.868L403.005 23.8325ZM414.683 22.0896C416.289 21.8593 417.899 21.6321 419.516 21.408L419.104 18.4364C417.483 18.6612 415.867 18.889 414.257 19.1199L414.683 22.0896ZM426.335 20.4848C427.966 20.2693 429.602 20.0569 431.244 19.8477L430.865 16.8718C429.219 17.0816 427.578 17.2945 425.942 17.5106L426.335 20.4848ZM438.171 18.9873C439.828 18.7869 441.491 18.5896 443.158 18.3955L442.811 15.4156C441.139 15.6102 439.473 15.808 437.811 16.009L438.171 18.9873ZM450.194 17.5989C451.876 17.4137 453.564 17.2317 455.258 17.0529L454.943 14.0695C453.245 14.2487 451.553 14.4312 449.866 14.6169L450.194 17.5989ZM462.402 16.3211C464.052 16.1572 465.707 15.9964 467.367 15.8386L467.083 12.8521C465.419 13.0103 463.76 13.1715 462.106 13.3358L462.402 16.3211ZM474.127 15.2155C475.743 15.0711 477.364 14.9296 478.99 14.791L478.735 11.8019C477.105 11.9408 475.48 12.0827 473.86 12.2274L474.127 15.2155ZM485.845 14.2258C487.484 14.0953 489.127 13.9677 490.776 13.843L490.55 10.8516C488.897 10.9766 487.25 11.1045 485.607 11.2353L485.845 14.2258ZM497.727 13.3366C499.389 13.2201 501.055 13.1066 502.727 12.9961L502.529 10.0026C500.853 10.1134 499.183 10.2272 497.517 10.3439L497.727 13.3366ZM509.774 12.5492C511.459 12.4469 513.148 12.3477 514.843 12.2514L514.672 9.25626C512.974 9.35273 511.281 9.4522 509.593 9.55467L509.774 12.5492ZM521.987 11.8649C523.695 11.7771 525.407 11.6923 527.125 11.6105L526.982 8.61392C525.261 8.69585 523.544 8.78083 521.833 8.86884L521.987 11.8649ZM533.964 11.3022C535.578 11.2334 537.197 11.1673 538.82 11.1039L538.703 8.10619C537.077 8.16974 535.454 8.23598 533.836 8.30489L533.964 11.3022ZM545.662 10.8534C547.297 10.7975 548.936 10.7443 550.58 10.6938L550.487 7.69525C548.841 7.74582 547.198 7.79912 545.56 7.85512L545.662 10.8534ZM557.507 10.4978C559.162 10.455 560.821 10.4149 562.485 10.3775L562.417 7.37826C560.75 7.41571 559.088 7.45591 557.429 7.49885L557.507 10.4978ZM569.497 10.2367C571.173 10.207 572.853 10.1801 574.537 10.156L574.494 7.15633C572.807 7.1805 571.123 7.20745 569.444 7.23718L569.497 10.2367ZM581.635 10.0711C583.331 10.0547 585.032 10.0412 586.736 10.0305L586.718 7.03054C585.01 7.04128 583.306 7.05484 581.607 7.0712L581.635 10.0711ZM593.921 10.002C594.78 10.0006 595.64 9.99988 596.5 9.99988V6.99988C595.638 6.99988 594.776 7.00059 593.916 7.00201L593.921 10.002Z" fill="#EA5455"/>
</svg>
