<?xml version="1.0" encoding="utf-8"?>
<!-- Generator: Adobe Illustrator 25.2.0, SVG Export Plug-In . SVG Version: 6.00 Build 0)  -->
<svg version="1.1" id="Layer_1" xmlns="http://www.w3.org/2000/svg" xmlns:xlink="http://www.w3.org/1999/xlink" x="0px" y="0px"
	 viewBox="0 0 283 118" style="enable-background:new 0 0 283 118;" xml:space="preserve">
<style type="text/css">
	.st0{fill:#FFFC00;}
	.st1{fill:#0001F9;}
	.st2{fill:#FE0005;}
</style>
<path class="st0" d="M8.3,80c0,0,3-57,141-72c-36-1-110,13-132,43C3.9,69.2,8.3,80,8.3,80z"/>
<path class="st1" d="M268.3,34c0,0,26,34-41,60c-4.8,1.8-36,14-85,18c0,0,38.2-5.4,74-18c11.5-4.1,21.1-8.7,31-15
	C277.3,60,268.3,34,268.3,34z"/>
<path class="st2" d="M221.3,35c-3.2-2.8-16-7-18-8s-2-7-12-10c0,2,0,7,0,7s-39-5-67,1c0-1,0-7,0-7s-6-1-11,10c-3,1-43,11-50,40
	c-0.5,2.2-16,7-20,22c-0.5,1.9,10-8,20-12c1,2,2,15,21,26c1.7,1-14-17-8-31c0.9-2.1,33-14,38-14c-1,2-13,31,3,49c0-1-1-37,15-55
	c3,0,11,0,17-4c-3,0-14,0-14,0s5-8,18-19c1.5-1.3,61-1,62,20c0.1,1.1-1.2,5.9-5,9c-6.5,5.1-17,9-17,9C196.3,68,247.3,58,221.3,35z
	 M127.3,42c-4.2,4.7-5.3,7.9-6,8c-14,1-34,7-34,7c15-19,51-24,51-24S131.2,37.7,127.3,42z"/>
</svg>
