<svg width="495" height="308" viewBox="0 0 495 308" fill="none" xmlns="http://www.w3.org/2000/svg">
<path d="M139.979 13.1924H95.7129V73.8022H139.979V13.1924Z" fill="#F5F5F5"/>
<path d="M128.766 20.8145H84.5V81.4243H128.766V20.8145Z" fill="#BDBDBD"/>
<path d="M337.418 103.704C337.418 103.704 337.345 103.704 337.125 103.704C336.905 103.704 336.612 103.704 336.246 103.704C335.513 103.704 334.34 103.704 332.874 103.704C329.943 103.704 325.692 103.704 320.342 103.777C309.642 103.777 294.618 103.851 277.175 103.851H277.028V103.704C276.149 100.626 276.662 97.1082 278.714 94.3232C280.693 91.6115 284.137 89.8526 287.655 89.9259L287.509 90.1457C287.215 89.2663 287.142 88.2402 287.142 87.2142C287.289 83.8429 289.194 80.6182 292.053 79.1524C294.911 77.6133 298.502 77.6866 301.214 79.2257L300.994 79.299C302.533 75.488 305.831 72.7763 309.349 71.5304C312.94 70.2112 316.897 70.431 319.976 72.0434C323.127 73.6558 325.326 76.3674 326.572 79.2257C327.817 82.084 328.037 85.1621 327.378 87.8738L327.231 87.7272C328.99 87.5073 330.749 87.8005 332.215 88.4601C333.681 89.0464 335 89.9992 335.952 91.0252C336.466 91.5382 336.832 92.1245 337.125 92.7108C337.418 93.2971 337.638 93.8835 337.711 94.4698C338.005 95.6424 338.078 96.7417 338.151 97.6945C338.224 99.6733 338.005 101.212 337.785 102.165C337.638 102.678 337.565 103.045 337.492 103.264C337.492 103.558 337.418 103.704 337.418 103.704Z" fill="#BDBDBD"/>
<path d="M452.556 74.9018C446.547 75.9279 442.516 81.5711 443.468 87.5808C444.494 93.5905 450.138 97.6214 456.147 96.6686C461.278 95.7891 465.015 91.5384 465.309 86.5548L468.313 86.0417L469.926 82.6705L472.271 85.3821L476.082 84.7225L477.768 81.3513L480.113 84.0629L483.338 83.5499L484.29 81.4978L485.756 83.1835L487.662 82.8903L489.714 80.1053L486.123 76.1477L463.696 79.8855C461.424 76.221 457.027 74.1689 452.556 74.9018ZM446.4 87.0678C446.107 85.3088 447.279 83.6965 449.038 83.4033C450.797 83.1102 452.41 84.2828 452.703 86.0417C452.996 87.8007 451.823 89.413 450.064 89.7062C448.306 89.9993 446.693 88.8267 446.4 87.0678Z" fill="#BDBDBD"/>
<path d="M441.343 159.183L442.735 184.175C442.808 185.054 443.541 185.787 444.421 185.787L489.42 186.08C490.373 186.08 491.106 185.347 491.106 184.395L491.252 164.973C491.252 164.02 490.519 163.287 489.567 163.287H461.937C461.497 163.287 461.057 163.141 460.764 162.774L456 158.011C455.707 157.717 455.267 157.498 454.828 157.498L443.175 157.424C442.075 157.424 441.269 158.23 441.343 159.183Z" fill="#BDBDBD"/>
<path d="M491.225 160.393L442.121 160.034L441.906 189.422L491.009 189.782L491.225 160.393Z" fill="#F2F2F2"/>
<path d="M438.192 162.628L441.709 193.263C441.783 193.776 442.222 194.216 442.809 194.216L490.666 194.582C491.253 194.582 491.692 194.142 491.766 193.556L494.404 162.994C494.477 162.335 493.964 161.822 493.305 161.822L439.291 161.455C438.631 161.382 438.118 161.968 438.192 162.628Z" fill="#BDBDBD"/>
<path d="M435.697 297.186C424.264 289.198 421.699 274.467 422.139 261.128C422.212 258.93 421.992 256.584 423.018 254.606C424.044 252.627 426.536 251.308 428.515 252.26C430.127 253.066 430.86 254.972 431.813 256.511C433.059 258.636 434.891 260.395 437.017 261.495C438.409 262.228 440.168 262.667 441.56 261.934C443.466 260.908 443.686 258.27 443.686 255.998C443.686 251.894 443.613 247.79 443.613 243.685C443.613 241.487 443.613 239.215 444.272 237.163C444.932 235.037 446.471 233.132 448.596 232.546C450.722 231.959 453.287 233.132 453.726 235.331C453.946 236.21 453.726 237.163 453.8 238.042C453.873 238.922 454.313 239.948 455.192 240.241C456.072 240.534 456.951 239.874 457.611 239.215C459.883 237.016 461.422 234.085 462.888 231.3C464.353 228.441 465.746 225.51 467.798 223.091C469.85 220.673 472.708 218.767 475.86 218.547C479.011 218.401 482.382 220.306 483.189 223.384C483.995 226.463 482.163 229.614 480.184 232.179C477.252 235.917 473.808 239.215 469.923 241.927C469.264 242.44 468.458 242.953 468.238 243.759C467.725 245.225 469.117 246.69 470.583 247.203C472.195 247.716 474.027 247.57 475.713 247.79C477.399 248.01 479.304 248.742 479.964 250.355C480.843 252.627 479.011 254.972 477.106 256.511C473.368 259.589 469.117 262.081 464.646 263.693C463.034 264.28 461.348 264.793 460.029 265.965C458.71 267.138 457.904 269.117 458.71 270.656C459.516 272.195 461.495 272.708 463.254 272.415C464.94 272.122 466.479 271.169 468.091 270.583C471.096 269.41 475.054 269.63 476.959 272.268C478.205 273.954 478.352 276.372 477.692 278.424C477.032 280.476 475.713 282.235 474.321 283.848C469.484 289.564 463.254 294.108 456.218 296.6C449.183 299.092 442.66 299.751 435.697 297.186Z" fill="#E0E0E0"/>
<path d="M435.48 307.008C435.993 301.731 437.093 295.502 439.072 288.833C441.05 282.163 443.762 274.981 446.914 267.579C447.72 265.747 448.453 263.914 449.259 262.082C450.065 260.323 450.798 258.491 451.677 256.805C453.363 253.434 455.268 250.283 457.174 247.351C459.079 244.42 460.985 241.708 462.744 239.216C464.576 236.724 466.262 234.379 467.947 232.327C471.245 228.223 474.324 225.291 476.522 223.312C477.622 222.36 478.501 221.627 479.087 221.114C479.38 220.894 479.6 220.674 479.747 220.527C479.894 220.381 479.967 220.381 479.967 220.381C479.967 220.381 479.894 220.454 479.747 220.601C479.6 220.747 479.38 220.967 479.087 221.187C478.501 221.7 477.622 222.433 476.596 223.459C474.47 225.438 471.465 228.443 468.167 232.547C466.555 234.599 464.796 236.871 463.037 239.436C461.278 241.928 459.373 244.639 457.467 247.571C455.562 250.503 453.729 253.654 452.044 257.025C451.164 258.711 450.431 260.47 449.625 262.302C448.892 264.134 448.086 265.893 447.28 267.799C444.129 275.201 441.417 282.31 439.438 289.052C437.459 295.722 436.287 301.878 435.774 307.155" fill="#BDBDBD"/>
<path d="M451.822 256.804C451.822 256.804 451.749 256.438 451.602 255.852C451.456 255.265 451.383 254.386 451.163 253.287C450.87 251.088 450.503 248.01 450.21 244.712C449.844 241.341 449.477 238.336 449.184 236.137C449.037 235.038 448.891 234.158 448.744 233.572C448.671 232.986 448.598 232.619 448.598 232.619C448.598 232.619 448.744 232.912 448.891 233.572C449.037 234.158 449.257 235.038 449.477 236.137C449.917 238.336 450.283 241.341 450.65 244.712C451.016 248.01 451.309 251.015 451.529 253.36C451.676 254.386 451.749 255.265 451.822 255.998C451.822 256.438 451.822 256.804 451.822 256.804Z" fill="#BDBDBD"/>
<path d="M480.185 251.528C480.185 251.528 479.819 251.601 479.086 251.674C478.353 251.747 477.327 251.821 476.008 251.967C473.442 252.261 469.851 252.774 465.894 253.506C462.009 254.239 458.492 255.045 455.926 255.778C454.681 256.072 453.654 256.365 452.922 256.585C452.189 256.804 451.822 256.878 451.822 256.878C451.822 256.878 452.189 256.731 452.848 256.438C453.508 256.218 454.534 255.852 455.78 255.485C458.272 254.752 461.79 253.873 465.747 253.14C469.705 252.407 473.296 251.894 475.861 251.747C477.18 251.601 478.206 251.601 478.939 251.601C479.745 251.454 480.185 251.454 480.185 251.528Z" fill="#BDBDBD"/>
<path d="M439.438 288.319C439.438 288.319 439.365 288.173 439.218 287.953C439.071 287.66 438.925 287.367 438.705 286.927C438.265 286.047 437.752 284.728 437.019 283.116C435.627 279.891 433.868 275.347 432.036 270.29C430.203 265.233 428.445 260.69 427.199 257.392C426.539 255.779 426.026 254.46 425.66 253.507C425.513 253.067 425.366 252.701 425.22 252.481C425.147 252.261 425.073 252.115 425.073 252.115C425.073 252.115 425.147 252.261 425.293 252.481C425.44 252.774 425.586 253.067 425.806 253.507C426.246 254.387 426.759 255.706 427.492 257.318C428.884 260.543 430.643 265.087 432.475 270.144C434.308 275.201 436.067 279.745 437.312 283.043C437.972 284.655 438.485 285.974 438.852 286.927C438.998 287.367 439.145 287.733 439.291 287.953C439.438 288.173 439.438 288.319 439.438 288.319Z" fill="#BDBDBD"/>
<path d="M477.18 276.153C477.18 276.153 477.034 276.226 476.814 276.299C476.521 276.373 476.154 276.519 475.714 276.666C474.688 276.959 473.369 277.472 471.684 277.985C468.312 279.084 463.622 280.697 458.418 282.456C453.215 284.215 448.524 285.754 445.08 286.78C443.394 287.293 442.002 287.732 440.976 287.952C440.536 288.099 440.169 288.172 439.876 288.245C439.656 288.319 439.51 288.319 439.51 288.319C439.51 288.319 439.656 288.246 439.876 288.172C440.169 288.099 440.536 287.952 440.976 287.806C442.002 287.513 443.321 287.073 445.006 286.487C448.378 285.387 453.068 283.775 458.272 282.016C463.475 280.257 468.166 278.718 471.61 277.692C473.296 277.179 474.688 276.739 475.714 276.519C476.154 276.373 476.521 276.299 476.814 276.226C477.034 276.226 477.107 276.153 477.18 276.153Z" fill="#BDBDBD"/>
<path d="M482.018 307.081C482.018 307.154 376.629 307.301 246.688 307.301C116.673 307.301 11.3574 307.227 11.3574 307.081C11.3574 306.934 116.673 306.861 246.688 306.861C376.702 306.861 482.018 306.934 482.018 307.081Z" fill="#263238"/>
<path d="M427.785 281.503C429.03 283.116 431.376 282.456 432.402 281.357C433.428 280.257 433.794 278.718 434.161 277.252C434.967 273.881 435.7 270.437 434.82 267.139C434.527 266.113 434.161 265.16 433.428 264.427C432.695 263.694 431.596 263.328 430.643 263.621C429.47 263.987 428.811 265.16 428.371 266.259C426.978 269.557 426.319 273.148 426.539 276.666C426.465 278.425 426.758 280.184 427.785 281.503Z" fill="#4C4DA0"/>
<g opacity="0.2">
<path d="M427.785 281.503C429.03 283.116 431.376 282.456 432.402 281.357C433.428 280.257 433.794 278.718 434.161 277.252C434.967 273.881 435.7 270.437 434.82 267.139C434.527 266.113 434.161 265.16 433.428 264.427C432.695 263.694 431.596 263.328 430.643 263.621C429.47 263.987 428.811 265.16 428.371 266.259C426.978 269.557 426.319 273.148 426.539 276.666C426.465 278.425 426.758 280.184 427.785 281.503Z" fill="black"/>
</g>
<path d="M432.695 289.858C434.601 288.758 436.872 288.538 439.071 288.758C440.244 288.905 441.49 289.198 442.296 290.004C443.102 290.81 443.395 292.349 442.516 293.156C442.003 293.595 441.27 293.742 440.537 293.742C438.851 293.815 436.946 293.595 435.627 294.695C434.894 295.281 434.381 296.307 433.501 296.673C432.622 296.967 431.596 296.527 431.009 295.721C430.496 294.915 430.423 293.888 430.57 293.009C430.643 293.009 430.789 291.03 432.695 289.858Z" fill="#4C4DA0"/>
<path d="M424.635 284.068C425.881 282.456 425.954 280.184 425.295 278.278C424.635 276.373 423.242 274.834 421.63 273.514C419.798 272.049 417.672 270.949 415.401 270.216C414.521 269.923 413.568 269.777 412.689 269.923C411.736 270.07 410.857 270.583 410.49 271.389C409.904 272.635 410.563 274.101 411.296 275.273C412.542 277.325 414.008 279.304 415.547 281.136C416.793 282.602 418.259 284.068 420.091 284.654C421.923 285.241 423.829 285.094 424.708 283.775" fill="#4C4DA0"/>
<path d="M428.959 307.228C428.959 307.228 429.032 306.934 429.032 306.421C429.032 305.835 429.106 305.176 429.106 304.296C429.179 303.417 429.252 302.317 429.399 301.145C429.619 299.972 429.912 298.726 430.352 297.407C430.791 296.088 431.378 294.915 432.037 293.962C432.697 293.01 433.503 292.277 434.309 291.91C435.115 291.47 435.775 291.251 436.288 291.177C436.801 291.104 437.021 291.031 437.021 291.031C437.021 291.031 436.728 291.031 436.215 291.031C435.702 291.104 434.969 291.251 434.163 291.69C433.356 292.13 432.477 292.79 431.744 293.816C431.011 294.768 430.425 296.014 429.985 297.26C429.545 298.58 429.252 299.825 429.032 301.071C428.886 302.244 428.812 303.343 428.812 304.223C428.812 305.102 428.812 305.835 428.812 306.348C428.959 306.934 428.959 307.228 428.959 307.228Z" fill="#263238"/>
<path d="M429.031 305.541C429.031 305.541 429.031 305.395 429.031 305.175C429.031 304.882 429.031 304.589 428.958 304.149C428.885 303.269 428.811 301.95 428.811 300.338C428.738 297.113 428.811 292.716 429.031 287.879C429.324 283.042 429.837 278.644 430.277 275.493C430.424 274.687 430.497 273.954 430.643 273.368C430.717 272.708 430.863 272.195 430.937 271.755C431.01 271.316 431.083 271.022 431.156 270.729C431.23 270.509 431.23 270.363 431.23 270.363C431.23 270.363 431.156 270.509 431.156 270.729C431.083 271.022 431.01 271.316 430.937 271.755C430.79 272.195 430.717 272.708 430.57 273.368C430.424 273.954 430.277 274.687 430.204 275.493C429.691 278.644 429.104 283.042 428.811 287.952C428.518 292.862 428.518 297.26 428.665 300.485C428.738 302.097 428.811 303.343 428.884 304.296C428.958 304.735 428.958 305.028 429.031 305.322C429.031 305.468 429.031 305.541 429.031 305.541Z" fill="#263238"/>
<path d="M428.665 297.04C428.665 297.04 428.665 296.674 428.592 295.941C428.519 295.281 428.372 294.255 428.152 293.082C427.859 291.91 427.493 290.444 426.979 288.905C426.466 287.366 425.807 285.68 424.927 283.995C423.315 280.55 421.116 277.838 419.284 276.153C418.844 275.713 418.405 275.42 417.965 275.053C417.745 274.907 417.599 274.76 417.452 274.614C417.305 274.54 417.085 274.394 416.939 274.321C416.353 273.954 415.986 273.734 415.986 273.807C415.913 273.881 417.305 274.614 419.064 276.299C420.823 277.985 422.949 280.77 424.561 284.141C425.367 285.827 426.1 287.512 426.613 289.052C427.126 290.591 427.566 291.983 427.859 293.229C428.152 294.402 428.299 295.428 428.445 296.087C428.519 296.674 428.592 297.04 428.665 297.04Z" fill="#263238"/>
<path d="M83.0332 142.546H0.143555V198.026H83.0332V142.546Z" fill="#FAFAFA"/>
<path d="M60.4604 176.188H58.2617V162.923C58.2617 159.698 55.6966 157.133 52.4719 157.133C49.2472 157.133 46.6821 159.698 46.6821 162.923V176.188H44.4834V162.923C44.4834 158.525 48.0745 154.934 52.4719 154.934C56.8692 154.934 60.4604 158.525 60.4604 162.923V176.188Z" fill="#263238"/>
<path d="M60.9 184.322H44.0436C42.6511 184.322 41.5518 183.223 41.5518 181.831V172.743C41.5518 171.35 42.6511 170.251 44.0436 170.251H60.9C62.2925 170.251 63.3918 171.35 63.3918 172.743V181.831C63.3918 183.223 62.2925 184.322 60.9 184.322Z" fill="#263238"/>
<path d="M52.4728 177.287C51.4468 177.287 50.6406 176.48 50.6406 175.454C50.6406 174.428 51.4468 173.622 52.4728 173.622C53.4989 173.622 54.3051 174.428 54.3051 175.454C54.3051 176.48 53.4989 177.287 52.4728 177.287Z" fill="#455A64"/>
<path d="M52.985 176.187H51.959V179.925H52.985V176.187Z" fill="#455A64"/>
<path d="M40.966 176.04C44.0441 174.721 46.2428 171.57 46.2428 167.832C46.2428 162.921 42.5783 158.964 37.9611 158.964C33.4172 158.964 29.6795 162.921 29.6062 167.759C29.6062 171.496 31.8049 174.721 34.883 176.04C22.1307 177.946 22.717 191.871 22.717 191.871L52.912 192.017C52.9853 191.944 53.6449 177.946 40.966 176.04Z" fill="#4C4DA0"/>
<path d="M82.9629 198.026C82.9629 198.026 82.9629 197.66 82.9629 197C82.9629 196.341 82.9629 195.314 82.9629 194.069C82.9629 191.503 82.9629 187.692 82.8896 182.929C82.8896 173.255 82.8164 159.403 82.8164 142.547L82.9629 142.693C60.0968 142.693 31.2943 142.693 0.146578 142.766L0.366444 142.547C0.366444 162.335 0.366444 181.096 0.366444 198.026L0.146578 197.88C24.5518 197.88 45.2192 197.953 59.8037 197.953C67.1325 197.953 72.9224 197.953 76.88 198.026C78.8588 198.026 80.3978 198.026 81.4239 198.026C81.9369 198.026 82.3033 198.026 82.5965 198.026C82.8164 198.026 82.9629 198.026 82.9629 198.026C82.9629 198.026 82.8164 198.026 82.5965 198.026C82.3033 198.026 81.9369 198.026 81.4239 198.026C80.3978 198.026 78.8588 198.026 76.9532 198.026C72.9957 198.026 67.2058 198.026 59.9502 198.099C45.2925 198.099 24.5518 198.173 0.146578 198.173H0V198.026C0 181.096 0 162.335 0 142.547V142.327H0.219866C31.4409 142.327 60.2434 142.327 83.0362 142.4H83.1828V142.547C83.1828 159.476 83.1095 173.328 83.1095 183.002C83.1095 187.839 83.1095 191.577 83.0362 194.142C83.0362 195.388 83.0362 196.414 83.0362 197.073C82.9629 197.733 82.9629 198.026 82.9629 198.026Z" fill="#263238"/>
<path d="M82.9599 149.216C82.9599 149.289 64.4178 149.436 41.5517 149.436C18.6856 149.436 0.143555 149.363 0.143555 149.216C0.143555 149.143 18.6856 148.996 41.5517 148.996C64.4178 148.996 82.9599 149.069 82.9599 149.216Z" fill="#263238"/>
<path d="M5.56753 145.845C5.56753 146.285 5.20108 146.725 4.68806 146.725C4.17504 146.725 3.80859 146.358 3.80859 145.845C3.80859 145.406 4.17504 144.966 4.68806 144.966C5.20108 144.966 5.56753 145.406 5.56753 145.845Z" fill="#263238"/>
<path d="M8.35268 145.845C8.35268 146.285 7.98624 146.725 7.47322 146.725C7.03348 146.725 6.59375 146.358 6.59375 145.845C6.59375 145.406 6.96019 144.966 7.47322 144.966C7.98624 145.039 8.35268 145.406 8.35268 145.845Z" fill="#263238"/>
<path d="M11.3576 145.845C11.3576 146.285 10.9911 146.725 10.4781 146.725C10.0384 146.725 9.59863 146.358 9.59863 145.845C9.59863 145.406 9.96508 144.966 10.4781 144.966C10.9911 145.039 11.3576 145.406 11.3576 145.845Z" fill="#263238"/>
<path d="M82.9629 198.026C82.9629 198.026 82.9629 197.66 82.9629 197C82.9629 196.341 82.9629 195.314 82.9629 194.069C82.9629 191.503 82.9629 187.692 82.8896 182.929C82.8896 173.255 82.8164 159.403 82.8164 142.547L82.9629 142.693C60.0968 142.693 31.2943 142.693 0.146578 142.766L0.366444 142.547C0.366444 162.335 0.366444 181.096 0.366444 198.026L0.146578 197.88C24.5518 197.88 45.2192 197.953 59.8037 197.953C67.1325 197.953 72.9224 197.953 76.88 198.026C78.8588 198.026 80.3978 198.026 81.4239 198.026C81.9369 198.026 82.3033 198.026 82.5965 198.026C82.8164 198.026 82.9629 198.026 82.9629 198.026C82.9629 198.026 82.8164 198.026 82.5965 198.026C82.3033 198.026 81.9369 198.026 81.4239 198.026C80.3978 198.026 78.8588 198.026 76.9532 198.026C72.9957 198.026 67.2058 198.026 59.9502 198.099C45.2925 198.099 24.5518 198.173 0.146578 198.173H0V198.026C0 181.096 0 162.335 0 142.547V142.327H0.219866C31.4409 142.327 60.2434 142.327 83.0362 142.4H83.1828V142.547C83.1828 159.476 83.1095 173.328 83.1095 183.002C83.1095 187.839 83.1095 191.577 83.0362 194.142C83.0362 195.388 83.0362 196.414 83.0362 197.073C82.9629 197.733 82.9629 198.026 82.9629 198.026Z" fill="#263238"/>
<path d="M41.0392 199.859C40.9659 199.859 40.8193 199.419 40.8193 198.979C40.8193 198.466 40.8926 198.1 41.0392 198.1C41.1125 198.1 41.2591 198.539 41.2591 198.979C41.1858 199.492 41.1125 199.859 41.0392 199.859Z" fill="#263238"/>
<path d="M41.0392 207.92C40.9659 207.92 40.8193 207.041 40.8193 205.941C40.8193 204.842 40.8926 203.962 41.0392 203.962C41.1125 203.962 41.2591 204.842 41.2591 205.941C41.1858 206.967 41.1125 207.92 41.0392 207.92Z" fill="#263238"/>
<path d="M41.0392 215.909C40.9659 215.909 40.8193 215.029 40.8193 213.93C40.8193 212.831 40.8926 211.951 41.0392 211.951C41.1125 211.951 41.2591 212.831 41.2591 213.93C41.1858 215.029 41.1125 215.909 41.0392 215.909Z" fill="#263238"/>
<path d="M41.0392 223.897C40.9659 223.897 40.8193 223.018 40.8193 221.918C40.8193 220.819 40.8926 219.939 41.0392 219.939C41.1125 219.939 41.2591 220.819 41.2591 221.918C41.1858 223.018 41.1125 223.897 41.0392 223.897Z" fill="#263238"/>
<path d="M41.0392 231.959C40.9659 231.959 40.8193 231.079 40.8193 229.98C40.8193 228.88 40.8926 228.001 41.0392 228.001C41.1125 228.001 41.2591 228.88 41.2591 229.98C41.1858 231.079 41.1125 231.959 41.0392 231.959Z" fill="#263238"/>
<path d="M42.8714 237.749C42.8714 237.822 42.0652 237.969 41.0392 237.969C40.6728 237.602 40.9659 237.895 40.8193 237.749V237.675V237.602V237.456C40.8193 237.382 40.8193 237.236 40.8193 237.089C40.8193 236.869 40.8193 236.649 40.8926 236.503C40.8926 236.136 40.9659 235.99 41.0392 235.99C41.1125 235.99 41.1125 236.21 41.1858 236.503C41.1858 236.649 41.1858 236.869 41.2591 237.089C41.2591 237.236 41.2591 237.309 41.2591 237.456V237.602V237.675V237.749C41.1858 237.675 41.4789 237.969 41.0392 237.529C41.992 237.602 42.8714 237.675 42.8714 237.749Z" fill="#263238"/>
<path d="M50.0531 237.749C50.0531 237.822 49.2469 237.969 48.2209 237.969C47.1948 237.969 46.3887 237.895 46.3887 237.749C46.3887 237.602 47.1948 237.529 48.2209 237.529C49.2469 237.602 50.0531 237.675 50.0531 237.749Z" fill="#263238"/>
<path d="M57.2367 237.749C57.2367 237.822 56.4305 237.969 55.4045 237.969C54.3784 237.969 53.5723 237.895 53.5723 237.749C53.5723 237.602 54.3784 237.529 55.4045 237.529C56.4305 237.602 57.2367 237.675 57.2367 237.749Z" fill="#263238"/>
<path d="M64.4193 237.749C64.4193 237.822 63.6131 237.969 62.5871 237.969C61.5611 237.969 60.7549 237.895 60.7549 237.749C60.7549 237.602 61.5611 237.529 62.5871 237.529C63.6131 237.602 64.4193 237.675 64.4193 237.749Z" fill="#263238"/>
<path d="M71.6732 237.749C71.6732 237.822 70.8671 237.969 69.841 237.969C68.815 237.969 68.0088 237.895 68.0088 237.749C68.0088 237.602 68.815 237.529 69.841 237.529C70.8671 237.602 71.6732 237.675 71.6732 237.749Z" fill="#263238"/>
<path d="M78.8568 237.749C78.8568 237.822 78.0506 237.969 77.0246 237.969C75.9986 237.969 75.1924 237.895 75.1924 237.749C75.1924 237.602 75.9986 237.529 77.0246 237.529C78.0506 237.602 78.8568 237.675 78.8568 237.749Z" fill="#263238"/>
<path d="M86.0394 237.749C86.0394 237.822 85.2333 237.969 84.2072 237.969C83.1812 237.969 82.375 237.895 82.375 237.749C82.375 237.602 83.1812 237.529 84.2072 237.529C85.2333 237.602 86.0394 237.675 86.0394 237.749Z" fill="#263238"/>
<path d="M93.2211 237.749C93.2211 237.822 92.4149 237.969 91.3889 237.969C90.3628 237.969 89.5566 237.895 89.5566 237.749C89.5566 237.602 90.3628 237.529 91.3889 237.529C92.4149 237.602 93.2211 237.675 93.2211 237.749Z" fill="#263238"/>
<path d="M100.477 237.749C100.477 237.822 99.6708 237.969 98.6447 237.969C97.6187 237.969 96.8125 237.895 96.8125 237.749C96.8125 237.602 97.6187 237.529 98.6447 237.529C99.6708 237.602 100.477 237.675 100.477 237.749Z" fill="#263238"/>
<path d="M107.659 237.749C107.659 237.822 106.852 237.969 105.826 237.969C104.8 237.969 103.994 237.895 103.994 237.749C103.994 237.602 104.8 237.529 105.826 237.529C106.852 237.602 107.659 237.675 107.659 237.749Z" fill="#263238"/>
<path d="M114.841 237.749C114.841 237.822 114.035 237.969 113.009 237.969C111.983 237.969 111.177 237.895 111.177 237.749C111.177 237.602 111.983 237.529 113.009 237.529C114.035 237.602 114.841 237.675 114.841 237.749Z" fill="#263238"/>
<path d="M120.265 237.749C120.265 237.822 119.825 237.969 119.385 237.969C118.872 237.969 118.433 237.895 118.433 237.749C118.433 237.602 118.872 237.529 119.385 237.529C119.898 237.602 120.265 237.675 120.265 237.749Z" fill="#263238"/>
<path d="M121.146 30.1221H76.8799V90.7319H121.146V30.1221Z" fill="white"/>
<path d="M121.147 90.7315C121.147 90.7315 121.147 90.6582 121.147 90.4384C121.147 90.2185 121.147 89.9253 121.147 89.5589C121.147 88.826 121.147 87.6534 121.147 86.2609C121.147 83.3294 121.147 79.1519 121.073 73.8018C121.073 63.1016 121 48.0041 120.927 30.1217L121.147 30.3415C107.808 30.3415 92.7837 30.3415 76.8801 30.4148L77.0999 30.195C77.0999 52.8412 77.0999 73.8018 77.0999 90.8048L76.9534 90.6582C90.3652 90.6582 101.359 90.7315 109.127 90.7315C113.011 90.7315 116.016 90.7315 118.068 90.8048C119.094 90.8048 119.901 90.8048 120.414 90.8048C120.927 90.7315 121.147 90.7315 121.147 90.7315C121.147 90.7315 120.853 90.7315 120.34 90.7315C119.827 90.7315 119.021 90.7315 117.995 90.7315C115.943 90.7315 112.938 90.7315 109.054 90.8048C101.285 90.8048 90.2186 90.8781 76.8068 90.9514H76.6602V90.8048C76.6602 73.8018 76.5869 52.8412 76.5869 30.195V29.9751H76.8068C92.7105 29.9751 107.735 29.9751 121.073 29.9751H121.293V30.195C121.293 48.1507 121.22 63.3215 121.22 74.0217C121.22 79.2985 121.22 83.5492 121.147 86.4075C121.147 87.8 121.147 88.8993 121.147 89.7055C121.147 90.0719 121.147 90.3651 121.147 90.5117C121.22 90.6582 121.22 90.7315 121.147 90.7315Z" fill="#263238"/>
<path d="M103.924 42.2872C103.924 42.4338 99.0868 42.5071 93.1504 42.5071C87.214 42.5071 82.377 42.4338 82.377 42.2872C82.377 42.1407 87.214 42.0674 93.1504 42.0674C99.1601 42.0674 103.924 42.214 103.924 42.2872Z" fill="#263238"/>
<path d="M115.576 47.5646C115.576 47.7112 108.174 47.7845 99.0125 47.7845C89.8514 47.7845 82.4492 47.7112 82.4492 47.5646C82.4492 47.418 89.8514 47.3447 99.0125 47.3447C108.174 47.3447 115.576 47.418 115.576 47.5646Z" fill="#263238"/>
<path d="M115.576 53.0612C115.576 53.2078 108.174 53.281 99.0125 53.281C89.8514 53.281 82.4492 53.2078 82.4492 53.0612C82.4492 52.9146 89.8514 52.8413 99.0125 52.8413C108.174 52.8413 115.576 52.9146 115.576 53.0612Z" fill="#263238"/>
<path d="M115.576 58.5582C115.576 58.7048 108.174 58.7781 99.0125 58.7781C89.8514 58.7781 82.4492 58.7048 82.4492 58.5582C82.4492 58.4117 89.8514 58.3384 99.0125 58.3384C108.174 58.3384 115.576 58.4117 115.576 58.5582Z" fill="#263238"/>
<path d="M115.576 64.0548C115.576 64.2014 108.174 64.2747 99.0125 64.2747C89.8514 64.2747 82.4492 64.2014 82.4492 64.0548C82.4492 63.9083 89.8514 63.835 99.0125 63.835C108.174 63.835 115.576 63.9083 115.576 64.0548Z" fill="#263238"/>
<path d="M115.576 69.5514C115.576 69.698 108.174 69.7713 99.0125 69.7713C89.8514 69.7713 82.4492 69.698 82.4492 69.5514C82.4492 69.4048 89.8514 69.3315 99.0125 69.3315C108.174 69.3315 115.576 69.4048 115.576 69.5514Z" fill="#263238"/>
<path d="M115.576 75.048C115.576 75.1946 108.174 75.2679 99.0125 75.2679C89.8514 75.2679 82.4492 75.1946 82.4492 75.048C82.4492 74.9014 89.8514 74.8281 99.0125 74.8281C108.174 74.8281 115.576 74.9014 115.576 75.048Z" fill="#263238"/>
<path d="M100.259 80.5446C100.259 80.6912 96.3018 80.7644 91.3182 80.7644C86.4078 80.7644 82.377 80.6912 82.377 80.5446C82.377 80.398 86.3345 80.3247 91.3182 80.3247C96.3018 80.3247 100.259 80.398 100.259 80.5446Z" fill="#263238"/>
<path d="M117.333 95.1292C122.311 95.1292 126.347 91.0932 126.347 86.1146C126.347 81.136 122.311 77.1001 117.333 77.1001C112.354 77.1001 108.318 81.136 108.318 86.1146C108.318 91.0932 112.354 95.1292 117.333 95.1292Z" fill="#1FCE51"/>
<path d="M122.463 82.6701C122.83 83.0365 121.071 85.5283 118.506 88.3133C118.066 88.7531 117.7 89.1928 117.333 89.5592L116.747 90.1455L116.161 89.6325C113.889 87.727 112.496 86.1147 112.716 85.8215C113.009 85.4551 114.915 86.4811 117.26 88.24L116.014 88.3133C116.381 87.8736 116.747 87.4339 117.187 86.9941C119.679 84.2091 122.097 82.3036 122.463 82.6701Z" fill="#BDBDBD"/>
<path d="M95.6388 94.0297C95.5655 94.0297 95.4189 93.2235 95.4189 92.1975C95.4189 91.1714 95.4922 90.3652 95.6388 90.3652C95.7854 90.3652 95.8587 91.1714 95.8587 92.1975C95.8587 93.2235 95.7854 94.0297 95.6388 94.0297Z" fill="#263238"/>
<path d="M95.6388 101.359C95.5655 101.359 95.4189 100.553 95.4189 99.5266C95.4189 98.5005 95.4922 97.6943 95.6388 97.6943C95.7854 97.6943 95.8587 98.5005 95.8587 99.5266C95.8587 100.553 95.7854 101.359 95.6388 101.359Z" fill="#263238"/>
<path d="M95.6388 108.688C95.5655 108.688 95.4189 107.882 95.4189 106.856C95.4189 105.83 95.4922 105.023 95.6388 105.023C95.7854 105.023 95.8587 105.83 95.8587 106.856C95.8587 107.882 95.7854 108.688 95.6388 108.688Z" fill="#263238"/>
<path d="M95.6388 116.016C95.5655 116.016 95.4189 115.21 95.4189 114.184C95.4189 113.158 95.4922 112.352 95.6388 112.352C95.7854 112.352 95.8587 113.158 95.8587 114.184C95.8587 115.21 95.7854 116.016 95.6388 116.016Z" fill="#263238"/>
<path d="M95.6388 123.346C95.5655 123.346 95.4189 122.539 95.4189 121.513C95.4189 120.487 95.4922 119.681 95.6388 119.681C95.7854 119.681 95.8587 120.487 95.8587 121.513C95.8587 122.539 95.7854 123.346 95.6388 123.346Z" fill="#263238"/>
<path d="M95.6388 130.674C95.5655 130.674 95.4189 129.868 95.4189 128.842C95.4189 127.816 95.4922 127.01 95.6388 127.01C95.7854 127.01 95.8587 127.816 95.8587 128.842C95.8587 129.868 95.7854 130.674 95.6388 130.674Z" fill="#263238"/>
<path d="M95.6388 138.003C95.5655 138.003 95.4189 137.197 95.4189 136.171C95.4189 135.145 95.4922 134.339 95.6388 134.339C95.7854 134.339 95.8587 135.145 95.8587 136.171C95.8587 137.197 95.7854 138.003 95.6388 138.003Z" fill="#263238"/>
<path d="M95.6388 145.332C95.5655 145.332 95.4189 144.526 95.4189 143.5C95.4189 142.474 95.4922 141.667 95.6388 141.667C95.7854 141.667 95.8587 142.474 95.8587 143.5C95.8587 144.526 95.7854 145.332 95.6388 145.332Z" fill="#263238"/>
<path d="M99.2298 149.143C99.2298 149.216 98.4236 149.363 97.3976 149.363C96.5914 149.363 95.9318 149.29 95.712 149.217H95.6387V149.143C95.6387 149.07 95.712 148.997 95.712 148.997C95.712 148.997 95.7852 149.07 95.7852 149.143L95.712 149.07C96.0051 148.997 96.6647 148.923 97.3976 148.923C98.3504 148.923 99.2298 148.997 99.2298 149.143Z" fill="#263238"/>
<path d="M106.559 149.143C106.559 149.216 105.753 149.363 104.727 149.363C103.701 149.363 102.895 149.29 102.895 149.143C102.895 149.07 103.701 148.923 104.727 148.923C105.68 148.923 106.559 148.997 106.559 149.143Z" fill="#263238"/>
<path d="M113.887 149.143C113.887 149.216 113.081 149.363 112.055 149.363C111.029 149.363 110.223 149.289 110.223 149.143C110.223 149.069 111.029 148.923 112.055 148.923C113.008 148.923 113.887 148.996 113.887 149.143Z" fill="#263238"/>
<path d="M121.217 149.143C121.217 149.216 120.411 149.363 119.385 149.363C118.359 149.363 117.553 149.289 117.553 149.143C117.553 149.069 118.359 148.923 119.385 148.923C120.338 148.923 121.217 148.996 121.217 149.143Z" fill="#263238"/>
<path d="M128.545 149.143C128.545 149.216 127.739 149.363 126.713 149.363C125.687 149.363 124.881 149.29 124.881 149.143C124.881 149.07 125.687 148.923 126.713 148.923C127.666 148.923 128.545 148.997 128.545 149.143Z" fill="#263238"/>
<path d="M250.572 82.8168C250.499 82.8168 250.353 82.0106 250.353 80.9846C250.353 79.9585 250.426 79.1523 250.572 79.1523C250.719 79.1523 250.792 79.9585 250.792 80.9846C250.792 82.0106 250.719 82.8168 250.572 82.8168Z" fill="#263238"/>
<path d="M250.572 90.1459C250.499 90.1459 250.353 89.3397 250.353 88.3137C250.353 87.2876 250.426 86.4814 250.572 86.4814C250.719 86.4814 250.792 87.2876 250.792 88.3137C250.792 89.3397 250.719 90.1459 250.572 90.1459Z" fill="#263238"/>
<path d="M250.572 97.4745C250.499 97.4745 250.353 96.6683 250.353 95.6423C250.353 94.6162 250.426 93.8101 250.572 93.8101C250.719 93.8101 250.792 94.6162 250.792 95.6423C250.792 96.6683 250.719 97.4745 250.572 97.4745Z" fill="#263238"/>
<path d="M250.572 104.804C250.499 104.804 250.353 103.997 250.353 102.971C250.353 101.945 250.426 101.139 250.572 101.139C250.719 101.139 250.792 101.945 250.792 102.971C250.792 103.997 250.719 104.804 250.572 104.804Z" fill="#263238"/>
<path d="M250.572 112.132C250.499 112.132 250.353 111.326 250.353 110.3C250.353 109.274 250.426 108.468 250.572 108.468C250.719 108.468 250.792 109.274 250.792 110.3C250.792 111.326 250.719 112.132 250.572 112.132Z" fill="#263238"/>
<path d="M250.572 119.461C250.499 119.461 250.353 118.655 250.353 117.629C250.353 116.603 250.426 115.797 250.572 115.797C250.719 115.797 250.792 116.603 250.792 117.629C250.792 118.655 250.719 119.461 250.572 119.461Z" fill="#263238"/>
<path d="M250.572 126.79C250.499 126.79 250.353 125.984 250.353 124.958C250.353 123.932 250.426 123.125 250.572 123.125C250.719 123.125 250.792 123.932 250.792 124.958C250.792 125.984 250.719 126.79 250.572 126.79Z" fill="#263238"/>
<path d="M250.572 134.119C250.499 134.119 250.353 133.313 250.353 132.287C250.353 131.261 250.426 130.455 250.572 130.455C250.719 130.455 250.792 131.261 250.792 132.287C250.792 133.313 250.719 134.119 250.572 134.119Z" fill="#263238"/>
<path d="M300.335 87.5073C300.335 87.5073 300.188 87.5073 299.895 87.5073C299.602 87.5073 299.162 87.5073 298.576 87.5073C297.404 87.5073 295.718 87.5073 293.519 87.5073C289.049 87.5073 282.672 87.5806 274.611 87.5806C258.414 87.5806 235.621 87.6538 209.237 87.6538H209.09L209.017 87.5073C207.698 82.8901 208.504 77.4667 211.509 73.3625C214.514 69.2584 219.717 66.62 225.067 66.7665L224.848 67.0597C224.481 65.7405 224.261 64.2014 224.335 62.6624C224.554 57.6054 227.413 52.6951 231.81 50.4964C236.134 48.2245 241.557 48.2978 245.662 50.5697L245.295 50.7163C247.64 44.9998 252.624 40.8223 257.974 38.9168C263.398 36.938 269.334 37.2311 274.024 39.6497C278.788 42.0682 282.086 46.1724 283.992 50.4964C285.897 54.8205 286.19 59.5109 285.238 63.5418L285.091 63.322C287.803 63.0288 290.441 63.4685 292.64 64.4213C294.912 65.3741 296.817 66.6932 298.283 68.2323C299.016 69.0385 299.602 69.8447 300.042 70.7974C300.482 71.6769 300.775 72.6296 300.995 73.5091C301.434 75.268 301.581 76.9537 301.654 78.4195C301.728 81.4243 301.361 83.6963 301.068 85.2353C300.921 85.9682 300.775 86.5545 300.628 86.921C300.408 87.3607 300.335 87.5073 300.335 87.5073Z" fill="#0069FF"/>
<path d="M292.054 62.4426H289.196V45.4396C289.196 41.3354 285.898 38.0374 281.794 38.0374C277.689 38.0374 274.391 41.3354 274.391 45.4396V62.4426H271.533V45.4396C271.533 39.7963 276.15 35.2524 281.72 35.2524C287.364 35.2524 291.907 39.8696 291.907 45.4396V62.4426H292.054Z" fill="#BDBDBD"/>
<path d="M293.299 72.776H270.36C268.967 72.776 267.868 71.6767 267.868 70.2842V57.3854C267.868 55.9929 268.967 54.8936 270.36 54.8936H293.299C294.692 54.8936 295.791 55.9929 295.791 57.3854V70.3575C295.791 71.6767 294.692 72.776 293.299 72.776Z" fill="#BDBDBD"/>
<path d="M281.867 63.835C280.548 63.835 279.521 62.809 279.521 61.4898C279.521 60.1706 280.548 59.1445 281.867 59.1445C283.186 59.1445 284.212 60.1706 284.212 61.4898C284.212 62.809 283.113 63.835 281.867 63.835Z" fill="#455A64"/>
<path d="M282.453 62.4429H281.207V67.2799H282.453V62.4429Z" fill="#455A64"/>
<path d="M453.657 56.7991C459.813 51.0093 460.18 41.3352 454.39 35.1789C448.6 29.0227 438.926 28.6562 432.77 34.4461C427.493 39.3564 426.467 47.125 429.911 53.1347L426.833 56.0663L427.566 61.1965L422.729 59.8773L418.845 63.5417L419.578 68.6719L414.741 67.3527L411.369 70.5042L411.809 73.6556L408.877 72.8494L406.899 74.6816L406.605 79.4454L413.714 81.2043L436.874 59.5841C442.37 62.0027 448.966 61.1232 453.657 56.7991ZM451.385 38.0372C453.071 39.7961 452.924 42.5811 451.165 44.2668C449.406 45.9524 446.621 45.8058 444.936 44.0469C443.25 42.288 443.396 39.503 445.155 37.8173C446.914 36.1317 449.699 36.205 451.385 38.0372Z" fill="#263238"/>
<path d="M451.384 38.0378C451.384 38.0378 451.091 37.7447 450.505 37.3782C449.918 37.0118 448.966 36.6453 447.72 36.7919C446.547 36.9385 445.081 37.6714 444.422 39.1372C443.689 40.5296 443.835 42.5817 445.081 43.9009C446.327 45.2934 448.379 45.5133 449.772 44.927C451.238 44.3407 452.117 42.9482 452.337 41.7756C452.557 40.6029 452.264 39.5769 451.897 38.9906C451.604 38.331 451.311 38.0378 451.384 38.0378C451.384 38.0378 451.457 38.1111 451.604 38.2577C451.751 38.4043 451.897 38.6241 452.117 38.9173C452.483 39.5036 452.85 40.5296 452.63 41.8488C452.483 43.0947 451.531 44.5605 449.992 45.2934C449.185 45.6599 448.306 45.7331 447.353 45.5866C446.4 45.44 445.521 44.927 444.861 44.1941C444.202 43.4612 443.762 42.5084 443.689 41.629C443.542 40.6762 443.762 39.7968 444.202 38.9906C445.008 37.4515 446.547 36.6453 447.793 36.572C449.112 36.4988 450.065 36.9385 450.651 37.3049C450.944 37.5248 451.164 37.6714 451.238 37.818C451.311 37.8912 451.384 37.9645 451.384 38.0378Z" fill="#263238"/>
<path d="M453.657 56.7994C453.657 56.7994 453.584 56.8727 453.437 57.0193C453.29 57.1659 453.071 57.3857 452.777 57.6056C452.118 58.1186 451.238 58.8515 449.846 59.5111C448.453 60.1707 446.621 60.757 444.422 60.9769C442.224 61.1234 439.585 60.8303 436.947 59.731H437.094C431.157 65.3009 423.169 72.7764 414.008 81.3512L413.934 81.4245H413.861C411.589 80.8381 409.171 80.2518 406.752 79.6655H406.605V79.5189C406.679 78.0532 406.825 76.3675 406.899 74.7552V74.6819L406.972 74.6086C407.558 74.0223 408.218 73.436 408.951 72.7764L408.877 72.5565H408.951C409.83 72.7764 410.856 73.0695 411.882 73.3627L411.662 73.5826C411.516 72.6298 411.369 71.5305 411.223 70.4311V70.3578L411.296 70.2846C412.322 69.3318 413.495 68.2325 414.667 67.1331L414.741 67.0598H414.814C416.353 67.4996 417.965 67.9393 419.651 68.379L419.431 68.5989C419.211 66.9866 418.918 65.2276 418.698 63.4687V63.3954L418.771 63.3221C419.065 63.029 419.431 62.6625 419.797 62.3694C420.75 61.4899 421.703 60.6104 422.656 59.731L422.729 59.6577H422.802C424.415 60.0974 426.027 60.5371 427.639 60.9769L427.419 61.1967C427.2 59.4378 426.906 57.7522 426.687 56.0665V55.9932L426.76 55.9199C427.786 54.9672 428.812 53.9411 429.838 52.9884V53.2083C428.665 51.0096 427.933 48.6644 427.859 46.2458C427.786 45.0732 427.859 43.8273 428.079 42.728C428.299 41.5553 428.665 40.456 429.105 39.43C430.937 35.1792 434.602 32.1011 438.633 30.9285C442.59 29.6825 446.841 30.1956 450.066 31.8079C453.364 33.4203 455.709 36.132 457.101 38.8436C458.421 41.6286 458.86 44.4869 458.641 46.8321C458.421 49.2507 457.688 51.2295 456.955 52.6952C456.882 52.9151 456.735 53.0617 456.662 53.2083C456.588 53.3548 456.442 53.5014 456.369 53.7213C456.149 54.0144 456.002 54.3076 455.782 54.6007C455.343 55.1138 455.049 55.5535 454.756 55.8467C454.463 56.1398 454.243 56.3597 454.023 56.5795C453.73 56.7261 453.657 56.7994 453.657 56.7994C453.657 56.7994 453.73 56.7261 453.877 56.5795C454.023 56.433 454.243 56.1398 454.536 55.8467C454.829 55.5535 455.123 55.1138 455.562 54.6007C455.782 54.3809 455.929 54.0144 456.149 53.7213C456.222 53.5747 456.369 53.4281 456.442 53.2083C456.515 53.0617 456.588 52.8418 456.735 52.6952C457.468 51.2295 458.201 49.2507 458.347 46.8321C458.567 44.4869 458.128 41.6286 456.808 38.9169C455.416 36.2053 453.144 33.5669 449.846 32.0278C446.621 30.4154 442.517 29.9757 438.633 31.2216C434.748 32.4675 431.157 35.3991 429.325 39.5765C428.885 40.6026 428.519 41.7019 428.372 42.8012C428.152 43.9006 428.079 45.0732 428.152 46.2458C428.226 48.5911 428.959 50.9363 430.131 53.0617L430.204 53.2083L430.131 53.2815C429.105 54.2343 428.079 55.1871 427.053 56.2131L427.126 56.0665C427.346 57.7522 427.639 59.5111 427.859 61.1967L427.932 61.4899L427.639 61.4166C426.027 60.9769 424.415 60.5371 422.802 60.0974L422.949 60.0241C421.996 60.9036 421.043 61.7831 420.091 62.6625C419.724 62.9557 419.358 63.3221 419.065 63.6153L419.138 63.4687C419.358 65.2276 419.651 66.9866 419.871 68.5989L419.944 68.8921L419.651 68.8188C417.965 68.379 416.353 67.866 414.814 67.4996L414.96 67.4263C413.788 68.5256 412.688 69.5517 411.589 70.5777L411.662 70.4311C411.809 71.5305 411.956 72.6298 412.102 73.5826L412.175 73.8757L411.882 73.8024C410.856 73.5093 409.83 73.2161 408.951 72.9962L409.097 72.923C408.438 73.5826 407.778 74.1689 407.118 74.7552L407.192 74.6086C407.118 76.2942 406.972 77.9066 406.899 79.3724L406.752 79.1525C409.244 79.8121 411.662 80.3984 413.861 80.9847L413.714 81.058C422.949 72.4832 430.937 65.081 436.874 59.5111L436.947 59.4378H437.02C439.585 60.6104 442.151 60.9036 444.349 60.757C446.548 60.6104 448.38 60.0241 449.773 59.3645C451.165 58.7049 452.118 58.0453 452.777 57.5323C453.071 57.3124 453.29 57.0926 453.437 56.946C453.51 56.8727 453.657 56.7994 453.657 56.7994Z" fill="#263238"/>
<path d="M453.144 55.0404C459.3 49.2505 459.667 39.5764 453.877 33.4202C448.087 27.2639 438.413 26.8975 432.257 32.6873C426.98 37.5976 425.954 45.3662 429.399 51.3759L426.32 54.3075L427.053 59.4377L422.216 58.1185L418.332 61.7829L419.065 66.9131L414.228 65.5939L410.857 68.7454L411.296 71.8968L408.365 71.0906L406.386 72.9228L406.093 77.6866L413.202 79.4455L436.361 57.8253C441.858 60.2439 448.454 59.3644 453.144 55.0404ZM450.872 36.2784C452.558 38.0374 452.411 40.8223 450.652 42.508C448.893 44.1936 446.108 44.047 444.423 42.2881C442.737 40.5292 442.884 37.7442 444.643 36.0586C446.402 34.3729 449.187 34.5195 450.872 36.2784Z" fill="#BDBDBD"/>
<path d="M450.871 36.2785C450.871 36.2785 450.578 35.9854 449.992 35.6189C449.406 35.2525 448.453 34.8861 447.207 35.0326C446.034 35.1792 444.569 35.9121 443.909 37.3779C443.176 38.7704 443.323 40.8225 444.569 42.1416C445.814 43.5341 447.867 43.754 449.259 43.1677C450.725 42.5814 451.604 41.1889 451.824 40.0163C452.044 38.8437 451.751 37.8176 451.384 37.2313C451.091 36.5717 450.798 36.2785 450.871 36.2785C450.871 36.2785 450.945 36.3518 451.091 36.4984C451.238 36.645 451.384 36.8649 451.604 37.158C451.971 37.7443 452.337 38.7704 452.117 40.0896C451.971 41.3355 451.018 42.8012 449.479 43.5341C448.673 43.9006 447.793 43.9739 446.841 43.8273C445.888 43.6807 445.008 43.1677 444.349 42.4348C443.689 41.7019 443.249 40.7492 443.176 39.8697C443.03 38.9169 443.249 38.0375 443.689 37.2313C444.495 35.6922 446.034 34.8861 447.28 34.8128C448.599 34.7395 449.552 35.1792 450.139 35.5457C450.432 35.7655 450.652 35.9121 450.725 36.0587C450.798 36.2053 450.871 36.2785 450.871 36.2785Z" fill="#263238"/>
<path d="M453.144 55.04C453.144 55.04 453.071 55.1133 452.924 55.2599C452.778 55.4065 452.558 55.6263 452.265 55.8462C451.605 56.3592 450.726 57.0921 449.333 57.7517C447.941 58.4113 446.108 58.9976 443.91 59.2175C441.711 59.3641 439.073 59.0709 436.434 57.9716H436.581C430.645 63.5415 422.656 71.017 413.495 79.5918L413.422 79.6651H413.348C411.076 79.0788 408.658 78.4925 406.239 77.9062H406.093V77.7596C406.166 76.2938 406.313 74.6082 406.386 72.9958V72.9225L406.459 72.8492C407.046 72.2629 407.705 71.6766 408.438 71.017L408.511 70.9437H408.585C409.464 71.1636 410.49 71.4567 411.516 71.7499L411.296 71.9698C411.15 71.017 411.003 69.9177 410.857 68.8183V68.745L410.93 68.6718C411.956 67.719 413.129 66.6197 414.301 65.5203L414.374 65.4471H414.448C415.987 65.8868 417.599 66.3265 419.285 66.7662L419.065 66.9861C418.845 65.3738 418.552 63.6148 418.332 61.8559V61.7826L418.405 61.7093C418.698 61.4162 419.065 61.0497 419.431 60.7566C420.384 59.8771 421.337 58.9976 422.29 58.1182L422.363 58.0449H422.436C424.049 58.4846 425.661 58.9243 427.273 59.3641L427.053 59.5839C426.833 57.825 426.54 56.1394 426.32 54.4537V54.3804L426.394 54.3071C427.42 53.3544 428.446 52.3284 429.472 51.3756V51.5955C428.299 49.3968 427.566 47.0516 427.493 44.633C427.42 43.4604 427.493 42.2145 427.713 41.1152C427.933 39.9425 428.299 38.8432 428.739 37.8172C430.571 33.5664 434.236 30.4883 438.267 29.3157C442.224 28.0698 446.475 28.5828 449.7 30.1951C452.998 31.8075 455.343 34.5192 456.735 37.2309C458.055 40.0158 458.494 42.8741 458.274 45.2193C458.055 47.6379 457.322 49.6167 456.589 51.0824C456.515 51.3023 456.369 51.4489 456.296 51.5955C456.222 51.742 456.076 51.8886 456.002 52.1085C455.783 52.4016 455.636 52.6948 455.416 52.988C454.976 53.501 454.683 53.9407 454.39 54.2339C454.097 54.527 453.877 54.7469 453.657 54.9667C453.217 54.9667 453.144 55.04 453.144 55.04C453.144 55.04 453.217 54.9667 453.364 54.8202C453.511 54.6736 453.73 54.3804 454.024 54.0873C454.317 53.7941 454.61 53.3544 455.05 52.8414C455.27 52.6215 455.416 52.2551 455.636 51.9619C455.709 51.8153 455.856 51.6688 455.929 51.4489C456.002 51.3023 456.076 51.0824 456.222 50.9359C456.955 49.4701 457.688 47.4913 457.835 45.0728C458.055 42.7275 457.615 39.8693 456.296 37.1576C454.903 34.4459 452.631 31.8075 449.333 30.2684C446.108 28.6561 442.004 28.2163 438.12 29.4622C434.236 30.7082 430.645 33.6397 428.812 37.8172C428.373 38.8432 428.006 39.9425 427.86 41.0419C427.64 42.1412 427.566 43.3138 427.64 44.4865C427.713 46.8317 428.446 49.1769 429.618 51.3023L429.692 51.4489L429.618 51.5222C428.592 52.4749 427.566 53.4277 426.54 54.4537L426.614 54.3071C426.834 55.9928 427.127 57.7517 427.347 59.4374L427.42 59.7305L427.127 59.6572C425.514 59.2175 423.902 58.7778 422.29 58.338L422.436 58.2647C421.483 59.1442 420.531 60.0237 419.578 60.9031C419.211 61.1963 418.845 61.5627 418.552 61.8559L418.625 61.7093C418.845 63.4683 419.138 65.2272 419.358 66.8395L419.431 67.1327L419.138 67.0594C417.453 66.6197 415.84 66.1066 414.301 65.7402L414.448 65.6669C413.275 66.7662 412.176 67.7923 411.076 68.8183L411.15 68.6718C411.296 69.7711 411.443 70.8704 411.589 71.8232L411.663 72.1163L411.37 72.043C410.344 71.7499 409.317 71.4567 408.438 71.2369L408.585 71.1636C407.925 71.8232 407.265 72.4095 406.606 72.9958L406.679 72.8492C406.606 74.5349 406.459 76.1472 406.386 77.613L406.239 77.3931C408.731 78.0527 411.15 78.639 413.348 79.2253L413.202 79.2986C422.436 70.7238 430.425 63.3217 436.361 57.7517L436.434 57.6784H436.508C439.073 58.8511 441.638 59.1442 443.837 58.9976C446.035 58.8511 447.867 58.2647 449.26 57.6051C450.652 56.9455 451.605 56.2859 452.265 55.7729C452.558 55.5531 452.778 55.3332 452.924 55.1866C452.998 55.1133 453.144 55.04 453.144 55.04Z" fill="#263238"/>
<path d="M451.678 53.8676C451.604 53.7943 452.557 53.0614 453.73 51.3024C454.316 50.423 454.902 49.2504 455.269 47.7846C455.708 46.3188 455.928 44.6332 455.709 42.7277C455.489 40.8221 454.902 38.8433 453.73 36.9378C452.484 35.1056 450.798 33.3467 448.526 32.2474C447.427 31.661 446.181 31.2213 444.935 31.0014C444.275 30.8549 443.616 30.8549 442.956 30.7816C442.297 30.7816 441.637 30.7816 440.977 30.8549C438.266 31.148 435.627 32.3939 433.502 34.2994C431.45 36.2782 429.984 38.8433 429.544 41.555C429.398 42.2146 429.398 42.8742 429.325 43.5338C429.325 44.1934 429.325 44.853 429.398 45.5126C429.544 46.8318 429.838 48.0777 430.351 49.1771C431.303 51.5223 432.916 53.3545 434.675 54.6737C436.434 55.9929 438.486 56.7258 440.318 57.0923C442.15 57.3854 443.909 57.3121 445.375 57.019C446.841 56.7258 448.086 56.2128 448.966 55.6998C450.871 54.6737 451.678 53.7943 451.678 53.8676C451.678 53.8676 451.604 53.9408 451.531 54.0141C451.384 54.1607 451.238 54.234 451.018 54.4539C450.798 54.6737 450.578 54.8936 450.212 55.1135C449.845 55.3333 449.479 55.6265 449.039 55.8464C448.086 56.4327 446.914 56.8724 445.375 57.2388C443.909 57.6053 442.077 57.6786 440.171 57.3854C438.266 57.0923 436.214 56.3594 434.381 54.9669C432.549 53.5744 430.864 51.7422 429.911 49.3236C429.398 48.151 429.031 46.8318 428.885 45.5126C428.812 44.853 428.812 44.1934 428.812 43.4605C428.885 42.8009 428.885 42.0681 429.031 41.4085C429.544 38.6235 430.937 35.9851 433.136 33.933C435.334 31.9542 438.046 30.635 440.831 30.3418C441.49 30.2686 442.223 30.2686 442.883 30.2686C443.543 30.3418 444.275 30.3418 444.935 30.4884C446.254 30.7083 447.5 31.148 448.673 31.7343C450.945 32.907 452.704 34.6659 453.95 36.5714C455.195 38.4769 455.782 40.6023 456.002 42.5078C456.222 44.4133 455.928 46.1722 455.489 47.638C455.049 49.1038 454.463 50.2764 453.803 51.1559C453.51 51.5956 453.217 51.962 452.924 52.3285C452.704 52.6216 452.41 52.9148 452.191 53.1347C451.971 53.3545 451.824 53.5011 451.751 53.5744C451.751 53.7943 451.751 53.8676 451.678 53.8676Z" fill="#263238"/>
<path d="M451.091 43.0211C451.091 43.0211 451.384 42.7279 451.824 41.995C452.264 41.3354 452.704 40.1628 452.557 38.7703C452.484 38.0374 452.264 37.3045 451.824 36.5716C451.384 35.912 450.725 35.2524 449.845 34.8127C449.039 34.373 448.013 34.1531 446.987 34.2997C445.961 34.373 445.008 34.886 444.202 35.6189C443.396 36.3518 442.883 37.3045 442.736 38.3306C442.517 39.3566 442.663 40.3094 443.03 41.1888C443.396 42.0683 443.982 42.7279 444.642 43.2409C445.301 43.754 446.034 44.0471 446.767 44.1937C448.16 44.4136 449.332 44.0471 450.065 43.6807C450.725 43.3142 451.091 43.0211 451.091 43.0211C451.091 43.0211 451.018 43.0944 450.871 43.2409C450.725 43.3875 450.432 43.6074 450.139 43.8272C449.406 44.267 448.233 44.7067 446.767 44.4868C446.034 44.3403 445.228 44.1204 444.495 43.5341C443.762 43.0211 443.103 42.2882 442.736 41.3354C442.37 40.456 442.15 39.3566 442.37 38.2573C442.59 37.158 443.103 36.1319 443.982 35.3257C444.862 34.5196 445.888 34.0798 446.987 33.9332C448.086 33.7867 449.112 34.0065 449.992 34.5196C450.871 34.9593 451.604 35.6922 452.044 36.4251C452.484 37.158 452.777 37.9641 452.85 38.7703C452.997 40.3094 452.484 41.482 451.971 42.1416C451.751 42.508 451.531 42.7279 451.384 42.8745C451.165 42.9478 451.091 43.0211 451.091 43.0211Z" fill="#263238"/>
<path d="M411.442 78.5656C411.369 78.4923 416.572 73.5087 423.095 67.4257C429.618 61.3427 434.895 56.5057 434.968 56.5789C435.041 56.6522 429.838 61.6359 423.315 67.7188C416.792 73.8018 411.515 78.6389 411.442 78.5656Z" fill="#263238"/>
<path d="M388.94 144.745C388.94 144.819 388.134 144.965 387.108 144.965C386.082 144.965 385.275 144.892 385.275 144.745C385.275 144.672 386.082 144.525 387.108 144.525C388.06 144.599 388.94 144.672 388.94 144.745Z" fill="#263238"/>
<path d="M396.27 144.745C396.27 144.819 395.464 144.965 394.438 144.965C393.412 144.965 392.605 144.892 392.605 144.745C392.605 144.672 393.412 144.525 394.438 144.525C395.39 144.599 396.27 144.672 396.27 144.745Z" fill="#263238"/>
<path d="M403.598 144.746C403.598 144.819 402.792 144.966 401.766 144.966C400.74 144.966 399.934 144.892 399.934 144.746C399.934 144.672 400.74 144.526 401.766 144.526C402.719 144.599 403.598 144.672 403.598 144.746Z" fill="#263238"/>
<path d="M410.927 144.746C410.927 144.819 410.121 144.966 409.095 144.966C408.069 144.966 407.263 144.892 407.263 144.746C407.263 144.672 408.069 144.526 409.095 144.526C410.048 144.599 410.927 144.672 410.927 144.746Z" fill="#263238"/>
<path d="M418.255 144.745C418.255 144.819 417.449 144.965 416.423 144.965C415.397 144.965 414.591 144.892 414.591 144.745C414.591 144.672 415.397 144.525 416.423 144.525C417.376 144.599 418.255 144.672 418.255 144.745Z" fill="#263238"/>
<path d="M425.586 144.745C425.586 144.819 424.78 144.965 423.754 144.965C422.728 144.965 421.922 144.892 421.922 144.745C421.922 144.672 422.728 144.525 423.754 144.525C424.707 144.599 425.586 144.672 425.586 144.745Z" fill="#263238"/>
<path d="M431.741 143.646C431.814 143.646 431.887 144.086 431.887 144.745V144.892H431.741C431.521 144.892 431.301 144.892 431.008 144.892C429.982 144.892 429.176 144.819 429.176 144.672C429.176 144.599 429.982 144.452 431.008 144.452C431.228 144.452 431.521 144.452 431.741 144.452L431.594 144.599C431.594 144.159 431.668 143.646 431.741 143.646Z" fill="#263238"/>
<path d="M431.742 136.317C431.816 136.317 431.962 137.123 431.962 138.149C431.962 139.175 431.889 139.981 431.742 139.981C431.596 139.981 431.522 139.175 431.522 138.149C431.596 137.196 431.669 136.317 431.742 136.317Z" fill="#263238"/>
<path d="M431.742 128.988C431.816 128.988 431.962 129.794 431.962 130.821C431.962 131.847 431.889 132.653 431.742 132.653C431.596 132.653 431.522 131.847 431.522 130.821C431.596 129.868 431.669 128.988 431.742 128.988Z" fill="#263238"/>
<path d="M431.742 121.659C431.816 121.659 431.962 122.465 431.962 123.491C431.962 124.517 431.889 125.324 431.742 125.324C431.596 125.324 431.522 124.517 431.522 123.491C431.596 122.539 431.669 121.659 431.742 121.659Z" fill="#263238"/>
<path d="M431.742 114.331C431.816 114.331 431.962 115.137 431.962 116.163C431.962 117.189 431.889 117.995 431.742 117.995C431.596 117.995 431.522 117.189 431.522 116.163C431.596 115.21 431.669 114.331 431.742 114.331Z" fill="#263238"/>
<path d="M431.742 107.002C431.816 107.002 431.962 107.808 431.962 108.834C431.962 109.86 431.889 110.666 431.742 110.666C431.596 110.666 431.522 109.86 431.522 108.834C431.596 107.881 431.669 107.002 431.742 107.002Z" fill="#263238"/>
<path d="M431.742 99.6729C431.816 99.6729 431.962 100.479 431.962 101.505C431.962 102.531 431.889 103.337 431.742 103.337C431.596 103.337 431.522 102.531 431.522 101.505C431.596 100.552 431.669 99.6729 431.742 99.6729Z" fill="#263238"/>
<path d="M431.742 92.3442C431.816 92.3442 431.962 93.1504 431.962 94.1765C431.962 95.2025 431.889 96.0087 431.742 96.0087C431.596 96.0087 431.522 95.2025 431.522 94.1765C431.596 93.2237 431.669 92.3442 431.742 92.3442Z" fill="#263238"/>
<path d="M431.742 85.0146C431.816 85.0146 431.962 85.8208 431.962 86.8469C431.962 87.8729 431.889 88.6791 431.742 88.6791C431.596 88.6791 431.522 87.8729 431.522 86.8469C431.596 85.8941 431.669 85.0146 431.742 85.0146Z" fill="#263238"/>
<path d="M431.742 77.6865C431.816 77.6865 431.962 78.4927 431.962 79.5187C431.962 80.5448 431.889 81.351 431.742 81.351C431.596 81.351 431.522 80.5448 431.522 79.5187C431.596 78.566 431.669 77.6865 431.742 77.6865Z" fill="#263238"/>
<path d="M431.742 70.3569C431.816 70.3569 431.962 71.1631 431.962 72.1892C431.962 73.2152 431.889 74.0214 431.742 74.0214C431.596 74.0214 431.522 73.2152 431.522 72.1892C431.596 71.2364 431.669 70.3569 431.742 70.3569Z" fill="#263238"/>
<path d="M376.848 217.815C376.848 217.888 376.042 218.035 375.016 218.035C373.99 218.035 373.184 217.962 373.184 217.815C373.184 217.669 373.99 217.595 375.016 217.595C375.969 217.669 376.848 217.742 376.848 217.815Z" fill="#263238"/>
<path d="M384.176 217.815C384.176 217.888 383.37 218.035 382.344 218.035C381.318 218.035 380.512 217.962 380.512 217.815C380.512 217.669 381.318 217.595 382.344 217.595C383.297 217.669 384.176 217.742 384.176 217.815Z" fill="#263238"/>
<path d="M391.507 217.815C391.507 217.888 390.701 218.035 389.675 218.035C388.649 218.035 387.843 217.962 387.843 217.815C387.843 217.669 388.649 217.595 389.675 217.595C390.628 217.669 391.507 217.742 391.507 217.815Z" fill="#263238"/>
<path d="M398.835 217.815C398.835 217.888 398.029 218.034 397.003 218.034C395.977 218.034 395.171 217.961 395.171 217.815C395.171 217.668 395.977 217.595 397.003 217.595C397.956 217.668 398.835 217.741 398.835 217.815Z" fill="#263238"/>
<path d="M406.164 217.815C406.164 217.888 405.358 218.034 404.332 218.034C403.306 218.034 402.5 217.961 402.5 217.815C402.5 217.668 403.306 217.595 404.332 217.595C405.285 217.668 406.164 217.741 406.164 217.815Z" fill="#263238"/>
<path d="M413.493 217.815C413.493 217.888 412.686 218.035 411.66 218.035C410.634 218.035 409.828 217.962 409.828 217.815C409.828 217.669 410.634 217.595 411.66 217.595C412.613 217.669 413.493 217.742 413.493 217.815Z" fill="#263238"/>
<path d="M420.823 217.815C420.823 217.888 420.016 218.035 418.99 218.035C417.964 218.035 417.158 217.962 417.158 217.815C417.158 217.669 417.964 217.595 418.99 217.595C419.943 217.669 420.823 217.742 420.823 217.815Z" fill="#263238"/>
<path d="M428.151 217.815C428.151 217.888 427.345 218.034 426.319 218.034C425.293 218.034 424.486 217.961 424.486 217.815C424.486 217.668 425.293 217.595 426.319 217.595C427.271 217.668 428.151 217.741 428.151 217.815Z" fill="#263238"/>
<path d="M435.48 217.815C435.48 217.888 434.674 218.034 433.648 218.034C432.622 218.034 431.815 217.961 431.815 217.815C431.815 217.668 432.622 217.595 433.648 217.595C434.6 217.668 435.48 217.741 435.48 217.815Z" fill="#263238"/>
<path d="M442.808 217.815C442.808 217.888 442.002 218.035 440.976 218.035C439.95 218.035 439.144 217.962 439.144 217.815C439.144 217.669 439.95 217.595 440.976 217.595C441.929 217.669 442.808 217.742 442.808 217.815Z" fill="#263238"/>
<path d="M449.404 217.155C449.478 217.155 449.551 217.448 449.551 217.814V217.961H449.404C449.111 217.961 448.671 218.034 448.232 218.034C447.206 218.034 446.399 217.961 446.399 217.814C446.399 217.668 447.206 217.595 448.232 217.595C448.671 217.595 449.038 217.595 449.404 217.668L449.258 217.814C449.331 217.375 449.404 217.155 449.404 217.155Z" fill="#263238"/>
<path d="M449.478 209.826C449.551 209.826 449.624 210.632 449.624 211.658C449.624 212.684 449.551 213.491 449.404 213.491C449.331 213.491 449.258 212.684 449.258 211.658C449.331 210.632 449.404 209.826 449.478 209.826Z" fill="#263238"/>
<path d="M449.551 202.497C449.624 202.497 449.697 203.303 449.697 204.329C449.697 205.355 449.624 206.162 449.478 206.162C449.404 206.162 449.331 205.355 449.331 204.329C449.404 203.303 449.478 202.497 449.551 202.497Z" fill="#263238"/>
<path d="M449.625 195.168C449.698 195.168 449.772 195.975 449.772 197.001C449.772 198.027 449.698 198.833 449.552 198.833C449.479 198.833 449.405 198.027 449.405 197.001C449.479 195.975 449.552 195.168 449.625 195.168Z" fill="#263238"/>
<path d="M425.366 172.155L426.685 196.927C426.759 197.807 427.492 198.466 428.371 198.539L472.931 198.833C473.883 198.833 474.616 198.1 474.616 197.147L474.763 177.872C474.763 176.919 474.03 176.186 473.077 176.186H445.667C445.227 176.186 444.788 176.04 444.495 175.673L439.731 170.91C439.438 170.616 438.998 170.397 438.558 170.397L426.979 170.323C426.099 170.397 425.366 171.203 425.366 172.155Z" fill="#4C4DA0"/>
<path d="M474.807 173.364L426.144 173.008L425.93 202.103L474.594 202.46L474.807 173.364Z" fill="#F5F5F5"/>
<path d="M422.214 175.526L425.732 205.941C425.805 206.454 426.245 206.894 426.758 206.894L474.249 207.261C474.835 207.261 475.275 206.821 475.348 206.308L477.987 175.966C478.06 175.307 477.547 174.794 476.887 174.794L423.313 174.427C422.654 174.354 422.141 174.94 422.214 175.526Z" fill="#4C4DA0"/>
<path d="M382.492 304.662H137.194C131.331 304.662 126.494 299.899 126.494 293.962V139.03C126.494 133.167 131.258 128.33 137.194 128.33H382.492C388.355 128.33 393.192 133.093 393.192 139.03V294.036C393.119 299.899 388.355 304.662 382.492 304.662Z" fill="#263238"/>
<path d="M391.213 307.08H128.399C121.217 307.08 115.354 301.217 115.354 294.035V291.616H404.258V294.035C404.258 301.217 398.395 307.08 391.213 307.08Z" fill="#263238"/>
<path d="M385.276 135.365H133.676V284.288H385.276V135.365Z" fill="#455A64"/>
<path d="M233.568 291.616L237.086 297.333H287.582L290.88 291.616H233.568Z" fill="#455A64"/>
<path d="M378.167 283.774H141.224C139.905 283.774 138.806 282.675 138.806 281.356V142.767C138.806 141.447 139.905 140.348 141.224 140.348H378.167C379.486 140.348 380.585 141.447 380.585 142.767V281.356C380.585 282.675 379.486 283.774 378.167 283.774Z" fill="#EBEBEB"/>
<path d="M380.512 150.901H138.806V283.774H380.512V150.901Z" fill="#FAFAFA"/>
<path d="M158.667 145.918C158.667 147.018 157.788 147.824 156.762 147.824C155.663 147.824 154.856 146.944 154.856 145.918C154.856 144.892 155.736 144.013 156.762 144.013C157.788 144.013 158.667 144.892 158.667 145.918Z" fill="#263238"/>
<path d="M146.943 145.917C146.943 147.017 146.063 147.823 145.037 147.823C143.938 147.823 143.132 146.943 143.132 145.917C143.132 144.891 144.011 144.012 145.037 144.012C146.137 144.012 146.943 144.891 146.943 145.917Z" fill="#263238"/>
<path d="M152.585 145.917C152.585 147.017 151.706 147.823 150.68 147.823C149.581 147.823 148.774 146.943 148.774 145.917C148.774 144.891 149.654 144.012 150.68 144.012C151.706 144.012 152.585 144.891 152.585 145.917Z" fill="#263238"/>
<path d="M390.847 291.617C390.847 291.69 331.63 291.763 258.707 291.763C185.712 291.763 126.494 291.69 126.494 291.617C126.494 291.543 185.638 291.47 258.707 291.47C331.703 291.47 390.847 291.543 390.847 291.617Z" fill="#455A64"/>
<path d="M210.777 217.815H155.591V221.48H210.777V217.815Z" fill="#BDBDBD"/>
<path d="M282.014 166.586H226.827V170.251H282.014V166.586Z" fill="#BDBDBD"/>
<path d="M364.024 180.365C364.024 180.438 333.316 180.511 295.425 180.511C257.535 180.511 226.827 180.438 226.827 180.365C226.827 180.292 257.535 180.218 295.425 180.218C333.316 180.145 364.024 180.218 364.024 180.365Z" fill="#BDBDBD"/>
<path d="M364.024 188.426C364.024 188.5 333.316 188.573 295.425 188.573C257.535 188.573 226.827 188.5 226.827 188.426C226.827 188.353 257.535 188.28 295.425 188.28C333.316 188.206 364.024 188.28 364.024 188.426Z" fill="#BDBDBD"/>
<path d="M364.024 196.488C364.024 196.562 333.316 196.635 295.425 196.635C257.535 196.635 226.827 196.562 226.827 196.488C226.827 196.415 257.535 196.342 295.425 196.342C333.316 196.268 364.024 196.342 364.024 196.488Z" fill="#BDBDBD"/>
<path d="M364.024 204.55C364.024 204.623 333.316 204.696 295.425 204.696C257.535 204.696 226.827 204.623 226.827 204.55C226.827 204.477 257.535 204.403 295.425 204.403C333.316 204.33 364.024 204.403 364.024 204.55Z" fill="#BDBDBD"/>
<path d="M364.024 212.539C364.024 212.612 333.316 212.685 295.425 212.685C257.535 212.685 226.827 212.612 226.827 212.539C226.827 212.465 257.535 212.392 295.425 212.392C333.316 212.392 364.024 212.465 364.024 212.539Z" fill="#BDBDBD"/>
<path d="M280.4 220.6C280.4 220.673 268.381 220.746 253.65 220.746C238.845 220.746 226.899 220.673 226.899 220.6C226.899 220.526 238.919 220.453 253.65 220.453C268.381 220.453 280.4 220.526 280.4 220.6Z" fill="#BDBDBD"/>
<path d="M363.069 236.284C363.069 236.357 342.915 236.43 317.996 236.43C293.078 236.43 272.924 236.357 272.924 236.284C272.924 236.21 293.078 236.137 317.996 236.137C342.841 236.064 363.069 236.21 363.069 236.284Z" fill="#BDBDBD"/>
<path d="M363.069 244.859C363.069 244.932 342.915 245.005 317.996 245.005C293.078 245.005 272.924 244.932 272.924 244.859C272.924 244.786 293.078 244.712 317.996 244.712C342.841 244.639 363.069 244.712 363.069 244.859Z" fill="#BDBDBD"/>
<path d="M363.069 253.36C363.069 253.433 342.915 253.507 317.996 253.507C293.078 253.507 272.924 253.433 272.924 253.36C272.924 253.287 293.078 253.213 317.996 253.213C342.841 253.213 363.069 253.287 363.069 253.36Z" fill="#BDBDBD"/>
<path d="M363.069 261.936C363.069 262.009 342.915 262.082 317.996 262.082C293.078 262.082 272.924 262.009 272.924 261.936C272.924 261.862 293.078 261.789 317.996 261.789C342.841 261.789 363.069 261.862 363.069 261.936Z" fill="#BDBDBD"/>
<path d="M210.923 235.478C210.923 235.551 198.904 235.625 184.026 235.625C169.148 235.625 157.129 235.551 157.129 235.478C157.129 235.405 169.148 235.331 184.026 235.331C198.83 235.258 210.923 235.331 210.923 235.478Z" fill="#BDBDBD"/>
<path d="M210.923 242.147C210.923 242.22 198.904 242.294 184.026 242.294C169.148 242.294 157.129 242.22 157.129 242.147C157.129 242.074 169.148 242 184.026 242C198.83 242 210.923 242.074 210.923 242.147Z" fill="#BDBDBD"/>
<path d="M210.923 248.89C210.923 248.963 198.904 249.036 184.026 249.036C169.148 249.036 157.129 248.963 157.129 248.89C157.129 248.816 169.148 248.743 184.026 248.743C198.83 248.743 210.923 248.816 210.923 248.89Z" fill="#BDBDBD"/>
<path d="M210.923 255.632C210.923 255.706 198.904 255.779 184.026 255.779C169.148 255.779 157.129 255.706 157.129 255.632C157.129 255.559 169.148 255.486 184.026 255.486C198.83 255.412 210.923 255.486 210.923 255.632Z" fill="#BDBDBD"/>
<path d="M210.923 262.301C210.923 262.375 198.904 262.448 184.026 262.448C169.148 262.448 157.129 262.375 157.129 262.301C157.129 262.228 169.148 262.155 184.026 262.155C198.83 262.155 210.923 262.228 210.923 262.301Z" fill="#BDBDBD"/>
<path d="M265.963 232.18H226.827V270.07H265.963V232.18Z" fill="#F5F5F5"/>
<path d="M229.83 266.845L240.677 247.351L249.545 259.81L254.895 253.14L262.883 266.845H229.83Z" fill="#EBEBEB"/>
<path d="M253.283 243.54C253.283 245.079 252.037 246.325 250.498 246.325C248.959 246.325 247.713 245.079 247.713 243.54C247.713 242.001 248.959 240.755 250.498 240.755C252.037 240.755 253.283 242.001 253.283 243.54Z" fill="#EBEBEB"/>
<path d="M262.888 266.918C262.888 266.918 262.888 266.845 262.888 266.772C262.888 266.625 262.888 266.478 262.888 266.332C262.888 265.965 262.888 265.379 262.888 264.646C262.888 263.18 262.888 260.982 262.815 258.197C262.815 252.7 262.741 244.785 262.741 235.331L262.888 235.477C253.287 235.477 241.927 235.477 229.835 235.477C229.761 235.551 230.201 235.111 229.981 235.331V235.404V235.551V235.844V236.357V237.456C229.981 238.189 229.981 238.849 229.981 239.581C229.981 240.974 229.981 242.44 229.981 243.832C229.981 246.617 229.981 249.329 229.981 251.967C229.981 257.244 229.981 262.301 229.981 266.918L229.835 266.772C239.729 266.772 247.937 266.845 253.727 266.845C256.585 266.845 258.93 266.845 260.469 266.918C261.275 266.918 261.862 266.918 262.228 266.918C262.448 266.918 262.595 266.918 262.668 266.918C262.888 266.918 262.888 266.918 262.888 266.918C262.888 266.918 262.815 266.918 262.741 266.918C262.595 266.918 262.448 266.918 262.302 266.918C261.862 266.918 261.275 266.918 260.543 266.918C259.004 266.918 256.732 266.918 253.8 266.991C248.01 266.991 239.729 267.065 229.761 267.065H229.615V266.918C229.615 262.301 229.615 257.317 229.615 251.967C229.615 249.329 229.615 246.617 229.615 243.832C229.615 242.44 229.615 241.047 229.615 239.581C229.615 238.849 229.615 238.189 229.615 237.456V236.357V235.844V235.551V235.404V235.331C229.468 235.477 229.835 235.111 229.835 235.111C242.001 235.111 253.36 235.111 262.888 235.111H263.034V235.257C263.034 244.785 262.961 252.7 262.961 258.197C262.961 260.909 262.961 263.107 262.888 264.573C262.888 265.306 262.888 265.819 262.888 266.259C262.888 266.405 262.888 266.552 262.888 266.698C262.961 266.845 262.888 266.918 262.888 266.918Z" fill="#EBEBEB"/>
<path d="M209.674 160.283H156.613V211.659H209.674V160.283Z" fill="#F5F5F5"/>
<path d="M160.719 207.261L175.45 180.804L187.469 197.733L194.725 188.719L205.572 207.261H160.719Z" fill="#BDBDBD"/>
<path d="M192.526 175.673C192.526 177.799 190.841 179.484 188.715 179.484C186.59 179.484 184.904 177.799 184.904 175.673C184.904 173.548 186.59 171.862 188.715 171.862C190.841 171.862 192.526 173.548 192.526 175.673Z" fill="#BDBDBD"/>
<path d="M205.574 207.408C205.574 207.408 205.574 207.335 205.574 207.188C205.574 207.041 205.574 206.822 205.574 206.602C205.574 206.089 205.574 205.282 205.574 204.256C205.574 202.204 205.574 199.273 205.5 195.535C205.5 188.06 205.427 177.359 205.354 164.534L205.574 164.754C192.602 164.754 177.211 164.754 160.721 164.754C160.648 164.827 161.161 164.314 160.941 164.534V164.607V164.68V164.9V165.267V166V167.465C160.941 168.418 160.941 169.371 160.941 170.397C160.941 172.302 160.941 174.208 160.941 176.114C160.941 179.851 160.941 183.589 160.941 187.18C160.941 194.362 160.941 201.178 160.941 207.408L160.721 207.188C174.133 207.261 185.273 207.261 193.115 207.335C196.999 207.335 200.15 207.408 202.276 207.408C203.302 207.408 204.108 207.408 204.694 207.408C204.987 207.408 205.134 207.408 205.354 207.408C205.5 207.408 205.574 207.408 205.574 207.408C205.574 207.408 205.5 207.408 205.354 207.408C205.207 207.408 204.987 207.408 204.768 207.408C204.181 207.408 203.375 207.408 202.349 207.408C200.224 207.408 197.145 207.408 193.261 207.481C185.346 207.481 174.133 207.554 160.721 207.628H160.501V207.408C160.501 201.178 160.501 194.362 160.501 187.18C160.501 183.589 160.501 179.851 160.501 176.114C160.501 174.208 160.501 172.302 160.501 170.397C160.501 169.444 160.501 168.491 160.501 167.465V166V165.267V164.9V164.68V164.607V164.534C160.281 164.754 160.794 164.241 160.794 164.241C177.284 164.241 192.675 164.241 205.647 164.241H205.867V164.461C205.794 177.359 205.794 188.06 205.72 195.608C205.72 199.346 205.647 202.278 205.647 204.256C205.647 205.209 205.647 206.015 205.647 206.528C205.647 206.748 205.647 206.968 205.647 207.115C205.647 207.335 205.574 207.408 205.574 207.408Z" fill="#BDBDBD"/>
<path d="M216.859 179.851L219.424 185.128L225.287 186.007L221.11 190.112L222.062 195.975L216.859 193.19L211.582 195.975L212.608 190.112L208.357 186.007L214.221 185.128L216.859 179.851Z" fill="#4C4DA0"/>
<path d="M235.328 161.309L237.893 166.659L243.756 167.539L239.578 171.643L240.531 177.506L235.328 174.721L230.051 177.506L231.077 171.643L226.826 167.539L232.689 166.659L235.328 161.309Z" fill="#4C4DA0"/>
<path d="M259.953 154.127L262.591 159.404L268.454 160.283L264.203 164.387L265.229 170.25L259.953 167.466L254.749 170.25L255.775 164.387L251.524 160.283L257.388 159.404L259.953 154.127Z" fill="#4C4DA0"/>
<path d="M285.531 161.529L288.169 166.806L294.032 167.686L289.782 171.79L290.808 177.653L285.531 174.868L280.254 177.653L281.28 171.79L277.029 167.686L282.892 166.806L285.531 161.529Z" fill="#4C4DA0"/>
<path d="M303.121 179.118L305.759 184.468L311.622 185.274L307.371 189.452L308.397 195.242L303.121 192.53L297.917 195.242L298.87 189.452L294.619 185.274L300.556 184.468L303.121 179.118Z" fill="#4C4DA0"/>
<path d="M309.497 204.696L312.135 209.973L317.998 210.853L313.747 214.957L314.773 220.82L309.497 218.035L304.293 220.82L305.319 214.957L301.068 210.853L306.931 209.973L309.497 204.696Z" fill="#4C4DA0"/>
<path d="M303.34 230.054L305.905 235.331L311.769 236.21L307.591 240.315L308.544 246.178L303.34 243.466L298.064 246.178L299.09 240.315L294.839 236.21L300.702 235.331L303.34 230.054Z" fill="#4C4DA0"/>
<path d="M284.578 247.644L287.216 252.994L293.079 253.8L288.828 257.977L289.854 263.767L284.578 261.055L279.374 263.767L280.4 257.977L276.149 253.8L282.013 252.994L284.578 247.644Z" fill="#4C4DA0"/>
<path d="M259.513 254.899L262.078 260.249L267.941 261.055L263.764 265.233L264.717 271.022L259.513 268.311L254.236 271.022L255.262 265.233L251.012 261.055L256.875 260.249L259.513 254.899Z" fill="#4C4DA0"/>
<path d="M235.474 247.644L238.113 252.994L243.976 253.8L239.725 257.977L240.751 263.84L235.474 261.055L230.271 263.84L231.223 257.977L227.046 253.8L232.909 252.994L235.474 247.644Z" fill="#4C4DA0"/>
<path d="M216.493 229.614L219.131 234.891L224.994 235.771L220.743 239.875L221.77 245.738L216.493 242.953L211.289 245.738L212.242 239.875L207.991 235.771L213.854 234.891L216.493 229.614Z" fill="#4C4DA0"/>
<path d="M210.117 204.696L212.755 210.046L218.618 210.853L214.367 215.03L215.394 220.82L210.117 218.108L204.84 220.82L205.866 215.03L201.615 210.853L207.478 210.046L210.117 204.696Z" fill="#4C4DA0"/>
<path d="M278.056 222.945H272.926V195.022C272.926 188.426 267.576 183.076 260.98 183.076C254.384 183.076 249.034 188.426 249.034 195.022V222.945H243.903V195.022C243.903 185.641 251.525 177.946 260.98 177.946C270.361 177.946 278.056 185.568 278.056 195.022V222.945Z" fill="#263238"/>
<path d="M279.741 240.022H242.291C239.946 240.022 238.04 238.116 238.04 235.771V214.737C238.04 212.392 239.946 210.486 242.291 210.486H279.741C282.087 210.486 283.992 212.392 283.992 214.737V235.698C283.992 238.116 282.087 240.022 279.741 240.022Z" fill="#EB6607"/>
<path d="M264.864 221.406C264.864 223.532 263.179 225.217 261.053 225.217C258.928 225.217 257.242 223.532 257.242 221.406C257.242 219.281 258.928 217.595 261.053 217.595C263.179 217.595 264.864 219.281 264.864 221.406Z" fill="#263238"/>
<path d="M262.079 222.945H259.953V230.86H262.079V222.945Z" fill="#263238"/>
<path d="M240.532 237.163C240.459 237.163 240.312 232.253 240.312 226.17C240.312 220.087 240.386 215.176 240.532 215.176C240.606 215.176 240.752 220.087 240.752 226.17C240.679 232.253 240.606 237.163 240.532 237.163Z" fill="#FAFAFA"/>
<path d="M258.048 226.317C258.048 226.317 257.902 226.243 257.609 226.097C257.315 225.877 256.949 225.584 256.583 225.071C255.85 224.118 255.19 222.432 255.63 220.6C256.07 218.768 257.462 217.522 258.488 217.009C259.001 216.716 259.514 216.569 259.807 216.569C260.1 216.496 260.32 216.496 260.32 216.569C260.32 216.642 259.587 216.716 258.561 217.302C257.609 217.888 256.363 219.061 255.923 220.747C255.557 222.432 256.07 224.045 256.729 224.997C257.462 225.877 258.048 226.243 258.048 226.317Z" fill="#FAFAFA"/>
<path d="M99.3772 197.44C98.7908 199.053 98.9374 200.885 99.5237 202.571C100.037 204.256 100.99 205.722 101.869 207.261C103.042 204.33 104.141 201.325 105.02 198.32C105.167 197.66 105.314 196.854 104.874 196.341C104.507 195.975 103.921 195.901 103.408 195.901C101.869 195.975 100.33 196.634 99.2306 197.66" fill="#263238"/>
<path d="M34.7361 279.597L22.79 307.007H39.28L51.0062 279.377L34.7361 279.597Z" fill="#263238"/>
<path d="M106.046 306.714C122.243 301.364 111.103 279.963 111.103 279.963L40.3796 286.633C34.7364 286.559 30.0459 291.177 30.0459 296.893C30.0459 302.536 34.5898 307.154 40.3063 307.154L106.046 306.714Z" fill="#455A64"/>
<path d="M122.169 307.08C137.926 301.73 127.519 279.963 127.519 279.963L58.6275 286.486C51.8849 286.559 48.5869 289.857 48.5869 296.673C48.5869 302.316 50.7123 307.08 58.5542 306.933L122.169 307.08Z" fill="#455A64"/>
<path d="M106.633 283.555C106.633 283.555 106.559 283.555 106.413 283.555C106.266 283.555 106.046 283.555 105.826 283.555C105.313 283.555 104.581 283.628 103.628 283.628C101.722 283.701 98.9373 283.848 95.4928 283.994C88.6036 284.361 79.1494 284.874 68.7424 285.46C67.4232 285.533 66.1772 285.607 64.858 285.68C63.6121 285.68 62.2929 285.753 61.1203 285.827C59.8744 285.9 58.7018 285.973 57.5292 286.12C56.3565 286.266 55.1839 286.413 54.0846 286.853C52.9853 287.292 52.0325 287.879 51.2263 288.685C50.4202 289.491 49.8338 290.444 49.4674 291.47C49.101 292.496 48.8811 293.522 48.7345 294.475C48.5879 295.427 48.5146 296.38 48.5146 297.333C48.5146 299.165 48.8078 300.778 49.3941 302.097C49.9804 303.416 50.7866 304.369 51.5195 305.028C52.2524 305.688 52.9853 305.981 53.4983 306.128C54.0113 306.274 54.0113 306.201 53.4983 306.054C53.0586 305.908 52.3257 305.541 51.5928 304.882C50.8599 304.222 50.0537 303.269 49.5407 302.023C48.9544 300.704 48.6612 299.092 48.7345 297.333C48.7345 296.454 48.8078 295.501 48.9544 294.548C49.101 293.595 49.3208 292.569 49.6873 291.616C50.0537 290.664 50.5667 289.711 51.3729 288.978C52.1058 288.245 53.0586 287.659 54.1579 287.219C55.1839 286.779 56.3565 286.706 57.5292 286.56C58.7018 286.413 59.9477 286.34 61.1203 286.266C62.3662 286.193 63.6121 286.12 64.858 286.12C66.104 286.12 67.4232 285.973 68.7424 285.9C79.1494 285.314 88.6036 284.727 95.4928 284.361C98.8641 284.141 101.649 283.994 103.628 283.848C104.581 283.775 105.313 283.701 105.826 283.701C106.046 283.701 106.266 283.628 106.413 283.628C106.559 283.555 106.633 283.555 106.633 283.555Z" fill="#263238"/>
<path d="M122.168 290.297C122.168 290.297 122.022 290.444 121.582 290.59C121.216 290.737 120.629 290.883 119.896 290.957C118.504 291.103 116.305 290.59 114.693 288.978C113.08 287.366 112.714 285.167 112.861 283.774C112.934 283.042 113.08 282.455 113.227 282.089C113.374 281.722 113.52 281.502 113.52 281.502C113.593 281.502 113.154 282.309 113.08 283.701C113.007 285.094 113.447 287.146 114.913 288.685C116.378 290.224 118.431 290.664 119.823 290.664C121.362 290.664 122.168 290.224 122.168 290.297Z" fill="#263238"/>
<path d="M87.1377 246.983L80.5418 269.336L56.3564 271.975V276.226L91.9015 276.739L96.7386 247.57L87.1377 246.983Z" fill="#FFBE9D"/>
<path d="M118.652 223.605C122.976 223.605 134.556 225.804 135.582 233.645C136.534 240.754 137.854 248.743 137.854 248.743L122.536 249.183L127.74 250.575L129.938 283.628L90.2892 282.236L92.4145 265.233L94.1735 248.23L85.5254 247.497C85.5254 247.497 88.4569 232.693 93.6604 228.149C93.6604 228.149 98.4242 223.971 105.094 223.532C111.836 223.165 118.652 223.605 118.652 223.605Z" fill="#4C4DA0"/>
<path d="M95.7122 237.236C95.7855 237.236 95.1992 243.246 94.393 250.575C93.5868 257.904 92.7806 263.913 92.7074 263.913C92.6341 263.913 93.2204 257.904 94.0266 250.575C94.8327 243.246 95.6389 237.236 95.7122 237.236Z" fill="#263238"/>
<path d="M119.826 223.678C119.826 223.678 119.826 223.751 119.899 223.971C119.899 224.117 119.899 224.411 119.972 224.777C119.972 225.437 119.899 226.536 119.532 227.709C119.166 228.881 118.506 230.347 117.26 231.52C116.674 232.106 115.868 232.619 114.989 232.912C114.109 233.205 113.083 233.352 112.13 233.352C111.104 233.352 110.151 233.352 109.199 233.132C108.246 232.985 107.366 232.619 106.707 232.106C105.314 231.08 104.655 229.614 104.288 228.368C103.995 227.122 103.922 226.096 103.995 225.437C103.995 225.07 104.068 224.85 104.068 224.63C104.068 224.484 104.142 224.337 104.142 224.337C104.142 224.337 104.142 224.704 104.142 225.437C104.142 226.096 104.215 227.122 104.581 228.295C104.875 229.468 105.608 230.86 106.927 231.813C107.586 232.326 108.393 232.619 109.345 232.766C110.225 232.912 111.177 232.985 112.204 232.985C113.156 232.985 114.109 232.839 114.989 232.546C115.868 232.253 116.601 231.739 117.187 231.226C118.433 230.127 119.019 228.735 119.459 227.562C119.899 226.389 119.972 225.363 119.972 224.704C119.826 224.044 119.826 223.678 119.826 223.678Z" fill="#263238"/>
<g opacity="0.2">
<path d="M121.95 237.236C120.484 244.272 118.579 251.454 117.113 258.49C116.82 259.956 116.453 261.495 115.574 262.741C114.987 263.474 114.254 264.06 113.448 264.646C110.59 266.845 107.512 268.824 104.141 270.07C109.051 269.63 113.888 268.824 118.652 267.505C119.458 267.285 120.337 267.065 120.85 266.405C121.29 265.819 121.437 265.086 121.51 264.353C122.609 255.412 122.243 246.324 121.95 237.236Z" fill="black"/>
</g>
<path d="M138.148 248.89C138.148 248.89 137.708 248.963 136.975 248.963C136.169 248.963 135.143 249.037 133.824 249.11C131.185 249.183 127.521 249.257 123.49 249.33C123.05 249.33 122.61 249.33 122.171 249.33H122.024V249.183C121.878 245.446 121.951 242.074 122.024 239.656C122.097 238.483 122.097 237.457 122.171 236.798C122.244 236.138 122.244 235.771 122.244 235.771C122.244 235.771 122.244 236.138 122.244 236.798C122.244 237.53 122.244 238.483 122.244 239.656C122.244 242.074 122.171 245.372 122.391 249.11L122.244 248.963C122.684 248.963 123.123 248.963 123.563 248.963C127.594 248.89 131.258 248.817 133.897 248.817C135.216 248.817 136.242 248.817 137.048 248.817C137.781 248.817 138.148 248.817 138.148 248.89Z" fill="#263238"/>
<path d="M26.0144 250.502L39.5729 277.032H82.227L80.468 273.588L68.0822 273.221L58.0417 250.795C57.3821 249.402 56.0629 248.523 54.5238 248.523H27.2603C26.2343 248.523 25.5747 249.549 26.0144 250.502Z" fill="#BDBDBD"/>
<path d="M45.7295 263.987C46.62 263.987 47.3419 263.266 47.3419 262.375C47.3419 261.485 46.62 260.763 45.7295 260.763C44.8391 260.763 44.1172 261.485 44.1172 262.375C44.1172 263.266 44.8391 263.987 45.7295 263.987Z" fill="#263238"/>
<path d="M120.05 203.594L118.511 225.214C118.291 228.732 115.359 231.517 111.768 231.517C107.884 231.517 104.806 228.219 105.026 224.335C105.172 222.283 105.319 220.597 105.319 220.597C105.319 220.597 100.115 219.791 100.042 214.514C100.042 212.022 100.335 207.185 100.702 202.568C101.141 197.218 105.612 193.114 110.962 193.114C116.459 193.407 120.563 198.097 120.05 203.594Z" fill="#FFBE9D"/>
<path d="M105.316 220.819C105.316 220.819 108.614 221.112 112.132 218.913C112.132 218.913 110.52 222.651 105.316 222.211V220.819Z" fill="#EB996E"/>
<path d="M102.306 205.94C102.306 206.307 102.599 206.673 103.039 206.673C103.478 206.673 103.771 206.38 103.845 206.014C103.845 205.647 103.552 205.281 103.112 205.281C102.672 205.281 102.379 205.574 102.306 205.94Z" fill="#263238"/>
<path d="M101.87 204.916C101.943 204.989 102.529 204.622 103.335 204.622C104.142 204.622 104.728 205.062 104.801 204.916C104.874 204.842 104.728 204.696 104.508 204.476C104.288 204.256 103.848 204.109 103.335 204.109C102.822 204.109 102.383 204.329 102.163 204.476C101.943 204.696 101.796 204.842 101.87 204.916Z" fill="#263238"/>
<path d="M109.931 206.162C109.931 206.528 110.224 206.894 110.664 206.894C111.103 206.894 111.396 206.601 111.47 206.235C111.47 205.868 111.177 205.502 110.737 205.502C110.297 205.502 109.931 205.795 109.931 206.162Z" fill="#263238"/>
<path d="M109.785 205.062C109.858 205.135 110.444 204.769 111.25 204.769C112.057 204.769 112.643 205.209 112.716 205.062C112.79 204.989 112.643 204.842 112.423 204.622C112.203 204.402 111.763 204.256 111.25 204.256C110.737 204.256 110.298 204.476 110.078 204.622C109.858 204.842 109.711 205.062 109.785 205.062Z" fill="#263238"/>
<path d="M106.85 211.073C106.85 210.999 106.337 210.926 105.531 210.853C105.311 210.853 105.164 210.779 105.091 210.633C105.018 210.486 105.164 210.266 105.238 210.047C105.458 209.534 105.604 209.021 105.824 208.507C106.704 206.309 107.29 204.477 107.217 204.403C107.143 204.403 106.337 206.162 105.531 208.361C105.311 208.874 105.164 209.46 104.945 209.9C104.871 210.12 104.725 210.413 104.871 210.706C104.945 210.853 105.091 210.999 105.238 210.999C105.384 211.073 105.458 211.073 105.604 211.073C106.337 211.073 106.85 211.073 106.85 211.073Z" fill="#263238"/>
<path d="M109.196 211.585C109.049 211.585 109.049 212.464 108.316 213.051C107.584 213.637 106.631 213.564 106.631 213.71C106.631 213.784 106.851 213.857 107.217 213.857C107.584 213.857 108.17 213.71 108.61 213.344C109.049 212.977 109.269 212.464 109.269 212.098C109.416 211.805 109.269 211.585 109.196 211.585Z" fill="#263238"/>
<path d="M109.562 201.911C109.636 202.131 110.442 202.058 111.395 202.131C112.347 202.205 113.08 202.498 113.227 202.278C113.3 202.205 113.154 201.985 112.86 201.765C112.567 201.545 112.054 201.325 111.468 201.325C110.882 201.252 110.369 201.325 110.002 201.472C109.709 201.618 109.562 201.838 109.562 201.911Z" fill="#263238"/>
<path d="M102.162 202.57C102.309 202.716 102.822 202.57 103.555 202.57C104.214 202.57 104.801 202.716 104.947 202.497C105.02 202.423 104.947 202.203 104.654 202.057C104.434 201.91 103.994 201.764 103.555 201.764C103.115 201.764 102.675 201.91 102.455 202.13C102.162 202.277 102.089 202.497 102.162 202.57Z" fill="#263238"/>
<path d="M118.287 207.847C118.36 207.774 121.878 206.748 121.804 210.339C121.658 213.93 118.14 213.05 118.14 212.977C118.067 212.831 118.287 207.847 118.287 207.847Z" fill="#FFBE9D"/>
<path d="M119.239 211.658C119.239 211.658 119.313 211.731 119.386 211.731C119.459 211.805 119.679 211.805 119.826 211.731C120.192 211.585 120.558 210.999 120.558 210.339C120.558 210.046 120.485 209.679 120.412 209.459C120.339 209.166 120.119 209.02 119.972 208.946C119.752 208.873 119.679 209.02 119.606 209.093C119.532 209.166 119.606 209.24 119.532 209.24C119.532 209.24 119.459 209.166 119.459 209.02C119.459 208.946 119.532 208.873 119.606 208.8C119.679 208.727 119.826 208.727 119.972 208.727C120.265 208.727 120.485 209.02 120.632 209.313C120.778 209.606 120.852 209.972 120.852 210.339C120.778 211.072 120.412 211.731 119.899 211.878C119.679 211.951 119.459 211.878 119.313 211.731C119.239 211.731 119.239 211.658 119.239 211.658Z" fill="#EB996E"/>
<path d="M86.6972 277.105H34.5889V279.671H86.6972V277.105Z" fill="#263238"/>
<path d="M70.7217 278.352L86.5521 307.081H100.77L86.7719 279.671L70.7217 278.352Z" fill="#263238"/>
<path d="M86.7705 279.67C86.7705 279.744 75.1176 279.89 60.6797 279.963C46.2418 280.037 34.5889 280.037 34.5889 279.89C34.5889 279.817 46.2418 279.67 60.6797 279.597C75.0443 279.524 86.7705 279.524 86.7705 279.67Z" fill="#455A64"/>
<path d="M99.2299 200.226C100.183 200.592 101.282 200.519 102.161 200.006C101.795 200.299 101.942 200.958 102.308 201.252C102.674 201.545 103.187 201.545 103.7 201.545C106.266 201.471 108.831 200.372 110.663 198.54C110.663 199.419 111.396 200.226 112.275 200.519C113.155 200.812 114.108 200.739 114.987 200.519C114.767 201.838 114.547 203.23 114.84 204.55C115.134 205.869 116.16 207.115 117.479 207.335C117.772 207.994 117.625 208.727 117.625 209.46C117.699 210.193 118.065 210.999 118.798 210.999C119.458 210.999 119.897 210.339 119.971 209.753C120.044 209.167 119.677 207.848 120.117 206.822C120.63 205.722 120.41 205.942 120.923 204.843C121.436 203.743 121.656 202.204 122.023 201.105C122.389 199.932 122.536 198.686 122.096 197.587C121.656 196.488 120.557 195.535 119.384 195.682C119.824 194.582 119.458 193.19 118.505 192.384C117.552 191.651 116.16 191.504 115.134 192.164C115.134 192.164 111.029 189.379 106.559 190.918C102.088 192.457 101.355 196.561 100.403 196.634C99.4497 196.781 96.4449 195.169 96.9579 196.195C97.4709 197.221 98.3504 198.173 98.7169 198.247C99.1566 198.32 95.3456 196.708 96.6648 198.1C97.984 199.639 99.2299 200.226 99.2299 200.226Z" fill="#263238"/>
<path d="M135.215 235.111C135.142 235.184 134.849 234.524 133.823 233.718C132.797 232.985 131.038 232.179 128.766 232.252C126.494 232.252 123.929 233.205 121.364 234.818C118.799 236.357 116.234 238.482 112.936 239.874C111.323 240.607 109.638 240.974 107.952 240.974C106.266 240.974 104.654 240.754 103.261 240.168C101.796 239.655 100.55 238.848 99.5237 238.042C98.4244 237.236 97.5449 236.357 96.5922 235.697C94.76 234.305 93.001 233.718 91.7551 233.718C90.5092 233.645 89.8496 234.011 89.8496 234.011C89.8496 234.011 89.9229 234.011 89.9962 233.938C90.0695 233.938 90.2161 233.865 90.3626 233.792C90.6558 233.718 91.1688 233.572 91.8284 233.572C93.1476 233.572 94.9798 234.085 96.8853 235.477C98.7908 236.796 100.696 238.848 103.481 239.801C106.266 240.827 109.784 240.827 112.936 239.435C116.087 238.042 118.725 235.917 121.291 234.378C123.856 232.839 126.567 231.813 128.913 231.886C131.258 231.886 133.017 232.692 134.043 233.498C134.556 233.865 134.849 234.305 135.069 234.524C135.069 234.964 135.215 235.111 135.215 235.111Z" fill="#FAFAFA"/>
<path d="M122.17 254.386C122.17 254.386 121.804 254.166 121.144 253.8C120.485 253.433 119.459 252.92 118.213 252.627C116.893 252.334 115.281 252.261 113.522 252.7C111.763 253.14 110.004 254.02 108.099 254.752C107.146 255.119 106.12 255.412 105.094 255.485C104.141 255.632 103.115 255.632 102.236 255.559C100.403 255.412 98.8644 254.899 97.6185 254.313C96.3726 253.726 95.4931 253.067 94.9068 252.554C94.6137 252.334 94.3938 252.114 94.2472 251.967C94.1006 251.821 94.0273 251.748 94.0273 251.748C94.0273 251.748 94.3938 252.041 94.9801 252.48C95.5664 252.92 96.5192 253.58 97.6918 254.093C98.9377 254.606 100.477 255.119 102.236 255.265C103.995 255.412 105.973 255.192 107.879 254.459C109.784 253.726 111.617 252.847 113.376 252.407C115.135 251.967 116.82 252.041 118.213 252.407C119.532 252.7 120.558 253.287 121.217 253.653C121.511 253.873 121.804 254.02 121.95 254.166C122.097 254.239 122.17 254.313 122.17 254.386Z" fill="#FAFAFA"/>
<path d="M127.886 266.698C127.886 266.771 127.373 266.478 126.493 266.258C125.54 266.039 124.148 266.112 122.536 266.625C121.729 266.918 120.85 267.284 119.97 267.724C119.091 268.164 118.138 268.75 117.112 269.263C116.086 269.776 114.987 270.363 113.814 270.656C112.568 271.022 111.249 271.096 109.93 270.802C107.292 270.216 105.166 268.677 103.261 267.504C101.355 266.332 99.4496 265.452 97.764 265.306C96.0783 265.159 94.6858 265.599 93.8797 266.112C93.0735 266.625 92.7803 267.065 92.707 267.065C92.707 267.065 92.7803 266.918 92.9269 266.771C93.0735 266.552 93.3666 266.332 93.7331 266.039C94.5393 265.452 95.9317 264.939 97.6907 265.086C99.4496 265.159 101.428 266.039 103.407 267.211C105.386 268.384 107.438 269.85 110.003 270.436C111.249 270.729 112.568 270.582 113.741 270.289C114.914 269.996 116.013 269.41 116.966 268.897C117.992 268.384 118.871 267.798 119.824 267.358C120.703 266.918 121.656 266.552 122.462 266.258C124.148 265.745 125.614 265.745 126.566 266.039C127.006 266.185 127.373 266.332 127.593 266.405C127.812 266.625 127.886 266.698 127.886 266.698Z" fill="#FAFAFA"/>
<path d="M129.792 280.697C129.792 280.697 129.645 280.77 129.425 280.843C129.205 280.917 128.766 280.99 128.253 281.063C127.226 281.137 125.761 280.843 124.148 280.184C123.342 279.891 122.389 279.524 121.437 279.304C120.411 279.084 119.311 279.011 118.212 279.084C115.867 279.304 113.448 280.184 110.883 280.917C109.564 281.283 108.245 281.576 106.999 281.723C105.68 281.869 104.434 281.796 103.261 281.65C100.916 281.356 98.8637 280.697 97.2514 280.037C95.5657 279.378 94.3198 278.718 93.4403 278.278C93.0006 278.058 92.6342 277.839 92.4143 277.765C92.1944 277.619 92.0479 277.545 92.0479 277.545C92.0479 277.545 92.1944 277.619 92.4143 277.692C92.7075 277.839 93.0006 277.985 93.4403 278.132C94.3198 278.571 95.639 279.158 97.3246 279.744C99.0103 280.33 100.989 280.99 103.334 281.283C104.507 281.43 105.68 281.43 106.999 281.283C108.245 281.137 109.564 280.843 110.81 280.477C113.375 279.744 115.867 278.865 118.212 278.645C119.385 278.571 120.557 278.645 121.583 278.865C122.609 279.084 123.489 279.524 124.368 279.817C125.981 280.477 127.373 280.843 128.399 280.77C129.279 280.843 129.792 280.624 129.792 280.697Z" fill="#FAFAFA"/>
<path d="M137.266 245.152C137.266 245.152 137.12 245.372 136.827 245.592C136.534 245.885 136.02 246.251 135.288 246.544C134.628 246.838 133.675 247.057 132.722 247.057C131.696 247.057 130.597 246.764 129.571 246.251C128.545 245.738 127.592 245.225 126.713 244.932C125.833 244.639 124.954 244.566 124.221 244.639C123.488 244.712 122.975 245.005 122.682 245.298C122.389 245.592 122.242 245.738 122.242 245.738C122.242 245.738 122.315 245.518 122.609 245.225C122.902 244.932 123.415 244.566 124.221 244.419C124.954 244.272 125.907 244.346 126.859 244.639C127.812 244.932 128.765 245.518 129.791 245.958C130.817 246.471 131.77 246.764 132.722 246.764C133.675 246.838 134.555 246.618 135.214 246.398C136.607 245.811 137.266 245.079 137.266 245.152Z" fill="#FAFAFA"/>
<path d="M94.7598 244.785C94.7598 244.785 94.6865 244.931 94.54 245.005C94.3201 245.151 94.0269 245.225 93.5872 245.225C93.1475 245.225 92.7077 245.078 92.268 244.858C91.8283 244.638 91.3885 244.272 90.8755 243.905C89.9228 243.246 88.8234 243.246 88.1638 243.319C87.4309 243.466 86.9912 243.759 86.9912 243.686C86.9912 243.686 87.3577 243.319 88.0905 243.099C88.8234 242.879 90.0693 242.879 91.0954 243.612C91.6084 243.905 92.0481 244.272 92.4146 244.565C92.8543 244.858 93.2208 244.931 93.5872 245.005C94.3201 245.078 94.6865 244.712 94.7598 244.785Z" fill="#FAFAFA"/>
<path d="M74.8237 268.458L85.5238 267.212L93.0726 272.123L121.802 265.234L122.608 249.183L135.507 248.89L135.214 267.725C135.067 273.808 130.083 278.572 124 278.426L81.9327 277.253L80.1738 273.662L71.0859 273.369L74.8237 268.458Z" fill="#FFBE9D"/>
<path d="M121.364 265.233C121.364 265.233 121.144 265.307 120.851 265.38C120.485 265.453 119.972 265.6 119.312 265.82C117.92 266.186 115.941 266.626 113.522 267.285C108.612 268.458 101.869 270.07 94.4673 271.903C93.8809 272.049 93.2946 272.196 92.7083 272.342H92.635L92.5617 272.269C89.9234 270.51 87.3582 268.825 85.0863 267.359H85.1596C80.9088 267.872 77.3177 268.238 74.4594 268.605L74.5327 268.531C73.3601 270.07 72.4073 271.243 71.7477 272.123C71.4546 272.489 71.1614 272.855 71.0148 273.075C70.8683 273.295 70.7217 273.368 70.7217 273.368C70.7217 273.368 70.795 273.222 70.9415 273.002C71.0881 272.782 71.3813 272.416 71.6744 272.049C72.334 271.17 73.2868 269.924 74.3861 268.385H74.4594C77.2444 268.018 80.9088 267.579 85.0863 267.066H85.1596H85.2329C87.5781 268.605 90.0699 270.217 92.7816 271.976H92.635C93.2213 271.829 93.8077 271.683 94.394 271.536C101.796 269.777 108.539 268.165 113.449 266.992C115.868 266.406 117.846 265.966 119.239 265.673C119.898 265.527 120.411 265.38 120.851 265.307C121.144 265.233 121.364 265.233 121.364 265.233Z" fill="#EB996E"/>
<path d="M80.6879 271.536C80.6879 271.609 78.8557 271.682 76.5105 271.682C76.2173 271.682 75.9975 271.682 75.7776 271.682L75.8509 271.609C74.3851 272.855 73.2125 273.734 73.1392 273.661C73.0659 273.588 74.1652 272.635 75.631 271.316L75.7043 271.243H75.7776C75.9975 271.243 76.2906 271.243 76.5105 271.243C78.7824 271.316 80.6879 271.463 80.6879 271.536Z" fill="#EB996E"/>
<path d="M126.642 268.458C126.569 268.531 125.982 267.138 124.516 266.259C123.051 265.306 121.658 265.453 121.658 265.306C121.658 265.233 122.025 265.16 122.611 265.233C123.197 265.306 124.003 265.526 124.736 265.966C125.469 266.406 126.056 267.065 126.349 267.578C126.642 268.091 126.715 268.458 126.642 268.458Z" fill="#EB996E"/>
<path d="M382.839 7.2242V11.7393C382.839 15.7183 372.929 18.9635 360.715 18.9635C348.501 18.9635 338.591 15.7183 338.591 11.7393V7.2242C338.591 3.24522 348.501 0 360.715 0C372.929 0 382.839 3.24522 382.839 7.2242ZM382.839 17.3832V27.5422C382.839 31.5212 372.929 34.7664 360.715 34.7664C348.501 34.7664 338.591 31.5212 338.591 27.5422V17.3832C343.344 20.6567 352.044 22.1806 360.715 22.1806C369.386 22.1806 378.086 20.6567 382.839 17.3832ZM382.839 33.1861V43.3451C382.839 47.3241 372.929 50.5693 360.715 50.5693C348.501 50.5693 338.591 47.3241 338.591 43.3451V33.1861C343.344 36.4596 352.044 37.9835 360.715 37.9835C369.386 37.9835 378.086 36.4596 382.839 33.1861Z" fill="#BDBDBD"/>
<circle cx="377.023" cy="42.4779" r="12.1366" fill="white"/>
<path d="M385.244 40.7029C385.483 40.8418 385.789 40.7609 385.928 40.5223L388.191 36.633C388.33 36.3943 388.249 36.0882 388.011 35.9493C387.772 35.8104 387.466 35.8913 387.327 36.13L385.315 39.5871L381.858 37.5751C381.619 37.4362 381.313 37.5171 381.174 37.7558C381.035 37.9944 381.116 38.3005 381.355 38.4394L385.244 40.7029ZM385.979 40.143C384.693 35.277 380.681 33.0211 376.858 33.2256C373.034 33.4302 369.392 36.1004 368.875 40.9891L369.869 41.0944C370.33 36.7414 373.529 34.4052 376.912 34.2242C380.295 34.0432 383.856 36.0227 385.012 40.3985L385.979 40.143Z" fill="#0069FF"/>
<path d="M370.35 43.4985C370.11 43.3632 369.805 43.4486 369.67 43.6893L367.464 47.6119C367.329 47.8526 367.414 48.1574 367.655 48.2928C367.896 48.4281 368.201 48.3427 368.336 48.102L370.296 44.6152L373.783 46.5755C374.024 46.7108 374.329 46.6254 374.464 46.3846C374.599 46.1439 374.514 45.8391 374.273 45.7038L370.35 43.4985ZM369.624 44.0693C370.862 48.4858 374.713 50.5084 378.35 50.325C381.987 50.1415 385.494 47.7423 385.993 43.2962L384.999 43.1847C384.565 47.0562 381.541 49.1627 378.3 49.3262C375.057 49.4898 371.68 47.7006 370.587 43.7994L369.624 44.0693Z" fill="#0069FF"/>
<line x1="361.078" y1="51.0693" x2="361.078" y2="130.687" stroke="#263238" stroke-linecap="round" stroke-dasharray="5 8"/>
</svg>
