<svg width="710" height="710" viewBox="0 0 710 710" fill="none" xmlns="http://www.w3.org/2000/svg">
<g style="mix-blend-mode:multiply">
<path opacity="0.7" d="M184.901 178.3C184.901 178.3 157.001 250.3 196.201 322.8C235.401 395.4 316.101 433.6 380.701 466.4C445.301 499.1 512.401 483.2 544.201 429.6C576.101 376 532.401 337.7 532.301 261.2C532.201 184.7 543.701 164.5 502.301 99.7999C460.901 35.1999 359.201 20.8999 282.401 68.7999C205.601 116.7 184.901 178.3 184.901 178.3Z" fill="white"/>
<path d="M368.7 223.3V212.4L360.6 211.7C360.1 210 359.4 208.3 358.6 206.8L363.9 200.5L356.2 192.8L349.9 198.1C348.4 197.2 346.7 196.6 345 196.1L344.3 188H333.4L332.7 196.1C331 196.6 329.3 197.3 327.8 198.1L321.5 192.8L313.8 200.5L319.1 206.8C318.2 208.3 317.6 210 317.1 211.7L309 212.4V223.3L317.1 224C317.6 225.7 318.3 227.4 319.1 228.9L313.8 235.2L321.5 242.9L327.8 237.6C329.3 238.5 331 239.1 332.7 239.6L333.4 247.7H344.3L345 239.6C346.7 239.1 348.4 238.4 349.9 237.6L356.2 242.9L363.9 235.2L358.6 228.9C359.5 227.4 360.1 225.7 360.6 224L368.7 223.3ZM338.8 230.5C331.8 230.5 326.2 224.8 326.2 217.9C326.2 210.9 331.9 205.3 338.8 205.3C345.8 205.3 351.4 211 351.4 217.9C351.4 224.8 345.8 230.5 338.8 230.5Z" stroke="#263238" stroke-miterlimit="10" stroke-linecap="round" stroke-linejoin="round"/>
<path d="M524.6 397.9V392.7L520.7 392.4C520.5 391.6 520.1 390.8 519.7 390.1L522.2 387.1L518.5 383.4L515.5 385.9C514.8 385.5 514 385.2 513.2 384.9L512.9 381H507.7L507.4 384.9C506.6 385.1 505.8 385.5 505.1 385.9L502.1 383.4L498.4 387.1L500.9 390.1C500.5 390.8 500.2 391.6 499.9 392.4L496 392.7V397.9L499.9 398.2C500.1 399 500.5 399.8 500.9 400.5L498.4 403.5L502.1 407.2L505.1 404.7C505.8 405.1 506.6 405.4 507.4 405.7L507.7 409.6H512.9L513.2 405.7C514 405.5 514.8 405.1 515.5 404.7L518.5 407.2L522.2 403.5L519.7 400.5C520.1 399.8 520.4 399 520.7 398.2L524.6 397.9ZM510.3 401.4C507 401.4 504.2 398.7 504.2 395.3C504.2 391.9 506.9 389.2 510.3 389.2C513.6 389.2 516.4 391.9 516.4 395.3C516.4 398.7 513.6 401.4 510.3 401.4Z" stroke="#263238" stroke-miterlimit="10" stroke-linecap="round" stroke-linejoin="round"/>
<path d="M503.3 279.8C503.5 278.8 503.7 277.7 503.7 276.6C503.7 268.7 497.3 262.4 489.5 262.4C488.2 262.4 487 262.6 485.8 262.9C483.5 258.8 479 256 473.9 256C466.6 256 460.7 261.7 460.3 268.8C459.6 268.7 458.9 268.6 458.2 268.6C452.5 268.6 447.7 272.9 447.1 278.5C443.7 278.6 441 281.3 441 284.7C441 288.1 443.8 290.9 447.2 290.9H499.4C502.8 290.9 505.6 288.1 505.6 284.7C505.6 282.6 504.7 280.9 503.3 279.8Z" stroke="#263238" stroke-miterlimit="10" stroke-linecap="round" stroke-linejoin="round"/>
<path d="M474.601 286V300.4" stroke="#263238" stroke-miterlimit="10" stroke-linecap="round" stroke-linejoin="round"/>
<path d="M474.601 277.4V283.1" stroke="#263238" stroke-miterlimit="10" stroke-linecap="round" stroke-linejoin="round"/>
<path d="M474.601 272V275.1" stroke="#263238" stroke-miterlimit="10" stroke-linecap="round" stroke-linejoin="round"/>
<path d="M471.9 298.7L474.6 302.1L477.3 298.7" stroke="#263238" stroke-miterlimit="10" stroke-linecap="round" stroke-linejoin="round"/>
<path d="M329.3 514.8C329.5 513.8 329.7 512.7 329.7 511.6C329.7 503.7 323.3 497.4 315.5 497.4C314.2 497.4 313 497.6 311.8 497.9C309.5 493.8 305 491 299.9 491C292.6 491 286.7 496.7 286.3 503.8C285.6 503.7 284.9 503.6 284.2 503.6C278.5 503.6 273.7 507.9 273.1 513.5C269.7 513.6 267 516.3 267 519.7C267 523.1 269.8 525.9 273.2 525.9H325.4C328.8 525.9 331.6 523.1 331.6 519.7C331.6 517.7 330.7 516 329.3 514.8Z" stroke="#263238" stroke-miterlimit="10" stroke-linecap="round" stroke-linejoin="round"/>
<path d="M300.601 523.1V508.8" stroke="#263238" stroke-miterlimit="10" stroke-linecap="round" stroke-linejoin="round"/>
<path d="M300.601 531.8V526" stroke="#263238" stroke-miterlimit="10" stroke-linecap="round" stroke-linejoin="round"/>
<path d="M300.601 537.1V534.1" stroke="#263238" stroke-miterlimit="10" stroke-linecap="round" stroke-linejoin="round"/>
<path d="M303.3 510.4L300.6 507.1L297.9 510.4" stroke="#263238" stroke-miterlimit="10" stroke-linecap="round" stroke-linejoin="round"/>
<path d="M284.221 274.547C279.886 274.898 274.497 269.743 274.497 269.743C274.497 269.743 273.677 270.563 272.974 269.509C272.271 268.454 269.225 266.228 269.107 264.12C268.99 262.128 272.505 258.847 272.505 258.847C269.693 259.55 269.459 258.027 269.459 258.027C269.459 258.027 274.145 254.161 275.668 254.044C276.254 254.044 279.066 255.567 281.761 257.793C284.572 260.019 289.845 267.986 289.845 267.986C289.845 267.986 307.536 280.873 312.105 284.154C318.08 288.489 324.992 296.221 324.992 296.221C324.992 296.221 348.542 306.883 354.985 312.624L346.198 333.478C346.198 333.478 324.758 319.185 322.649 315.436C320.54 311.804 318.314 314.03 316.206 311.569C314.097 309.226 311.988 306.414 311.988 306.414C311.988 306.414 306.833 304.188 301.795 299.033C296.757 293.878 292.422 286.028 289.61 281.342C286.798 276.773 284.221 274.547 284.221 274.547Z" fill="white" stroke="#263238" stroke-miterlimit="10" stroke-linecap="round" stroke-linejoin="round"/>
<path d="M285.51 271.501C285.51 271.501 279.066 269.977 278.597 265.76C278.363 264.354 277.191 262.831 277.191 262.831C277.191 262.831 271.216 262.479 271.568 260.136L279.534 259.433C279.534 259.433 283.869 260.839 286.447 265.291" fill="white"/>
<path d="M285.51 271.501C285.51 271.501 279.066 269.977 278.597 265.76C278.363 264.354 277.191 262.831 277.191 262.831C277.191 262.831 271.216 262.479 271.568 260.136L279.534 259.433C279.534 259.433 283.869 260.839 286.447 265.291" stroke="#263238" stroke-miterlimit="10" stroke-linecap="round" stroke-linejoin="round"/>
<path d="M274.497 269.743C274.497 269.743 274.849 269.157 274.731 267.986C274.731 267.986 276.489 267.634 276.254 266.111C276.254 266.111 278.832 265.76 277.192 262.714" stroke="#263238" stroke-miterlimit="10" stroke-linecap="round" stroke-linejoin="round"/>
<path d="M276.254 266.111C276.254 266.111 272.739 263.534 272.388 262.362" stroke="#263238" stroke-miterlimit="10" stroke-linecap="round" stroke-linejoin="round"/>
<path d="M274.732 267.986C274.732 267.986 270.982 265.76 270.982 264.354" stroke="#263238" stroke-miterlimit="10" stroke-linecap="round" stroke-linejoin="round"/>
<path d="M275.551 256.387C275.551 256.387 274.379 258.496 272.388 258.964" stroke="#263238" stroke-miterlimit="10" stroke-linecap="round" stroke-linejoin="round"/>
<path d="M274.966 257.207C274.966 257.207 275.903 257.676 276.723 258.379" stroke="#263238" stroke-miterlimit="10" stroke-linecap="round" stroke-linejoin="round"/>
<path d="M411.105 329.143C411.105 329.143 397.046 323.051 382.752 319.653C368.459 316.256 345.378 313.327 345.378 313.327C345.378 313.327 351.705 378.116 350.065 381.982C348.424 385.848 338.349 398.97 338.349 398.97C338.349 398.97 392.711 420.176 402.083 421.934C411.573 423.691 406.653 390.886 406.653 390.886C406.653 390.886 416.611 349.177 411.105 329.143Z" fill="#263238"/>
<path d="M391.656 322.113C391.656 322.113 392.944 324.574 389.547 325.863C380.76 329.143 371.387 326.214 372.324 322.816C372.676 321.528 374.902 322.816 374.785 317.896C374.785 317.31 374.55 316.49 374.199 315.787C373.613 314.615 372.793 313.209 371.973 312.038C370.45 309.929 368.927 308.289 368.927 308.289C368.927 308.289 382.869 299.384 393.179 308.289C393.179 308.171 389.43 310.163 391.656 322.113Z" fill="white" stroke="#263238" stroke-miterlimit="10" stroke-linecap="round" stroke-linejoin="round"/>
<path d="M408.879 437.516C403.372 446.42 375.488 450.638 360.257 450.286C345.027 449.935 301.209 429.197 298.28 424.745C295.585 420.645 288.79 407.289 299.217 399.087C300.037 398.502 300.975 397.799 302.029 397.213C309.176 393.347 356.626 405.531 356.626 405.531C356.626 405.531 359.555 403.657 360.609 403.774C363.889 404.242 366.233 406.82 373.028 408.812C377.714 410.1 390.485 404.945 398.686 409.397C399.623 409.866 400.443 410.452 401.146 411.155C408.762 418.653 414.385 428.612 408.879 437.516Z" fill="#605AA7"/>
<path opacity="0.3" d="M398.686 409.515C390.368 408.929 382.87 410.686 377.598 413.732C371.388 417.364 342.215 431.423 342.215 431.423C342.332 429.9 343.856 426.854 343.856 426.854C341.161 424.394 333.897 422.519 333.897 422.519C328.39 417.716 306.247 403.657 299.101 399.087C299.921 398.502 300.858 397.799 301.912 397.213C309.059 393.347 356.509 405.531 356.509 405.531C356.509 405.531 359.438 403.657 360.492 403.774C363.773 404.242 366.116 406.82 372.911 408.812C377.715 410.218 390.485 405.063 398.686 409.515Z" fill="black" fill-opacity="0.7"/>
<path d="M400.326 445.6L401.029 448.646C401.029 448.646 399.154 453.918 390.953 454.855C382.752 455.675 377.831 457.55 373.965 457.784C370.099 458.019 367.756 457.667 367.756 457.667L366.936 456.495L400.326 445.6Z" fill="white" stroke="#263238" stroke-miterlimit="10" stroke-linecap="round" stroke-linejoin="round"/>
<path d="M352.643 445.248L366.819 456.378C366.819 456.378 377.832 455.558 387.205 453.332C394 451.809 399.858 449.583 400.209 446.42C400.678 441.733 395.757 440.445 389.782 440.679C388.728 440.679 387.556 440.796 386.385 440.913C376.895 441.968 364.827 436.696 364.827 436.696L352.643 445.248Z" fill="#263238"/>
<path opacity="0.3" d="M400.209 446.42C397.632 447.474 394.469 448.88 392.243 450.286C392.243 450.286 379.003 457.081 358.735 450.052L352.525 445.248L364.827 436.696C364.827 436.696 376.895 441.968 386.385 440.913C387.556 440.796 388.611 440.679 389.782 440.679C395.757 440.562 400.678 441.851 400.209 446.42Z" fill="black" fill-opacity="0.7"/>
<path d="M352.643 445.248L366.819 456.378C366.819 456.378 377.832 455.558 387.205 453.332C394 451.809 399.858 449.583 400.209 446.42C400.678 441.733 395.757 440.445 389.782 440.679C388.728 440.679 387.556 440.796 386.385 440.913C376.895 441.968 364.827 436.696 364.827 436.696L352.643 445.248Z" stroke="#263238" stroke-miterlimit="10" stroke-linecap="round" stroke-linejoin="round"/>
<path d="M365.881 449.7C363.304 450.169 366.116 455.324 369.63 453.801C373.145 452.278 368.459 449.232 365.881 449.7Z" fill="white"/>
<path opacity="0.2" d="M370.802 452.981C369.044 452.747 367.17 452.395 365.295 452.044C364.827 450.989 364.944 449.935 365.998 449.818C368.107 449.349 371.739 451.341 370.802 452.981Z" fill="black" fill-opacity="0.7"/>
<path d="M365.881 449.7C363.304 450.169 366.116 455.324 369.63 453.801C373.145 452.278 368.459 449.232 365.881 449.7Z" stroke="#263238" stroke-miterlimit="10" stroke-linecap="round" stroke-linejoin="round"/>
<path d="M387.322 453.449C394.117 451.926 399.975 449.7 400.327 446.537C400.796 441.85 395.875 440.562 389.9 440.796C389.548 441.03 383.807 446.537 387.322 453.449Z" fill="white"/>
<path opacity="0.3" d="M400.21 446.42C397.632 447.474 394.469 448.88 392.243 450.286C392.243 450.286 390.251 451.34 386.736 452.161C384.51 445.951 389.548 441.03 389.782 440.796C395.758 440.562 400.678 441.85 400.21 446.42Z" fill="black" fill-opacity="0.7"/>
<path d="M387.322 453.449C394.117 451.926 399.975 449.7 400.327 446.537C400.796 441.85 395.875 440.562 389.9 440.796C389.548 441.03 383.807 446.537 387.322 453.449Z" stroke="#263238" stroke-miterlimit="10" stroke-linecap="round" stroke-linejoin="round"/>
<path d="M382.517 447.591C382.986 447.591 383.22 447.357 383.337 446.888C383.454 443.959 385.68 441.616 385.798 441.499C386.032 441.265 386.032 440.796 385.798 440.562C385.563 440.328 385.095 440.328 384.86 440.562C384.743 440.679 382.166 443.374 382.049 446.771C381.814 447.24 382.166 447.591 382.517 447.591Z" fill="white" stroke="#263238" stroke-miterlimit="10" stroke-linecap="round" stroke-linejoin="round"/>
<path d="M379.706 447.826C380.175 447.826 380.527 447.474 380.527 447.123C380.644 444.194 382.635 441.616 382.635 441.499C382.87 441.148 382.87 440.796 382.518 440.562C382.167 440.328 381.815 440.328 381.581 440.679C381.464 440.796 379.121 443.608 379.121 447.123C379.003 447.474 379.355 447.709 379.706 447.826Z" fill="white" stroke="#263238" stroke-miterlimit="10" stroke-linecap="round" stroke-linejoin="round"/>
<path d="M376.308 447.474C376.659 447.474 377.011 447.24 377.128 446.888C377.362 444.428 379.471 441.265 379.471 441.265C379.706 440.913 379.588 440.562 379.237 440.327C378.886 440.093 378.534 440.21 378.3 440.562C378.183 440.679 375.957 444.077 375.722 446.888C375.605 447.006 375.957 447.357 376.308 447.474Z" fill="white" stroke="#263238" stroke-miterlimit="10" stroke-linecap="round" stroke-linejoin="round"/>
<path d="M373.145 447.123C373.263 447.123 373.263 447.123 373.38 447.123C373.731 447.006 373.966 446.654 373.966 446.303C373.497 443.257 376.192 440.796 376.309 440.679C376.543 440.445 376.66 439.976 376.309 439.742C376.074 439.507 375.606 439.39 375.371 439.742C375.254 439.859 371.974 442.788 372.677 446.537C372.56 446.888 372.794 447.006 373.145 447.123Z" fill="white" stroke="#263238" stroke-miterlimit="10" stroke-linecap="round" stroke-linejoin="round"/>
<path d="M369.63 446.303C369.747 446.303 369.747 446.303 369.864 446.303C370.216 446.185 370.45 445.834 370.45 445.483C369.864 442.788 372.442 439.859 372.442 439.742C372.676 439.507 372.676 439.039 372.325 438.804C372.09 438.57 371.622 438.57 371.387 438.922C371.27 439.039 368.224 442.554 369.044 445.834C369.161 446.068 369.396 446.185 369.63 446.303Z" fill="white" stroke="#263238" stroke-miterlimit="10" stroke-linecap="round" stroke-linejoin="round"/>
<path d="M296.523 441.031L295.469 443.96C295.469 443.96 296.758 449.466 304.842 451.106C312.926 452.864 317.612 455.207 321.478 455.793C325.344 456.496 327.688 456.379 327.688 456.379L328.625 455.207L296.523 441.031Z" fill="white" stroke="#263238" stroke-miterlimit="10" stroke-linecap="round" stroke-linejoin="round"/>
<path d="M343.974 445.717L328.626 455.324C328.626 455.324 317.73 453.332 308.709 450.169C302.148 447.943 296.524 445.014 296.524 441.968C296.524 437.282 301.562 436.579 307.537 437.282C308.592 437.399 309.763 437.633 310.935 437.867C320.308 439.859 332.727 435.876 332.727 435.876L343.974 445.717Z" fill="#263238"/>
<path opacity="0.3" d="M343.974 445.717L334.953 451.341C325.931 448.646 320.073 442.905 316.676 438.453C324.643 438.453 332.727 435.993 332.727 435.993L343.974 445.717Z" fill="black" fill-opacity="0.7"/>
<path d="M343.974 445.717L328.626 455.324C328.626 455.324 317.73 453.332 308.709 450.169C302.148 447.943 296.524 445.014 296.524 441.968C296.524 437.282 301.562 436.579 307.537 437.282C308.592 437.399 309.763 437.633 310.935 437.867C320.308 439.859 332.727 435.876 332.727 435.876L343.974 445.717Z" stroke="#263238" stroke-miterlimit="10" stroke-linecap="round" stroke-linejoin="round"/>
<path d="M308.591 450.169C302.03 447.943 296.406 445.014 296.406 441.968C296.406 437.282 301.444 436.579 307.419 437.282C307.654 437.633 312.809 443.725 308.591 450.169Z" fill="white" stroke="#263238" stroke-miterlimit="10" stroke-linecap="round" stroke-linejoin="round"/>
<path d="M313.98 444.897C313.511 444.897 313.277 444.545 313.277 444.194C313.394 441.265 311.403 438.687 311.403 438.57C311.168 438.219 311.168 437.867 311.52 437.633C311.871 437.399 312.223 437.399 312.457 437.75C312.574 437.867 314.8 440.796 314.566 444.311C314.683 444.663 314.449 444.897 313.98 444.897Z" fill="white" stroke="#263238" stroke-miterlimit="10" stroke-linecap="round" stroke-linejoin="round"/>
<path d="M316.792 445.365C316.324 445.365 316.089 445.014 316.089 444.545C316.324 441.616 314.566 438.805 314.566 438.805C314.332 438.453 314.449 438.102 314.801 437.867C315.152 437.633 315.504 437.75 315.738 438.102C315.855 438.219 317.847 441.265 317.495 444.78C317.495 445.131 317.144 445.365 316.792 445.365Z" fill="white" stroke="#263238" stroke-miterlimit="10" stroke-linecap="round" stroke-linejoin="round"/>
<path d="M320.19 445.366C319.839 445.366 319.487 445.014 319.487 444.663C319.487 442.202 317.73 438.805 317.73 438.805C317.496 438.453 317.73 437.984 318.082 437.867C318.433 437.633 318.902 437.867 319.019 438.102C319.136 438.219 321.011 441.851 320.893 444.663C320.893 445.014 320.542 445.366 320.19 445.366Z" fill="white" stroke="#263238" stroke-miterlimit="10" stroke-linecap="round" stroke-linejoin="round"/>
<path d="M323.353 445.366C323.236 445.366 323.236 445.366 323.119 445.366C322.767 445.248 322.533 444.897 322.65 444.545C323.47 441.616 321.01 438.805 320.893 438.805C320.658 438.57 320.658 438.102 320.893 437.867C321.127 437.633 321.596 437.633 321.83 437.867C321.947 437.985 324.876 441.265 323.822 445.014C324.056 445.131 323.704 445.366 323.353 445.366Z" fill="white" stroke="#263238" stroke-miterlimit="10" stroke-linecap="round" stroke-linejoin="round"/>
<path d="M326.985 444.897C326.867 444.897 326.867 444.897 326.75 444.897C326.399 444.78 326.165 444.428 326.282 443.96C327.219 441.382 324.876 438.102 324.876 438.102C324.641 437.75 324.759 437.399 324.993 437.164C325.344 436.93 325.696 437.047 325.93 437.282C326.047 437.399 328.625 441.148 327.57 444.428C327.453 444.78 327.219 444.897 326.985 444.897Z" fill="white" stroke="#263238" stroke-miterlimit="10" stroke-linecap="round" stroke-linejoin="round"/>
<path d="M330.265 448.763C332.726 449.466 329.445 454.387 326.165 452.395C322.884 450.403 327.805 448.06 330.265 448.763Z" fill="white" stroke="#263238" stroke-miterlimit="10" stroke-linecap="round" stroke-linejoin="round"/>
<path d="M301.327 422.636C305.076 427.909 316.206 433.767 327.337 438.57C328.508 440.562 330.969 444.194 334.249 447.709C341.044 454.738 343.856 450.755 343.856 450.755C343.856 450.755 348.191 450.286 354.518 449.349C354.986 450.169 355.924 451.458 357.798 451.106C358.618 450.989 360.258 449.817 362.016 448.177C378.067 445.717 399.976 441.733 405.834 436.93" fill="#605AA7"/>
<path d="M399.623 412.561C396.812 409.515 394 409.397 388.259 409.749C388.259 409.749 373.028 414.552 362.367 420.996C351.705 427.44 336.24 434.235 336.24 434.235C336.24 434.235 331.554 432.829 328.156 434.235C328.156 434.235 325.813 434.47 327.336 438.453" stroke="#263238" stroke-miterlimit="10" stroke-linecap="round" stroke-linejoin="round"/>
<path d="M406.771 430.838C406.771 430.838 406.888 435.524 400.21 438.804" stroke="#263238" stroke-miterlimit="10" stroke-linecap="round" stroke-linejoin="round"/>
<path d="M332.96 411.155C332.96 411.155 343.504 418.77 345.613 423.808C345.613 423.808 349.714 425.566 351.588 426.854" stroke="#263238" stroke-miterlimit="10" stroke-linecap="round" stroke-linejoin="round"/>
<path d="M346.316 417.599C347.019 419.825 347.254 422.168 346.668 424.394" stroke="#263238" stroke-miterlimit="10" stroke-linecap="round" stroke-linejoin="round"/>
<path d="M343.973 412.561C344.558 413.381 345.027 414.318 345.496 415.255" stroke="#263238" stroke-miterlimit="10" stroke-linecap="round" stroke-linejoin="round"/>
<path d="M358.97 411.858C358.97 411.858 362.485 416.544 363.422 420.41" stroke="#263238" stroke-miterlimit="10" stroke-linecap="round" stroke-linejoin="round"/>
<path d="M378.651 440.445C379.94 440.328 381.229 440.21 382.518 439.976" stroke="#263238" stroke-miterlimit="10" stroke-linecap="round" stroke-linejoin="round"/>
<path d="M345.496 437.047C355.103 438.922 365.648 440.328 375.84 440.562" stroke="#263238" stroke-miterlimit="10" stroke-linecap="round" stroke-linejoin="round"/>
<path d="M416.962 365.463C416.962 365.463 415.088 398.736 412.862 400.61C410.636 402.602 407.121 403.071 400.326 403.657C393.53 404.242 363.889 406 363.889 406L360.726 396.51C360.726 396.51 376.542 394.87 383.572 392.292C390.601 389.715 399.74 388.074 399.74 388.074C399.74 388.074 398.451 379.756 398.451 376.124C398.451 372.492 398.451 363.354 398.451 359.136" fill="white"/>
<path d="M416.962 365.463C416.962 365.463 415.088 398.736 412.862 400.61C410.636 402.602 407.121 403.071 400.326 403.657C393.53 404.242 363.889 406 363.889 406L360.726 396.51C360.726 396.51 376.542 394.87 383.572 392.292C390.601 389.715 399.74 388.074 399.74 388.074C399.74 388.074 398.451 379.756 398.451 376.124C398.451 372.492 398.451 363.354 398.451 359.136" stroke="#263238" stroke-miterlimit="10" stroke-linecap="round" stroke-linejoin="round"/>
<path d="M411.105 329.143C418.369 333.595 420.478 343.905 418.017 365.931C418.017 365.931 420.126 368.509 416.963 369.797C416.963 369.797 405.13 365.345 399.623 368.392C394.117 371.438 395.523 364.174 395.523 364.174C395.523 364.174 393.297 343.905 398.217 340.273" fill="#263238"/>
<path d="M397.632 337.227C397.632 337.227 390.72 344.491 396.812 362.768C396.812 362.768 395.992 366.048 395.992 367.337C395.992 368.509 397.632 369.212 397.632 369.212" stroke="white" stroke-miterlimit="10" stroke-linecap="round" stroke-linejoin="round"/>
<path d="M389.548 349.412C389.548 349.412 390.017 358.316 395.64 362.182" stroke="white" stroke-miterlimit="10" stroke-linecap="round" stroke-linejoin="round"/>
<path d="M391.305 328.674C391.305 328.674 380.526 332.775 371.974 328.206C366.936 325.511 368.927 321.176 368.927 321.176" stroke="white" stroke-miterlimit="10" stroke-linecap="round" stroke-linejoin="round"/>
<path d="M313.746 412.561H372.443C373.732 412.561 375.137 412.443 376.426 412.092L388.025 409.046C388.377 408.929 388.611 408.694 388.611 408.343C388.611 407.874 388.259 407.64 387.908 407.64H311.403C310.934 407.64 310.7 407.991 310.7 408.343V409.397C310.465 411.155 311.988 412.561 313.746 412.561Z" fill="#757575" stroke="#263238" stroke-miterlimit="10" stroke-linecap="round" stroke-linejoin="round"/>
<path d="M307.888 409.749H366.819C367.874 409.749 368.46 408.929 368.225 407.874L357.329 365.345C357.095 364.291 356.041 363.471 354.986 363.471H295.938C294.883 363.471 294.297 364.291 294.532 365.345L305.428 407.874C305.779 408.812 306.834 409.749 307.888 409.749Z" fill="#999999" stroke="#263238" stroke-miterlimit="10" stroke-linecap="round" stroke-linejoin="round"/>
<path d="M298.047 364.877H296.875" stroke="#263238" stroke-miterlimit="10" stroke-linecap="round" stroke-linejoin="round"/>
<path d="M306.716 364.877H300.976" stroke="#263238" stroke-miterlimit="10" stroke-linecap="round" stroke-linejoin="round"/>
<path d="M365.296 404.36L355.689 366.868C355.455 365.814 354.4 364.994 353.346 364.994H308.005" stroke="#263238" stroke-miterlimit="10" stroke-linecap="round" stroke-linejoin="round"/>
<path d="M366.233 407.64L365.999 406.703" stroke="#263238" stroke-miterlimit="10" stroke-linecap="round" stroke-linejoin="round"/>
<path d="M325.579 387.606C325.579 387.957 325.696 388.309 325.813 388.66C326.516 391.238 328.977 392.761 331.203 392.175C333.429 391.472 334.6 388.894 333.78 386.317C333.077 383.739 330.617 382.216 328.391 382.802C328.157 382.919 327.922 383.036 327.688 383.154C327.805 385.028 327.102 386.786 325.579 387.606Z" fill="white" stroke="#263238" stroke-miterlimit="10" stroke-linecap="round" stroke-linejoin="round"/>
<path d="M351.588 308.054C346.433 307.469 343.738 302.665 340.692 301.845C337.646 301.142 335.654 300.205 335.654 300.205C335.654 300.205 334.6 296.456 333.077 297.744C331.554 299.033 329.445 326.566 331.437 325.746C333.428 324.925 333.428 328.089 333.428 328.089L352.408 344.725L368.225 316.607C368.225 316.724 356.743 308.523 351.588 308.054Z" fill="#263238"/>
<path d="M354.985 315.435C354.985 315.435 350.182 324.457 349.596 338.399" stroke="white" stroke-miterlimit="10" stroke-linecap="round" stroke-linejoin="round"/>
<path d="M340.692 321.762C340.692 321.762 342.098 329.494 346.433 335.118" stroke="white" stroke-miterlimit="10" stroke-linecap="round" stroke-linejoin="round"/>
<path d="M360.726 353.512C360.726 353.512 367.99 377.53 383.923 384.56" stroke="white" stroke-miterlimit="10" stroke-linecap="round" stroke-linejoin="round"/>
<path d="M379.941 310.163C379.941 310.163 379.238 315.435 374.2 315.787C373.614 314.615 372.794 313.209 371.974 312.038C375.254 310.866 379.941 310.163 379.941 310.163Z" fill="#263238"/>
<path d="M390.603 310.515C390.603 310.515 399.038 311.569 402.553 300.205C406.068 288.957 403.256 280.405 389.314 276.304C381.582 274.078 373.849 275.835 371.037 281.693C368.694 286.731 369.748 290.832 369.28 292.589C368.694 294.464 362.953 296.104 362.953 297.393C362.953 298.447 366.116 300.322 366.116 300.322L365.179 303.134L365.999 303.602C365.999 303.602 364.359 309.929 365.179 312.155C365.765 313.795 379.941 314.498 381.113 310.398" fill="white"/>
<path d="M390.603 310.515C390.603 310.515 399.038 311.569 402.553 300.205C406.068 288.957 403.256 280.405 389.314 276.304C381.582 274.078 373.849 275.835 371.037 281.693C368.694 286.731 369.748 290.832 369.28 292.589C368.694 294.464 362.953 296.104 362.953 297.393C362.953 298.447 366.116 300.322 366.116 300.322L365.179 303.134L365.999 303.602C365.999 303.602 364.359 309.929 365.179 312.155C365.765 313.795 379.941 314.498 381.113 310.398" stroke="#263238" stroke-miterlimit="10" stroke-linecap="round" stroke-linejoin="round"/>
<path d="M371.154 285.794C371.154 285.794 373.966 286.497 374.669 287.903" stroke="#263238" stroke-miterlimit="10" stroke-linecap="round" stroke-linejoin="round"/>
<path d="M371.739 292.238C371.622 293.058 371.857 293.761 372.208 293.761C372.56 293.761 372.911 293.175 373.028 292.355C373.145 291.535 372.911 290.832 372.56 290.832C372.208 290.715 371.857 291.418 371.739 292.238Z" fill="#263238"/>
<path d="M366.116 303.485C366.116 303.485 370.685 305.243 372.326 304.188" stroke="#263238" stroke-miterlimit="10" stroke-linecap="round" stroke-linejoin="round"/>
<path d="M367.757 291.535C367.405 293.292 367.874 294.932 368.694 295.05C369.514 295.167 370.451 293.878 370.803 292.003C371.154 290.246 370.686 288.606 369.866 288.489C369.046 288.371 368.108 289.777 367.757 291.535Z" stroke="#263238" stroke-miterlimit="10" stroke-linecap="round" stroke-linejoin="round"/>
<path d="M402.905 282.279C402.905 282.279 402.202 277.593 397.633 274.078C392.947 270.68 387.44 269.86 387.44 269.86C387.44 269.86 390.135 271.032 391.189 272.555C391.189 272.555 384.277 267.283 375.958 270.798C367.64 274.195 368.695 283.099 368.695 283.099L369.866 280.756C369.866 280.756 369.749 283.568 371.155 284.505C371.155 284.505 372.092 281.811 372.912 280.639C372.912 280.639 375.138 287.2 381.113 289.426C381.113 289.426 380.41 288.137 380.996 286.145C380.996 286.145 384.394 293.409 383.339 296.924L384.394 298.799C384.394 298.799 388.26 294.932 391.306 298.096C393.064 299.97 387.909 307 387.089 307L390.252 311.686C390.252 311.686 398.102 312.858 402.671 304.305C407.24 295.753 406.068 292.121 406.068 292.121C406.068 292.121 407.591 294.229 407.709 295.401C408.06 295.635 409.349 286.38 402.905 282.279Z" fill="#263238"/>
<path d="M384.394 299.853C384.394 299.853 386.854 291.652 392.009 294.581C397.164 297.51 393.532 301.845 391.657 303.485C389.783 305.125 388.377 308.171 387.205 308.171C386.034 308.171 385.682 306.648 385.682 306.648" fill="white"/>
<path d="M384.394 299.853C384.394 299.853 386.854 291.652 392.009 294.581C397.164 297.51 393.532 301.845 391.657 303.485C389.783 305.125 388.377 308.171 387.205 308.171C386.034 308.171 385.682 306.648 385.682 306.648" stroke="#263238" stroke-miterlimit="10" stroke-linecap="round" stroke-linejoin="round"/>
<path d="M370.803 292.121L385.213 295.167" stroke="#263238" stroke-miterlimit="10" stroke-linecap="round" stroke-linejoin="round"/>
<g opacity="0.7">
<path d="M354.8 552.8C464.152 552.8 552.8 464.152 552.8 354.8C552.8 245.448 464.152 156.8 354.8 156.8C245.447 156.8 156.8 245.448 156.8 354.8C156.8 464.152 245.447 552.8 354.8 552.8Z" stroke="#EA5455" stroke-miterlimit="10" stroke-linecap="round" stroke-dasharray="4.99 4.99"/>
</g>
<g opacity="0.8">
<path d="M354.8 605.3C493.147 605.3 605.3 493.147 605.3 354.8C605.3 216.453 493.147 104.3 354.8 104.3C216.452 104.3 104.3 216.453 104.3 354.8C104.3 493.147 216.452 605.3 354.8 605.3Z" stroke="#EA5455" stroke-miterlimit="10" stroke-linecap="round" stroke-dasharray="5.05 5.05"/>
</g>
<g opacity="0.9">
<path d="M354.8 654.2C520.154 654.2 654.2 520.154 654.2 354.8C654.2 189.446 520.154 55.4 354.8 55.4C189.446 55.4 55.4004 189.446 55.4004 354.8C55.4004 520.154 189.446 654.2 354.8 654.2Z" stroke="#EA5455" stroke-miterlimit="10" stroke-linecap="round" stroke-dasharray="5.02 5.02"/>
</g>
<path d="M354.8 708.6C550.198 708.6 708.6 550.198 708.6 354.8C708.6 159.402 550.198 1 354.8 1C159.402 1 1 159.402 1 354.8C1 550.198 159.402 708.6 354.8 708.6Z" stroke="#EA5455" stroke-miterlimit="10" stroke-linecap="round" stroke-dasharray="5 5"/>
<path d="M248 224C248 240.6 234.6 254 218 254C201.4 254 188 240.6 188 224C188 207.4 201.4 194 218 194C234.6 194 248 207.4 248 224Z" fill="#BF491F"/>
<path d="M197.6 220C195.4 220 193.6 221.8 193.6 224C193.6 226.2 195.4 228 197.6 228C199.8 228 201.6 226.2 201.6 224C201.6 221.8 199.8 220 197.6 220ZM226.2 238.2C224.3 239.3 223.6 241.8 224.7 243.7C225.8 245.6 228.3 246.3 230.2 245.2C232.1 244.1 232.8 241.6 231.7 239.7C230.6 237.8 228.1 237.1 226.2 238.2ZM206.3 224C206.3 220 208.3 216.5 211.3 214.4L208.4 209.5C204.9 211.8 202.3 215.4 201.2 219.6C202.5 220.6 203.3 222.2 203.3 224C203.3 225.8 202.5 227.3 201.2 228.4C202.3 232.6 204.9 236.2 208.4 238.5L211.3 233.6C208.3 231.5 206.3 228 206.3 224ZM218 212.3C224.1 212.3 229.1 217 229.7 223L235.4 222.9C235.1 218.5 233.2 214.5 230.2 211.6C228.7 212.2 226.9 212.1 225.4 211.2C223.9 210.3 222.9 208.8 222.7 207.2C221.2 206.8 219.7 206.6 218.1 206.6C215.3 206.6 212.7 207.3 210.4 208.4L213.2 213.4C214.6 212.7 216.2 212.3 218 212.3ZM218 235.7C216.2 235.7 214.6 235.3 213.1 234.6L210.3 239.6C212.6 240.8 215.2 241.4 218 241.4C219.6 241.4 221.2 241.2 222.6 240.8C222.9 239.2 223.8 237.7 225.3 236.8C226.8 235.9 228.6 235.8 230.1 236.4C233.1 233.5 235 229.5 235.3 225.1L229.6 225C229.1 231 224.1 235.7 218 235.7ZM226.2 209.8C228.1 210.9 230.6 210.3 231.7 208.3C232.8 206.4 232.2 203.9 230.2 202.8C228.3 201.7 225.8 202.4 224.7 204.3C223.6 206.3 224.3 208.7 226.2 209.8Z" fill="white"/>
<path d="M159.75 367.7C158.75 367.7 159.95 368.2 161.25 368.4C161.65 368.1 161.95 367.8 162.25 367.6C161.45 367.8 160.65 367.8 159.75 367.7ZM165.15 366.4C165.75 365.6 166.15 364.7 166.35 363.8C166.25 364.5 165.85 365 165.55 365.6C163.65 366.8 165.35 364.9 165.55 364.2C163.45 366.7 165.15 365.7 165.15 366.4ZM167.05 361.2C167.15 359.4 166.65 360 166.55 360.7C166.75 360.8 166.95 362 167.05 361.2ZM156.05 336.8C156.55 336.9 157.15 337 157.15 337.1C157.65 336.9 157.75 336.8 156.05 336.8Z" fill="#B71050"/>
<path d="M157.05 337.1L156.65 337.2L157.05 337.1Z" fill="#B71050"/>
<path d="M173.65 361.9C173.75 363.5 173.15 364.3 172.75 365.7L171.85 366.1C171.15 367.5 171.95 367 171.45 368.1C170.35 369.1 168.15 371.2 167.45 371.3C166.95 371.3 167.85 370.7 167.95 370.4C166.45 371.4 166.75 371.9 164.55 372.5L164.45 372.4C158.95 375 151.25 369.8 151.35 362.8C151.25 363.2 151.15 363.1 151.05 363.3C150.75 359.7 152.75 356 156.05 354.5C159.25 352.9 163.05 353.6 165.35 355.7C164.05 354 161.55 352.3 158.55 352.4C155.65 352.4 152.85 354.3 151.95 356.3C150.45 357.2 150.25 360 149.65 360.5C148.75 367 151.35 369.8 155.65 373.1C156.35 373.6 155.85 373.6 155.95 374C154.55 373.3 153.25 372.3 152.15 371.1C152.75 371.9 153.35 372.8 154.15 373.4C152.85 372.9 150.95 370.1 150.45 370C152.75 374.2 159.85 377.3 163.65 375.7C161.95 375.8 159.75 375.7 157.85 375C157.05 374.6 155.95 373.7 156.15 373.6C161.25 375.5 166.45 375 170.85 371.5C171.95 370.6 173.15 369.1 173.55 369.1C173.05 369.9 173.65 369.5 173.25 370.2C174.35 368.4 172.75 369.5 174.45 367.1L175.05 367.9C174.85 366.4 176.95 364.6 176.65 362.2C177.15 361.5 177.15 363 176.65 364.6C177.35 362.8 176.85 362.5 177.05 360.9C177.25 361.4 177.45 362 177.65 362.5C177.15 360.7 178.15 359.5 178.35 358.5C178.15 358.4 177.65 359.3 177.55 357.2C177.55 356.3 177.85 356.7 177.85 356.5C177.65 356.4 177.25 355.7 176.95 354.4C177.15 354.1 177.55 355.2 177.75 355.3C177.55 354.2 177.25 353.4 177.25 352.6C176.45 350.9 176.95 352.8 176.25 351.9C175.35 349.2 176.95 351.3 177.05 350C178.35 351.9 179.15 354.9 179.45 356.2C179.15 354.7 178.75 353.2 178.25 351.8C178.65 352 177.55 348.7 178.75 350.9C177.45 346.3 173.35 342 169.55 339.9C170.05 340.3 170.55 340.9 170.35 340.9C168.45 339.8 168.75 339.7 168.55 339.2C167.05 338.6 166.95 339.3 165.85 339.2C162.95 337.7 162.35 337.8 159.75 336.9L159.85 337.5C157.95 336.9 157.65 337.7 155.55 337.5C155.45 337.4 156.25 337.1 156.85 337C154.95 337.2 155.05 336.6 153.25 337.1C153.65 336.8 154.15 336.6 154.65 336.3C153.15 336.4 151.05 337.2 151.65 336.5C149.15 337.6 144.85 339.1 142.35 341.4L142.25 340.9C141.15 342.3 137.35 344.9 137.05 346.7L136.75 346.8C136.15 347.8 135.75 348.9 135.35 349.9C134.55 351.2 134.25 350.4 134.35 350.6C132.85 353.7 132.05 356.2 131.45 358.3C131.95 359 131.45 362.4 131.65 365.2C130.85 378.9 141.25 392.1 152.55 395.2C154.25 395.8 156.65 395.8 158.75 395.8C156.25 395.1 155.95 395.4 153.55 394.6C151.85 393.8 151.45 392.8 150.15 391.8L150.65 392.7C148.25 391.8 149.25 391.6 147.25 391L147.75 390.3C146.95 390.2 145.65 389 145.35 388.3H144.45C143.45 387 142.85 386.1 142.95 385.4L142.65 385.9C142.35 385.4 138.85 381.1 140.65 382.1C140.35 381.8 139.85 381.6 139.35 380.7L139.75 380.3C138.85 379.2 138.15 377.8 138.25 377.3C138.75 377.9 139.05 378 139.35 378.1C137.15 372.7 137.05 377.8 135.35 372.6H135.75C135.45 372.2 135.35 371.8 135.15 371.3L135.35 369.8C133.75 368 134.95 362.1 135.15 358.8C135.35 357.5 136.45 356.1 137.35 353.9L136.85 353.8C137.85 352 142.75 346.6 144.95 346.9C146.05 345.5 144.75 346.9 144.55 346.6C146.95 344.1 147.65 344.9 149.25 344.4C150.95 343.4 147.75 344.8 148.55 344C151.55 343.2 150.65 342.3 154.55 341.9C154.95 342.1 153.55 342.3 153.25 342.6C155.75 341.4 161.15 341.7 164.65 343.3C168.75 345.2 173.25 350.8 173.45 356.1L173.65 356.2C173.55 358.3 173.95 360.7 173.25 363L173.65 361.9Z" fill="#B71050"/>
<path d="M148.95 369.1L148.85 369.8C149.55 370.7 150.05 371.6 150.85 372.3C150.15 371.1 149.75 370.7 148.95 369.1ZM150.45 369C150.15 368.6 149.85 368.2 149.65 367.7C149.85 368.5 150.35 369.2 150.75 369.9L150.45 369ZM177.85 363.1L177.75 363.5C177.45 365.4 176.95 367.3 176.05 369C176.95 367.1 177.55 365.1 177.85 363.1ZM156.25 336.3C156.95 336.1 157.95 336.2 158.65 336C157.75 336.1 156.75 336.1 155.85 336.2L156.25 336.3ZM132.65 348.8C132.85 350.2 131.55 350.8 132.95 349.8C133.65 348.3 132.65 349.4 132.65 348.8ZM131.05 355.5C131.35 354.5 131.45 354 131.55 353.4C130.65 354.5 131.15 354.7 131.05 355.5Z" fill="#B71050"/>
<path d="M548.9 172.6C548.9 171.6 546.3 170.8 543.1 170.8C540.3 170.8 538 171.4 537.4 172.2C531.9 169.6 526.4 167 520.8 164.4C518.9 163.5 516.7 163.5 514.8 164.4C508.9 167.2 503.1 170.1 497.2 172.9C495.9 172.7 494.3 172.6 492.5 172.6C487.9 172.6 484.2 173.4 484.2 174.4V179.7C484.2 179.8 484.3 179.8 484.3 179.8C484.1 180.7 484.4 181.7 485.3 182.1C494 186.2 502.7 190.3 511.3 194.4C513.5 195.4 516 195.4 518.2 194.4C528.1 189.6 538 184.9 547.9 180.1C548.6 179.7 548.9 178.9 548.7 178.2C548.7 178.1 548.8 178 548.8 178V172.6H548.9Z" fill="#9C2222"/>
<path d="M511.401 187.8C502.701 183.9 494.001 180 485.401 176.2C484.001 175.6 484.001 173.5 485.401 172.9C495.201 168.4 505.101 163.9 514.901 159.5C516.801 158.6 519.001 158.6 520.901 159.5C529.901 163.5 539.001 167.6 548.001 171.6C549.201 172.1 549.201 173.8 548.001 174.3C538.101 178.8 528.201 183.3 518.301 187.8C516.101 188.7 513.601 188.7 511.401 187.8Z" fill="#C53C38"/>
<path d="M548.9 160.9C548.9 159.9 546.3 159.1 543.1 159.1C540.3 159.1 538 159.7 537.4 160.5C531.9 157.9 526.4 155.3 520.8 152.7C518.9 151.8 516.7 151.8 514.8 152.7C508.9 155.5 503.1 158.4 497.2 161.2C495.9 161 494.3 160.9 492.5 160.9C487.9 160.9 484.2 161.7 484.2 162.7V168C484.2 168.1 484.3 168.1 484.3 168.1C484.1 169 484.4 170 485.3 170.4C494 174.5 502.7 178.6 511.3 182.7C513.5 183.7 516 183.7 518.2 182.7C528.1 177.9 538 173.2 547.9 168.4C548.6 168 548.9 167.2 548.7 166.5C548.7 166.4 548.8 166.3 548.8 166.3V160.9H548.9Z" fill="#9C2222"/>
<path d="M511.401 176C502.701 172.1 494.001 168.2 485.401 164.4C484.001 163.8 484.001 161.7 485.401 161.1C495.201 156.6 505.101 152.1 514.901 147.7C516.801 146.8 519.001 146.8 520.901 147.7C529.901 151.7 539.001 155.8 548.001 159.8C549.201 160.3 549.201 162 548.001 162.5C538.101 167 528.201 171.5 518.301 176C516.101 177 513.601 177 511.401 176Z" fill="#C53C38"/>
<path d="M548.9 149.1C548.9 148.1 546.3 147.3 543.1 147.3C540.3 147.3 538 147.9 537.4 148.7C531.9 146.1 526.4 143.5 520.8 140.9C518.9 140 516.7 140 514.8 140.9C508.9 143.7 503.1 146.6 497.2 149.4C495.9 149.2 494.3 149.1 492.5 149.1C487.9 149.1 484.2 149.9 484.2 150.9V156.2C484.2 156.3 484.3 156.3 484.3 156.3C484.1 157.2 484.4 158.2 485.3 158.6C494 162.7 502.7 166.8 511.3 170.9C513.5 171.9 516 171.9 518.2 170.9C528.1 166.1 538 161.4 547.9 156.6C548.6 156.2 548.9 155.4 548.7 154.7C548.7 154.6 548.8 154.5 548.8 154.5V149.1H548.9Z" fill="#9C2222"/>
<path d="M511.401 164.3C502.701 160.4 494.001 156.5 485.401 152.7C484.001 152.1 484.001 150 485.401 149.4C495.201 144.9 505.101 140.4 514.901 136C516.801 135.1 519.001 135.1 520.901 136C529.901 140 539.001 144.1 548.001 148.1C549.201 148.6 549.201 150.3 548.001 150.8C538.101 155.3 528.201 159.8 518.301 164.3C516.101 165.2 513.601 165.2 511.401 164.3Z" fill="#C53C38"/>
<path d="M508.501 150.2C508.501 151.8 504.301 153.4 500.701 153.4C497.001 153.4 492.601 151.9 492.601 150.2C492.601 148.6 497.001 146.9 500.801 146.9C504.301 147 508.501 148.6 508.501 150.2Z" fill="white"/>
<path d="M505.9 155.9C509.6 157.5 513.3 159 516.9 160.6C518.5 158.2 520.1 155.8 521.8 153.4C516.5 154.3 511.2 155.1 505.9 155.9Z" fill="white"/>
<path d="M513.3 142.6C511.6 143.2 509.9 143.8 508.2 144.4C510.5 144.6 512.8 144.8 515.2 145C515.9 146.2 516.7 147.4 517.4 148.7C517.9 147.6 518.3 146.5 518.8 145.4C520.8 145.2 522.8 145.1 524.7 144.9C523.2 144.3 521.6 143.6 520.1 143C520.5 142.1 520.9 141.1 521.3 140.2C519.8 140.6 518.3 141.1 516.8 141.5C515.2 140.9 513.5 140.2 511.9 139.6C512.3 140.5 512.8 141.6 513.3 142.6Z" fill="white"/>
<path d="M521.601 150C525.101 148.6 528.601 147.2 532.101 145.8C535.101 147.1 538.101 148.4 541.201 149.6C537.801 150.9 534.401 152.3 531.001 153.6C527.901 152.5 524.701 151.2 521.601 150Z" fill="#9C2222"/>
<path d="M532.101 145.9C532.101 148.4 532.101 150.8 532.101 153.3C535.101 152.1 538.201 150.9 541.201 149.7C538.101 148.4 535.101 147.2 532.101 145.9Z" fill="#882222"/>
<path d="M179.813 87C177.313 87 175.613 87.2 173.613 87.6C167.513 88.7 166.413 90.9 166.413 95V101.3H180.613V104.5H165.913H159.013C154.813 104.5 151.213 106.5 150.013 111.2C148.713 116.6 148.613 120 150.013 125.6C151.013 129.8 153.313 133 157.513 133H163.213V124.9C163.213 120.2 167.413 115.6 172.313 115.6H183.713C187.713 115.6 191.613 112.7 191.613 108.7V95C191.613 91.1 188.813 88.3 184.913 87.6C185.113 87.6 182.313 87 179.813 87ZM171.913 93.3C173.213 93.3 174.313 94.4 174.313 95.7C174.313 97 173.213 98.1 171.913 98.1C170.613 98.1 169.513 97.1 169.513 95.7C169.613 94.4 170.613 93.3 171.913 93.3Z" fill="#4376B8"/>
<path d="M178.313 147C180.813 147 182.513 146.8 184.513 146.4C190.613 145.3 191.713 143.1 191.713 139V132.7H177.513V129.5H192.213H199.113C203.313 129.5 206.913 127.5 208.113 122.8C209.413 117.4 209.513 114 208.113 108.4C207.113 104.2 204.813 101 200.613 101H194.913V109.1C194.913 113.8 190.713 118.4 185.813 118.4H174.413C170.413 118.4 166.513 121.3 166.513 125.3V138.9C166.513 142.8 169.313 145.6 173.213 146.3C173.013 146.4 175.913 147 178.313 147ZM186.213 140.7C184.913 140.7 183.813 139.6 183.813 138.3C183.813 137 184.913 135.9 186.213 135.9C187.513 135.9 188.613 136.9 188.613 138.3C188.513 139.6 187.513 140.7 186.213 140.7Z" fill="#EEBF2F"/>
<path d="M548.5 437H551.7V425.2L556.1 435.3C556.6 436.6 557.4 437 558.9 437C560.4 437 561.1 436.6 561.6 435.3L566 425.5V437H569.2V424.9C569.2 423.7 568.7 423.2 567.8 422.9C565.5 422.2 564 422.8 563.3 424.3L558.8 434.5L554.4 424.3C553.7 422.8 552.2 422.1 549.9 422.9C548.9 423.2 548.5 423.7 548.5 424.9V437Z" fill="#00618A"/>
<path d="M570.9 427.4H574.1V434.1C574.1 434.4 574.2 435.3 575.7 435.3C576.5 435.3 580.4 435.3 580.4 435.3V427.3H583.6C583.6 427.3 583.6 437.2 583.6 437.3C583.6 439.7 580.6 440.1 579.2 440.1H570.9V438.6H578.9C580.7 438.4 580.5 437.4 580.5 437.1V437H575.5C572.7 437 571 435.8 570.9 434.4C570.9 434.2 570.9 427.5 570.9 427.4Z" fill="#00618A"/>
<path d="M585.2 437H593.2C594.2 437 595.3 436.8 596.1 436.4C597.4 435.8 598 434.9 598 433.8V431.6C598 429.1 595 429 593.2 429H590C588.7 429 588.6 428.2 588.4 427.4V425.8C588.5 425.2 588.8 424.3 589.9 424.2C591.2 424.2 597.9 424.2 597.9 424.2V422.6H590.4C589.1 422.6 585.2 422.7 585.2 425.8V427.8C585.2 429.2 586.4 430.3 589.1 430.6C589.4 430.6 589.7 430.6 590 430.6C590 430.6 593.1 430.5 593.2 430.6C595 430.6 594.8 432 594.8 432.2V433.8C594.8 434 594.8 435.4 593.2 435.4C593.1 435.4 585.2 435.4 585.2 435.4V437Z" fill="#DA7E28"/>
<path d="M615.5 433.7C615.5 435.6 616.6 436.7 619.5 436.9C619.8 436.9 620 436.9 620.3 436.9H628.3V435.3H620.9C619.3 435.3 618.7 434.6 618.7 433.6V422.6H615.5V433.7Z" fill="#DA7E28"/>
<path d="M599.5 433.8V425.8C599.5 424.1 600.3 422.9 602.7 422.6H603.8H609.5H610.4C612.8 422.9 613.9 424.1 613.9 425.8V433.7C613.9 435.1 613.5 435.8 612.4 436.3L614.9 438.5H611.3L609.5 436.9H607.4H603.9C603.4 436.9 602.8 436.8 602.3 436.7C600.4 436.3 599.5 435.4 599.5 433.8ZM602.7 433.8C602.9 434.6 603.5 435.4 604.6 435.4H607.7L605.9 433.8H609.5L610.4 434.6C610.4 434.6 610.7 434.3 610.7 433.8C610.7 433.3 610.7 425.8 610.7 425.8C610.5 425.1 609.8 424.2 608.7 424.2H604.6C603.4 424.2 602.7 425.1 602.7 426V433.8Z" fill="#DA7E28"/>
<path d="M625.3 421C623.6 421 622.3 421.1 621.2 421.6C620.9 421.7 620.4 421.7 620.3 422.1C620.5 422.3 620.5 422.6 620.6 422.8C620.9 423.2 621.3 423.8 621.7 424.1C622.1 424.4 622.6 424.8 623.1 425.1C623.9 425.6 624.9 425.9 625.7 426.4C626.2 426.7 626.6 427.1 627.1 427.4C627.3 427.6 627.5 427.8 627.8 427.9C627.6 427.7 627.6 427.4 627.5 427.2C627.3 427 627.1 426.8 626.9 426.6C626.3 425.8 625.5 425.1 624.7 424.5C624 424 622.5 423.4 622.3 422.6C622.8 422.5 623.3 422.4 623.8 422.3C624.5 422.1 625.2 422.2 625.9 422C626.2 421.9 626.6 421.8 626.9 421.7C626.9 421.6 626.9 421.6 626.9 421.5C626.5 421.1 626.2 420.6 625.8 420.2C624.7 419.3 623.5 418.3 622.3 417.6C621.6 417.2 620.8 416.9 620.1 416.5C619.9 416.4 619.4 416.3 619.3 416.1C618.9 415.6 618.7 415 618.4 414.4C617.8 413.2 617.2 411.9 616.6 410.7C616.2 409.9 616 409 615.5 408.3C613.3 404.7 610.9 402.5 607.2 400.3C606.4 399.8 605.5 399.7 604.5 399.4C604 399.4 603.4 399.3 602.9 399.3C602.6 399.2 602.2 398.8 601.9 398.6C600.7 397.8 597.5 396.1 596.6 398.4C596 399.8 597.5 401.2 598 401.9C598.4 402.4 598.8 403 599.1 403.5C599.3 403.9 599.3 404.2 599.4 404.6C599.8 405.6 600.3 406.6 600.8 407.5C601 407.9 601.3 408.4 601.6 408.8C601.8 409 602.1 409.2 602.1 409.5C601.8 409.9 601.8 410.6 601.6 411.1C600.8 413.5 601.1 416.5 602.2 418.3C602.5 418.8 603.3 420 604.4 419.6C605.4 419.2 605.1 418 605.4 416.9C605.5 416.7 605.4 416.5 605.5 416.3C605.8 416.9 606.1 417.5 606.4 418.1C607 419.1 608.2 420.2 609.2 421C609.7 421.4 610.1 422 610.8 422.3C610.7 422.1 610.5 422 610.3 421.9C609.9 421.5 609.5 421.1 609.2 420.6C608.3 419.4 607.5 418.1 606.8 416.7C606.5 416 606.2 415.3 605.9 414.7C605.8 414.4 605.8 414.1 605.6 413.9C605.3 414.4 604.8 414.8 604.6 415.4C604.2 416.3 604.2 417.4 604 418.6C603.9 418.6 604 418.6 603.9 418.6C603.2 418.4 603 417.7 602.7 417.1C602.1 415.6 601.9 413.1 602.5 411.4C602.6 410.9 603.3 409.5 603 409.1C602.9 408.7 602.5 408.4 602.2 408.1C601.9 407.7 601.6 407.2 601.4 406.7C600.9 405.5 600.4 404.1 599.8 402.9C599.5 402.3 599.1 401.8 598.7 401.2C598.3 400.6 597.8 400.2 597.5 399.5C597.4 399.3 597.2 398.9 597.4 398.6C597.5 398.4 597.5 398.4 597.7 398.3C598 398.1 598.8 398.4 599.1 398.5C599.9 398.8 600.5 399.1 601.2 399.6C601.5 399.8 601.8 400.2 602.2 400.3C602.3 400.3 602.5 400.3 602.6 400.3C603.3 400.5 604.1 400.3 604.7 400.5C605.8 400.8 606.8 401.4 607.8 402C610.6 403.8 612.9 406.3 614.5 409.3C614.8 409.8 614.9 410.2 615.1 410.8C615.5 411.8 616.1 412.9 616.6 413.9C617 414.9 617.5 415.9 618.1 416.8C618.4 417.2 619.7 417.5 620.3 417.7C620.7 417.9 621.4 418.1 621.8 418.3C622.5 418.7 623.3 419.3 623.9 419.8C624.2 420 625.2 420.5 625.3 421Z" fill="#00618A"/>
<path d="M603.5 402.4C603.1 402.4 602.9 402.4 602.6 402.5C602.8 402.8 603.1 403.1 603.3 403.4C603.5 403.7 603.6 404.1 603.8 404.4C604.1 404.2 604.2 403.8 604.2 403.3C604.1 403.2 604.1 403 604 402.9C604 402.7 603.7 402.6 603.5 402.4Z" fill="#00618A"/>
<path d="M370.7 514.7C354.1 514.7 340.7 528.1 340.7 544.7C340.7 561.3 354.1 574.7 370.7 574.7C387.3 574.7 400.7 561.3 400.7 544.7C400.7 528.1 387.3 514.7 370.7 514.7Z" fill="#5B8DB5"/>
<path d="M388.4 555.4C386.5 555.8 385.6 556.2 383.3 557.7C379.7 560 375.8 561.1 375.8 561.1C375.8 561.1 375.5 561.6 374.5 561.8C372.9 562.2 366.8 562.5 366.2 562.5C364.7 562.5 363.8 562.1 363.5 561.5C362.7 559.6 364.6 558.8 364.6 558.8C364.6 558.8 364.2 558.5 363.9 558.3C363.7 558.1 363.4 557.6 363.4 557.8C363.1 558.5 363 560.2 362.2 561C361.1 562.1 359.1 561.7 357.9 561.1C356.6 560.4 358 558.8 358 558.8C358 558.8 357.3 559.2 356.7 558.4C356.2 557.6 355.7 556.3 355.8 554.6C355.9 552.7 358 550.9 358 550.9C358 550.9 357.6 548.1 358.8 545.2C359.9 542.6 362.9 540.5 362.9 540.5C362.9 540.5 360.4 537.7 361.3 535.3C361.9 533.7 362.1 533.7 362.3 533.6C363 533.3 363.7 533 364.2 532.5C366.7 529.8 369.9 530.3 369.9 530.3C369.9 530.3 371.4 525.7 372.8 526.6C373.2 526.9 374.8 530.3 374.8 530.3C374.8 530.3 376.4 529.3 376.6 529.7C377.6 531.6 377.7 535.3 377.3 537.6C376.6 541.3 374.7 543.3 374 544.5C373.8 544.8 376 545.7 377.4 549.5C378.7 553 377.5 555.9 377.7 556.2C377.7 556.3 377.7 556.3 377.7 556.3C377.7 556.3 379.1 556.4 382.1 554.6C383.7 553.6 385.5 552.6 387.6 552.5C389.8 552.7 389.9 555.1 388.4 555.4ZM391.1 553.7C390.9 552.1 389.5 550.9 387.7 550.9C385 550.9 382.8 552.3 381.3 553.2C380.7 553.6 380.2 553.8 379.8 554C379.9 552.7 379.8 550.9 379.1 549C378.3 546.7 377.1 545.3 376.3 544.4C377.2 543 378.5 541 379.1 538C379.6 535.4 379.5 531.3 378.3 529C378.1 528.5 377.7 528.2 377.1 528.1C376.9 528 376.5 527.9 375.7 528.1C374.5 525.7 374.1 525.4 373.8 525.2C373.2 524.8 372.4 524.7 371.7 525C370.7 525.3 369.9 526.3 369.1 527.9C369 528.1 368.9 528.4 368.8 528.6C367.3 528.7 365 529.2 363.1 531.4C362.9 531.7 362.4 531.9 361.9 532C360.9 532.4 360.4 533.2 359.8 534.7C359 536.8 359.8 538.9 360.6 540.2C359.5 541.2 358.1 542.7 357.3 544.5C356.4 546.7 356.2 548.9 356.3 550.1C355.5 551 354.2 552.6 354.1 554.4C353.9 556.9 354.8 558.6 355.2 559.3C355.3 559.5 355.4 559.6 355.6 559.8C355.6 560.1 355.5 560.4 355.6 560.8C355.8 561.6 356.3 562.3 357 562.7C358.5 563.5 360.7 563.9 362.3 563C362.9 563.6 364 564.2 365.9 564.2H366C366.5 564.2 372.8 563.9 374.7 563.4C375.5 563.2 376.1 562.9 376.5 562.5C377.7 562.1 380.9 561 384 559C386.2 557.6 386.9 557.3 388.6 556.9C390.3 556.8 391.3 555.3 391.1 553.7Z" fill="white"/>
<path d="M182.9 529.7V499.7L156.8 484.7L130.6 499.7V529.7L156.8 544.7L182.9 529.7Z" fill="#689E4E"/>
<path d="M168.499 499.2C166.599 499.2 165.099 500.7 165.099 502.6V518.1L149.899 501.1L149.699 500.9C147.999 499 145.999 499.1 145.099 499.1C143.199 499.1 141.699 500.6 141.699 502.5V525.9C141.699 527.8 143.199 529.3 145.099 529.3C146.999 529.3 148.499 527.8 148.499 525.9V510.3L163.999 527.7L164.199 527.9C165.899 529.6 168.199 529.4 168.499 529.4C170.399 529.4 171.899 527.9 171.899 526V502.6C171.899 500.7 170.399 499.2 168.499 499.2Z" fill="white"/>
<path d="M335.6 33C366.2 33 389.7 45.9 389.7 60C389.7 74.1 366.2 87 335.6 87C305 87 281.5 74.1 281.5 60C281.5 45.9 305 33 335.6 33ZM335.6 30C304.1 30 278.5 43.4 278.5 60C278.5 76.6 304.1 90 335.6 90C367.1 90 392.7 76.6 392.7 60C392.7 43.4 367.1 30 335.6 30ZM317.4 57.6C316 64.8 311 64.1 304.9 64.1L307.3 51.5C314.2 51.5 318.8 50.8 317.4 57.6ZM295.9 76.8H302.4L304 68.8C311.3 68.8 315.9 69.3 320.1 65.4C324.8 61.1 326 53.5 322.7 49.7C321 47.7 318.2 46.7 314.4 46.7H301.8L295.9 76.8ZM329 38.7H335.5L333.9 46.7C339.5 46.7 344.7 46.3 347.2 48.6C349.8 51 348.6 54.1 345.7 68.8H339.1C341.8 54.6 342.4 53.5 341.4 52.4C340.4 51.4 338.2 51.6 332.9 51.6L329.5 68.8H323L329 38.7ZM368.6 57.6C367.2 64.9 362.1 64.1 356.1 64.1L358.5 51.5C365.4 51.5 369.9 50.8 368.6 57.6ZM347.1 76.8H353.7L355.3 68.8C363 68.8 367.3 69.2 371.4 65.4C376.1 61.1 377.3 53.5 374 49.7C372.3 47.7 369.5 46.7 365.7 46.7H353.1L347.1 76.8Z" fill="#273B7B"/>
<path d="M641.5 295.6L633.5 300C633.2 300.2 633 300.5 633 300.8V309.7C633 310 633.2 310.3 633.5 310.5L641.5 314.9C641.8 315.1 642.2 315.1 642.5 314.9L650.5 310.5C650.8 310.3 651 310 651 309.7V300.8C651 300.5 650.8 300.2 650.5 300L642.5 295.6C642.3 295.5 642.2 295.5 642 295.5C641.8 295.5 641.6 295.5 641.5 295.6ZM682.7 303.6L681.4 304.3C681.3 304.3 681.3 304.4 681.3 304.4V305.9C681.3 306 681.3 306 681.4 306L682.7 306.7C682.8 306.7 682.8 306.7 682.9 306.7L684.2 306L684.3 305.9V304.4C684.3 304.3 684.3 304.3 684.2 304.3L682.9 303.6C682.8 303.5 682.8 303.5 682.7 303.6C682.7 303.5 682.7 303.5 682.7 303.6Z" fill="#5C8C44"/>
<path d="M671.701 286.2L667.801 284C667.701 283.9 667.501 283.9 667.401 284C667.301 284.1 667.201 284.2 667.201 284.3V297.4L663.601 295.4C663.401 295.3 663.301 295.3 663.101 295.3C662.901 295.3 662.801 295.3 662.601 295.4L654.601 299.8C654.301 300 654.101 300.3 654.101 300.6V309.5C654.101 309.8 654.301 310.1 654.601 310.3L662.601 314.7C662.901 314.9 663.301 314.9 663.601 314.7L671.601 310.3C671.901 310.1 672.101 309.8 672.101 309.5V286.8C672.201 286.6 672.001 286.3 671.701 286.2ZM667.001 307.5L663.401 309.5C663.301 309.6 663.101 309.6 663.001 309.5L659.401 307.5C659.301 307.4 659.201 307.3 659.201 307.1V303.1C659.201 303 659.301 302.8 659.401 302.7L663.001 300.7C663.101 300.7 663.101 300.6 663.201 300.6C663.301 300.6 663.401 300.6 663.401 300.7L667.001 302.7C667.101 302.8 667.201 302.9 667.201 303.1V307.1C667.301 307.3 667.201 307.5 667.001 307.5Z" fill="#363636"/>
<path d="M641.5 295.6L633 309.7C633 310 633.2 310.3 633.5 310.5L641.5 314.9C641.8 315.1 642.2 315.1 642.5 314.9L651 300.8C651 300.5 650.8 300.2 650.5 300L642.5 295.6C642.3 295.5 642.2 295.5 642 295.5C641.8 295.5 641.6 295.5 641.5 295.6Z" fill="#507C3A"/>
<path d="M641.5 295.6L633.5 300C633.2 300.2 633 300.5 633 300.8L641.5 314.9C641.8 315.1 642.2 315.1 642.5 314.9L650.5 310.5C650.8 310.3 651 310 651 309.7L642.5 295.6C642.3 295.5 642.2 295.5 642 295.5C641.8 295.5 641.6 295.5 641.5 295.6Z" fill="#73AC57"/>
<path d="M691.2 299.9L683.2 295.5C683.1 295.4 682.9 295.4 682.7 295.4C682.5 295.4 682.4 295.4 682.2 295.5L674.2 299.9C673.9 300.1 673.7 300.4 673.7 300.7V309.5C673.7 309.8 673.9 310.2 674.2 310.3L682.2 314.7C682.5 314.9 682.9 314.9 683.2 314.7L686.9 312.7C687.2 312.5 687.2 312 686.9 311.8L678.9 307.4C678.8 307.3 678.7 307.2 678.7 307V303C678.7 302.8 678.8 302.7 678.9 302.6L682.5 300.6C682.6 300.6 682.6 300.5 682.7 300.5C682.8 300.5 682.9 300.5 682.9 300.6L686.5 302.6C686.6 302.7 686.7 302.8 686.7 303V306.3C686.7 306.4 686.8 306.6 686.9 306.6C687 306.7 687.2 306.7 687.3 306.6L691.2 304.3C691.4 304.2 691.6 303.9 691.6 303.6V300.5C691.7 300.4 691.5 300.1 691.2 299.9ZM630.9 299.9L622.9 295.5C622.7 295.4 622.6 295.4 622.4 295.4C622.2 295.4 622.1 295.4 621.9 295.5L613.9 299.9C613.6 300.1 613.4 300.4 613.4 300.7V312.9C613.4 313 613.5 313.2 613.6 313.2C613.7 313.3 613.9 313.3 614 313.2L617.9 310.9C618.1 310.8 618.3 310.5 618.3 310.2V303C618.3 302.9 618.4 302.7 618.5 302.6L622.1 300.6C622.2 300.6 622.2 300.5 622.3 300.5C622.4 300.5 622.5 300.5 622.5 300.6L626.1 302.6C626.2 302.7 626.3 302.8 626.3 303V310.2C626.3 310.5 626.4 310.7 626.7 310.9L630.6 313.2C630.7 313.3 630.9 313.3 631 313.2C631.1 313.1 631.2 313 631.2 312.9V300.7C631.4 300.4 631.2 300.1 630.9 299.9Z" fill="#363636"/>
<path d="M652.3 332.5C652 332.5 651.8 332.4 651.5 332.3L649.1 330.9C648.7 330.7 648.9 330.6 649 330.6C649.5 330.4 649.6 330.4 650.1 330.1C650.2 330.1 650.2 330.1 650.3 330.1L652.2 331.2C652.3 331.2 652.4 331.2 652.4 331.2L659.7 327C659.8 327 659.8 326.9 659.8 326.8V318.3C659.8 318.2 659.8 318.1 659.7 318.1L652.4 313.9C652.3 313.9 652.2 313.9 652.2 313.9L644.9 318.1C644.8 318.1 644.8 318.2 644.8 318.3V326.8C644.8 326.9 644.8 327 644.9 327L646.9 328.2C648 328.7 648.7 328.1 648.7 327.5V319.2C648.7 319.1 648.8 319 648.9 319H649.8C649.9 319 650 319.1 650 319.2V327.5C650 329 649.2 329.8 647.8 329.8C647.4 329.8 647 329.8 646.1 329.3L644.2 328.2C643.7 327.9 643.4 327.4 643.4 326.9V318.5C643.4 318 643.7 317.4 644.2 317.2L651.5 313C652 312.7 652.6 312.7 653 313L660.3 317.2C660.8 317.5 661.1 318 661.1 318.5V327C661.1 327.5 660.8 328.1 660.3 328.3L653 332.5C652.8 332.4 652.6 332.5 652.3 332.5Z" fill="#7A9D66"/>
<path d="M654.6 326.7C651.4 326.7 650.7 325.2 650.7 324C650.7 323.9 650.8 323.8 650.9 323.8H651.8C651.9 323.8 652 323.9 652 324C652.1 325 652.6 325.4 654.5 325.4C656 325.4 656.7 325.1 656.7 324.2C656.7 323.7 656.5 323.4 654.1 323.1C652.1 322.9 650.9 322.5 650.9 320.9C650.9 319.4 652.2 318.6 654.2 318.6C656.5 318.6 657.7 319.4 657.9 321.2C657.9 321.3 657.9 321.3 657.8 321.4C657.8 321.4 657.7 321.5 657.6 321.5H656.7C656.6 321.5 656.5 321.4 656.5 321.3C656.3 320.3 655.7 320 654.2 320C652.5 320 652.3 320.6 652.3 321C652.3 321.5 652.5 321.7 654.8 322C657.1 322.3 658.1 322.7 658.1 324.3C658.2 325.8 656.9 326.7 654.6 326.7ZM663.5 317.7H663.7C663.9 317.7 663.9 317.6 663.9 317.5C663.9 317.3 663.7 317.3 663.7 317.3H663.5V317.7ZM663.2 317H663.7C663.9 317 664.2 317 664.2 317.4C664.2 317.7 664 317.8 663.9 317.8C664.1 317.8 664.1 318 664.2 318.2C664.2 318.3 664.2 318.5 664.3 318.6H664C664 318.5 663.9 318.1 663.9 318.1C663.9 318 663.8 318 663.7 318H663.4V318.6H663.1L663.2 317ZM662.5 317.8C662.5 318.5 663 319 663.7 319C664.4 319 664.9 318.5 664.9 317.8C664.9 317.1 664.4 316.6 663.7 316.6C663 316.7 662.5 317.2 662.5 317.8ZM665.1 317.8C665.1 318.6 664.5 319.2 663.7 319.2C662.9 319.2 662.3 318.6 662.3 317.8C662.3 317 663 316.4 663.7 316.4C664.4 316.4 665.1 317 665.1 317.8Z" fill="#7A9D66"/>
<path d="M620.3 539.8H563.2V599.1H620.3V539.8Z" fill="#33363C"/>
<path d="M577.1 573.4H563.2V583.5H577.1V573.4Z" fill="#CC6317"/>
<path d="M591.2 562.2H563.2V572.3H591.2V562.2Z" fill="#CC6317"/>
<path d="M605.401 573.4H578.101V583.5H605.401V573.4Z" fill="#CC6317"/>
<path d="M620.3 539.8H592.3V549.9H620.3V539.8Z" fill="#CC6317"/>
<path d="M605.2 551H577.9V561.1H605.2V551Z" fill="#CC6317"/>
<path d="M591.2 539.8H563.2V549.9H591.2V539.8Z" fill="#CC6317"/>
<path d="M576.9 551H563.2V561.1H576.9V551Z" fill="#CC6317"/>
<path d="M620.3 562.2H592.3V572.3H620.3V562.2Z" fill="#CC6317"/>
<path d="M620.3 551H606.3V561.1H620.3V551Z" fill="#CC6317"/>
<path d="M620.3 573.4H606.4V583.5H620.3V573.4Z" fill="#CC6317"/>
<path d="M591.2 584.6H563.2V594.7H591.2V584.6Z" fill="#CC6317"/>
<path d="M620.3 584.6H592.3V594.7H620.3V584.6Z" fill="#CC6317"/>
<path d="M592.3 539.8L618 542.1L620.3 550V539.8H592.3Z" fill="#DC742A"/>
<path d="M563.101 539.8L588.901 542.1L591.201 550V539.8H563.101Z" fill="#DC742A"/>
<path d="M577.2 551L602.9 553.3L605.2 561.1V551H577.2Z" fill="#DC742A"/>
<path d="M592.2 562.2L618 564.4L620.3 572.3V562.2H592.2Z" fill="#DC742A"/>
<path d="M577.2 573.4L602.9 575.6L605.3 583.5V573.4H577.2Z" fill="#DC742A"/>
<path d="M563.2 562.2L588.9 564.4L591.2 572.3V562.2H563.2Z" fill="#DC742A"/>
<path d="M592.2 584.6L618 586.8L620.3 594.7V584.6H592.2Z" fill="#DC742A"/>
<path d="M606.4 573.4L618 575.6L620.3 583.5V573.4H606.4Z" fill="#DC742A"/>
<path d="M606.4 551L618 553.3L620.3 561.1V551H606.4Z" fill="#DC742A"/>
<path d="M577.2 584.6L588.8 586.8L591.1 594.7V584.6H577.2Z" fill="#DC742A"/>
<path d="M563.101 551L574.601 553.3L577.001 561.1V551H563.101Z" fill="#DC742A"/>
<path d="M569 599.8C563.1 599.8 554.1 597.9 549.7 589.3C545.3 580.7 549.1 574.3 549.1 570.7C549.1 567.1 547.2 564.1 547.2 564.1C547.2 564.1 550.5 563.1 553 565.6C555.5 568.1 556.9 572.5 556.9 572.5C556.9 572.5 556.8 564.1 560.8 560.1C564.8 556.1 565.7 555.3 567.2 551.8C567.7 550.6 566.2 547.9 566.2 547.9C566.2 547.9 570.8 548.6 572.7 551.6C575.7 556.3 572 559.1 572.5 564.3C572.9 568.5 575.5 571.4 575.5 571.4C575.5 571.4 575.4 566.8 577.8 563.7C580.7 559.9 586.4 559.9 586.4 559.9C586.4 559.9 584.4 564.1 585.3 568.9C586.1 573.7 590.2 579.9 587.7 587.9C584.5 597.9 574.1 599.8 569 599.8Z" fill="#DE9A24"/>
<path d="M577.1 552.9C576.4 554.2 577.6 558.7 577.6 558.7C577.6 558.7 578.7 557.1 582.1 555.8C583.4 555.3 583.5 553.2 582.5 550.8C582 549.5 580.7 547.4 580.7 547.4C580.7 547.4 580.9 549.6 579.3 551.2C578.7 551.9 577.4 552.3 577.1 552.9Z" fill="#DE9A24"/>
<path d="M556.9 557.9C557.1 559 555.1 562.1 555.1 562.1C555.1 562.1 554.7 560.6 552.5 558.8C551.7 558.1 552.2 556.5 553.4 555C554.1 554.1 555.6 552.9 555.6 552.9C555.6 552.9 554.9 554.5 555.6 556.1C555.9 556.7 556.8 557.3 556.9 557.9Z" fill="#DE9A24"/>
<path d="M564 547.7C564.1 548.4 562.8 550.4 562.8 550.4C562.8 550.4 562.5 549.4 561.1 548.3C560.6 547.9 560.9 546.8 561.7 545.8C562.2 545.2 563.1 544.5 563.1 544.5C563.1 544.5 562.6 545.5 563.1 546.5C563.4 546.9 563.9 547.3 564 547.7Z" fill="#DE9A24"/>
<path d="M568.901 599.8C564.801 599.8 557.501 598.2 554.401 592.6C551.301 587 551.501 584.5 551.501 582.2C551.501 579.9 552.801 574.8 552.801 574.8C552.801 574.8 555.701 578.3 556.801 579.1C558.401 580.2 559.701 580.2 559.701 580.2C559.701 580.2 559.501 576.1 560.301 573.2C561.001 570.7 563.001 568.6 564.001 567.6C566.701 565 566.601 562.7 566.601 562.7C566.601 562.7 569.601 567.1 570.001 569.5C570.401 572.2 570.001 574.4 571.401 576.8C573.401 580.5 575.901 580.9 575.901 580.9C575.901 580.9 576.001 579.3 577.001 576.9C578.201 573.9 581.401 572.8 581.401 572.8C581.401 572.8 581.601 577.6 582.901 580.7C584.101 583.6 585.001 586.7 583.201 591.8C581.001 598.1 572.501 599.8 568.901 599.8Z" fill="#E8A336"/>
<path d="M568.501 599.8C566.101 599.8 562.001 598.9 560.301 595.7C558.501 592.5 558.601 591.1 558.601 589.8C558.601 588.5 559.401 585.6 559.401 585.6C559.401 585.6 561.001 587.6 561.701 588.1C562.601 588.7 563.301 588.7 563.301 588.7C563.301 588.7 563.201 586.4 563.601 584.7C564.001 583.3 565.101 582.1 565.701 581.5C567.201 580 567.201 578.7 567.201 578.7C567.201 578.7 568.901 581.2 569.101 582.6C569.301 584.1 569.101 585.4 569.901 586.8C571.101 588.9 572.401 589.1 572.401 589.1C572.401 589.1 572.501 588.2 573.001 586.8C573.701 585.1 575.501 584.5 575.501 584.5C575.501 584.5 575.601 587.2 576.401 589C577.101 590.7 577.601 592.4 576.601 595.3C575.301 598.8 570.501 599.8 568.501 599.8Z" fill="#F5DE34"/>
<path d="M411.181 639.8H406.681V637.5C406.681 635.7 405.181 634.2 403.381 634.2C401.581 634.2 400.081 635.7 400.081 637.5V639.8H395.581V637.5C395.581 633.2 399.081 629.7 403.381 629.7C407.681 629.7 411.181 633.2 411.181 637.5V639.8Z" fill="#E8A226"/>
<path d="M413.08 639.8H393.78C392.98 639.8 392.28 640.5 392.28 641.3V655.5C392.28 656.3 392.98 657 393.78 657H413.08C413.88 657 414.58 656.3 414.58 655.5V641.3C414.48 640.4 413.88 639.8 413.08 639.8ZM404.38 649.1V651C404.38 651.5 403.98 652 403.38 652C402.88 652 402.38 651.6 402.38 651V649.1C401.78 648.8 401.38 648.1 401.38 647.4C401.38 646.3 402.28 645.4 403.38 645.4C404.48 645.4 405.38 646.3 405.38 647.4C405.38 648.1 404.98 648.8 404.38 649.1Z" fill="#223D6E"/>
<path d="M391.781 637.6H387.081C386.281 637.6 385.681 637 385.681 636.2C385.681 635.4 386.281 634.8 387.081 634.8H391.781C392.581 634.8 393.181 635.4 393.181 636.2C393.181 637 392.581 637.6 391.781 637.6Z" fill="#E8A226"/>
<path d="M395.081 630.3C394.781 630.3 394.481 630.2 394.281 630L390.581 627C389.981 626.5 389.881 625.7 390.381 625.1C390.881 624.5 391.681 624.4 392.281 624.9L395.981 627.9C396.581 628.4 396.681 629.2 396.181 629.8C395.881 630.1 395.481 630.3 395.081 630.3Z" fill="#E8A226"/>
<path d="M403.38 627.1C402.58 627.1 401.98 626.5 401.98 625.7V621C401.98 620.2 402.58 619.6 403.38 619.6C404.18 619.6 404.78 620.2 404.78 621V625.7C404.78 626.5 404.18 627.1 403.38 627.1Z" fill="#E8A226"/>
<path d="M411.68 630.3C411.28 630.3 410.88 630.1 410.68 629.8C410.18 629.2 410.28 628.3 410.88 627.9L414.58 624.9C415.18 624.4 416.081 624.5 416.481 625.1C416.881 625.7 416.88 626.6 416.28 627L412.58 630C412.28 630.2 411.98 630.3 411.68 630.3Z" fill="#E8A226"/>
<path d="M419.681 637.6H414.981C414.181 637.6 413.581 637 413.581 636.2C413.581 635.4 414.181 634.8 414.981 634.8H419.681C420.481 634.8 421.081 635.4 421.081 636.2C420.981 637 420.381 637.6 419.681 637.6Z" fill="#E8A226"/>
<path d="M343.7 656.8V641.6H347.4V653.6H353.3V656.8H343.7ZM365.4 651.6V652V652.4H357.6C357.6 652.7 357.7 653 357.9 653.2C358.1 653.4 358.2 653.7 358.5 653.8C358.7 654 359 654.1 359.3 654.2C359.6 654.3 359.9 654.3 360.2 654.3C360.8 654.3 361.2 654.2 361.6 654C362 653.8 362.3 653.5 362.5 653.2L364.9 654.8C364.4 655.6 363.7 656.1 362.9 656.5C362.1 656.9 361.1 657.1 360 657.1C359.2 657.1 358.4 657 357.7 656.7C357 656.4 356.4 656.1 355.8 655.6C355.3 655.1 354.9 654.5 354.5 653.8C354.2 653.1 354 652.3 354 651.4C354 650.5 354.1 649.8 354.5 649C354.8 648.3 355.2 647.7 355.7 647.2C356.2 646.7 356.8 646.3 357.5 646.1C358.2 645.8 359 645.7 359.8 645.7C360.6 645.7 361.3 645.8 362 646.1C362.7 646.4 363.2 646.8 363.7 647.2C364.2 647.7 364.5 648.3 364.8 649C365.3 649.9 365.4 650.7 365.4 651.6ZM362.2 650.3C362.2 649.7 362 649.3 361.7 648.8C361.4 648.4 360.8 648.2 360.1 648.2C359.8 648.2 359.4 648.2 359.2 648.3C358.9 648.4 358.7 648.5 358.4 648.7C358.1 648.9 358 649.1 357.9 649.4C357.8 649.6 357.7 649.9 357.7 650.2L362.2 650.3ZM371.1 648.8V652.9C371.1 653.4 371.2 653.8 371.4 654C371.6 654.2 371.9 654.4 372.4 654.4C372.6 654.4 372.8 654.4 373 654.4C373.2 654.4 373.4 654.3 373.5 654.3V656.9C373.3 657 372.9 657 372.6 657.1C372.2 657.1 371.8 657.2 371.5 657.2C370.8 657.2 370.2 657.1 369.7 656.9C369.2 656.7 368.8 656.5 368.5 656.1C368.2 655.7 368 655.3 367.9 654.9C367.8 654.4 367.7 653.9 367.7 653.3V648.8H366V646.2H367.7V643.4H371.2V646.2H373.7V648.8H371.1ZM376.8 641.4C375.8 641.4 374.9 642.2 374.9 643.1C374.9 644.1 375.6 644.8 376.6 644.8C376.7 644.8 376.8 644.8 376.8 644.8C376.6 645.6 375.9 646.1 375.2 646.2H375.1V647.8H375.3C376.1 647.7 376.9 647.3 377.6 646.8C378.4 646 378.8 644.9 378.8 643.6C378.8 642.3 378 641.4 376.8 641.4ZM384.9 649.3C384.6 649 384.3 648.8 383.9 648.6C383.5 648.4 383.1 648.3 382.7 648.3C382.4 648.3 382.1 648.3 381.8 648.5C381.5 648.6 381.4 648.8 381.4 649.2C381.4 649.5 381.5 649.7 381.9 649.9C382.3 650.1 382.7 650.2 383.4 650.3C383.8 650.4 384.2 650.5 384.6 650.7C385 650.9 385.4 651.1 385.7 651.3C386 651.5 386.3 651.9 386.5 652.2C386.7 652.6 386.8 653 386.8 653.5C386.8 654.2 386.7 654.7 386.4 655.2C386.1 655.7 385.8 656 385.3 656.3C384.9 656.6 384.4 656.8 383.8 656.9C383.2 657 382.7 657.1 382.2 657.1C381.3 657.1 380.5 657 379.7 656.7C378.9 656.4 378.1 656 377.6 655.5L379.6 653.4C379.9 653.7 380.3 654 380.8 654.2C381.3 654.4 381.7 654.5 382.3 654.5C382.6 654.5 382.9 654.5 383.1 654.3C383.4 654.2 383.5 653.9 383.5 653.6C383.5 653.3 383.3 653 383 652.8C382.7 652.7 382.1 652.5 381.4 652.3C381 652.2 380.6 652.1 380.3 652C379.9 651.9 379.6 651.7 379.3 651.4C379 651.2 378.8 650.8 378.6 650.5C378.4 650.1 378.3 649.7 378.3 649.2C378.3 648.5 378.4 648 378.7 647.6C379 647.2 379.3 646.8 379.7 646.5C380.1 646.2 380.6 646 381.1 645.9C381.6 645.8 382.1 645.7 382.7 645.7C383.5 645.7 384.3 645.8 385.1 646.1C385.9 646.4 386.5 646.7 387 647.2L384.9 649.3ZM343.7 674.4V659.2H353.9V662.3H347.2V665.2H353.5V668.1H347.2V671.3H354.3V674.5H343.7V674.4ZM363.6 674.4V668.6C363.6 668.3 363.6 668 363.5 667.8C363.5 667.5 363.4 667.3 363.3 667.1C363.2 666.9 363 666.7 362.8 666.6C362.6 666.5 362.3 666.4 362 666.4C361.7 666.4 361.4 666.4 361.2 666.6C361 666.7 360.8 666.9 360.6 667.1C360.5 667.3 360.3 667.6 360.2 667.9C360.1 668.2 360.1 668.5 360.1 668.7V674.5H356.6V663.8H360V665.3C360.1 665.1 360.3 664.8 360.5 664.6C360.7 664.4 361 664.2 361.2 664C361.5 663.9 361.8 663.7 362.1 663.6C362.4 663.5 362.8 663.5 363.1 663.5C363.8 663.5 364.4 663.6 364.9 663.9C365.4 664.2 365.8 664.5 366.1 664.9C366.4 665.3 366.6 665.8 366.8 666.3C366.9 666.8 367 667.3 367 667.9V674.5L363.6 674.4ZM376.2 667.2C376 667 375.7 666.7 375.4 666.6C375.1 666.5 374.7 666.4 374.4 666.4C374 666.4 373.7 666.5 373.4 666.6C373.1 666.7 372.8 666.9 372.6 667.2C372.4 667.5 372.2 667.7 372.1 668C372 668.3 371.9 668.7 371.9 669C371.9 669.4 371.9 669.7 372.1 670C372.2 670.3 372.4 670.6 372.6 670.8C372.8 671 373.1 671.3 373.4 671.4C373.7 671.5 374.1 671.6 374.4 671.6C374.8 671.6 375.1 671.6 375.5 671.4C375.8 671.3 376.1 671.1 376.3 670.8L378.2 673.2C377.8 673.6 377.2 674 376.5 674.2C375.8 674.4 375 674.6 374.3 674.6C373.5 674.6 372.7 674.5 371.9 674.2C371.1 674 370.5 673.6 370 673.1C369.5 672.6 369.1 672 368.7 671.3C368.4 670.6 368.2 669.8 368.2 668.9C368.2 668 368.3 667.3 368.7 666.5C369.1 665.7 369.5 665.2 370 664.7C370.5 664.2 371.2 663.8 371.9 663.6C372.7 663.3 373.4 663.2 374.3 663.2C374.7 663.2 375.1 663.2 375.4 663.3C375.8 663.4 376.2 663.5 376.5 663.6C376.8 663.7 377.2 663.9 377.5 664.1C377.8 664.3 378.1 664.5 378.3 664.7L376.2 667.2ZM386.4 666.7C386.3 666.7 386.1 666.6 385.9 666.6H385.5C385 666.6 384.7 666.7 384.3 666.8C384 667 383.7 667.2 383.5 667.4C383.3 667.6 383.2 667.9 383.1 668.2C383 668.5 383 668.7 383 669V674.5H379.5V663.8H382.9V665.4C383.2 664.8 383.6 664.4 384.1 664.1C384.6 663.8 385.2 663.6 385.8 663.6H386.2C386.3 663.6 386.4 663.6 386.5 663.6L386.4 666.7ZM394.7 676C394.5 676.6 394.2 677 394 677.5C393.7 677.9 393.4 678.3 393.1 678.6C392.7 678.9 392.3 679.1 391.8 679.3C391.3 679.4 390.7 679.5 390.1 679.5C389.8 679.5 389.4 679.5 389.1 679.5C388.8 679.5 388.4 679.4 388.2 679.3L388.6 676.3C388.8 676.3 389 676.4 389.2 676.4C389.4 676.4 389.6 676.4 389.8 676.4C390.4 676.4 390.7 676.3 391 676C391.3 675.7 391.5 675.4 391.6 674.9L391.9 674L387.4 663.5H391.3L393.7 670.4L395.8 663.5H399.5L394.7 676ZM412.3 669.1C412.3 669.9 412.2 670.6 412 671.3C411.8 672 411.4 672.6 411 673.1C410.6 673.6 410 674 409.4 674.4C408.8 674.7 408 674.9 407.2 674.9C406.5 674.9 405.9 674.8 405.3 674.5C404.7 674.2 404.3 673.9 403.9 673.4V679.7H400.4V663.9H403.7V665.2C404 664.8 404.5 664.4 405.1 664.1C405.7 663.8 406.4 663.6 407.2 663.6C408 663.6 408.7 663.7 409.3 664.1C409.9 664.4 410.5 664.8 410.9 665.3C411.3 665.8 411.7 666.4 411.9 667.1C412.2 667.6 412.3 668.3 412.3 669.1ZM408.9 669.1C408.9 668.8 408.9 668.4 408.8 668.1C408.7 667.8 408.5 667.5 408.3 667.3C408.1 667.1 407.8 666.8 407.5 666.7C407.2 666.6 406.8 666.5 406.4 666.5C406 666.5 405.6 666.6 405.3 666.7C405 666.8 404.7 667.1 404.5 667.3C404.3 667.5 404.1 667.9 404 668.2C403.9 668.5 403.8 668.9 403.8 669.2C403.8 669.5 403.8 669.9 404 670.2C404.1 670.5 404.3 670.8 404.5 671.1C404.7 671.3 405 671.6 405.3 671.7C405.6 671.8 406 671.9 406.4 671.9C406.8 671.9 407.2 671.8 407.5 671.7C407.8 671.6 408.1 671.3 408.3 671.1C408.5 670.9 408.7 670.5 408.8 670.2C408.8 669.7 408.9 669.4 408.9 669.1ZM417.9 666.4V670.5C417.9 671 418 671.4 418.2 671.6C418.4 671.8 418.7 672 419.2 672C419.4 672 419.6 672 419.8 672C420 672 420.2 671.9 420.3 671.9V674.5C420.1 674.6 419.7 674.6 419.4 674.7C419 674.7 418.6 674.8 418.3 674.8C417.6 674.8 417 674.7 416.5 674.5C416 674.3 415.6 674.1 415.3 673.7C415 673.4 414.8 672.9 414.7 672.5C414.6 672.1 414.5 671.5 414.5 670.9V666.4H412.8V663.8H414.5V661H417.9V663.8H420.4V666.4H417.9Z" fill="#223D6E"/>
<path d="M12.9005 447.9C12.9005 447.9 13.8005 430.7 55.4005 426.2C44.6005 425.9 22.3005 430.1 15.6005 439.1C11.5005 444.6 12.9005 447.9 12.9005 447.9Z" fill="#FDFB3B"/>
<path d="M91.1002 434C91.1002 434 98.9002 444.2 78.8002 452.1C77.4002 452.6 68.0002 456.3 53.2002 457.5C53.2002 457.5 64.7002 455.9 75.5002 452.1C79.0002 450.9 81.9002 449.5 84.8002 447.6C93.9002 441.9 91.1002 434 91.1002 434Z" fill="#0406F3"/>
<path d="M77.0005 434.3C76.0005 433.5 72.2005 432.2 71.6005 431.9C71.0005 431.6 71.0005 429.8 68.0005 428.9C68.0005 429.5 68.0005 431 68.0005 431C68.0005 431 56.3005 429.5 47.8005 431.3C47.8005 431 47.8005 429.2 47.8005 429.2C47.8005 429.2 46.0005 428.9 44.5005 432.2C43.6005 432.5 31.6005 435.5 29.4005 444.2C29.2005 444.9 24.6005 446.3 23.4005 450.8C23.2005 451.4 26.4005 448.4 29.4005 447.2C29.7005 447.8 30.0005 451.7 35.7005 455C36.2005 455.3 31.5005 449.9 33.3005 445.7C33.6005 445.1 43.2005 441.5 44.7005 441.5C44.4005 442.1 40.8005 450.8 45.6005 456.3C45.6005 456 45.3005 445.2 50.1005 439.7C51.0005 439.7 53.4005 439.7 55.2005 438.5C54.3005 438.5 51.0005 438.5 51.0005 438.5C51.0005 438.5 52.5005 436.1 56.4005 432.8C56.9005 432.4 74.8005 432.5 75.1005 438.8C75.1005 439.1 74.7005 440.6 73.6005 441.5C71.6005 443 68.5005 444.2 68.5005 444.2C69.5005 444.3 84.8005 441.3 77.0005 434.3ZM48.7005 436.5C47.4005 437.9 47.1005 438.9 46.9005 438.9C42.7005 439.2 36.7005 441 36.7005 441C41.2005 435.3 52.1005 433.8 52.1005 433.8C52.1005 433.8 49.9005 435.2 48.7005 436.5Z" fill="#D9000D"/>
</g>
</svg>
