<svg width="38" height="38" viewBox="0 0 38 38" fill="none" xmlns="http://www.w3.org/2000/svg">
<path d="M2.66504 18.7517C2.66504 25.1192 6.36549 30.622 11.7315 33.2297L4.0578 12.2048C3.16521 14.2055 2.66504 16.4195 2.66504 18.7517Z" fill="#E5E5E5"/>
<path d="M29.6123 17.94C29.6123 15.9519 28.8982 14.575 28.2857 13.5033C27.4702 12.1782 26.7059 11.0561 26.7059 9.73096C26.7059 8.25218 27.8274 6.87565 29.4072 6.87565C29.4785 6.87565 29.5462 6.88452 29.6157 6.8885C26.7536 4.26644 22.9405 2.66553 18.7524 2.66553C13.1324 2.66553 8.18796 5.549 5.31152 9.91645C5.68895 9.92778 6.04464 9.93574 6.34676 9.93574C8.0294 9.93574 10.634 9.73157 10.634 9.73157C11.5012 9.68044 11.6034 10.9541 10.7372 11.0567C10.7372 11.0567 9.86571 11.1592 8.89598 11.21L14.7541 28.6349L18.2746 18.0765L15.7683 11.2094C14.902 11.1586 14.0813 11.0561 14.0813 11.0561C13.2145 11.0053 13.3161 9.67984 14.183 9.73096C14.183 9.73096 16.8396 9.93513 18.4203 9.93513C20.1027 9.93513 22.7076 9.73096 22.7076 9.73096C23.5754 9.67983 23.6773 10.9535 22.8107 11.0561C22.8107 11.0561 21.9374 11.1586 20.9695 11.2094L26.783 28.5023L28.3876 23.1403C29.0831 20.9153 29.6123 19.3171 29.6123 17.94L29.6123 17.94Z" fill="#E5E5E5"/>
<path d="M19.0336 20.1589L14.207 34.1842C15.6482 34.6079 17.1722 34.8396 18.7514 34.8396C20.6248 34.8396 22.4213 34.5157 24.0935 33.9277C24.0503 33.8588 24.0112 33.7856 23.979 33.7061L19.0336 20.1589V20.1589Z" fill="#E5E5E5"/>
<path d="M32.8675 11.0337C32.9367 11.5461 32.9759 12.0962 32.9759 12.6879C32.9759 14.3203 32.671 16.1554 31.7527 18.4499L26.8389 32.657C31.6214 29.8681 34.8382 24.6867 34.8382 18.752C34.8385 15.9552 34.1241 13.3252 32.8675 11.0337Z" fill="#E5E5E5"/>
<path d="M18.7524 0C8.41259 0 0 8.41197 0 18.7518C0 29.0928 8.41259 37.5045 18.7524 37.5045C29.0922 37.5045 37.5057 29.0928 37.5057 18.7518C37.5054 8.41197 29.0919 0 18.7524 0ZM18.7524 36.6449C8.88674 36.6449 0.859835 28.618 0.859835 18.7518C0.859835 8.88612 8.88643 0.859835 18.7524 0.859835C28.6177 0.859835 36.644 8.88611 36.644 18.7518C36.644 28.618 28.6177 36.6449 18.7524 36.6449Z" fill="#E5E5E5"/>
</svg>
