<?xml version="1.0" encoding="utf-8"?>
<!-- Generator: Adobe Illustrator 25.2.0, SVG Export Plug-In . SVG Version: 6.00 Build 0)  -->
<svg version="1.1" id="Layer_1" xmlns="http://www.w3.org/2000/svg" xmlns:xlink="http://www.w3.org/1999/xlink" x="0px" y="0px"
	 viewBox="0 0 358.3 355.5" style="enable-background:new 0 0 358.3 355.5;" xml:space="preserve">
<style type="text/css">
	.st0{fill:#1F2C38;}
	.st1{fill:#FFFFFF;}
	.st2{fill:#13387E;}
	.st3{fill:none;stroke:#1F2C38;stroke-width:8;stroke-linecap:round;stroke-linejoin:round;}
</style>
<g id="Layer_2_1_">
	<g id="stroked">
		<path class="st0" d="M236.8,270L155,351.8c-5,4.9-13,4.9-18,0L31.5,246.3c-2.4-2.4-3.7-5.6-3.7-8.9l-0.5-82.3
			c0-7,5.6-12.8,12.7-12.8c0.1,0,0.1,0,0.2,0l82.3,0.5c3.4,0,6.6,1.4,8.9,3.7L236.8,252C241.7,257,241.7,265,236.8,270z M34.8,155.1
			l0.5,82.3c0,1.4,0.6,2.7,1.5,3.7l105.4,105.5c2.1,2.1,5.4,2.1,7.5,0l81.8-81.8c2.1-2.1,2.1-5.4,0-7.5L126,151.8
			c-1-1-2.3-1.5-3.7-1.6L40,149.8C37.1,149.8,34.7,152.1,34.8,155.1C34.7,155.1,34.7,155.1,34.8,155.1L34.8,155.1z"/>
		<path class="st0" d="M69.4,184.4c-6.6,6.7-17.4,6.7-24,0s-6.7-17.4,0-24s17.4-6.7,24,0c0,0,0,0,0,0C76,167.1,76,177.8,69.4,184.4z
			 M50.7,165.7c-3.7,3.7-3.7,9.7,0,13.4c3.7,3.7,9.7,3.7,13.4,0c3.7-3.7,3.7-9.7,0-13.4C60.4,162,54.4,162,50.7,165.7z"/>
		<path class="st1" d="M4.6,122.4l2.8-2.8c3.1-3.1,8.1-3.1,11.3,0l41,41c3.1,3.1,3.1,8.1,0,11.3l-2.8,2.8c-3.1,3.1-8.1,3.1-11.3,0
			l-41-41C1.5,130.6,1.5,125.5,4.6,122.4z"/>
		<path class="st0" d="M60.5,175.6c-5.1,5.1-13.3,5.1-18.4,0c0,0,0,0,0,0L3.8,137.3c-5.1-5.1-5.1-13.3,0-18.4s13.3-5.1,18.4,0l0,0
			l38.3,38.3c7.2,0,13,2,13,9.2c0,7.2-5.8,13-13,13C60.5,179.3,60.5,179.3,60.5,175.6z M8.2,123.3c-2.7,2.7-2.7,7,0,9.6l38.3,38.3
			c2.7,2.7,7,2.7,9.6,0l0,0c2.7-2.7,2.7-7,0-9.6l-38.3-38.3C15.2,120.6,10.9,120.6,8.2,123.3z"/>
		<polygon class="st2" points="122.4,190.3 262.5,57 267.5,52.2 294.6,26.4 330.6,64.1 330.6,64.2 303.1,90.4 296.8,96.4 
			158.4,228.1 122.6,190.5 		"/>
		<path class="st3" d="M122.4,190.3l-1.3,1.2l-8.5,44.1l44.4-6.3l1.3-1.2L296.8,96.4l6.3-6l27.5-26.2l20.6-19.6c4-3.8,4.1-10,0.4-14
			c0,0,0,0,0,0L329.2,7.1c-3.8-4-10-4.1-14-0.3l-20.6,19.7l-27.1,25.8l-5,4.8L122.4,190.3z"/>
		<polyline class="st3" points="330.6,64.1 294.6,26.4 294.2,25.9 		"/>
		<polyline class="st3" points="158.7,228.4 158.4,228.1 122.6,190.5 		"/>
	</g>
</g>
</svg>
