<?xml version="1.0" encoding="utf-8"?>
<!-- Generator: Adobe Illustrator 25.2.0, SVG Export Plug-In . SVG Version: 6.00 Build 0)  -->
<svg version="1.1" id="Layer_1" xmlns="http://www.w3.org/2000/svg" xmlns:xlink="http://www.w3.org/1999/xlink" x="0px" y="0px"
	 viewBox="0 0 257.2 276.9" style="enable-background:new 0 0 257.2 276.9;" xml:space="preserve">
<style type="text/css">
	.st0{fill:#13387E;}
	.st1{fill:#293A4A;}
</style>
<g id="Layer_2_1_">
	<g id="stroked">
		<path class="st0" d="M231.1,76.8H23c-3.9,0-7,3.1-7,7v134.9c0,3.9,3.1,7,7,7h208.1c3.9,0,7-3.1,7-7V83.8
			C238,79.9,234.9,76.8,231.1,76.8z M172.5,159.4h-6.4l-5.1-14.2l-5.3,14.2h-6.4l-7.7-21.3l-7.7,21.3h-6.4l-5.1-14.2l-5.3,14.2h-6.3
			l-7.7-21.3l-7.7,21.3h-6.4L84,145.2l-5.3,14.2h-6.4l-8.2-22.8h6.2l5.4,15.5l5.6-15.4h5.6l5.4,15.4l5.6-15.4h4.8l0.6,1.5l0.6-1.5
			h5.1l5.4,15.4l5.6-15.4h5.6l5.4,15.4l5.6-15.4h4.7l0.6,1.5l0.6-1.5h5.1l5.4,15.4l5.6-15.4h5.7l5.4,15.4l5.6-15.4h5.9L172.5,159.4z
			"/>
		<path class="st1" d="M29,126.5c2,0,3.6-1.6,3.6-3.6l0,0v-62h172.7v102.5c0.1,2,1.8,3.5,3.8,3.4c1.8-0.1,3.3-1.6,3.4-3.4V34h11.6
			v102.5c-0.1,2,1.4,3.7,3.4,3.8c2,0.1,3.7-1.4,3.8-3.4c0-0.1,0-0.3,0-0.4V3.6c0-2-1.6-3.6-3.6-3.6c0,0,0,0,0,0H56.9
			c-2,0-3.6,1.6-3.6,3.6c0,0,0,0,0,0v23.2H29c-2,0-3.6,1.6-3.6,3.6v92.4C25.4,124.9,27,126.5,29,126.5L29,126.5z M60.5,7.2h163.7
			v19.6H60.5V7.2z M205.3,34v19.6H32.6V34H205.3z"/>
		<path class="st1" d="M239.1,60.8c-2,0.1-3.5,1.8-3.4,3.8c0.1,1.8,1.6,3.3,3.4,3.4c6,0,10.9,4.8,10.9,10.8c0,0,0,0,0,0v144.7
			c0,6-4.9,10.8-10.9,10.9H18.1c-6,0-10.8-4.9-10.9-10.9V78.9c0-6,4.8-10.9,10.8-10.9c0,0,0,0,0,0c2-0.1,3.5-1.8,3.4-3.8
			c-0.1-1.8-1.6-3.3-3.4-3.4C8.1,60.8,0,68.9,0,78.9v144.7c0,10,8.1,18.1,18.1,18.1h79.6L82.9,264c-1.7,2.4-1.8,5.6-0.4,8.2
			c1.7,3,4.8,4.8,8.2,4.7h75.8c3.4,0.1,6.6-1.7,8.2-4.7c1.4-2.6,1.3-5.7-0.4-8.2l-14.8-22.3h79.6c10,0,18.1-8.1,18.1-18.1V78.9
			C257.2,68.9,249.1,60.8,239.1,60.8z M168.4,268.8c-0.4,0.6-1.1,1-1.9,0.9H90.7c-0.7,0.1-1.5-0.3-1.9-0.9c-0.2-0.2-0.1-0.6,0.1-0.8
			l6.9-10.5h65.6l6.9,10.4C168.5,268.2,168.5,268.5,168.4,268.8L168.4,268.8z M156.6,250.4h-56l5.7-8.6h44.5L156.6,250.4z"/>
		<path class="st1" d="M30.7,132.3c-1.7-1-3.9-0.4-4.8,1.3c-1,1.7-0.4,3.9,1.3,4.8s3.9,0.4,4.8-1.3c0,0,0,0,0,0
			C33,135.4,32.4,133.2,30.7,132.3z"/>
		<path class="st1" d="M43.9,47.6c1.7,1,3.9,0.4,4.8-1.3c1-1.7,0.4-3.9-1.3-4.8c-1.7-1-3.9-0.4-4.8,1.3
			C41.6,44.5,42.2,46.7,43.9,47.6z"/>
		<path class="st1" d="M57.3,47.6c1.7,1,3.9,0.4,4.8-1.3c1-1.7,0.4-3.9-1.3-4.8c-1.7-1-3.9-0.4-4.8,1.3c0,0,0,0,0,0
			C55,44.5,55.6,46.6,57.3,47.6z"/>
		<path class="st1" d="M70.6,47.6c1.7,1,3.9,0.4,4.8-1.3c1-1.7,0.4-3.9-1.3-4.8c-1.7-1-3.9-0.4-4.8,1.3
			C68.4,44.5,68.9,46.7,70.6,47.6z"/>
		<path class="st1" d="M73.9,15.1c-1.7-1-3.9-0.4-4.9,1.3c-1,1.7-0.4,3.9,1.3,4.9c1.7,1,3.9,0.4,4.9-1.3c0,0,0,0,0,0
			C76.2,18.2,75.6,16,73.9,15.1C73.9,15.1,73.9,15.1,73.9,15.1z"/>
		<path class="st1" d="M87.2,15.1c-1.7-1-3.9-0.4-4.8,1.3c-1,1.7-0.4,3.9,1.3,4.8c1.7,1,3.9,0.4,4.8-1.3
			C89.5,18.2,88.9,16,87.2,15.1C87.2,15.1,87.2,15.1,87.2,15.1z"/>
		<path class="st1" d="M100.6,15.1c-1.7-1-3.9-0.4-4.9,1.3c-1,1.7-0.4,3.9,1.3,4.9c1.7,1,3.9,0.4,4.9-1.3c0,0,0,0,0,0
			C102.9,18.2,102.3,16,100.6,15.1C100.6,15.1,100.6,15.1,100.6,15.1z"/>
		<path class="st1" d="M30.7,147c-1.7-1-3.9-0.4-4.8,1.3c-1,1.7-0.4,3.9,1.3,4.8c1.7,1,3.9,0.4,4.8-1.3C33,150.1,32.4,148,30.7,147
			C30.7,147,30.7,147,30.7,147z"/>
		<path class="st1" d="M30.7,161.7c-1.7-1-3.9-0.4-4.8,1.3c-1,1.7-0.4,3.9,1.3,4.8c1.7,1,3.9,0.4,4.8-1.3
			C33,164.8,32.4,162.7,30.7,161.7z"/>
		<path class="st1" d="M30.7,176.4c-1.7-1-3.9-0.4-4.8,1.3c-1,1.7-0.4,3.9,1.3,4.8c1.7,1,3.9,0.4,4.8-1.3
			C33,179.6,32.4,177.4,30.7,176.4z"/>
	</g>
</g>
</svg>
