<?xml version="1.0" encoding="utf-8"?>
<!-- Generator: Adobe Illustrator 25.2.0, SVG Export Plug-In . SVG Version: 6.00 Build 0)  -->
<svg version="1.1" id="Layer_1" xmlns="http://www.w3.org/2000/svg" xmlns:xlink="http://www.w3.org/1999/xlink" x="0px" y="0px"
	 viewBox="0 0 314.4 270.1" style="enable-background:new 0 0 314.4 270.1;" xml:space="preserve">
<style type="text/css">
	.st0{fill:#1F2C38;}
	.st1{font-family:'Montserrat-Bold';}
	.st2{font-size:92.74px;}
	.st3{fill:none;stroke:#1F2C38;stroke-width:8;stroke-miterlimit:10;}
	.st4{fill:#13387E;}
</style>
<g id="Layer_2_1_">
	<g id="stroked">
		<text transform="matrix(1 0 0 1 178.74 232.19)" class="st0 st1 st2">31</text>
		<path class="st3" d="M131.5,133.8h-117c-5.8,0-10.5-4.7-10.5-10.5c0,0,0,0,0,0V14.5C4,8.7,8.7,4,14.5,4c0,0,0,0,0,0h186.1
			c5.8,0,10.5,4.7,10.5,10.5c0,0,0,0,0,0v74.6"/>
		<path class="st3" d="M212.9,20.7l-91.4,68.6c-7.5,7.5-19.6,7.5-27.1,0c0,0,0,0,0,0L3.1,20.7"/>
		<path class="st4" d="M135.9,134.3v-24c0-10.3,8.4-18.7,18.7-18.7c0,0,0,0,0,0h137c10.3,0,18.7,8.4,18.7,18.7c0,0,0,0,0,0v24H135.9
			z"/>
		<path class="st3" d="M310.4,134.3v113.1c0,10.3-8.4,18.7-18.7,18.7c0,0,0,0,0,0h-137c-10.3,0-18.7-8.4-18.7-18.7c0,0,0,0,0,0v-137
			c0-10.3,8.4-18.7,18.7-18.7c0,0,0,0,0,0h137c10.3,0,18.7,8.4,18.7,18.7c0,0,0,0,0,0V134.3z"/>
		<polyline class="st3" points="134.7,134.3 135.9,134.3 309.1,134.3 		"/>
	</g>
</g>
</svg>
