<?xml version="1.0" encoding="utf-8"?>
<!-- Generator: Adobe Illustrator 25.2.0, SVG Export Plug-In . SVG Version: 6.00 Build 0)  -->
<svg version="1.1" id="Layer_1" xmlns="http://www.w3.org/2000/svg" xmlns:xlink="http://www.w3.org/1999/xlink" x="0px" y="0px"
	 viewBox="0 0 240.8 225.1" style="enable-background:new 0 0 240.8 225.1;" xml:space="preserve">
<style type="text/css">
	.st0{fill:none;stroke:#1F2C38;stroke-width:6;stroke-miterlimit:10;}
	.st1{fill:#1F2C38;}
	.st2{fill:#202C38;}
	.st3{fill:#FFFFFF;}
	.st4{fill:#13387E;}
</style>
<g id="Layer_2_1_">
	<g id="stroked">
		<line class="st0" x1="165.2" y1="179.5" x2="204.6" y2="179.5"/>
		<path class="st1" d="M230.8,119.2H10c-3.9,0-7-3.1-7-7V72.7c0-3.9,3.1-7,7-7h220.8c3.9,0,7,3.1,7,7v39.4
			C237.8,116,234.7,119.2,230.8,119.2z M10,71.7c-0.6,0-1,0.4-1,1v39.4c0,0.6,0.4,1,1,1h220.8c0.6,0,1-0.4,1-1V72.7c0-0.6-0.4-1-1-1
			H10z"/>
		<circle class="st1" cx="26.8" cy="92" r="4.2"/>
		<circle class="st1" cx="198" cy="92" r="4.2"/>
		<circle class="st1" cx="213.5" cy="92" r="4.2"/>
		<path class="st2" d="M179.1,95H42.3c-1.7,0-3-1.3-3-3s1.3-3,3-3h136.8c1.7,0,3,1.3,3,3S180.7,95,179.1,95z"/>
		<path class="st1" d="M230.8,53.5H10c-3.9,0-7-3.1-7-7V7c0-3.9,3.1-7,7-7h220.8c3.9,0,7,3.1,7,7l0,0v39.5
			C237.8,50.3,234.7,53.5,230.8,53.5z M10,6C9.4,6,9,6.4,9,7v39.5c0,0.6,0.4,1,1,1h220.8c0.6,0,1-0.4,1-1V7c0-0.6-0.4-1-1-1H10z"/>
		<circle class="st1" cx="26.8" cy="26.3" r="4.2"/>
		<circle class="st1" cx="198" cy="26.3" r="4.2"/>
		<circle class="st1" cx="213.5" cy="26.3" r="4.2"/>
		<path class="st2" d="M179.1,29.3H42.3c-1.7,0-3-1.3-3-3s1.3-3,3-3h136.8c1.7,0,3,1.3,3,3S180.7,29.3,179.1,29.3z"/>
		<circle class="st0" cx="19.9" cy="179.5" r="16.9"/>
		<circle class="st0" cx="220.9" cy="179.5" r="16.9"/>
		<line class="st0" x1="34.6" y1="179.5" x2="80" y2="179.5"/>
		<line class="st0" x1="122.6" y1="136" x2="122.6" y2="116.9"/>
		<path class="st3" d="M146.6,214l0.1,0.1c-14.9,10.7-34.9,10.7-49.7,0l0.1-0.1c0-13.7,11.1-24.8,24.7-24.8
			C135.5,189.2,146.6,200.3,146.6,214C146.6,214,146.6,214,146.6,214L146.6,214z"/>
		<circle class="st3" cx="121.8" cy="173.5" r="15.4"/>
		<path class="st4" d="M164.4,179.5c0,13.7-6.6,26.6-17.8,34.6l-0.1-0.1c0-13.7-11.1-24.8-24.8-24.8s-24.8,11.1-24.8,24.8l-0.1,0.1
			c-19.1-13.7-23.5-40.4-9.8-59.5s40.4-23.5,59.5-9.8C157.8,152.8,164.4,165.7,164.4,179.5L164.4,179.5z M121.8,188.8
			c8.5,0,15.4-6.9,15.4-15.4c0-8.5-6.9-15.3-15.3-15.3c-8.5,0-15.4,6.9-15.4,15.3C106.5,181.9,113.4,188.8,121.8,188.8L121.8,188.8z
			"/>
		<path class="st0" d="M146.7,214.1c19.1-13.7,23.5-40.4,9.8-59.5S116.1,131,97,144.8s-23.5,40.4-9.8,59.5
			c8,11.2,20.9,17.8,34.7,17.8C130.8,222.1,139.4,219.3,146.7,214.1z"/>
		<path class="st0" d="M97.1,214c0-13.7,11.1-24.8,24.7-24.8c13.7,0,24.8,11.1,24.8,24.7c0,0,0,0,0,0"/>
		<circle class="st0" cx="121.8" cy="173.5" r="15.4"/>
	</g>
</g>
</svg>
