<?xml version="1.0" encoding="utf-8"?>
<!-- Generator: Adobe Illustrator 25.2.0, SVG Export Plug-In . SVG Version: 6.00 Build 0)  -->
<svg version="1.1" id="Layer_1" xmlns="http://www.w3.org/2000/svg" xmlns:xlink="http://www.w3.org/1999/xlink" x="0px" y="0px"
	 viewBox="0 0 197.5 228.8" style="enable-background:new 0 0 197.5 228.8;" xml:space="preserve">
<style type="text/css">
	.st0{fill:#1F2C38;}
	.st1{fill:#13387E;}
	.st2{fill:#FFFFFF;}
</style>
<g id="Layer_2_1_">
	<g id="outlined">
		<path class="st0" d="M138.4,37.7c-0.5-8.9-3.9-17.3-9.7-24C121.8,5.7,112,0.8,101.6,0.1C100.6,0.1,99.7,0,98.7,0h-1.2
			c-3.2,0.1-6.4,0.6-9.5,1.4c-2,0.6-4,1.3-5.8,2.2c-4.9,2.3-9.4,5.5-13,9.6c-0.9,1-1.8,2.1-2.6,3.2c-4.5,6.2-7.1,13.6-7.5,21.3
			c0,0.7,0,1.3,0,2s0,1.3,0,2c0.3,7.3,2.7,14.4,6.9,20.5c0.8,1.1,1.6,2.2,2.5,3.3c3.9,4.6,8.9,8.3,14.5,10.7c1.9,0.9,3.9,1.5,6,2.1
			c2.8,0.7,5.7,1.1,8.6,1.2c0.4,0,0.8,0,1.2,0c1,0,1.9-0.1,2.8-0.1c10.8-0.8,20.9-6,27.8-14.3c0.9-1.1,1.7-2.2,2.4-3.3
			c3.9-5.9,6.2-12.8,6.6-19.9c0-0.7,0.1-1.3,0.1-2S138.4,38.4,138.4,37.7z M79.7,9.6c-0.7,2-1.4,4.2-2,6.4c-1.5-0.4-3-0.8-4.4-1.3
			C75.2,12.7,77.4,11,79.7,9.6z M70.5,17.9c2,0.7,4.1,1.3,6.3,1.9c-1.2,5.9-1.8,11.9-1.9,17.9H63.1C63.5,30.5,66.1,23.6,70.5,17.9z
			 M69.8,60.6c-4-5.5-6.4-12.1-6.8-18.9h11.8c0.1,5.6,0.8,11.3,1.9,16.8C74.4,59.1,72.1,59.8,69.8,60.6z M72.5,63.9
			c1.7-0.6,3.4-1.1,5.1-1.5c0.7,2.7,1.5,5.3,2.6,7.8C77.4,68.5,74.8,66.4,72.5,63.9z M97.5,75.4c-4-0.1-8-0.9-11.7-2.4
			c0-0.1-0.1-0.2-0.2-0.3c-1.7-3.6-3.1-7.3-4.1-11.2c5.3-1,10.6-1.6,16-1.7L97.5,75.4z M97.5,55.8c-5.7,0.1-11.3,0.7-16.9,1.8
			C79.5,52.4,79,47,78.8,41.7h18.7L97.5,55.8z M97.5,37.7H78.8c0.1-5.7,0.7-11.4,1.8-17c5.6,1.1,11.2,1.7,16.9,1.8L97.5,37.7z
			 M97.5,18.6c-5.4-0.1-10.7-0.7-16-1.7c0.9-3.5,2.1-6.9,3.6-10.2c3.9-1.6,8.1-2.5,12.4-2.7L97.5,18.6z M124.5,15.1
			c-1,0.3-2,0.6-3.1,0.9c-0.4-1.7-0.9-3.4-1.4-5C121.6,12.2,123.1,13.6,124.5,15.1L124.5,15.1z M101.5,4.1c4.4,0.3,8.8,1.5,12.8,3.5
			c1.3,3,2.4,6.1,3.2,9.2c-5.3,1-10.6,1.6-16,1.7L101.5,4.1z M101.5,22.5c5.7-0.1,11.3-0.7,16.9-1.8c1.1,5.6,1.7,11.3,1.8,17h-18.7
			L101.5,22.5z M113.7,72c-3.8,1.8-7.9,2.9-12.2,3.2V59.8c5.4,0.1,10.7,0.7,16,1.7C116.6,65.1,115.3,68.7,113.7,72L113.7,72z
			 M101.6,55.8V41.7h18.7c-0.1,5.3-0.7,10.7-1.8,15.9C112.9,56.5,107.2,55.9,101.6,55.8z M119.5,68.8c0.7-2,1.4-4.1,2-6.4
			c1.3,0.3,2.6,0.7,3.9,1.1C123.6,65.5,121.6,67.2,119.5,68.8L119.5,68.8z M128,60.2c-1.8-0.6-3.7-1.2-5.6-1.7
			c1.1-5.5,1.8-11.1,1.9-16.8h10.1C134,48.3,131.8,54.7,128,60.2z M124.3,37.7c-0.1-6-0.7-12-1.9-17.9c1.7-0.4,3.4-0.9,5-1.5
			c4.2,5.6,6.6,12.3,7,19.3L124.3,37.7z"/>
		<path class="st0" d="M120.5,220.8H77c-1.1,0-2-0.9-2-2s0.9-2,2-2h43.5c1.1,0,2,0.9,2,2S121.6,220.8,120.5,220.8L120.5,220.8z"/>
		<path d="M102.3,179.2c-1-0.7-2.3-1.1-3.5-1.1c-1.1,0-2.1,0.3-3.1,0.8C97.7,177.7,100.3,177.8,102.3,179.2z"/>
		<path class="st0" d="M155,93.7H42.5c-6.6,0-12,5.4-12,12V186c0,6.6,5.4,12,12,12h41.1l-12.3,21.3c-0.6,1-0.9,2.1-0.9,3.3
			c0.1,3.5,2.9,6.2,6.3,6.2h44c3.5,0,6.3-2.8,6.3-6.2c0-1.1-0.3-2.3-0.8-3.3L113.9,198H155c6.6,0,12-5.4,12-12v-80.3
			C167,99.1,161.6,93.7,155,93.7z M122.7,223.7c-0.4,0.7-1.2,1.2-2,1.2h-44c-1.3,0-2.3-1.1-2.3-2.4c0-0.4,0.1-0.8,0.3-1.1L88.2,198
			h21.1l13.4,23.3C123.2,222,123.2,222.9,122.7,223.7z M163,186c0,4.4-3.6,8-8,8H42.5c-4.4,0-8-3.6-8-8v-80.3c0-4.4,3.6-8,8-8H155
			c4.4,0,8,3.6,8,8V186z"/>
		<path class="st1" d="M48,103.8h100.8c3.9,0,7,3.1,7,7v70.2c0,3.9-3.1,7-7,7H48c-3.9,0-7-3.1-7-7v-70.2
			C41.1,106.9,44.2,103.8,48,103.8z"/>
		<circle class="st2" cx="51" cy="112.5" r="2.6"/>
		<path class="st2" d="M51,109.8c-1.4,0-2.6,1.2-2.6,2.6c0,1.4,1.2,2.6,2.6,2.6c1.4,0,2.6-1.2,2.6-2.6C53.6,111,52.5,109.8,51,109.8
			C51,109.8,51,109.8,51,109.8z"/>
		<circle class="st2" cx="60.7" cy="112.5" r="2.6"/>
		<path class="st2" d="M60.7,109.8c-1.4,0-2.6,1.2-2.6,2.6c0,1.4,1.2,2.6,2.6,2.6c1.4,0,2.6-1.2,2.6-2.6S62.1,109.8,60.7,109.8
			L60.7,109.8z"/>
		<circle class="st2" cx="70.4" cy="112.5" r="2.6"/>
		<path class="st2" d="M70.4,109.8c-1.4,0-2.6,1.2-2.6,2.6s1.2,2.6,2.6,2.6s2.6-1.2,2.6-2.6c0,0,0,0,0,0
			C73,111,71.8,109.8,70.4,109.8C70.4,109.8,70.4,109.8,70.4,109.8L70.4,109.8z"/>
		<path class="st2" d="M90.1,168.5c-1.1,0-2-0.9-2-2c0-0.5,0.2-1,0.6-1.4l25.1-25.1c0.8-0.8,2-0.8,2.8,0s0.8,2,0,2.8l-25.1,25.1
			C91.2,168.3,90.6,168.5,90.1,168.5z"/>
		<path class="st2" d="M90.1,152.4c-1.1,0-2-0.9-2-2c0-0.5,0.2-1,0.6-1.3l25.1-25.1c0.8-0.7,2.1-0.7,2.8,0.1c0.7,0.8,0.7,1.9,0,2.7
			l-25.1,25.1C91.2,152.2,90.7,152.4,90.1,152.4z"/>
		<path class="st2" d="M121,137.6c-0.5,0-1-0.2-1.4-0.6c-0.8-0.8-0.8-2,0-2.8c0,0,0,0,0,0l7.2-7.2c0.8-0.7,2.1-0.7,2.8,0.1
			c0.7,0.8,0.7,1.9,0,2.7l-7.2,7.2C122,137.4,121.5,137.6,121,137.6z"/>
		<path class="st0" d="M18.5,154.9H16c-1.4,0-2.5-1.1-2.5-2.5s1.1-2.5,2.5-2.5h2.5c1.4,0,2.5,1.1,2.5,2.5S19.9,154.9,18.5,154.9z"/>
		<path class="st0" d="M5,154.9H2.5c-1.4,0-2.5-1.1-2.5-2.5v-2.5c0-1.4,1.1-2.5,2.5-2.5s2.5,1.1,2.5,2.5c1.4,0,2.5,1.1,2.5,2.5
			S6.4,154.9,5,154.9z"/>
		<path class="st0" d="M2.5,141.8c-1.4,0-2.5-1.1-2.5-2.5V134c0-1.4,1.1-2.5,2.5-2.5S5,132.6,5,134v5.3C5,140.7,3.9,141.8,2.5,141.8
			C2.5,141.8,2.5,141.8,2.5,141.8z M2.5,126c-1.4,0-2.5-1.1-2.5-2.5v-5.3c0-1.4,1.1-2.5,2.5-2.5s2.5,1.1,2.5,2.5v5.3
			C5,124.9,3.9,126,2.5,126z M2.5,110.2c-1.4,0-2.5-1.1-2.5-2.5v-5.3c0-1.4,1.1-2.5,2.5-2.5S5,101,5,102.4v5.3
			C5,109,3.9,110.1,2.5,110.2L2.5,110.2z M2.5,94.3c-1.4,0-2.5-1.1-2.5-2.5c0,0,0,0,0,0v-5.3C0,85.1,1.1,84,2.5,84S5,85.1,5,86.5
			v5.3C5,93.1,3.9,94.3,2.5,94.3L2.5,94.3z M2.5,78.4c-1.4,0-2.5-1.1-2.5-2.5c0,0,0,0,0,0v-5.3c0-1.4,1.1-2.5,2.5-2.5S5,69.2,5,70.6
			v5.3C5,77.3,3.9,78.4,2.5,78.4L2.5,78.4z M2.5,62.6c-1.4,0-2.5-1.1-2.5-2.5c0,0,0,0,0,0v-5.3c0-1.4,1.1-2.5,2.5-2.5S5,53.4,5,54.8
			V60C5,61.4,3.9,62.5,2.5,62.6L2.5,62.6z"/>
		<path class="st0" d="M2.5,46.7c-1.4,0-2.5-1.1-2.5-2.5v-2.5c0-1.4,1.1-2.5,2.5-2.5H5c1.4,0,2.5,1.1,2.5,2.5S6.4,44.2,5,44.2
			C5,45.6,3.9,46.7,2.5,46.7z"/>
		<path class="st0" d="M30.4,44.2h-4.2c-1.4,0-2.5-1.1-2.5-2.5s1.1-2.5,2.5-2.5h4.2c1.4,0,2.5,1.1,2.5,2.5S31.8,44.2,30.4,44.2z
			 M17.7,44.2h-4.2c-1.4,0-2.5-1.1-2.5-2.5s1.1-2.5,2.5-2.5h4.2c1.4,0,2.5,1.1,2.5,2.5S19.1,44.2,17.7,44.2z"/>
		<path class="st0" d="M41.3,44.2h-2.5c-1.4,0-2.5-1.1-2.5-2.5s1.1-2.5,2.5-2.5h2.5c1.4,0,2.5,1.1,2.5,2.5S42.7,44.2,41.3,44.2z"/>
		<path class="st0" d="M181.5,154.9H179c-1.4,0-2.5-1.1-2.5-2.5s1.1-2.5,2.5-2.5h2.5c1.4,0,2.5,1.1,2.5,2.5S182.9,154.9,181.5,154.9
			L181.5,154.9z"/>
		<path class="st0" d="M195,154.9h-2.5c-1.4,0-2.5-1.1-2.5-2.5s1.1-2.5,2.5-2.5c0-1.4,1.1-2.5,2.5-2.5s2.5,1.1,2.5,2.5v2.5
			C197.5,153.8,196.4,154.9,195,154.9z"/>
		<path class="st0" d="M195,141.8c-1.4,0-2.5-1.1-2.5-2.5V134c0-1.4,1.1-2.5,2.5-2.5s2.5,1.1,2.5,2.5v5.3
			C197.5,140.7,196.4,141.8,195,141.8C195,141.8,195,141.8,195,141.8z M195,126c-1.4,0-2.5-1.1-2.5-2.5v-5.3c0-1.4,1.1-2.5,2.5-2.5
			s2.5,1.1,2.5,2.5v5.3C197.5,124.9,196.4,126,195,126z M195,110.2c-1.4,0-2.5-1.1-2.5-2.5v-5.3c0-1.4,1.1-2.5,2.5-2.5
			s2.5,1.1,2.5,2.5v5.3C197.5,109,196.4,110.1,195,110.2L195,110.2z M195,94.3c-1.4,0-2.5-1.1-2.5-2.5v-5.3c0-1.4,1.1-2.5,2.5-2.5
			s2.5,1.1,2.5,2.5v5.3C197.5,93.1,196.4,94.3,195,94.3L195,94.3z M195,78.4c-1.4,0-2.5-1.1-2.5-2.5v-5.3c0-1.4,1.1-2.5,2.5-2.5
			s2.5,1.1,2.5,2.5v5.3C197.5,77.3,196.4,78.4,195,78.4L195,78.4z M195,62.6c-1.4,0-2.5-1.1-2.5-2.5v-5.3c0-1.4,1.1-2.5,2.5-2.5
			s2.5,1.1,2.5,2.5V60C197.5,61.4,196.4,62.5,195,62.6L195,62.6z"/>
		<path class="st0" d="M195,46.7c-1.4,0-2.5-1.1-2.5-2.5c-1.4,0-2.5-1.1-2.5-2.5s1.1-2.5,2.5-2.5h2.5c1.4,0,2.5,1.1,2.5,2.5v2.5
			C197.5,45.6,196.4,46.7,195,46.7z"/>
		<path class="st0" d="M184,44.2h-4.2c-1.4,0-2.5-1.1-2.5-2.5s1.1-2.5,2.5-2.5h4.2c1.4,0,2.5,1.1,2.5,2.5S185.4,44.2,184,44.2z
			 M171.3,44.2h-4.2c-1.4,0-2.5-1.1-2.5-2.5s1.1-2.5,2.5-2.5h4.2c1.4,0,2.5,1.1,2.5,2.5S172.7,44.2,171.3,44.2z"/>
		<path class="st0" d="M158.6,44.2h-2.5c-1.4,0-2.5-1.1-2.5-2.5s1.1-2.5,2.5-2.5h2.5c1.4,0,2.5,1.1,2.5,2.5S160,44.2,158.6,44.2z"/>
		<polygon class="st0" points="47.5,41.7 35.2,31.7 35.2,51.7 		"/>
		<polygon class="st0" points="149.9,41.7 162.3,31.7 162.3,51.7 		"/>
	</g>
</g>
</svg>
