<?xml version="1.0" encoding="utf-8"?>
<!-- Generator: Adobe Illustrator 25.2.0, SVG Export Plug-In . SVG Version: 6.00 Build 0)  -->
<svg version="1.1" id="Layer_1" xmlns="http://www.w3.org/2000/svg" xmlns:xlink="http://www.w3.org/1999/xlink" x="0px" y="0px"
	 viewBox="0 0 250.3 298.8" style="enable-background:new 0 0 250.3 298.8;" xml:space="preserve">
<style type="text/css">
	.st0{fill:#13387E;stroke:#1F2C38;stroke-width:4;stroke-linecap:round;stroke-linejoin:round;}
	.st1{fill:none;stroke:#1F2C38;stroke-width:6;stroke-linecap:round;stroke-linejoin:round;}
</style>
<g id="Layer_2_1_">
	<g id="stroked">
		<polyline class="st0" points="46.8,173.8 46.8,124.9 75.6,124.9 75.6,219.9 		"/>
		<polyline class="st0" points="90.6,236.4 90.6,74.1 119.4,74.1 119.4,259.1 		"/>
		<polyline class="st0" points="163.2,229.6 163.2,116.4 134.3,116.4 134.3,255.6 		"/>
		<polyline class="st0" points="207,165.6 207,84 178.1,84 178.1,213.1 		"/>
		<path class="st1" d="M246.2,66l-121-63L4.2,66c-14.3,141.1,105.1,217.9,121,229.8C141,283.9,260.4,207.1,246.2,66z M125.2,265.1
			c-12.4-9.3-105.9-74.4-94.7-184.8l94.7-47.6l94.7,47.6C231,190.7,137.6,255.8,125.2,265.1L125.2,265.1z"/>
	</g>
</g>
</svg>
