<?xml version="1.0" encoding="utf-8"?>
<!-- Generator: Adobe Illustrator 25.2.0, SVG Export Plug-In . SVG Version: 6.00 Build 0)  -->
<svg version="1.1" id="Layer_1" xmlns="http://www.w3.org/2000/svg" xmlns:xlink="http://www.w3.org/1999/xlink" x="0px" y="0px"
	 viewBox="0 0 283.2 225.3" style="enable-background:new 0 0 283.2 225.3;" xml:space="preserve">
<style type="text/css">
	.st0{fill:none;stroke:#1F2C38;stroke-width:6;stroke-miterlimit:10;}
	.st1{fill:#1F2C38;}
	.st2{fill:none;stroke:#202C38;stroke-width:6;stroke-linecap:round;stroke-linejoin:round;}
	.st3{fill:#13387E;}
	.st4{fill:none;stroke:#1F2C38;stroke-width:6;stroke-linecap:round;stroke-linejoin:round;}
	.st5{fill:#FFFFFF;}
	.st6{fill:none;stroke:#1F2C38;stroke-width:4;stroke-linecap:round;stroke-linejoin:round;}
</style>
<g id="Layer_2_1_">
	<g id="stroked">
		<path class="st0" d="M7,3h220.8c2.2,0,4,1.8,4,4v39.5c0,2.2-1.8,4-4,4H7c-2.2,0-4-1.8-4-4V7C3,4.8,4.8,3,7,3z"/>
		<circle class="st1" cx="23.8" cy="26.3" r="4.2"/>
		<circle class="st1" cx="195" cy="26.3" r="4.2"/>
		<circle class="st1" cx="210.5" cy="26.3" r="4.2"/>
		<line class="st2" x1="39.3" y1="26.3" x2="176.1" y2="26.3"/>
		<path class="st0" d="M7,70.9h220.8c2.2,0,4,1.8,4,4v39.5c0,2.2-1.8,4-4,4H7c-2.2,0-4-1.8-4-4V74.9C3,72.7,4.8,70.9,7,70.9z"/>
		<circle class="st1" cx="23.8" cy="94.2" r="4.2"/>
		<circle class="st1" cx="195" cy="94.2" r="4.2"/>
		<circle class="st1" cx="210.5" cy="94.2" r="4.2"/>
		<line class="st2" x1="39.3" y1="94.2" x2="176.1" y2="94.2"/>
		<path class="st0" d="M165.5,186.2H7c-2.2,0-4-1.8-4-4v-39.5c0-2.2,1.8-4,4-4h159.3"/>
		<circle class="st1" cx="23.8" cy="162.1" r="4.2"/>
		<line class="st2" x1="39.3" y1="162.1" x2="161.3" y2="162.1"/>
		<path class="st3" d="M261.8,205.3V152h-17.2v65.4c-4.4,1.9-9,3.3-13.7,4.1l-0.1-0.6v-38.7h-17.2v38.3l-0.2,1.5
			c-5.3-0.6-10.4-2-15.3-4v-0.1v-52.5H181v40l-1.2,0.6c-23.8-22.6-24.7-60.3-2-84s60.3-24.7,84-2s24.7,60.3,2,84
			c-0.6,0.6-1.1,1.2-1.7,1.7L261.8,205.3z"/>
		<path class="st0" d="M179.8,205.9c-23.8-22.7-24.7-60.3-2.1-84.1s60.3-24.7,84.1-2.1s24.7,60.3,2.1,84.1
			c-11.2,11.8-26.8,18.5-43.1,18.5c-7.8,0-15.5-1.5-22.6-4.5C191.3,215,185.1,211,179.8,205.9z"/>
		<polyline class="st4" points="181,205.3 181,165.3 198.2,165.3 198.2,217.8 		"/>
		<polyline class="st4" points="261.8,205.3 261.8,152 244.6,152 244.6,217.3 244.6,217.8 		"/>
		<polyline class="st4" points="213.6,220.4 213.6,182.1 230.9,182.1 230.9,220.8 		"/>
		<path class="st5" d="M221.7,172.8c-4.5-0.1-8.1-3.7-8-8.2c0.1-4.2,3.3-7.6,7.4-8h0.6c4.2,0,7.7,3.3,8.1,7.5c0.3,4.5-3,8.3-7.5,8.7
			H221.7z"/>
		<path class="st1" d="M221.7,158.6c3.4-0.1,6.1,2.6,6.2,6c0.1,3.3-2.5,6-5.8,6.2h-0.4c-3.4,0.1-6.1-2.6-6.2-6
			c-0.1-3.3,2.5-6,5.8-6.2H221.7 M221.7,154.6L221.7,154.6c-0.2,0-0.5,0-0.7,0c-5.6,0.3-9.8,5.1-9.4,10.7c0.3,5.4,4.8,9.5,10.2,9.5
			c0.2,0,0.5,0,0.7,0c5.6-0.4,9.7-5.2,9.3-10.8c0,0,0,0,0,0C231.4,158.7,227,154.7,221.7,154.6z"/>
		<path class="st5" d="M189.5,153.1c-4.2,0-7.7-3.3-8.1-7.5c-0.3-4.5,3-8.3,7.5-8.7h0.6c4.2,0,7.7,3.3,8.1,7.5
			c0.3,4.5-3,8.3-7.5,8.7H189.5z"/>
		<path class="st1" d="M189.5,138.9c3.4-0.1,6.1,2.6,6.2,6c0.1,3.3-2.5,6-5.8,6.2h-0.4c-3.4,0.1-6.1-2.6-6.2-6
			c-0.1-3.3,2.5-6,5.8-6.2H189.5 M189.5,134.9L189.5,134.9c-0.2,0-0.5,0-0.7,0c-5.6,0.3-9.8,5.1-9.4,10.7c0.3,5.4,4.8,9.5,10.2,9.5
			c0.2,0,0.5,0,0.7,0c5.6-0.4,9.7-5.2,9.3-10.8c0,0,0,0,0,0C199.2,139,194.8,134.9,189.5,134.9z"/>
		<path class="st5" d="M251.9,144.1c-4.5,0-8.1-3.6-8.1-8.1c0-4.3,3.3-7.8,7.5-8.1c0.2,0,0.4,0,0.6,0c4.5,0,8.1,3.6,8.1,8.1
			c0,4.3-3.3,7.8-7.5,8.1C252.3,144.1,252.1,144.1,251.9,144.1z"/>
		<path class="st1" d="M251.9,129.9c3.4-0.1,6.1,2.6,6.2,6c0.1,3.3-2.5,6-5.8,6.2h-0.4c-3.4,0.1-6.1-2.6-6.2-6
			c-0.1-3.3,2.5-6,5.8-6.2H251.9 M251.9,125.9L251.9,125.9h-0.7c-5.6,0.3-9.8,5.1-9.4,10.7c0.3,5.4,4.8,9.5,10.2,9.5
			c0.2,0,0.5,0,0.7,0c5.6-0.3,9.8-5.1,9.4-10.7C261.8,130,257.3,125.9,251.9,125.9z"/>
		<line class="st6" x1="199" y1="148.4" x2="214.8" y2="160.3"/>
		<line class="st6" x1="230" y1="159.3" x2="244.2" y2="140.4"/>
	</g>
</g>
</svg>
